<svg xmlns="http://www.w3.org/2000/svg" viewBox="0 0 355.81 318.22"><defs><style>.cls-1{fill:#f15b22;}.cls-2{fill:#fff;}.cls-3{fill:#9f2a21;}</style></defs><g id="Layer_2" data-name="Layer 2"><g id="sketch_fox" data-name="sketch fox"><path class="cls-1" d="M83.05,36.16C69,40.24-21.18,163.87,117.18,102.67c0,0,49.11-31,81.85-71,0,0,13.47-11.53,57.63-12.07,0,0,39-23.52,70.92-19,0,0-12.85,19-15.67,19.81,0,0,31.18-24.29,43.9-17.28,0,0-54.11,40.1-12.23,84.53,0,0,3.7,7.74-10.58,7.9a4,4,0,0,1-1.67-.34c-8.42-3.62-83-34.13-102.83,12,0,0,68.1-18.16,56.95,27.85,0,0-15.6,41.18-29.07,52.71,0,0,15.31-68.6-52.34-38.34,0,0-66.69,17.75-84.72,119.23l-2.47,49.61S71,223,100.09,181l22.59-25.9S109.47,169.74,95,176.25c-5.9,2.66-11.56,5.78-17.31,6.59,0,0-87.14,14.79-76.87-70.35C.84,112.49,12.47,35.17,83.05,36.16Z"/><ellipse class="cls-2" cx="312.62" cy="54.57" rx="3.67" ry="8.81" transform="translate(78.87 269.21) rotate(-52.46)"/><path class="cls-3" d="M225.86,142.31s-104.64,31.84-109,175.7C116.81,318,104.44,169.2,225.86,142.31Z"/></g></g></svg>