<svg width="1537" height="1229" viewBox="0 0 1537 1229" fill="none" xmlns="http://www.w3.org/2000/svg">
<rect width="1537" height="1229" fill="#1E3341"/>
<path d="M530.783 881.532C533.677 881.532 536.415 880.931 538.839 879.728C541.342 878.525 543.689 876.72 546.035 874.239L558.784 886.945C555.265 890.855 550.884 893.862 545.8 896.043C540.638 898.223 535.319 899.276 529.766 899.276C524.526 899.276 519.676 898.374 515.14 896.569C510.603 894.765 506.693 892.359 503.329 889.201C500.044 886.043 497.385 882.359 495.508 878.149C493.63 873.938 492.692 869.277 492.692 864.39C492.692 859.428 493.63 854.841 495.508 850.556C497.385 846.27 500.044 842.586 503.329 839.503C506.614 836.421 510.603 833.94 515.14 832.135C519.676 830.331 524.604 829.429 529.766 829.429C535.476 829.429 540.951 830.556 546.191 832.737C551.432 834.917 555.812 838 559.41 841.909L546.27 855.067C543.767 852.435 541.264 850.481 538.683 849.202C536.102 847.924 533.286 847.323 530.235 847.323C525.621 847.323 521.788 848.977 518.66 852.285C515.531 855.593 513.967 859.653 513.967 864.54C513.967 869.352 515.609 873.412 518.816 876.72C522.023 879.953 526.012 881.532 530.783 881.532Z" fill="white"/>
<path d="M561.444 864.465C561.444 859.653 562.46 855.067 564.416 850.781C566.371 846.496 569.109 842.812 572.472 839.654C575.835 836.496 579.903 834.015 584.517 832.211C589.132 830.406 594.138 829.504 599.457 829.504C604.775 829.504 609.703 830.406 614.396 832.211C619.01 834.015 623.078 836.496 626.441 839.654C629.804 842.812 632.542 846.496 634.497 850.781C636.453 855.067 637.469 859.653 637.469 864.465C637.469 869.277 636.453 873.863 634.497 878.149C632.542 882.434 629.804 886.194 626.441 889.276C622.999 892.434 619.01 894.915 614.396 896.644C609.781 898.374 604.775 899.351 599.457 899.351C594.138 899.351 589.21 898.449 584.517 896.644C579.903 894.84 575.835 892.434 572.472 889.276C569.031 886.118 566.371 882.434 564.416 878.149C562.382 873.863 561.444 869.352 561.444 864.465ZM599.457 881.532C604.228 881.532 608.295 879.878 611.58 876.57C614.865 873.262 616.586 869.202 616.586 864.465C616.586 859.653 614.943 855.518 611.58 852.21C608.295 848.902 604.228 847.248 599.457 847.248C594.685 847.248 590.618 848.902 587.333 852.21C584.048 855.518 582.327 859.578 582.327 864.465C582.327 869.202 583.97 873.262 587.333 876.57C590.618 879.878 594.685 881.532 599.457 881.532Z" fill="white"/>
<path d="M647.559 898.148V830.707H669.069V837.473C671.337 834.842 674.074 832.812 677.125 831.383C680.254 829.955 683.695 829.203 687.449 829.203C689.483 829.278 691.126 829.429 692.377 829.654C693.628 829.88 694.645 830.256 695.584 830.857V848.826C694.176 848.225 692.612 847.774 690.813 847.398C689.014 847.022 687.215 846.796 685.416 846.796C682.052 846.796 678.924 847.548 676.108 849.127C673.214 850.631 670.946 852.736 669.147 855.368V898.148H647.559Z" fill="white"/>
<path d="M766.525 889.201C762.067 892.735 757.609 895.366 752.916 896.945C748.223 898.524 743.061 899.351 737.194 899.351C731.876 899.351 726.87 898.449 722.177 896.644C717.484 894.84 713.417 892.434 710.054 889.276C706.612 886.118 703.953 882.434 701.997 878.149C700.042 873.863 699.025 869.277 699.025 864.465C699.025 859.653 699.964 855.067 701.841 850.781C703.718 846.496 706.299 842.812 709.584 839.654C712.869 836.496 716.702 834.015 721.16 832.286C725.619 830.481 730.39 829.579 735.552 829.579C740.714 829.579 745.407 830.481 749.709 832.361C754.011 834.241 757.765 836.797 760.894 840.03C764.022 843.263 766.447 847.172 768.246 851.684C770.045 856.195 770.905 861.157 770.905 866.42V871.532H720.926C722.333 874.69 724.524 877.246 727.574 879.276C730.546 881.306 734.144 882.284 738.211 882.284C741.105 882.284 743.765 881.833 746.189 880.931C748.614 880.028 750.569 878.75 752.29 877.171L766.525 889.201ZM735.239 846.421C731.719 846.421 728.669 847.323 726.088 849.202C723.507 851.082 721.708 853.714 720.691 857.097H750.022C748.849 853.864 746.971 851.308 744.39 849.353C741.653 847.398 738.681 846.421 735.239 846.421Z" fill="white"/>
<path d="M781.073 898.148V830.707H802.583V835.068C805.086 833.188 807.745 831.835 810.717 830.857C813.69 829.955 816.818 829.429 820.025 829.429C824.327 829.429 828.316 830.256 831.914 831.91C835.512 833.564 838.484 835.819 840.83 838.752C843.646 835.744 847.009 833.489 850.92 831.835C854.831 830.256 859.055 829.429 863.669 829.429C871.647 829.429 878.139 831.985 883.223 837.098C888.307 842.21 890.81 848.676 890.81 856.571V898.148H869.301V859.352C869.301 855.668 868.284 852.736 866.172 850.481C864.061 848.225 861.323 847.097 857.881 847.097C855.457 847.097 853.345 847.548 851.39 848.451C849.434 849.353 847.792 850.631 846.384 852.21C846.462 852.886 846.54 853.563 846.618 854.315C846.697 855.067 846.697 855.744 846.697 856.571V898.148H825.187V859.352C825.187 855.668 824.17 852.736 822.059 850.481C819.947 848.225 817.209 847.097 813.768 847.097C811.343 847.097 809.231 847.473 807.354 848.3C805.477 849.127 803.834 850.33 802.505 851.909V898.073H781.073V898.148Z" fill="white"/>
<path d="M925.929 899.276C918.499 899.276 912.398 897.321 907.627 893.411C902.856 889.502 900.431 884.464 900.431 878.374C900.431 871.984 902.934 867.021 908.018 863.488C913.102 859.954 920.22 858.149 929.293 858.149C932.03 858.149 934.689 858.3 937.349 858.676C940.008 859.052 942.589 859.503 945.17 860.104V856.796C945.17 853.413 944.075 850.856 941.807 849.202C939.539 847.548 936.254 846.721 931.796 846.721C929.058 846.721 925.929 847.172 922.488 847.999C919.046 848.826 915.057 850.18 910.521 852.059L902.856 836.872C908.487 834.391 914.04 832.586 919.516 831.308C924.912 830.105 930.309 829.429 935.628 829.429C945.327 829.429 952.914 831.684 958.311 836.12C963.708 840.556 966.367 846.872 966.367 854.916V898.148H945.17V894.088C942.355 895.968 939.382 897.321 936.254 898.073C933.203 898.9 929.762 899.276 925.929 899.276ZM920.924 877.998C920.924 880.104 921.862 881.758 923.817 882.961C925.773 884.164 928.432 884.765 931.874 884.765C934.455 884.765 936.88 884.539 939.07 884.013C941.338 883.487 943.371 882.66 945.249 881.607V872.886C943.215 872.359 941.103 871.984 938.991 871.758C936.88 871.532 934.689 871.382 932.499 871.382C928.823 871.382 925.929 871.984 923.896 873.111C921.94 874.239 920.924 875.893 920.924 877.998Z" fill="white"/>
<path d="M979.272 898.148V830.707H1000.78V835.293C1003.36 833.414 1006.26 831.985 1009.46 830.932C1012.67 829.88 1016.03 829.429 1019.63 829.429C1027.84 829.429 1034.57 831.985 1039.81 837.098C1045.05 842.21 1047.63 848.676 1047.63 856.571V898.148H1026.12V859.352C1026.12 855.668 1024.95 852.736 1022.6 850.481C1020.26 848.225 1017.21 847.097 1013.37 847.097C1010.64 847.097 1008.21 847.548 1006.1 848.526C1003.99 849.428 1002.19 850.781 1000.78 852.511V898.148H979.272Z" fill="white"/>
<path d="M498.558 934.312C497.15 933.56 496.133 932.583 495.351 931.305C494.569 930.027 494.178 928.598 494.178 927.019C494.178 925.44 494.569 924.012 495.351 922.734C496.133 921.456 497.228 920.478 498.558 919.726C499.888 918.975 501.452 918.674 503.173 918.674C504.581 918.674 505.832 918.899 506.927 919.35C508.1 919.802 509.039 920.478 509.821 921.38L507.788 923.185C506.536 921.907 505.05 921.305 503.251 921.305C502.078 921.305 501.061 921.531 500.122 922.057C499.184 922.508 498.48 923.185 498.011 924.087C497.463 924.989 497.228 925.967 497.228 927.019C497.228 928.147 497.463 929.125 498.011 929.952C498.558 930.854 499.262 931.455 500.122 931.982C501.061 932.433 502.078 932.733 503.251 932.733C505.05 932.733 506.536 932.057 507.788 930.779L509.821 932.658C509.039 933.56 508.1 934.237 506.927 934.688C505.754 935.139 504.502 935.365 503.095 935.365C501.452 935.44 499.888 935.064 498.558 934.312Z" fill="white"/>
<path d="M515.687 934.312C514.279 933.56 513.184 932.583 512.402 931.305C511.62 930.027 511.229 928.598 511.229 927.019C511.229 925.44 511.62 924.012 512.402 922.734C513.184 921.456 514.279 920.478 515.687 919.726C517.095 918.975 518.581 918.674 520.302 918.674C522.023 918.674 523.587 919.05 524.917 919.726C526.325 920.478 527.42 921.456 528.202 922.734C528.984 924.012 529.375 925.44 529.375 927.019C529.375 928.598 528.984 930.027 528.202 931.305C527.42 932.583 526.325 933.56 524.917 934.312C523.509 935.064 522.023 935.365 520.302 935.365C518.66 935.44 517.095 935.064 515.687 934.312ZM523.431 932.057C524.291 931.606 525.073 930.854 525.543 930.027C526.09 929.125 526.325 928.147 526.325 927.095C526.325 926.042 526.09 925.065 525.543 924.162C524.995 923.26 524.291 922.583 523.431 922.132C522.492 921.681 521.554 921.38 520.38 921.38C519.285 921.38 518.268 921.606 517.33 922.132C516.391 922.583 515.687 923.335 515.218 924.162C514.671 925.065 514.436 926.042 514.436 927.095C514.436 928.147 514.671 929.125 515.218 930.027C515.766 930.929 516.47 931.606 517.33 932.057C518.268 932.508 519.207 932.809 520.38 932.809C521.475 932.809 522.492 932.508 523.431 932.057Z" fill="white"/>
<path d="M547.756 918.975V935.215H545.175L535.867 924.238V935.215H532.738V918.975H535.319L544.627 929.952V918.975H547.756Z" fill="white"/>
<path d="M553.779 934.914C552.527 934.538 551.588 934.087 550.885 933.485L551.98 931.155C552.684 931.681 553.544 932.132 554.561 932.433C555.577 932.733 556.594 932.959 557.611 932.959C558.863 932.959 559.801 932.733 560.427 932.358C561.053 931.982 561.365 931.455 561.365 930.854C561.365 930.403 561.209 930.027 560.818 929.726C560.505 929.425 560.036 929.2 559.488 929.049C558.941 928.899 558.237 928.673 557.298 928.448C556.047 928.147 554.952 927.846 554.17 927.546C553.387 927.245 552.684 926.794 552.136 926.192C551.588 925.591 551.276 924.689 551.276 923.636C551.276 922.734 551.51 921.907 552.058 921.155C552.527 920.403 553.309 919.802 554.326 919.426C555.343 918.975 556.594 918.749 558.08 918.749C559.097 918.749 560.114 918.899 561.131 919.125C562.148 919.351 563.008 919.726 563.712 920.178L562.695 922.508C561.991 922.057 561.209 921.756 560.349 921.531C559.567 921.305 558.784 921.23 558.002 921.23C556.751 921.23 555.812 921.456 555.265 921.832C554.639 922.208 554.326 922.734 554.326 923.411C554.326 923.862 554.482 924.238 554.874 924.538C555.186 924.839 555.656 925.065 556.203 925.215C556.751 925.365 557.455 925.591 558.393 925.816C559.645 926.117 560.662 926.418 561.444 926.719C562.226 927.019 562.93 927.471 563.477 928.072C564.025 928.673 564.338 929.501 564.338 930.553C564.338 931.455 564.103 932.282 563.555 932.959C563.008 933.636 562.304 934.237 561.287 934.688C560.27 935.139 559.019 935.365 557.533 935.365C556.203 935.44 554.952 935.215 553.779 934.914Z" fill="white"/>
<path d="M570.673 921.531H565.12V918.975H579.433V921.531H573.88V935.215H570.751V921.531H570.673Z" fill="white"/>
<path d="M592.73 935.215L589.288 930.478C589.132 930.478 588.897 930.478 588.663 930.478H584.83V935.215H581.701V918.975H588.663C590.149 918.975 591.4 919.2 592.495 919.651C593.59 920.102 594.372 920.779 594.998 921.606C595.546 922.508 595.858 923.486 595.858 924.689C595.858 925.892 595.546 926.944 594.92 927.846C594.294 928.749 593.434 929.35 592.261 929.801L596.171 935.139H592.73V935.215ZM591.635 922.358C590.931 921.832 589.914 921.531 588.506 921.531H584.83V927.997H588.506C589.836 927.997 590.931 927.696 591.635 927.17C592.339 926.568 592.73 925.816 592.73 924.764C592.652 923.711 592.339 922.884 591.635 922.358Z" fill="white"/>
<path d="M601.177 933.561C599.848 932.282 599.222 930.478 599.222 928.147V918.975H602.351V927.997C602.351 931.155 603.758 932.733 606.652 932.733C609.468 932.733 610.954 931.155 610.954 927.997V918.975H614.005V928.147C614.005 930.478 613.379 932.282 612.049 933.561C610.72 934.839 608.921 935.44 606.652 935.44C604.384 935.44 602.429 934.764 601.177 933.561Z" fill="white"/>
<path d="M621.513 934.312C620.105 933.56 619.089 932.583 618.307 931.305C617.524 930.027 617.133 928.598 617.133 927.019C617.133 925.44 617.524 924.012 618.307 922.734C619.089 921.456 620.184 920.478 621.513 919.726C622.843 918.975 624.407 918.674 626.128 918.674C627.536 918.674 628.787 918.899 629.882 919.35C631.056 919.802 631.994 920.478 632.776 921.38L630.743 923.185C629.491 921.907 628.005 921.305 626.206 921.305C625.033 921.305 624.016 921.531 623.078 922.057C622.139 922.508 621.435 923.185 620.966 924.087C620.418 924.989 620.184 925.967 620.184 927.019C620.184 928.147 620.418 929.125 620.966 929.952C621.513 930.854 622.217 931.455 623.078 931.982C624.016 932.433 625.033 932.733 626.206 932.733C628.005 932.733 629.491 932.057 630.743 930.779L632.776 932.658C631.994 933.56 631.056 934.237 629.882 934.688C628.709 935.139 627.458 935.365 626.05 935.365C624.486 935.44 622.921 935.064 621.513 934.312Z" fill="white"/>
<path d="M639.112 921.531H633.559V918.975H647.872V921.531H642.319V935.215H639.19V921.531H639.112Z" fill="white"/>
<path d="M650.219 918.975H653.347V935.215H650.219V918.975Z" fill="white"/>
<path d="M661.091 934.312C659.683 933.56 658.588 932.583 657.806 931.305C657.023 930.027 656.632 928.598 656.632 927.019C656.632 925.44 657.023 924.012 657.806 922.734C658.588 921.456 659.683 920.478 661.091 919.726C662.499 918.975 663.985 918.674 665.705 918.674C667.426 918.674 668.99 919.05 670.32 919.726C671.728 920.478 672.823 921.456 673.605 922.734C674.387 924.012 674.778 925.44 674.778 927.019C674.778 928.598 674.387 930.027 673.605 931.305C672.823 932.583 671.728 933.56 670.32 934.312C668.912 935.064 667.426 935.365 665.705 935.365C664.063 935.44 662.499 935.064 661.091 934.312ZM668.834 932.057C669.694 931.606 670.477 930.854 670.946 930.027C671.493 929.125 671.728 928.147 671.728 927.095C671.728 926.042 671.493 925.065 670.946 924.162C670.398 923.26 669.694 922.583 668.834 922.132C667.895 921.681 666.957 921.38 665.784 921.38C664.689 921.38 663.672 921.606 662.733 922.132C661.795 922.583 661.091 923.335 660.621 924.162C660.074 925.065 659.839 926.042 659.839 927.095C659.839 928.147 660.074 929.125 660.621 930.027C661.169 930.929 661.873 931.606 662.733 932.057C663.672 932.508 664.61 932.809 665.784 932.809C666.879 932.809 667.895 932.508 668.834 932.057Z" fill="white"/>
<path d="M693.159 918.975V935.215H690.578L681.27 924.238V935.215H678.142V918.975H680.723L690.03 929.952V918.975H693.159Z" fill="white"/>
<path d="M715.372 935.215L711.931 930.478C711.775 930.478 711.54 930.478 711.305 930.478H707.473V935.215H704.344V918.975H711.305C712.791 918.975 714.043 919.2 715.138 919.651C716.233 920.102 717.015 920.779 717.641 921.606C718.188 922.508 718.501 923.486 718.501 924.689C718.501 925.892 718.188 926.944 717.562 927.846C716.937 928.749 716.076 929.35 714.903 929.801L718.814 935.139H715.372V935.215ZM714.277 922.358C713.573 921.832 712.557 921.531 711.149 921.531H707.473V927.997H711.149C712.478 927.997 713.573 927.696 714.277 927.17C714.981 926.568 715.372 925.816 715.372 924.764C715.294 923.711 714.981 922.884 714.277 922.358Z" fill="white"/>
<path d="M734.613 932.658V935.215H721.942V918.975H734.222V921.531H725.071V925.741H733.205V928.222H725.071V932.658H734.613V932.658Z" fill="white"/>
<path d="M739.541 934.914C738.29 934.538 737.351 934.087 736.647 933.485L737.742 931.155C738.446 931.681 739.306 932.132 740.323 932.433C741.34 932.733 742.357 932.959 743.374 932.959C744.625 932.959 745.564 932.733 746.189 932.358C746.815 931.982 747.128 931.455 747.128 930.854C747.128 930.403 746.971 930.027 746.58 929.726C746.268 929.425 745.798 929.2 745.251 929.049C744.703 928.899 743.999 928.673 743.061 928.448C741.809 928.147 740.714 927.846 739.932 927.546C739.15 927.245 738.446 926.794 737.898 926.192C737.351 925.591 737.038 924.689 737.038 923.636C737.038 922.734 737.273 921.907 737.82 921.155C738.29 920.403 739.072 919.802 740.088 919.426C741.105 918.975 742.357 918.749 743.843 918.749C744.86 918.749 745.876 918.899 746.893 919.125C747.91 919.351 748.77 919.726 749.474 920.178L748.458 922.508C747.754 922.057 746.971 921.756 746.111 921.531C745.329 921.305 744.547 921.23 743.765 921.23C742.513 921.23 741.575 921.456 741.027 921.832C740.401 922.208 740.088 922.734 740.088 923.411C740.088 923.862 740.245 924.238 740.636 924.538C740.949 924.839 741.418 925.065 741.966 925.215C742.513 925.365 743.217 925.591 744.156 925.816C745.407 926.117 746.424 926.418 747.206 926.719C747.988 927.019 748.692 927.471 749.24 928.072C749.787 928.673 750.1 929.501 750.1 930.553C750.1 931.455 749.865 932.282 749.318 932.959C748.77 933.636 748.066 934.237 747.05 934.688C746.033 935.139 744.781 935.365 743.295 935.365C742.044 935.44 740.792 935.215 739.541 934.914Z" fill="white"/>
<path d="M756.514 934.312C755.106 933.56 754.011 932.583 753.229 931.305C752.447 930.027 752.056 928.598 752.056 927.019C752.056 925.44 752.447 924.012 753.229 922.734C754.011 921.456 755.106 920.478 756.514 919.726C757.922 918.975 759.408 918.674 761.129 918.674C762.849 918.674 764.414 919.05 765.743 919.726C767.151 920.478 768.246 921.456 769.029 922.734C769.811 924.012 770.202 925.44 770.202 927.019C770.202 928.598 769.811 930.027 769.029 931.305C768.246 932.583 767.151 933.56 765.743 934.312C764.336 935.064 762.849 935.365 761.129 935.365C759.408 935.44 757.844 935.064 756.514 934.312ZM764.179 932.057C765.039 931.606 765.822 930.854 766.291 930.027C766.838 929.125 767.073 928.147 767.073 927.095C767.073 926.042 766.838 925.065 766.291 924.162C765.743 923.26 765.039 922.583 764.179 922.132C763.241 921.681 762.302 921.38 761.129 921.38C760.034 921.38 759.017 921.606 758.078 922.132C757.14 922.583 756.436 923.335 755.966 924.162C755.419 925.065 755.184 926.042 755.184 927.095C755.184 928.147 755.419 929.125 755.966 930.027C756.514 930.929 757.218 931.606 758.078 932.057C759.017 932.508 759.955 932.809 761.129 932.809C762.302 932.809 763.319 932.508 764.179 932.057Z" fill="white"/>
<path d="M775.364 933.561C774.034 932.282 773.408 930.478 773.408 928.147V918.975H776.537V927.997C776.537 931.155 777.945 932.733 780.839 932.733C783.655 932.733 785.141 931.155 785.141 927.997V918.975H788.191V928.147C788.191 930.478 787.566 932.282 786.236 933.561C784.906 934.839 783.107 935.44 780.839 935.44C778.571 935.44 776.694 934.764 775.364 933.561Z" fill="white"/>
<path d="M803.6 935.215L800.158 930.478C800.002 930.478 799.767 930.478 799.533 930.478H795.7V935.215H792.571V918.975H799.533C801.019 918.975 802.27 919.2 803.365 919.651C804.46 920.102 805.242 920.779 805.868 921.606C806.415 922.508 806.728 923.486 806.728 924.689C806.728 925.892 806.416 926.944 805.79 927.846C805.164 928.749 804.304 929.35 803.13 929.801L807.041 935.139H803.6V935.215ZM802.505 922.358C801.801 921.832 800.784 921.531 799.376 921.531H795.7V927.997H799.376C800.706 927.997 801.801 927.696 802.505 927.17C803.209 926.568 803.6 925.816 803.6 924.764C803.522 923.711 803.209 922.884 802.505 922.358Z" fill="white"/>
<path d="M813.377 934.312C811.969 933.56 810.952 932.583 810.17 931.305C809.388 930.027 808.997 928.598 808.997 927.019C808.997 925.44 809.388 924.012 810.17 922.734C810.952 921.456 812.047 920.478 813.377 919.726C814.706 918.975 816.271 918.674 817.991 918.674C819.399 918.674 820.651 918.899 821.746 919.35C822.919 919.802 823.858 920.478 824.64 921.38L822.606 923.185C821.355 921.907 819.869 921.305 818.07 921.305C816.896 921.305 815.88 921.531 814.941 922.057C814.002 922.508 813.298 923.185 812.829 924.087C812.282 924.989 812.047 925.967 812.047 927.019C812.047 928.147 812.282 929.125 812.829 929.952C813.377 930.854 814.081 931.455 814.941 931.982C815.88 932.433 816.896 932.733 818.07 932.733C819.869 932.733 821.355 932.057 822.606 930.779L824.64 932.658C823.858 933.56 822.919 934.237 821.746 934.688C820.573 935.139 819.321 935.365 817.913 935.365C816.271 935.44 814.785 935.064 813.377 934.312Z" fill="white"/>
<path d="M840.361 932.658V935.215H827.69V918.975H839.97V921.531H830.819V925.741H838.953V928.222H830.819V932.658H840.361V932.658Z" fill="white"/>
<path d="M845.289 934.914C844.037 934.538 843.099 934.087 842.395 933.485L843.49 931.155C844.194 931.681 845.054 932.132 846.071 932.433C847.088 932.733 848.105 932.959 849.121 932.959C850.373 932.959 851.311 932.733 851.937 932.358C852.563 931.982 852.876 931.455 852.876 930.854C852.876 930.403 852.719 930.027 852.328 929.726C852.015 929.425 851.546 929.2 850.999 929.049C850.451 928.899 849.747 928.673 848.808 928.448C847.557 928.147 846.462 927.846 845.68 927.546C844.898 927.245 844.194 926.794 843.646 926.192C843.099 925.591 842.786 924.689 842.786 923.636C842.786 922.734 843.021 921.907 843.568 921.155C844.037 920.403 844.819 919.802 845.836 919.426C846.853 918.975 848.104 918.749 849.591 918.749C850.607 918.749 851.624 918.899 852.641 919.125C853.658 919.351 854.518 919.726 855.222 920.178L854.205 922.508C853.501 922.057 852.719 921.756 851.859 921.531C851.077 921.305 850.295 921.23 849.512 921.23C848.261 921.23 847.322 921.456 846.775 921.832C846.149 922.208 845.836 922.734 845.836 923.411C845.836 923.862 845.993 924.238 846.384 924.538C846.697 924.839 847.166 925.065 847.713 925.215C848.261 925.365 848.965 925.591 849.903 925.816C851.155 926.117 852.172 926.418 852.954 926.719C853.736 927.019 854.44 927.471 854.988 928.072C855.535 928.673 855.848 929.501 855.848 930.553C855.848 931.455 855.613 932.282 855.066 932.959C854.518 933.636 853.814 934.237 852.798 934.688C851.781 935.139 850.529 935.365 849.043 935.365C847.792 935.44 846.54 935.215 845.289 934.914Z" fill="white"/>
<path d="M881.19 935.215V924.463L875.636 933.335H874.229L868.675 924.613V935.215H865.703V918.975H868.284L875.011 929.726L881.581 918.975H884.162V935.215H881.19Z" fill="white"/>
<path d="M899.649 931.455H891.201L889.559 935.215H886.352L893.939 918.975H896.989L904.576 935.215H901.291L899.649 931.455ZM898.554 929.049L895.347 921.982L892.218 929.049H898.554Z" fill="white"/>
<path d="M921.706 918.975V935.215H919.125L909.817 924.238V935.215H906.688V918.975H909.269L918.577 929.952V918.975H921.706Z" fill="white"/>
<path d="M937.192 931.455H928.745L927.103 935.215H923.896L931.483 918.975H934.533L942.12 935.215H938.835L937.192 931.455ZM936.176 929.049L932.969 921.982L929.84 929.049H936.176Z" fill="white"/>
<path d="M955.573 926.869H958.545V933.335C957.685 934.012 956.668 934.538 955.495 934.839C954.322 935.215 953.148 935.365 951.897 935.365C950.176 935.365 948.612 934.989 947.282 934.312C945.953 933.636 944.779 932.583 943.997 931.305C943.215 930.027 942.824 928.598 942.824 927.019C942.824 925.44 943.215 924.012 943.997 922.734C944.779 921.456 945.874 920.478 947.282 919.726C948.69 918.975 950.254 918.674 951.975 918.674C953.383 918.674 954.713 918.899 955.808 919.35C956.981 919.802 957.92 920.478 958.702 921.305L956.746 923.185C955.495 921.982 953.931 921.305 952.132 921.305C950.958 921.305 949.863 921.531 948.925 922.057C947.986 922.508 947.282 923.185 946.735 924.087C946.187 924.989 945.953 925.967 945.953 927.019C945.953 928.072 946.187 929.049 946.735 929.952C947.282 930.854 947.986 931.53 948.925 931.982C949.863 932.508 950.88 932.733 952.053 932.733C953.383 932.733 954.556 932.433 955.495 931.906V926.869H955.573Z" fill="white"/>
<path d="M975.284 932.658V935.215H962.613V918.975H974.892V921.531H965.741V925.741H973.876V928.222H965.741V932.658H975.284V932.658Z" fill="white"/>
<path d="M994.29 935.215V924.463L988.737 933.335H987.329L981.775 924.613V935.215H978.803V918.975H981.384L988.111 929.726L994.681 918.975H997.262V935.215H994.29Z" fill="white"/>
<path d="M1014.47 932.658V935.215H1001.8V918.975H1014.08V921.531H1004.93V925.741H1013.06V928.222H1004.93V932.658H1014.47V932.658Z" fill="white"/>
<path d="M1032.93 918.975V935.215H1030.35L1021.04 924.238V935.215H1017.91V918.975H1020.49L1029.8 929.952V918.975H1032.93Z" fill="white"/>
<path d="M1040.91 921.531H1035.35V918.975H1049.67V921.531H1044.11V935.215H1040.98V921.531H1040.91Z" fill="white"/>
<path d="M867.815 449.743L821.668 433.578C821.668 433.578 796.951 397.79 734.066 419.593C734.066 419.593 772.313 391.324 817.366 404.782C862.418 418.24 867.815 449.743 867.815 449.743Z" fill="#E87F72"/>
<path d="M750.022 724.771L775.677 740.559V774.769L750.022 757.777V724.771Z" fill="#C23725"/>
<path d="M817.209 738.604L775.677 740.559V774.769L817.209 771.611V738.604Z" fill="#ED3F28"/>
<path d="M817.209 738.604L775.677 740.559L750.022 724.77L791.007 722.289L817.209 738.604Z" fill="#FF4932"/>
<path d="M611.971 695.975L643.883 715.598V758.228L611.971 737.026V695.975Z" fill="#C23725"/>
<path d="M695.584 713.116L643.883 715.597V758.227L695.584 754.243V713.116Z" fill="#ED3F28"/>
<path d="M695.584 713.116L643.883 715.598L611.971 695.974L662.968 692.892L695.584 713.116Z" fill="#FF4932"/>
<path d="M717.797 718.305L736.569 729.808V754.845L717.797 742.439V718.305Z" fill="#C23725"/>
<path d="M766.916 728.379L736.569 729.807V754.844L766.916 752.513V728.379Z" fill="#ED3F28"/>
<path d="M766.916 728.379L736.569 729.808L717.797 718.304L747.754 716.5L766.916 728.379Z" fill="#FF4932"/>
<path d="M661.951 665.374L687.605 681.163V715.447L661.951 698.456V665.374Z" fill="#C23725"/>
<path d="M729.216 679.208L687.605 681.163V715.447L729.216 712.289V679.208Z" fill="#ED3F28"/>
<path d="M729.216 679.208L687.605 681.163L661.951 665.374L703.014 662.893L729.216 679.208Z" fill="#FF4932"/>
<path d="M861.558 669.81L879.078 680.561V704.019L861.558 692.365V669.81Z" fill="#C23725"/>
<path d="M907.47 679.207L879.078 680.56V704.018L907.47 701.763V679.207Z" fill="#ED3F28"/>
<path d="M907.47 679.208L879.078 680.561L861.558 669.809L889.559 668.08L907.47 679.208Z" fill="#FF4932"/>
<path d="M618.15 608.309L650.062 627.857V670.487L618.15 649.36V608.309Z" fill="#C23725"/>
<path d="M701.763 625.45L650.062 627.856V670.486L701.763 666.501V625.45Z" fill="#ED3F28"/>
<path d="M701.763 625.45L650.062 627.856L618.15 608.308L669.147 605.226L701.763 625.45Z" fill="#FF4932"/>
<path d="M550.572 630.639L582.484 650.262V692.892L550.572 671.69V630.639Z" fill="#C23725"/>
<path d="M634.106 647.855L582.484 650.261V692.891L634.106 688.907V647.855Z" fill="#ED3F28"/>
<path d="M634.106 647.856L582.484 650.262L550.572 630.638L601.49 627.556L634.106 647.856Z" fill="#FF4932"/>
<path d="M586.082 526.131L617.994 545.754V588.384L586.082 567.257V526.131Z" fill="#C23725"/>
<path d="M669.694 543.348L617.994 545.754V588.384L669.694 584.399V543.348Z" fill="#ED3F28"/>
<path d="M669.694 543.348L617.994 545.754L586.082 526.13L637.078 523.048L669.694 543.348Z" fill="#FF4932"/>
<path d="M549.164 571.693L581.076 591.242V633.871L549.164 612.744V571.693Z" fill="#C23725"/>
<path d="M632.776 588.835L581.076 591.241V633.871L632.776 629.886V588.835Z" fill="#ED3F28"/>
<path d="M632.776 588.835L581.076 591.241L549.164 571.693L600.16 568.61L632.776 588.835Z" fill="#FF4932"/>
<path d="M508.57 521.545L540.482 541.168V583.798L508.57 562.596V521.545Z" fill="#C23725"/>
<path d="M592.104 538.687L540.482 541.168V583.798L592.104 579.813V538.687Z" fill="#ED3F28"/>
<path d="M592.104 538.687L540.482 541.168L508.57 521.545L559.488 518.462L592.104 538.687Z" fill="#FF4932"/>
<path d="M775.989 303.959C862.653 299.448 937.505 341.552 976.144 407.714L867.815 449.743C845.993 424.255 812.36 408.993 774.19 411.023C707.863 414.481 653.191 468.765 651 532.672C639.737 533.274 628.396 533.8 617.133 534.401C591.556 535.755 565.98 537.108 540.403 538.462C543.61 415.308 648.654 310.575 775.989 303.959Z" fill="url(#paint0_linear_184_25689)"/>
<path d="M910.912 336.89C870.161 301.853 805.086 281.629 744.077 284.786C616.742 291.403 511.698 396.211 508.57 519.289L540.482 538.461C543.61 415.383 648.654 310.65 776.068 304.034C836.998 300.876 892.062 320.725 932.89 355.836L910.912 336.89Z" fill="url(#paint1_linear_184_25689)"/>
<path d="M520.067 600.264L535.632 609.812V630.638L520.067 620.338V600.264Z" fill="#C23725"/>
<path d="M560.818 608.685L535.632 609.812V630.639L560.818 628.684V608.685Z" fill="#ED3F28"/>
<path d="M560.818 608.684L535.632 609.812L520.067 600.263L544.94 598.76L560.818 608.684Z" fill="#FF4932"/>
<path d="M618.15 675.975L633.715 685.523V706.349L618.15 696.049V675.975Z" fill="#C23725"/>
<path d="M658.979 684.396L633.715 685.523V706.35L658.979 704.395V684.396Z" fill="#ED3F28"/>
<path d="M658.979 684.395L633.715 685.523L618.15 675.974L643.023 674.471L658.979 684.395Z" fill="#FF4932"/>
<path d="M737.898 691.914L753.463 701.463V722.289L737.898 711.989V691.914Z" fill="#C23725"/>
<path d="M778.727 700.335L753.463 701.463V722.289L778.727 720.334V700.335Z" fill="#ED3F28"/>
<path d="M778.727 700.335L753.463 701.462L737.898 691.914L762.771 690.41L778.727 700.335Z" fill="#FF4932"/>
<path d="M856.317 727.251L871.882 736.875V757.626L856.317 747.325V727.251Z" fill="#C23725"/>
<path d="M897.146 735.672L871.882 736.875V757.626L897.146 755.671V735.672Z" fill="#ED3F28"/>
<path d="M897.146 735.672L871.882 736.874L856.317 727.251L881.19 725.747L897.146 735.672Z" fill="#FF4932"/>
<path d="M807.354 696.877L822.919 706.425V727.252L807.354 716.951V696.877Z" fill="#C23725"/>
<path d="M848.105 705.223L822.919 706.426V727.252L848.105 725.297V705.223Z" fill="#ED3F28"/>
<path d="M848.104 705.222L822.919 706.425L807.354 696.877L832.227 695.373L848.104 705.222Z" fill="#FF4932"/>
<path d="M778.727 676.2L788.739 682.441V695.899L778.727 689.207V676.2Z" fill="#C23725"/>
<path d="M805.086 681.613L788.739 682.44V695.898L805.086 694.62V681.613Z" fill="#ED3F28"/>
<path d="M805.086 681.613L788.739 682.44L778.727 676.2L794.761 675.223L805.086 681.613Z" fill="#FF4932"/>
<path d="M511.307 574.475L521.397 580.64V594.098L511.307 587.406V574.475Z" fill="#C23725"/>
<path d="M537.666 579.888L521.397 580.64V594.098L537.666 592.82V579.888Z" fill="#ED3F28"/>
<path d="M537.666 579.888L521.397 580.64L511.307 574.474L527.42 573.497L537.666 579.888Z" fill="#FF4932"/>
<path d="M930.7 679.434L940.712 685.599V699.057L930.7 692.365V679.434Z" fill="#C23725"/>
<path d="M957.059 684.847L940.712 685.599V699.057L957.059 697.778V684.847Z" fill="#ED3F28"/>
<path d="M957.059 684.847L940.712 685.599L930.7 679.433L946.735 678.456L957.059 684.847Z" fill="#FF4932"/>
<path d="M926.164 632.367L935.941 638.382V651.464L926.164 644.998V632.367Z" fill="#C23725"/>
<path d="M951.741 637.705L935.941 638.382V651.464L951.741 650.261V637.705Z" fill="#ED3F28"/>
<path d="M951.74 637.705L935.941 638.382L926.164 632.367L941.807 631.465L951.74 637.705Z" fill="#FF4932"/>
<path d="M897.146 634.322L902.621 637.706V644.999L897.146 641.39V634.322Z" fill="#C23725"/>
<path d="M911.537 637.254L902.621 637.705V644.998L911.537 644.321V637.254Z" fill="#ED3F28"/>
<path d="M911.537 637.254L902.621 637.706L897.146 634.322L905.906 633.796L911.537 637.254Z" fill="#FF4932"/>
<path d="M592.104 535.679L592.339 504.176L642.006 501.169" stroke="#C23725" stroke-width="0.8221" stroke-miterlimit="10"/>
<path d="M556.281 461.246C570.673 419.744 597.97 382.678 633.011 354.859C635.67 352.829 639.659 349.672 642.397 347.792C645.838 345.311 651.001 341.852 654.599 339.597C656.241 338.619 660.465 336.063 662.185 335.01C666.957 332.304 672.901 329.071 677.75 326.59C700.824 315.387 725.619 307.493 751.273 303.959C788.426 298.621 827.455 302.23 862.105 315.613C831.992 306.816 800.393 303.884 769.419 306.891C723.976 311.102 680.175 327.943 643.727 354.183C605.323 381.55 575.053 418.992 556.281 461.246Z" fill="url(#paint2_linear_184_25689)"/>
<g opacity="0.29">
<path d="M556.281 461.247C588.428 374.633 673.057 311.929 768.403 304.034C799.767 301.027 831.288 306.365 861.167 315.312C831.132 307.267 799.767 302.38 768.637 305.688C673.449 314.786 591.009 375.911 556.281 461.247Z" fill="url(#paint3_linear_184_25689)"/>
</g>
<defs>
<linearGradient id="paint0_linear_184_25689" x1="592.24" y1="480.851" x2="873.945" y2="335.335" gradientUnits="userSpaceOnUse">
<stop stop-color="#ED3F28"/>
<stop offset="1" stop-color="#F03A22"/>
</linearGradient>
<linearGradient id="paint1_linear_184_25689" x1="527.496" y1="538.293" x2="815.133" y2="290.332" gradientUnits="userSpaceOnUse">
<stop offset="0.0861312" stop-color="#C23725"/>
<stop offset="0.7029" stop-color="#FF4932"/>
<stop offset="1" stop-color="#FF4932"/>
</linearGradient>
<linearGradient id="paint2_linear_184_25689" x1="544.425" y1="429.561" x2="836.16" y2="277.594" gradientUnits="userSpaceOnUse">
<stop stop-color="white" stop-opacity="0"/>
<stop offset="0.4964" stop-color="#FF9E9E"/>
<stop offset="1" stop-color="white" stop-opacity="0"/>
</linearGradient>
<linearGradient id="paint3_linear_184_25689" x1="556.266" y1="382.173" x2="861.095" y2="382.173" gradientUnits="userSpaceOnUse">
<stop stop-color="white" stop-opacity="0"/>
<stop offset="0.4964" stop-color="#FF9E9E"/>
<stop offset="1" stop-color="white" stop-opacity="0"/>
</linearGradient>
</defs>
</svg>
