<svg width="211" height="205" viewBox="0 0 211 205" fill="none" xmlns="http://www.w3.org/2000/svg">
<rect width="210.23" height="204.84" fill="#F1F1F1"/>
<path d="M13.2181 106.593L13.0205 102.757L13.4467 102.735C13.4602 102.843 13.4803 102.998 13.5068 103.201C13.5333 103.405 13.5648 103.547 13.6011 103.63C13.6599 103.759 13.7349 103.852 13.8261 103.907C13.9212 103.962 14.0488 103.986 14.2089 103.978L20.3797 103.66C20.5198 103.652 20.6347 103.624 20.7245 103.576C20.8183 103.527 20.8929 103.419 20.9485 103.251C20.9903 103.129 21.0265 102.974 21.0571 102.788C21.0918 102.606 21.1102 102.456 21.1122 102.34L21.5384 102.318L21.7361 106.154L21.3099 106.176C21.2995 106.052 21.2758 105.905 21.239 105.734C21.2061 105.563 21.1663 105.415 21.1197 105.289C21.0639 105.139 20.9806 105.041 20.8698 104.995C20.7591 104.948 20.6377 104.928 20.5056 104.935L14.3408 105.253C14.2087 105.26 14.0921 105.294 13.991 105.355C13.894 105.42 13.8191 105.524 13.7663 105.668C13.7386 105.753 13.7096 105.891 13.6793 106.081C13.6532 106.275 13.6415 106.438 13.6443 106.571L13.2181 106.593Z" fill="black"/>
<path d="M14.0519 114.222L13.7052 111.34L14.099 111.292C14.118 111.383 14.1379 111.481 14.1588 111.588C14.1802 111.698 14.2071 111.788 14.2396 111.857C14.2888 111.964 14.3603 112.038 14.454 112.079C14.5522 112.124 14.6729 112.137 14.8162 112.12L17.8418 111.756C18.2595 111.706 18.5698 111.568 18.7727 111.342C18.976 111.119 19.0606 110.867 19.0267 110.584C19.0013 110.374 18.9443 110.185 18.8556 110.018C18.7709 109.85 18.6726 109.705 18.5609 109.581C18.4536 109.461 18.3414 109.367 18.2244 109.301C18.1119 109.238 18.0216 109.192 17.9537 109.164L14.57 109.571C14.4347 109.587 14.3267 109.628 14.2458 109.695C14.165 109.761 14.1074 109.852 14.0731 109.97C14.0434 110.058 14.0243 110.151 14.0159 110.249C14.008 110.351 14.0062 110.454 14.0107 110.558L13.6169 110.606L13.2701 107.723L13.664 107.676C13.6829 107.766 13.7021 107.859 13.7216 107.954C13.7415 108.052 13.7677 108.136 13.8002 108.204C13.8494 108.311 13.9209 108.386 14.0146 108.427C14.1128 108.471 14.2335 108.485 14.3768 108.468L18.0111 108.031C18.1464 108.014 18.2661 107.97 18.3703 107.897C18.479 107.827 18.5629 107.736 18.6221 107.624C18.6607 107.543 18.6838 107.449 18.6912 107.344C18.7027 107.237 18.7052 107.124 18.6988 107.004L19.0867 106.957L19.4535 108.899L19.38 108.992L18.5504 109.092L18.554 109.122C18.661 109.206 18.7888 109.311 18.9373 109.439C19.0898 109.566 19.2155 109.688 19.3143 109.805C19.4275 109.941 19.5281 110.106 19.6162 110.302C19.7043 110.497 19.7636 110.722 19.7943 110.976C19.8622 111.541 19.7354 111.98 19.4139 112.294C19.0968 112.61 18.6459 112.804 18.061 112.874L14.9996 113.242C14.8603 113.259 14.7498 113.297 14.668 113.355C14.5902 113.413 14.5344 113.502 14.5005 113.623C14.4722 113.724 14.4542 113.808 14.4464 113.878C14.4391 113.952 14.4389 114.05 14.4458 114.175L14.0519 114.222Z" fill="black"/>
<path d="M20.8172 119.804C20.7508 119.634 20.6525 119.478 20.5223 119.336C20.3968 119.197 20.201 119.095 19.9347 119.029C19.3621 118.902 18.7643 118.771 18.1414 118.637C17.5224 118.502 16.872 118.363 16.1902 118.22C15.9938 118.177 15.7628 118.135 15.4973 118.094C15.2325 118.056 14.9788 118.022 14.736 117.993L14.645 117.533C15.4949 116.977 16.2681 116.466 16.9646 116.002C17.665 115.536 18.3807 115.056 19.1118 114.56C19.2771 114.446 19.3914 114.29 19.4547 114.094C19.5226 113.901 19.5529 113.713 19.5454 113.531L19.9346 113.454L20.4665 116.142L20.0537 116.224C20.0265 116.107 19.9718 115.965 19.8896 115.797C19.8114 115.629 19.7329 115.552 19.6543 115.568C19.6425 115.57 19.613 115.586 19.5658 115.616C19.5225 115.645 19.4714 115.675 19.4124 115.708C19.0433 115.948 18.5282 116.287 17.8672 116.724C17.2062 117.161 16.6738 117.516 16.27 117.787C16.6361 117.862 17.0917 117.956 17.6369 118.069C18.1828 118.185 18.7908 118.306 19.4609 118.431C19.5748 118.449 19.6805 118.467 19.7779 118.484C19.8792 118.501 19.9771 118.5 20.0714 118.481C20.1382 118.468 20.1906 118.423 20.2285 118.346C20.2711 118.272 20.3031 118.186 20.3245 118.088C20.3459 117.99 20.3579 117.896 20.3605 117.805C20.363 117.715 20.3628 117.642 20.3597 117.585L20.7371 117.51L21.1769 119.733L20.8172 119.804Z" fill="black"/>
<path d="M18.2677 126.072C17.7445 125.954 17.2926 125.729 16.9122 125.398C16.5317 125.067 16.2712 124.639 16.1305 124.114C16.0066 123.651 15.9793 123.223 16.0488 122.83C16.1193 122.44 16.2643 122.095 16.4837 121.794C16.7032 121.494 16.9843 121.237 17.3273 121.025C17.6713 120.816 18.0512 120.656 18.4671 120.544C18.8402 120.444 19.2212 120.404 19.6101 120.425C20.0039 120.449 20.3753 120.537 20.7244 120.689C21.0598 120.837 21.3548 121.051 21.6094 121.333C21.869 121.617 22.0535 121.964 22.1629 122.372C22.2754 122.792 22.3057 123.169 22.2538 123.504C22.2019 123.838 22.0862 124.13 21.9069 124.378C21.7372 124.615 21.5161 124.816 21.2436 124.981C20.9721 125.149 20.6634 125.28 20.3175 125.373L19.9327 125.476L18.9122 121.668C18.5352 121.769 18.2025 121.896 17.9142 122.048C17.6269 122.205 17.3875 122.392 17.1959 122.61C17.0111 122.822 16.8855 123.068 16.8189 123.348C16.7563 123.627 16.7703 123.936 16.861 124.274C16.9537 124.62 17.1131 124.896 17.3391 125.102C17.5701 125.311 17.9267 125.476 18.409 125.597L18.2677 126.072ZM20.1146 124.196C20.3322 124.137 20.5603 124.055 20.7986 123.95C21.038 123.848 21.2303 123.734 21.3756 123.608C21.5304 123.47 21.6434 123.309 21.7144 123.123C21.7854 122.938 21.7881 122.722 21.7225 122.477C21.6131 122.069 21.3509 121.775 20.9359 121.595C20.5259 121.417 20.0146 121.398 19.4019 121.537L20.1146 124.196Z" fill="black"/>
<path d="M23.4907 129.91C23.2971 129.975 23.1083 129.986 22.9244 129.942C22.7443 129.897 22.6209 129.776 22.5543 129.579C22.4826 129.366 22.4825 129.184 22.5542 129.033C22.6271 128.886 22.73 128.79 22.8629 128.745C22.9464 128.717 23.0243 128.697 23.0965 128.685C23.1699 128.677 23.2428 128.668 23.315 128.656C23.2547 128.478 23.1121 128.293 22.8871 128.103C22.6621 127.912 22.3885 127.778 22.0664 127.701L18.7974 128.804C18.6645 128.849 18.5646 128.91 18.4977 128.988C18.4321 129.069 18.3971 129.172 18.3924 129.296C18.3865 129.404 18.399 129.535 18.43 129.689C18.4623 129.848 18.4932 129.983 18.5228 130.096L18.1469 130.223L17.1474 127.261L17.5233 127.134C17.5603 127.219 17.5981 127.306 17.6364 127.394C17.676 127.487 17.7188 127.563 17.7646 127.624C17.8347 127.719 17.9198 127.777 18.02 127.798C18.1252 127.821 18.2462 127.81 18.3829 127.764L21.8512 126.593C21.9689 126.554 22.0751 126.486 22.1698 126.391C22.2658 126.299 22.3312 126.193 22.3663 126.071C22.3875 125.983 22.3909 125.887 22.3766 125.782C22.3661 125.675 22.3454 125.564 22.3145 125.447L22.6847 125.323L23.4405 127.148L23.3876 127.255L22.596 127.522L22.6056 127.551C22.9926 127.682 23.3145 127.865 23.5714 128.1C23.8282 128.335 23.997 128.572 24.0778 128.811C24.1585 129.05 24.146 129.27 24.0403 129.471C23.9359 129.675 23.7527 129.821 23.4907 129.91Z" fill="black"/>
<path d="M22.9908 134.734C22.9185 134.94 22.8115 135.12 22.6698 135.272C22.5281 135.424 22.3309 135.551 22.0782 135.653C21.5691 135.858 21.0757 135.835 20.598 135.583C20.1218 135.334 19.7615 134.907 19.5171 134.301C19.3882 133.981 19.3266 133.663 19.3324 133.345C19.3396 133.031 19.3683 132.797 19.4185 132.643L19.0112 132.677L18.8425 132.259L20.732 131.432L20.8872 131.817C20.7542 131.905 20.6106 132.036 20.4564 132.211C20.3021 132.386 20.1747 132.573 20.0741 132.774C19.969 132.984 19.9012 133.213 19.8707 133.458C19.8417 133.708 19.8781 133.959 19.9801 134.211C20.124 134.568 20.3148 134.811 20.5526 134.94C20.794 135.067 21.0653 135.07 21.3663 134.949C21.5224 134.886 21.6434 134.8 21.7294 134.692C21.8206 134.586 21.885 134.456 21.9225 134.303C21.9585 134.146 21.9739 133.965 21.9689 133.759C21.9675 133.552 21.9561 133.326 21.9345 133.08C21.9161 132.884 21.908 132.66 21.9102 132.409C21.9177 132.159 21.952 131.934 22.0131 131.732C22.0772 131.516 22.1831 131.318 22.3306 131.137C22.4782 130.957 22.6801 130.815 22.9366 130.711C23.3862 130.53 23.8346 130.544 24.2817 130.752C24.7287 130.961 25.0655 131.345 25.2918 131.907C25.3788 132.122 25.4394 132.353 25.4736 132.598C25.5093 132.847 25.5166 133.058 25.4955 133.231L25.8371 133.242L25.999 133.644L24.2657 134.44L24.1106 134.055C24.473 133.818 24.7244 133.52 24.8647 133.161C25.0102 132.804 25.008 132.44 24.8581 132.069C24.7352 131.764 24.5623 131.555 24.3395 131.442C24.1167 131.329 23.8975 131.315 23.682 131.402C23.5147 131.47 23.3866 131.554 23.2976 131.655C23.2101 131.759 23.1506 131.885 23.119 132.031C23.0897 132.173 23.0753 132.341 23.0759 132.535C23.0816 132.731 23.0939 132.97 23.1126 133.252C23.1335 133.529 23.1354 133.796 23.1183 134.054C23.1027 134.315 23.0602 134.542 22.9908 134.734Z" fill="black"/>
<path d="M24.4474 141.432C23.9137 141.412 23.4303 141.275 22.9974 141.02C22.5644 140.765 22.2311 140.394 21.9976 139.906C21.7917 139.476 21.6868 139.062 21.6829 138.664C21.6807 138.269 21.7595 137.905 21.9194 137.571C22.0793 137.237 22.3077 136.934 22.6045 136.663C22.903 136.396 23.2456 136.17 23.6324 135.985C23.9794 135.819 24.3451 135.71 24.7295 135.659C25.1193 135.611 25.4989 135.629 25.8685 135.714C26.2237 135.797 26.5517 135.953 26.8525 136.182C27.1586 136.414 27.4025 136.719 27.5841 137.098C27.771 137.489 27.8696 137.852 27.8799 138.19C27.8902 138.527 27.8303 138.833 27.7001 139.109C27.5773 139.372 27.3976 139.609 27.1609 139.82C26.926 140.035 26.6477 140.219 26.3261 140.373L25.9682 140.544L24.2735 137.004C23.9229 137.172 23.6204 137.356 23.3661 137.558C23.1134 137.764 22.9132 137.99 22.7656 138.239C22.6234 138.48 22.5454 138.744 22.5315 139.031C22.5212 139.315 22.5914 139.615 22.7419 139.929C22.8959 140.251 23.1023 140.492 23.3612 140.653C23.6255 140.815 24.0047 140.911 24.4989 140.941L24.4474 141.432ZM25.9124 139.258C26.1148 139.161 26.323 139.039 26.537 138.892C26.7528 138.749 26.9202 138.602 27.0393 138.452C27.1657 138.289 27.2468 138.111 27.2824 137.916C27.318 137.721 27.2813 137.51 27.1723 137.282C26.9906 136.903 26.6802 136.663 26.241 136.562C25.8072 136.463 25.3032 136.538 24.7289 136.786L25.9124 139.258Z" fill="black"/>
<path d="M26.9159 148.427L25.7748 146.698L25.8031 146.578L26.2832 146.303L26.2697 146.256C25.9645 146.19 25.671 146.06 25.3891 145.866C25.1093 145.675 24.8888 145.439 24.7277 145.157C24.5606 144.865 24.4628 144.545 24.4344 144.196C24.4114 143.849 24.4606 143.507 24.5817 143.17C24.7044 142.828 24.8997 142.499 25.1675 142.185C25.4373 141.873 25.7757 141.601 26.1827 141.369C26.5549 141.156 26.9448 141.018 27.3523 140.956C27.7599 140.894 28.1535 140.904 28.5333 140.987C28.8877 141.066 29.222 141.219 29.5362 141.445C29.8523 141.675 30.1019 141.95 30.2849 142.27C30.4221 142.51 30.5251 142.763 30.5938 143.029C30.6679 143.295 30.7057 143.539 30.7073 143.76L32.497 142.737C32.6431 142.653 32.7614 142.553 32.8518 142.437C32.9457 142.318 32.9991 142.198 33.012 142.075C33.0224 141.94 32.9938 141.781 32.9262 141.598C32.864 141.417 32.7852 141.226 32.6897 141.027L33.0132 140.842L34.3356 142.876L34.3021 142.999L27.3621 146.967C27.2404 147.037 27.1489 147.119 27.0878 147.214C27.0322 147.311 27.0007 147.421 26.9932 147.545C26.9893 147.635 27.0179 147.746 27.0791 147.877C27.1402 148.008 27.1989 148.127 27.2551 148.233L26.9159 148.427ZM26.7416 146.027L29.7524 144.306C29.8269 144.226 29.8985 144.125 29.967 144.003C30.0356 143.881 30.0865 143.748 30.1197 143.604C30.149 143.454 30.1527 143.295 30.1308 143.127C30.1124 142.958 30.0514 142.782 29.948 142.602C29.8287 142.393 29.6643 142.231 29.4551 142.115C29.2478 142.003 29.0045 141.936 28.7251 141.916C28.4567 141.899 28.1493 141.938 27.8029 142.035C27.462 142.133 27.1089 142.286 26.7436 142.495C26.4514 142.662 26.2012 142.842 25.993 143.035C25.7883 143.226 25.6211 143.446 25.4914 143.696C25.3663 143.929 25.2982 144.173 25.2874 144.429C25.2785 144.688 25.3486 144.947 25.4978 145.208C25.6569 145.487 25.8491 145.681 26.0743 145.793C26.3014 145.907 26.5239 145.986 26.7416 146.027Z" fill="black"/>
<path d="M40.232 153.298C40.1662 153.217 40.0713 153.131 39.9471 153.038C39.826 152.944 39.7126 152.876 39.6068 152.835C39.4578 152.777 39.3051 152.754 39.1488 152.766C38.995 152.781 38.8218 152.81 38.6295 152.855C37.9587 153.022 36.922 153.296 35.5195 153.677C34.1202 154.055 32.6648 154.455 31.1533 154.878L30.854 154.479C31.7484 153.087 32.6099 151.744 33.4386 150.451C34.2673 149.159 34.8259 148.284 35.1144 147.827C35.1849 147.714 35.233 147.598 35.2587 147.479C35.2875 147.357 35.2959 147.218 35.2839 147.061C35.2735 146.934 35.2414 146.808 35.1877 146.683C35.1373 146.555 35.0816 146.444 35.0206 146.35L35.3621 146.094L37.479 148.916L37.1376 149.172C36.9445 148.942 36.7678 148.756 36.6075 148.616C36.4496 148.479 36.3258 148.444 36.236 148.511C36.2008 148.538 36.1639 148.575 36.1254 148.624C36.087 148.673 36.0569 148.713 36.0353 148.744C35.8101 149.099 35.4414 149.676 34.9293 150.476C34.4204 151.273 33.6943 152.409 32.751 153.882C33.5268 153.681 34.4376 153.436 35.4835 153.148C36.5293 152.859 37.2438 152.657 37.6269 152.54C37.998 152.427 38.2456 152.336 38.3698 152.268C38.4965 152.203 38.595 152.144 38.6656 152.091C38.7393 152.036 38.775 151.957 38.7726 151.853C38.7758 151.751 38.7541 151.632 38.7076 151.496C38.6604 151.366 38.6039 151.241 38.5381 151.12C38.4724 150.999 38.4023 150.879 38.3278 150.759L38.6692 150.503L40.5734 153.042L40.232 153.298Z" fill="black"/>
<path d="M35.8892 160.638L34.0344 158.452L34.3369 158.195C34.4027 158.26 34.4697 158.327 34.538 158.395C34.6089 158.466 34.6769 158.521 34.7419 158.561C34.842 158.623 34.9425 158.646 35.0434 158.628C35.15 158.611 35.2583 158.556 35.3683 158.463L38.1596 156.095C38.2574 156.012 38.3266 155.914 38.3672 155.801C38.4134 155.688 38.4303 155.568 38.4179 155.442C38.4053 155.353 38.3646 155.243 38.2957 155.112C38.2299 154.979 38.1611 154.864 38.0895 154.767L38.3874 154.514L39.8414 156.024L39.8317 156.143L36.1465 159.269C36.0396 159.36 35.9678 159.455 35.9312 159.554C35.8972 159.656 35.901 159.766 35.9426 159.883C35.9721 159.974 36.0049 160.059 36.0411 160.139C36.0802 160.216 36.1304 160.297 36.1917 160.381L35.8892 160.638ZM41.7566 154.667C41.5824 154.815 41.3804 154.886 41.1505 154.882C40.9262 154.878 40.7428 154.792 40.6002 154.623C40.468 154.468 40.4138 154.28 40.4375 154.06C40.4669 153.841 40.561 153.664 40.7199 153.529C40.888 153.386 41.0826 153.318 41.3038 153.325C41.5276 153.335 41.7056 153.418 41.8378 153.574C41.9856 153.748 42.0465 153.94 42.0207 154.151C42.0005 154.363 41.9125 154.535 41.7566 154.667Z" fill="black"/>
<path d="M41.2437 162.158C41.2509 162.377 41.2159 162.582 41.1388 162.775C41.0618 162.969 40.9238 163.158 40.7251 163.345C40.3246 163.72 39.8561 163.877 39.3195 163.814C38.7856 163.754 38.2952 163.486 37.8484 163.01C37.6127 162.759 37.4401 162.484 37.3306 162.185C37.2239 161.89 37.166 161.661 37.157 161.499L36.7898 161.679L36.4814 161.35L37.9442 159.896L38.2279 160.199C38.1358 160.329 38.0494 160.503 37.9687 160.722C37.888 160.94 37.837 161.161 37.8156 161.384C37.7939 161.619 37.8132 161.856 37.8735 162.097C37.9366 162.339 38.0613 162.56 38.2477 162.759C38.5109 163.04 38.7765 163.197 39.0448 163.231C39.3159 163.263 39.5699 163.167 39.8066 162.945C39.9294 162.83 40.0113 162.707 40.0524 162.575C40.0992 162.443 40.1123 162.299 40.0918 162.142C40.0686 161.983 40.0175 161.808 39.9386 161.619C39.8625 161.426 39.7699 161.219 39.6608 160.997C39.5729 160.822 39.4846 160.616 39.3957 160.381C39.3126 160.146 39.263 159.923 39.2471 159.712C39.2288 159.488 39.2558 159.265 39.3281 159.043C39.4005 158.822 39.5375 158.616 39.7392 158.427C40.0928 158.095 40.5158 157.946 41.008 157.979C41.5002 158.012 41.9533 158.249 42.3672 158.69C42.5262 158.86 42.666 159.053 42.7866 159.269C42.91 159.489 42.993 159.683 43.0358 159.851L43.3584 159.738L43.6544 160.054L42.3262 161.423L42.0425 161.121C42.2948 160.769 42.4214 160.4 42.4225 160.014C42.4292 159.629 42.2955 159.29 42.0214 158.998C41.7966 158.758 41.5599 158.626 41.3112 158.601C41.0625 158.576 40.8534 158.643 40.6839 158.802C40.5524 158.925 40.4633 159.05 40.4167 159.176C40.3729 159.305 40.3628 159.444 40.3864 159.592C40.4102 159.734 40.4574 159.896 40.5281 160.077C40.6045 160.258 40.7024 160.476 40.8217 160.733C40.9413 160.983 41.0396 161.231 41.1167 161.478C41.1966 161.727 41.2389 161.954 41.2437 162.158Z" fill="black"/>
<path d="M42.2753 167.264L40.211 165.286L40.4847 165C40.5566 165.058 40.63 165.117 40.7047 165.178C40.7824 165.241 40.8555 165.289 40.924 165.321C41.0297 165.373 41.1317 165.385 41.23 165.357C41.334 165.33 41.4358 165.264 41.5353 165.16L44.0611 162.524C44.1495 162.432 44.2081 162.328 44.2367 162.211C44.271 162.095 44.2755 161.974 44.2502 161.851C44.2286 161.763 44.1769 161.658 44.0951 161.536C44.0162 161.41 43.9362 161.303 43.8551 161.215L44.1247 160.933L45.722 162.281L45.7245 162.4L42.39 165.879C42.2932 165.98 42.2318 166.082 42.2057 166.184C42.1825 166.289 42.1976 166.398 42.2508 166.51C42.2894 166.597 42.3307 166.678 42.3747 166.753C42.4215 166.826 42.4796 166.901 42.5491 166.978L42.2753 167.264ZM47.4825 160.739C47.3249 160.903 47.1318 160.995 46.9033 161.014C46.6804 161.033 46.4896 160.966 46.331 160.814C46.1838 160.673 46.1107 160.492 46.1117 160.272C46.1183 160.051 46.1935 159.866 46.3373 159.716C46.4893 159.557 46.6754 159.47 46.8955 159.454C47.1185 159.441 47.3036 159.505 47.4508 159.646C47.6152 159.803 47.6955 159.988 47.6915 160.2C47.6932 160.412 47.6235 160.592 47.4825 160.739Z" fill="black"/>
<path d="M49.3034 169.343C49.0325 169.659 48.7153 169.928 48.3517 170.15C47.9908 170.369 47.6262 170.505 47.2581 170.559C46.8396 170.623 46.441 170.596 46.0623 170.478C45.6836 170.36 45.3222 170.153 44.978 169.859C44.6918 169.614 44.4648 169.328 44.2971 169C44.132 168.669 44.0375 168.314 44.0136 167.935C43.9902 167.561 44.0441 167.178 44.1753 166.784C44.3123 166.389 44.537 166.009 44.8496 165.644C45.4512 164.941 46.1476 164.539 46.9385 164.441C47.7326 164.345 48.4615 164.581 49.1254 165.148C49.7558 165.688 50.0928 166.345 50.1362 167.12C50.1853 167.895 49.9077 168.636 49.3034 169.343ZM48.35 168.543C48.5453 168.314 48.7283 168.054 48.8988 167.763C49.0719 167.468 49.1883 167.193 49.248 166.938C49.312 166.666 49.3131 166.406 49.2511 166.158C49.1917 165.906 49.0478 165.683 48.8194 165.488C48.5849 165.287 48.3344 165.173 48.0679 165.146C47.8045 165.121 47.535 165.165 47.2596 165.277C47.0032 165.379 46.7537 165.532 46.5109 165.736C46.2682 165.94 46.0517 166.153 45.8616 166.375C45.6116 166.667 45.4026 166.958 45.2347 167.247C45.0724 167.535 44.9597 167.821 44.8966 168.105C44.8334 168.388 44.8313 168.653 44.8903 168.898C44.9549 169.143 45.1029 169.365 45.3343 169.563C45.715 169.888 46.1741 169.962 46.7116 169.783C47.2491 169.605 47.7952 169.192 48.35 168.543Z" fill="black"/>
<path d="M53.4528 176.204L51.11 174.49L51.3443 174.17C51.4234 174.218 51.509 174.27 51.6011 174.328C51.6963 174.388 51.7802 174.429 51.8526 174.452C51.9644 174.489 52.0674 174.488 52.1615 174.447C52.2612 174.406 52.3537 174.327 52.4389 174.211L54.2387 171.752C54.4872 171.412 54.5981 171.091 54.5713 170.788C54.5477 170.488 54.4212 170.254 54.1916 170.086C54.0202 169.961 53.8432 169.873 53.6607 169.824C53.4806 169.772 53.3071 169.744 53.1404 169.741C52.9793 169.738 52.8344 169.756 52.7058 169.796C52.5828 169.835 52.4879 169.869 52.4209 169.9L50.4081 172.65C50.3276 172.76 50.284 172.867 50.2772 172.971C50.2704 173.076 50.2981 173.18 50.3602 173.285C50.4044 173.368 50.4594 173.445 50.5252 173.518C50.5942 173.593 50.6684 173.665 50.7477 173.733L50.5134 174.053L48.1707 172.338L48.405 172.018C48.4841 172.066 48.5648 172.115 48.6472 172.166C48.7327 172.218 48.8117 172.256 48.8841 172.28C48.996 172.317 49.0989 172.315 49.193 172.275C49.2927 172.234 49.3852 172.155 49.4704 172.038L51.6323 169.084C51.7128 168.974 51.7619 168.856 51.7797 168.73C51.803 168.604 51.794 168.48 51.7525 168.36C51.7195 168.277 51.6668 168.196 51.5946 168.118C51.5247 168.037 51.4436 167.958 51.3514 167.881L51.5821 167.565L53.2511 168.623L53.2694 168.741L52.7759 169.415L52.8002 169.433C52.9346 169.412 53.099 169.391 53.2935 169.369C53.4904 169.344 53.6654 169.336 53.8186 169.344C53.9951 169.354 54.1847 169.393 54.3875 169.462C54.5902 169.531 54.7951 169.641 55.002 169.793C55.4612 170.129 55.6954 170.521 55.7047 170.97C55.7195 171.418 55.553 171.879 55.2051 172.355L53.384 174.843C53.3012 174.956 53.2531 175.063 53.2398 175.162C53.2289 175.258 53.2562 175.36 53.3216 175.468C53.3755 175.557 53.4252 175.628 53.4707 175.681C53.5195 175.737 53.5916 175.804 53.6871 175.884L53.4528 176.204Z" fill="black"/>
<path d="M61.7664 181.076C61.5692 181.041 61.3981 181.005 61.253 180.968C61.1095 180.936 60.9596 180.875 60.8033 180.785C60.5323 180.63 60.3512 180.442 60.2599 180.223C60.174 180.003 60.1785 179.758 60.2732 179.489L60.2419 179.471C59.8723 179.591 59.5192 179.642 59.1828 179.624C58.8498 179.608 58.501 179.496 58.1363 179.286C57.7507 179.064 57.5009 178.763 57.3866 178.383C57.2759 178.005 57.3304 177.625 57.5502 177.243C57.6641 177.045 57.7938 176.884 57.9393 176.759C58.0848 176.635 58.2491 176.542 58.4322 176.481C58.5789 176.427 58.7465 176.401 58.9349 176.403C59.1252 176.401 59.2969 176.412 59.45 176.436C59.6402 176.467 60.0193 176.539 60.587 176.653C61.1583 176.769 61.5532 176.83 61.7719 176.835L62.0686 176.319C62.0946 176.274 62.1341 176.181 62.1872 176.041C62.2438 175.902 62.2738 175.758 62.2772 175.607C62.2817 175.439 62.2466 175.271 62.172 175.103C62.103 174.934 61.952 174.782 61.7193 174.648C61.5595 174.557 61.3942 174.498 61.2233 174.474C61.0579 174.448 60.9304 174.449 60.8408 174.476C60.8009 174.545 60.7575 174.657 60.7109 174.81C60.6677 174.966 60.6131 175.101 60.5472 175.215C60.4772 175.337 60.3577 175.416 60.1886 175.453C60.023 175.492 59.8429 175.455 59.6484 175.343C59.4748 175.243 59.3812 175.109 59.3678 174.939C59.3598 174.768 59.3998 174.606 59.4877 174.453C59.5796 174.294 59.7231 174.173 59.9182 174.091C60.1167 174.011 60.3393 173.966 60.5859 173.955C60.7981 173.947 61.0344 173.975 61.2946 174.037C61.5569 174.095 61.794 174.185 62.0058 174.307C62.2976 174.475 62.5392 174.642 62.7306 174.807C62.9274 174.971 63.0764 175.17 63.1777 175.404C63.2809 175.635 63.3137 175.887 63.2761 176.161C63.244 176.434 63.1281 176.744 62.9283 177.091C62.6425 177.588 62.3836 178.026 62.1513 178.406C61.9211 178.782 61.6751 179.197 61.4134 179.652C61.3355 179.788 61.2961 179.909 61.2953 180.014C61.298 180.122 61.3319 180.232 61.3972 180.343C61.4314 180.405 61.503 180.469 61.6121 180.536C61.7248 180.606 61.8401 180.675 61.9582 180.742L61.7664 181.076ZM61.5306 177.279C61.1854 177.196 60.8777 177.132 60.6074 177.088C60.3371 177.043 60.0705 177.028 59.8076 177.044C59.5659 177.062 59.3478 177.124 59.1532 177.229C58.9605 177.331 58.8003 177.493 58.6724 177.715C58.5065 178.003 58.4593 178.258 58.5308 178.48C58.6057 178.703 58.7595 178.882 58.9922 179.015C59.2388 179.157 59.4899 179.223 59.7454 179.213C60.0029 179.199 60.2429 179.148 60.4653 179.058L61.5306 177.279Z" fill="black"/>
<path d="M68.3392 184.387L65.7197 183.135L65.8907 182.777C65.9773 182.81 66.0712 182.846 66.1722 182.885C66.2769 182.926 66.367 182.951 66.4425 182.961C66.5592 182.977 66.6601 182.956 66.7451 182.899C66.8355 182.84 66.9118 182.745 66.974 182.615L68.2879 179.866C68.4693 179.486 68.5188 179.15 68.4365 178.857C68.3578 178.567 68.1901 178.36 67.9334 178.237C67.7418 178.146 67.5517 178.093 67.3633 178.078C67.1766 178.06 67.001 178.065 66.8366 178.093C66.6775 178.119 66.5385 178.164 66.4196 178.227C66.306 178.288 66.2191 178.34 66.1589 178.382L64.6895 181.457C64.6308 181.58 64.6077 181.693 64.6203 181.797C64.6329 181.901 64.6795 181.998 64.76 182.09C64.8186 182.163 64.887 182.229 64.9652 182.288C65.0469 182.349 65.1331 182.406 65.2236 182.458L65.0526 182.816L62.4331 181.565L62.6041 181.207C62.6907 181.239 62.7792 181.273 62.8694 181.307C62.9632 181.343 63.0479 181.365 63.1233 181.375C63.2401 181.391 63.341 181.37 63.426 181.313C63.5164 181.254 63.5927 181.159 63.6549 181.029L65.2331 177.726C65.2918 177.603 65.3182 177.478 65.3124 177.351C65.3119 177.222 65.2802 177.103 65.2172 176.993C65.1693 176.916 65.1026 176.847 65.0172 176.784C64.9336 176.717 64.8393 176.654 64.7343 176.595L64.9027 176.243L66.7386 176.974L66.7782 177.086L66.418 177.84L66.4452 177.853C66.5734 177.807 66.7311 177.756 66.9183 177.699C67.1072 177.638 67.2776 177.597 67.4296 177.577C67.6048 177.554 67.7985 177.558 68.0105 177.588C68.2225 177.618 68.4443 177.689 68.6757 177.799C69.1891 178.045 69.4918 178.387 69.5839 178.826C69.6814 179.263 69.6031 179.748 69.3492 180.279L68.0197 183.062C67.9593 183.188 67.9317 183.302 67.9371 183.402C67.9442 183.499 67.9898 183.594 68.0739 183.687C68.1434 183.765 68.2055 183.825 68.26 183.869C68.3182 183.915 68.4016 183.968 68.5102 184.029L68.3392 184.387Z" fill="black"/>
<path d="M75.307 187.032L73.3364 186.411L73.2829 186.3L73.482 185.786L73.4416 185.757C73.1641 185.898 72.8552 185.982 72.5149 186.009C72.1783 186.037 71.8591 185.993 71.5572 185.876C71.2442 185.755 70.9671 185.568 70.7261 185.317C70.4902 185.062 70.3133 184.767 70.1952 184.43C70.0749 184.088 70.0195 183.71 70.029 183.298C70.0422 182.888 70.1332 182.465 70.302 182.029C70.4563 181.63 70.6717 181.278 70.9481 180.974C71.2244 180.67 71.5357 180.43 71.8818 180.255C72.2058 180.094 72.5606 180.002 72.9462 179.98C73.3356 179.959 73.7017 180.015 74.0446 180.148C74.3017 180.247 74.5403 180.378 74.7603 180.541C74.9854 180.701 75.168 180.866 75.3079 181.035L76.0501 179.118C76.1107 178.961 76.1394 178.81 76.1363 178.663C76.1346 178.512 76.1002 178.385 76.033 178.282C75.956 178.171 75.8339 178.066 75.6666 177.967C75.5044 177.865 75.3237 177.768 75.1245 177.673L75.2587 177.327L77.5612 178.07L77.6126 178.187L74.7347 185.621C74.6842 185.752 74.6651 185.873 74.6775 185.985C74.695 186.095 74.74 186.2 74.8124 186.301C74.8659 186.373 74.9575 186.44 75.0874 186.503C75.2172 186.567 75.3373 186.622 75.4477 186.669L75.307 187.032ZM73.6634 185.284L74.9119 182.058C74.9196 181.95 74.9116 181.827 74.8878 181.689C74.8639 181.551 74.8198 181.416 74.7552 181.284C74.6832 181.149 74.5861 181.024 74.4638 180.908C74.343 180.788 74.1857 180.691 73.9919 180.616C73.7683 180.529 73.5391 180.507 73.3043 180.549C73.0733 180.592 72.8433 180.694 72.6142 180.854C72.3956 181.009 72.1825 181.233 71.975 181.526C71.7727 181.816 71.5958 182.157 71.4443 182.548C71.3231 182.861 71.2426 183.158 71.2027 183.438C71.1642 183.714 71.1732 183.99 71.2297 184.265C71.2794 184.524 71.3803 184.756 71.5325 184.96C71.6884 185.166 71.9061 185.323 72.1856 185.432C72.4838 185.547 72.755 185.577 72.9992 185.522C73.2472 185.468 73.4686 185.388 73.6634 185.284Z" fill="black"/>
<path d="M85.2978 185.79C85.4226 186.029 85.4958 186.276 85.5173 186.53C85.5437 186.782 85.5173 187.061 85.4382 187.368C85.2498 188.099 84.8244 188.631 84.1619 188.966C83.4994 189.301 82.7678 189.366 81.9671 189.159C81.5978 189.064 81.2431 188.913 80.9029 188.705C80.5637 188.493 80.281 188.271 80.0549 188.038L79.6945 188.399L79.2281 188.279L79.8767 185.425L80.349 185.546C80.356 185.921 80.3871 186.267 80.4422 186.584C80.5023 186.898 80.6076 187.205 80.7583 187.505C80.9013 187.786 81.0894 188.029 81.3225 188.235C81.5595 188.441 81.8568 188.59 82.2144 188.682C82.4826 188.751 82.7249 188.776 82.9411 188.757C83.1613 188.74 83.3501 188.683 83.5075 188.586C83.665 188.49 83.7949 188.364 83.8973 188.208C84.0045 188.049 84.0872 187.857 84.1453 187.632C84.2305 187.301 84.2163 186.97 84.1029 186.638C83.9905 186.302 83.7686 186.013 83.4374 185.77C83.2108 185.604 82.9498 185.419 82.6544 185.214C82.3599 185.006 82.1082 184.816 81.8991 184.646C81.4868 184.316 81.194 183.949 81.0207 183.543C80.8523 183.135 80.8388 182.657 80.98 182.109C81.0612 181.794 81.2009 181.517 81.3993 181.278C81.5977 181.039 81.843 180.843 82.1352 180.691C82.4128 180.547 82.7196 180.458 83.0557 180.424C83.3928 180.387 83.7285 180.411 84.0628 180.497C84.4437 180.595 84.7688 180.741 85.038 180.935C85.3112 181.13 85.5521 181.337 85.7608 181.557L86.102 181.222L86.5684 181.342L85.9073 184.1L85.4351 183.978C85.4307 183.642 85.4112 183.315 85.3764 183C85.3456 182.685 85.2748 182.389 85.1638 182.112C85.0548 181.843 84.8968 181.612 84.6899 181.417C84.484 181.219 84.2061 181.075 83.8563 180.985C83.487 180.89 83.1416 180.927 82.8201 181.097C82.4985 181.267 82.2937 181.523 82.2055 181.865C82.1134 182.223 82.1203 182.542 82.2263 182.822C82.3334 183.098 82.5267 183.353 82.8064 183.587C83.0551 183.796 83.3024 183.986 83.5485 184.157C83.7994 184.326 84.0386 184.499 84.2661 184.678C84.4733 184.839 84.6672 185.012 84.8479 185.195C85.0325 185.379 85.1825 185.578 85.2978 185.79Z" fill="black"/>
<path d="M92.1334 188.019C92.0599 188.429 91.9225 188.822 91.721 189.197C91.5202 189.568 91.2748 189.87 90.9847 190.103C90.6561 190.37 90.2985 190.548 89.912 190.638C89.5255 190.727 89.1094 190.732 88.6637 190.652C88.2929 190.586 87.9523 190.454 87.6417 190.256C87.3318 190.054 87.0707 189.795 86.8584 189.48C86.6494 189.17 86.5018 188.812 86.4158 188.406C86.3344 187.996 86.336 187.555 86.4208 187.081C86.5839 186.17 86.9816 185.472 87.614 184.987C88.2503 184.502 88.9984 184.337 89.8583 184.491C90.6748 184.637 91.2979 185.034 91.7276 185.681C92.1619 186.324 92.2972 187.104 92.1334 188.019ZM90.9065 187.811C90.9595 187.515 90.9857 187.199 90.9851 186.861C90.9853 186.519 90.9466 186.223 90.8693 185.973C90.7868 185.706 90.6561 185.481 90.4771 185.298C90.2989 185.111 90.0618 184.992 89.766 184.939C89.4622 184.884 89.1885 184.913 88.9447 185.024C88.7049 185.135 88.4946 185.309 88.3139 185.546C88.1446 185.764 88.0068 186.022 87.9004 186.321C87.794 186.619 87.7151 186.912 87.6635 187.2C87.5957 187.579 87.5625 187.935 87.5637 188.269C87.5697 188.6 87.6171 188.904 87.706 189.18C87.7949 189.457 87.9269 189.686 88.1019 189.868C88.2816 190.046 88.5213 190.163 88.8211 190.216C89.3142 190.305 89.7474 190.136 90.1208 189.71C90.4942 189.284 90.7561 188.651 90.9065 187.811Z" fill="black"/>
<path d="M99.0233 191.713L97.0905 191.648L97.0094 191.555L97.0862 190.807L97.0504 190.803C96.9445 190.893 96.8258 190.99 96.6943 191.093C96.5632 191.192 96.4153 191.28 96.2504 191.356C96.0599 191.445 95.8781 191.509 95.705 191.547C95.5318 191.586 95.2918 191.589 94.9848 191.558C94.4627 191.504 94.0815 191.294 93.8413 190.927C93.6054 190.556 93.5209 190.046 93.5877 189.396L93.8779 186.574C93.8926 186.43 93.877 186.308 93.8311 186.207C93.7895 186.102 93.7206 186.008 93.6243 185.925C93.5575 185.87 93.4713 185.827 93.3657 185.796C93.2605 185.761 93.1486 185.734 93.0298 185.713L93.0697 185.325L95.0517 185.383L95.1327 185.476L94.7117 189.572C94.6678 189.999 94.7305 190.329 94.8997 190.564C95.0689 190.799 95.287 190.93 95.5541 190.958C95.7733 190.98 95.9722 190.967 96.1505 190.916C96.3289 190.866 96.4806 190.801 96.6056 190.722C96.7218 190.649 96.8245 190.571 96.9137 190.487C97.0072 190.4 97.08 190.319 97.1321 190.244L97.4757 186.902C97.4892 186.77 97.4732 186.652 97.4276 186.546C97.3825 186.437 97.3138 186.341 97.2215 186.259C97.1547 186.204 97.0499 186.165 96.9072 186.142C96.7689 186.116 96.6125 186.09 96.4379 186.064L96.4779 185.675L98.6332 185.752L98.7143 185.845L98.233 190.526C98.219 190.662 98.2351 190.78 98.281 190.882C98.327 190.983 98.3963 191.073 98.489 191.151C98.5563 191.202 98.6389 191.241 98.7369 191.267C98.8353 191.289 98.9441 191.308 99.0633 191.325L99.0233 191.713Z" fill="black"/>
<path d="M106.502 191.997L103.599 191.939L103.607 191.542C103.699 191.536 103.8 191.53 103.908 191.524C104.021 191.519 104.113 191.504 104.186 191.482C104.299 191.448 104.382 191.388 104.436 191.3C104.494 191.209 104.524 191.092 104.527 190.948L104.588 187.9C104.596 187.479 104.503 187.153 104.307 186.92C104.115 186.688 103.877 186.569 103.592 186.563C103.38 186.559 103.185 186.589 103.007 186.654C102.83 186.714 102.672 186.791 102.534 186.885C102.4 186.974 102.291 187.072 102.209 187.179C102.131 187.282 102.073 187.365 102.036 187.428L101.968 190.836C101.965 190.972 101.991 191.085 102.045 191.174C102.099 191.264 102.182 191.334 102.293 191.384C102.377 191.426 102.466 191.458 102.562 191.479C102.662 191.502 102.764 191.518 102.868 191.528L102.86 191.924L99.9567 191.866L99.9646 191.47C100.057 191.463 100.151 191.457 100.248 191.451C100.348 191.445 100.434 191.431 100.507 191.408C100.62 191.374 100.703 191.314 100.757 191.227C100.815 191.136 100.846 191.018 100.848 190.874L100.922 187.213C100.924 187.077 100.897 186.952 100.839 186.839C100.785 186.722 100.707 186.626 100.604 186.552C100.529 186.502 100.44 186.466 100.336 186.444C100.232 186.418 100.12 186.4 100 186.389L100.008 185.999L101.982 185.906L102.065 185.992L102.048 186.827L102.078 186.828C102.176 186.733 102.298 186.622 102.445 186.492C102.592 186.359 102.731 186.251 102.861 186.17C103.011 186.077 103.189 186 103.394 185.94C103.6 185.88 103.831 185.852 104.088 185.858C104.657 185.869 105.074 186.056 105.339 186.418C105.609 186.776 105.737 187.25 105.726 187.839L105.664 190.922C105.661 191.062 105.683 191.177 105.729 191.266C105.776 191.351 105.857 191.419 105.972 191.469C106.067 191.511 106.149 191.541 106.217 191.559C106.288 191.576 106.386 191.59 106.51 191.601L106.502 191.997Z" fill="black"/>
<path d="M113.947 191.497L111.89 191.751L111.796 191.672L111.763 191.12L111.714 191.111C111.52 191.355 111.273 191.56 110.974 191.726C110.679 191.892 110.369 191.985 110.045 192.004C109.709 192.024 109.378 191.969 109.054 191.84C108.733 191.706 108.448 191.51 108.2 191.252C107.948 190.989 107.74 190.668 107.578 190.289C107.419 189.909 107.325 189.485 107.298 189.017C107.273 188.589 107.323 188.178 107.448 187.785C107.574 187.393 107.758 187.045 108.001 186.741C108.229 186.459 108.515 186.227 108.857 186.047C109.204 185.866 109.561 185.764 109.929 185.743C110.205 185.726 110.477 185.747 110.745 185.803C111.017 185.855 111.253 185.93 111.451 186.026L111.33 183.968C111.32 183.8 111.283 183.65 111.219 183.517C111.155 183.381 111.07 183.279 110.966 183.213C110.85 183.144 110.695 183.099 110.501 183.078C110.311 183.053 110.105 183.039 109.884 183.036L109.862 182.664L112.272 182.383L112.367 182.468L112.837 190.449C112.846 190.589 112.879 190.707 112.937 190.804C112.998 190.897 113.083 190.974 113.191 191.036C113.27 191.079 113.382 191.103 113.526 191.106C113.671 191.11 113.804 191.11 113.924 191.107L113.947 191.497ZM111.72 190.587L111.516 187.124C111.478 187.022 111.419 186.913 111.34 186.798C111.261 186.682 111.164 186.577 111.05 186.484C110.929 186.39 110.788 186.316 110.628 186.262C110.468 186.203 110.284 186.179 110.076 186.192C109.836 186.206 109.618 186.281 109.421 186.417C109.228 186.553 109.061 186.741 108.918 186.982C108.783 187.215 108.682 187.508 108.615 187.861C108.551 188.21 108.531 188.595 108.556 189.015C108.576 189.351 108.626 189.655 108.706 189.927C108.786 190.195 108.909 190.443 109.075 190.67C109.228 190.886 109.417 191.055 109.641 191.179C109.869 191.302 110.133 191.354 110.433 191.337C110.753 191.318 111.013 191.232 111.213 191.08C111.417 190.928 111.585 190.763 111.72 190.587Z" fill="black"/>
<path d="M123.391 183.792L122.949 183.868C122.813 183.572 122.582 183.271 122.258 182.963C121.937 182.654 121.654 182.503 121.409 182.509C121.284 182.515 121.137 182.528 120.967 182.55C120.8 182.57 120.611 182.599 120.399 182.636L118.997 182.879L119.579 186.237L120.54 186.07C120.83 186.02 121.051 185.951 121.202 185.864C121.352 185.774 121.473 185.656 121.565 185.51C121.629 185.41 121.676 185.264 121.708 185.073C121.742 184.877 121.751 184.673 121.735 184.461L122.183 184.384L122.752 187.665L122.304 187.742C122.262 187.571 122.187 187.382 122.078 187.175C121.973 186.966 121.873 186.82 121.778 186.735C121.635 186.61 121.468 186.538 121.279 186.518C121.093 186.494 120.874 186.504 120.622 186.547L119.662 186.714L120.162 189.594C120.184 189.724 120.23 189.835 120.299 189.929C120.368 190.022 120.472 190.089 120.613 190.129C120.676 190.146 120.81 190.158 121.013 190.163C121.216 190.168 121.369 190.164 121.472 190.15L121.544 190.568L117.922 191.197L117.849 190.778C117.966 190.75 118.121 190.711 118.314 190.661C118.507 190.608 118.631 190.562 118.685 190.524C118.794 190.453 118.865 190.363 118.899 190.256C118.937 190.145 118.943 190.018 118.918 189.877L117.872 183.845C117.85 183.715 117.808 183.605 117.748 183.515C117.687 183.42 117.583 183.353 117.434 183.314C117.319 183.281 117.168 183.261 116.981 183.253C116.797 183.245 116.652 183.246 116.544 183.256L116.472 182.838L123.028 181.701L123.391 183.792Z" fill="black"/>
<path d="M128.426 183.647C128.476 183.845 128.471 184.034 128.413 184.214C128.353 184.39 128.222 184.503 128.02 184.553C127.803 184.608 127.621 184.593 127.477 184.509C127.336 184.425 127.248 184.314 127.214 184.178C127.193 184.093 127.18 184.013 127.174 183.94C127.172 183.867 127.168 183.793 127.162 183.72C126.98 183.766 126.784 183.893 126.576 184.102C126.368 184.311 126.212 184.572 126.109 184.887L126.943 188.235C126.977 188.371 127.03 188.476 127.102 188.549C127.177 188.621 127.277 188.664 127.4 188.679C127.507 188.693 127.639 188.691 127.795 188.673C127.956 188.654 128.093 188.634 128.208 188.614L128.304 188.999L125.271 189.754L125.175 189.369C125.263 189.339 125.352 189.309 125.443 189.278C125.539 189.246 125.618 189.209 125.683 189.168C125.783 189.106 125.847 189.026 125.877 188.928C125.909 188.825 125.907 188.704 125.873 188.564L124.988 185.012C124.958 184.891 124.899 184.78 124.811 184.678C124.728 184.575 124.627 184.501 124.508 184.456C124.423 184.428 124.327 184.416 124.221 184.422C124.114 184.424 124.002 184.435 123.883 184.457L123.789 184.078L125.67 183.473L125.772 183.534L125.974 184.345L126.003 184.337C126.165 183.962 126.374 183.656 126.629 183.42C126.884 183.183 127.134 183.034 127.379 182.973C127.624 182.912 127.842 182.942 128.033 183.064C128.228 183.184 128.359 183.379 128.426 183.647Z" fill="black"/>
<path d="M134.942 185.611C134.848 186.134 134.645 186.592 134.333 186.984C134.021 187.375 133.609 187.652 133.095 187.814C132.642 187.957 132.219 188.003 131.826 187.951C131.436 187.898 131.088 187.77 130.781 187.565C130.473 187.361 130.207 187.094 129.981 186.763C129.759 186.431 129.584 186.062 129.455 185.654C129.34 185.289 129.284 184.913 129.287 184.527C129.293 184.135 129.364 183.763 129.5 183.411C129.632 183.072 129.832 182.77 130.1 182.506C130.37 182.236 130.705 182.038 131.105 181.912C131.516 181.782 131.889 181.735 132.223 181.772C132.557 181.809 132.851 181.911 133.104 182.078C133.347 182.236 133.556 182.446 133.731 182.709C133.91 182.971 134.053 183.271 134.16 183.61L134.279 183.987L130.55 185.164C130.666 185.533 130.806 185.858 130.97 186.137C131.137 186.415 131.333 186.644 131.557 186.824C131.776 186.998 132.025 187.112 132.306 187.165C132.585 187.215 132.891 187.188 133.222 187.083C133.561 186.976 133.827 186.806 134.022 186.573C134.219 186.335 134.366 185.975 134.465 185.491L134.942 185.611ZM133.002 183.862C132.935 183.649 132.844 183.427 132.729 183.195C132.617 182.962 132.496 182.777 132.364 182.638C132.222 182.491 132.057 182.386 131.869 182.323C131.682 182.261 131.469 182.268 131.229 182.344C130.829 182.47 130.549 182.742 130.388 183.162C130.23 183.576 130.234 184.083 130.398 184.684L133.002 183.862Z" fill="black"/>
<path d="M143.246 186.671L140.268 187.854L140.12 187.48C140.232 187.427 140.342 187.372 140.449 187.317C140.557 187.261 140.65 187.203 140.729 187.141C140.829 187.058 140.884 186.961 140.891 186.85C140.899 186.739 140.878 186.621 140.827 186.494L140.019 184.461L139.982 184.463C139.949 184.554 139.894 184.666 139.818 184.8C139.744 184.928 139.658 185.044 139.561 185.147C139.443 185.285 139.324 185.401 139.202 185.497C139.082 185.596 138.918 185.687 138.709 185.77C138.374 185.904 138.03 185.96 137.678 185.941C137.327 185.916 136.991 185.819 136.669 185.65C136.349 185.484 136.05 185.242 135.774 184.925C135.499 184.603 135.274 184.221 135.098 183.777C134.93 183.357 134.853 182.945 134.866 182.544C134.877 182.138 134.955 181.758 135.099 181.403C135.237 181.068 135.442 180.765 135.713 180.493C135.987 180.216 136.286 180.013 136.61 179.884C136.852 179.788 137.076 179.727 137.281 179.702C137.489 179.671 137.672 179.661 137.832 179.671C137.966 179.673 138.107 179.691 138.253 179.723C138.398 179.752 138.5 179.769 138.559 179.776L138.745 178.861L139.082 178.779C139.176 179.061 139.29 179.408 139.424 179.821C139.561 180.232 139.69 180.588 139.81 180.89L141.834 185.984C141.886 186.114 141.955 186.216 142.04 186.29C142.127 186.368 142.234 186.409 142.361 186.415C142.465 186.417 142.592 186.403 142.74 186.374C142.889 186.35 143.008 186.324 143.097 186.297L143.246 186.671ZM139.826 183.975L138.519 180.685C138.452 180.603 138.361 180.521 138.246 180.437C138.13 180.35 138.006 180.283 137.875 180.236C137.735 180.188 137.577 180.164 137.401 180.165C137.228 180.165 137.043 180.204 136.846 180.282C136.41 180.455 136.133 180.826 136.014 181.395C135.899 181.963 135.998 182.641 136.312 183.431C136.436 183.744 136.576 184.016 136.733 184.247C136.893 184.476 137.088 184.673 137.316 184.836C137.533 184.992 137.769 185.092 138.024 185.137C138.278 185.179 138.561 185.137 138.874 185.013C139.142 184.906 139.349 184.759 139.495 184.572C139.639 184.381 139.749 184.182 139.826 183.975Z" fill="black"/>
<path d="M148.494 181.025L146.82 181.995L146.702 181.959L146.371 181.284L146.338 181.3C146.296 181.433 146.247 181.577 146.19 181.735C146.132 181.888 146.053 182.041 145.953 182.193C145.839 182.369 145.719 182.52 145.592 182.644C145.466 182.769 145.264 182.899 144.987 183.035C144.516 183.267 144.082 183.291 143.683 183.107C143.287 182.918 142.944 182.53 142.656 181.944L141.406 179.397C141.342 179.268 141.264 179.172 141.171 179.111C141.08 179.044 140.972 179.001 140.847 178.982C140.761 178.971 140.665 178.98 140.559 179.009C140.451 179.036 140.342 179.072 140.23 179.117L140.058 178.767L141.769 177.765L141.887 177.801L143.703 181.497C143.892 181.882 144.12 182.129 144.388 182.238C144.656 182.348 144.911 182.343 145.152 182.225C145.35 182.128 145.511 182.01 145.635 181.873C145.76 181.736 145.854 181.601 145.918 181.467C145.978 181.343 146.024 181.223 146.055 181.105C146.088 180.981 146.107 180.874 146.111 180.783L144.63 177.767C144.571 177.648 144.495 177.556 144.4 177.491C144.304 177.422 144.195 177.377 144.073 177.357C143.987 177.346 143.878 177.368 143.745 177.424C143.614 177.476 143.467 177.536 143.305 177.607L143.133 177.256L145.001 176.178L145.119 176.214L147.194 180.438C147.254 180.56 147.33 180.652 147.423 180.714C147.516 180.775 147.622 180.815 147.742 180.832C147.826 180.84 147.917 180.828 148.014 180.799C148.109 180.765 148.212 180.724 148.321 180.675L148.494 181.025Z" fill="black"/>
<path d="M153.2 176.788C153.225 177.322 153.128 177.815 152.91 178.267C152.692 178.72 152.349 179.083 151.882 179.356C151.471 179.597 151.067 179.736 150.67 179.772C150.278 179.807 149.908 179.759 149.562 179.627C149.215 179.495 148.895 179.293 148.6 179.02C148.309 178.744 148.056 178.422 147.839 178.051C147.645 177.719 147.506 177.364 147.424 176.985C147.343 176.601 147.33 176.221 147.384 175.845C147.438 175.485 147.566 175.145 147.77 174.826C147.975 174.502 148.259 174.234 148.622 174.021C148.995 173.803 149.35 173.674 149.685 173.636C150.02 173.598 150.33 173.632 150.616 173.739C150.888 173.84 151.139 173.999 151.369 174.217C151.602 174.434 151.809 174.696 151.989 175.004L152.189 175.346L148.802 177.328C148.998 177.664 149.207 177.95 149.429 178.187C149.655 178.421 149.897 178.602 150.157 178.729C150.409 178.85 150.679 178.906 150.966 178.896C151.25 178.883 151.543 178.788 151.844 178.612C152.152 178.432 152.375 178.206 152.513 177.935C152.653 177.658 152.718 177.272 152.707 176.777L153.2 176.788ZM150.912 175.508C150.799 175.315 150.66 175.117 150.496 174.916C150.336 174.713 150.176 174.558 150.016 174.452C149.843 174.339 149.658 174.273 149.461 174.254C149.264 174.235 149.057 174.289 148.839 174.416C148.476 174.629 148.262 174.958 148.198 175.404C148.136 175.844 148.252 176.341 148.547 176.892L150.912 175.508Z" fill="black"/>
<path d="M160.052 173.8L157.671 175.455L157.445 175.13C157.516 175.071 157.594 175.007 157.678 174.939C157.765 174.868 157.832 174.803 157.877 174.742C157.949 174.648 157.981 174.551 157.973 174.449C157.967 174.341 157.922 174.228 157.84 174.11L156.103 171.611C155.863 171.266 155.596 171.057 155.301 170.984C155.01 170.908 154.748 170.952 154.515 171.114C154.34 171.235 154.201 171.374 154.095 171.53C153.987 171.683 153.904 171.838 153.847 171.994C153.791 172.145 153.762 172.288 153.757 172.422C153.754 172.551 153.756 172.652 153.763 172.725L155.706 175.52C155.784 175.632 155.871 175.708 155.967 175.748C156.063 175.788 156.171 175.796 156.29 175.772C156.382 175.757 156.473 175.73 156.564 175.691C156.657 175.651 156.749 175.604 156.839 175.551L157.065 175.877L154.684 177.531L154.458 177.206C154.529 177.147 154.602 177.087 154.676 177.025C154.754 176.962 154.815 176.899 154.861 176.839C154.932 176.745 154.964 176.647 154.957 176.545C154.95 176.438 154.906 176.325 154.823 176.207L152.737 173.205C152.659 173.093 152.564 173.008 152.451 172.951C152.338 172.887 152.219 172.856 152.092 172.856C152.003 172.86 151.909 172.884 151.812 172.926C151.713 172.966 151.612 173.017 151.509 173.079L151.286 172.759L152.828 171.526L152.945 171.547L153.421 172.232L153.445 172.215C153.469 172.082 153.503 171.92 153.546 171.729C153.586 171.535 153.635 171.367 153.693 171.225C153.759 171.061 153.858 170.895 153.989 170.726C154.12 170.557 154.291 170.399 154.501 170.253C154.968 169.929 155.414 169.835 155.841 169.972C156.269 170.104 156.651 170.411 156.986 170.894L158.744 173.423C158.824 173.538 158.909 173.618 158.998 173.663C159.086 173.704 159.191 173.712 159.314 173.685C159.415 173.663 159.499 173.639 159.564 173.613C159.632 173.585 159.719 173.539 159.826 173.475L160.052 173.8Z" fill="black"/>
<path d="M163.035 171.636C162.366 172.172 161.664 172.369 160.93 172.228C160.196 172.086 159.529 171.642 158.931 170.894C158.671 170.569 158.478 170.225 158.353 169.863C158.228 169.496 158.171 169.119 158.179 168.732C158.186 168.362 158.275 167.999 158.446 167.641C158.614 167.281 158.863 166.969 159.191 166.706C159.645 166.343 160.102 166.157 160.562 166.149C161.019 166.137 161.398 166.319 161.699 166.694C161.824 166.851 161.898 167.02 161.92 167.202C161.94 167.381 161.864 167.539 161.692 167.677C161.507 167.825 161.326 167.893 161.148 167.882C160.972 167.868 160.838 167.803 160.746 167.687C160.633 167.546 160.537 167.388 160.457 167.21C160.374 167.03 160.308 166.903 160.259 166.829C160.126 166.777 159.99 166.781 159.852 166.84C159.715 166.893 159.582 166.971 159.454 167.073C159.304 167.194 159.186 167.342 159.101 167.517C159.017 167.688 158.979 167.91 158.988 168.185C158.998 168.434 159.073 168.72 159.214 169.044C159.355 169.367 159.573 169.714 159.868 170.083C160.334 170.665 160.842 171.038 161.394 171.202C161.947 171.36 162.433 171.272 162.852 170.936C163.156 170.693 163.35 170.417 163.436 170.107C163.525 169.795 163.539 169.422 163.479 168.987L163.937 168.944C164.026 169.479 163.988 169.989 163.823 170.475C163.658 170.962 163.395 171.349 163.035 171.636Z" fill="black"/>
<path d="M167.434 167.689L165.284 169.582L165.022 169.284C165.086 169.217 165.151 169.149 165.218 169.08C165.288 169.008 165.342 168.939 165.38 168.873C165.44 168.772 165.461 168.671 165.442 168.571C165.423 168.464 165.366 168.357 165.271 168.249L162.855 165.504C162.77 165.408 162.671 165.34 162.557 165.302C162.444 165.258 162.324 165.243 162.198 165.258C162.109 165.272 162 165.314 161.871 165.386C161.739 165.454 161.625 165.525 161.53 165.598L161.272 165.305L162.754 163.825L162.872 163.833L166.062 167.457C166.154 167.562 166.25 167.632 166.35 167.667C166.453 167.699 166.563 167.693 166.679 167.65C166.769 167.619 166.853 167.584 166.932 167.547C167.009 167.506 167.089 167.455 167.172 167.392L167.434 167.689ZM161.364 161.937C161.514 162.108 161.589 162.308 161.589 162.538C161.589 162.762 161.506 162.947 161.341 163.092C161.188 163.227 161.001 163.285 160.781 163.265C160.561 163.24 160.383 163.149 160.245 162.993C160.1 162.827 160.028 162.634 160.031 162.413C160.037 162.189 160.116 162.01 160.27 161.875C160.441 161.725 160.632 161.66 160.844 161.682C161.055 161.699 161.229 161.783 161.364 161.937Z" fill="black"/>
<path d="M170.853 162.454C171.008 162.964 171.035 163.464 170.936 163.955C170.836 164.446 170.594 164.881 170.21 165.259C169.872 165.593 169.516 165.826 169.142 165.959C168.771 166.09 168.402 166.134 168.035 166.091C167.668 166.049 167.308 165.932 166.957 165.74C166.608 165.546 166.283 165.296 165.983 164.992C165.714 164.719 165.493 164.409 165.32 164.063C165.147 163.712 165.041 163.348 165.001 162.972C164.964 162.61 165.005 162.25 165.123 161.892C165.242 161.529 165.45 161.2 165.749 160.905C166.056 160.602 166.367 160.391 166.682 160.272C166.996 160.153 167.304 160.11 167.606 160.143C167.894 160.173 168.176 160.265 168.452 160.42C168.731 160.572 168.995 160.774 169.244 161.027L169.522 161.309L166.735 164.057C167.007 164.332 167.28 164.558 167.553 164.732C167.828 164.903 168.107 165.018 168.389 165.077C168.663 165.132 168.937 165.12 169.212 165.04C169.484 164.957 169.743 164.794 169.991 164.55C170.244 164.3 170.404 164.027 170.471 163.731C170.538 163.429 170.506 163.041 170.374 162.565L170.853 162.454ZM168.328 161.779C168.171 161.62 167.988 161.463 167.78 161.309C167.575 161.153 167.383 161.042 167.202 160.979C167.008 160.913 166.813 160.894 166.618 160.924C166.423 160.954 166.235 161.057 166.056 161.234C165.757 161.528 165.632 161.899 165.68 162.345C165.727 162.787 165.961 163.237 166.382 163.698L168.328 161.779Z" fill="black"/>
<path d="M172.834 157.902C173.051 157.876 173.259 157.892 173.458 157.952C173.658 158.011 173.859 158.132 174.062 158.313C174.472 158.678 174.67 159.131 174.656 159.671C174.644 160.208 174.421 160.72 173.986 161.208C173.757 161.465 173.499 161.662 173.211 161.797C172.926 161.93 172.704 162.008 172.543 162.032L172.755 162.381L172.455 162.718L170.876 161.391L171.152 161.081C171.29 161.161 171.472 161.232 171.696 161.293C171.921 161.354 172.146 161.385 172.37 161.386C172.606 161.387 172.84 161.346 173.074 161.265C173.311 161.18 173.519 161.036 173.701 160.833C173.957 160.545 174.09 160.267 174.1 159.997C174.107 159.724 173.989 159.479 173.747 159.263C173.621 159.151 173.491 159.081 173.356 159.052C173.22 159.017 173.075 159.017 172.921 159.051C172.765 159.088 172.595 159.155 172.413 159.251C172.229 159.343 172.031 159.454 171.819 159.583C171.652 159.686 171.455 159.792 171.229 159.902C171.002 160.006 170.785 160.075 170.577 160.11C170.355 160.148 170.13 160.141 169.903 160.089C169.676 160.037 169.459 159.918 169.253 159.735C168.891 159.412 168.704 159.004 168.693 158.511C168.681 158.018 168.877 157.545 169.28 157.093C169.434 156.92 169.614 156.763 169.819 156.624C170.026 156.481 170.212 156.381 170.376 156.324L170.235 156.013L170.523 155.689L172.005 156.89L171.729 157.2C171.356 156.98 170.978 156.887 170.594 156.92C170.209 156.948 169.884 157.111 169.617 157.41C169.398 157.656 169.288 157.903 169.285 158.153C169.282 158.403 169.368 158.605 169.541 158.76C169.676 158.88 169.808 158.958 169.938 158.993C170.07 159.025 170.209 159.022 170.355 158.986C170.495 158.949 170.651 158.888 170.825 158.801C170.999 158.709 171.208 158.592 171.452 158.45C171.691 158.309 171.929 158.189 172.168 158.09C172.409 157.988 172.631 157.925 172.834 157.902Z" fill="black"/>
<path d="M177.082 146.845L176.84 147.182C176.702 147.127 176.525 147.082 176.309 147.045C176.093 147.003 175.879 146.978 175.668 146.97C175.448 146.961 175.241 146.975 175.046 147.013C174.85 147.045 174.706 147.109 174.613 147.205C174.527 147.296 174.426 147.416 174.31 147.565C174.194 147.713 174.089 147.852 173.996 147.983L173.793 148.266L179.338 152.24C179.445 152.317 179.561 152.366 179.685 152.386C179.805 152.403 179.931 152.372 180.062 152.293C180.126 152.251 180.245 152.151 180.417 151.993C180.591 151.832 180.718 151.701 180.796 151.599L181.143 151.848L178.796 155.121L178.45 154.872C178.508 154.777 178.595 154.629 178.708 154.429C178.824 154.226 178.893 154.079 178.915 153.986C178.95 153.848 178.945 153.727 178.902 153.622C178.858 153.511 178.769 153.408 178.636 153.313L173.047 149.307L172.844 149.59C172.771 149.691 172.685 149.819 172.584 149.973C172.48 150.125 172.387 150.276 172.305 150.424C172.241 150.541 172.226 150.7 172.259 150.901C172.291 151.097 172.346 151.296 172.422 151.499C172.499 151.702 172.593 151.9 172.706 152.094C172.815 152.286 172.913 152.435 172.999 152.541L172.754 152.883L170.873 151.535L175.201 145.497L177.082 146.845Z" fill="black"/>
<path d="M180.514 143.279C180.688 143.385 180.816 143.523 180.901 143.691C180.981 143.858 180.968 144.029 180.859 144.206C180.743 144.397 180.604 144.513 180.442 144.555C180.283 144.594 180.144 144.576 180.025 144.503C179.95 144.458 179.885 144.411 179.83 144.363C179.777 144.312 179.723 144.262 179.668 144.215C179.57 144.375 179.52 144.602 179.518 144.895C179.516 145.189 179.588 145.484 179.735 145.78L182.668 147.574C182.787 147.647 182.898 147.684 183 147.686C183.104 147.684 183.205 147.645 183.303 147.569C183.389 147.505 183.481 147.411 183.579 147.289C183.68 147.163 183.764 147.053 183.831 146.958L184.168 147.165L182.543 149.821L182.206 149.615C182.247 149.532 182.289 149.448 182.332 149.362C182.377 149.273 182.408 149.191 182.426 149.118C182.453 149.004 182.443 148.901 182.395 148.811C182.346 148.716 182.26 148.63 182.138 148.555L179.026 146.652C178.921 146.587 178.801 146.549 178.668 146.538C178.536 146.523 178.413 146.541 178.297 146.592C178.217 146.632 178.141 146.691 178.07 146.769C177.995 146.845 177.923 146.932 177.854 147.03L177.522 146.827L178.435 145.082L178.55 145.055L179.26 145.489L179.276 145.463C179.129 145.084 179.063 144.72 179.079 144.374C179.094 144.028 179.167 143.747 179.299 143.533C179.43 143.318 179.606 143.187 179.827 143.14C180.05 143.089 180.279 143.135 180.514 143.279Z" fill="black"/>
<path d="M186.461 140.019C186.762 140.46 186.939 140.93 186.991 141.43C187.043 141.93 186.943 142.418 186.689 142.896C186.465 143.317 186.195 143.648 185.877 143.887C185.561 144.124 185.221 144.277 184.858 144.347C184.494 144.417 184.115 144.413 183.72 144.335C183.328 144.254 182.942 144.113 182.564 143.912C182.224 143.731 181.919 143.502 181.65 143.222C181.379 142.938 181.168 142.622 181.017 142.274C180.873 141.939 180.804 141.582 180.809 141.204C180.813 140.821 180.914 140.443 181.111 140.071C181.314 139.689 181.548 139.394 181.813 139.185C182.078 138.976 182.36 138.843 182.659 138.784C182.944 138.726 183.241 138.73 183.551 138.794C183.864 138.856 184.177 138.97 184.492 139.137L184.843 139.323L183.002 142.79C183.346 142.972 183.674 143.106 183.988 143.191C184.303 143.272 184.604 143.298 184.892 143.269C185.17 143.24 185.429 143.146 185.668 142.987C185.903 142.826 186.102 142.591 186.266 142.284C186.433 141.969 186.504 141.659 186.479 141.356C186.453 141.047 186.305 140.685 186.035 140.269L186.461 140.019ZM183.842 140.133C183.643 140.027 183.422 139.932 183.176 139.847C182.933 139.759 182.715 139.712 182.524 139.705C182.318 139.7 182.126 139.741 181.948 139.828C181.77 139.915 181.622 140.07 181.504 140.293C181.306 140.665 181.298 141.057 181.478 141.471C181.656 141.878 182.016 142.239 182.556 142.554L183.842 140.133Z" fill="black"/>
<path d="M190.265 134.72C190.25 134.919 190.232 135.093 190.21 135.241C190.193 135.387 190.148 135.543 190.074 135.708C189.947 135.993 189.779 136.192 189.571 136.306C189.36 136.414 189.116 136.434 188.839 136.368L188.824 136.401C188.982 136.756 189.069 137.102 189.086 137.438C189.104 137.771 189.027 138.13 188.856 138.514C188.675 138.92 188.401 139.2 188.035 139.352C187.67 139.501 187.286 139.486 186.884 139.306C186.675 139.213 186.502 139.101 186.363 138.969C186.224 138.837 186.115 138.683 186.036 138.507C185.967 138.367 185.924 138.203 185.906 138.015C185.886 137.826 185.879 137.654 185.886 137.499C185.898 137.307 185.931 136.922 185.986 136.346C186.043 135.766 186.063 135.367 186.046 135.149L185.502 134.906C185.455 134.885 185.358 134.855 185.213 134.817C185.07 134.775 184.923 134.76 184.773 134.772C184.605 134.785 184.441 134.837 184.282 134.928C184.121 135.014 183.985 135.18 183.876 135.425C183.801 135.593 183.76 135.764 183.753 135.936C183.745 136.103 183.758 136.23 183.794 136.317C183.868 136.349 183.983 136.381 184.14 136.412C184.299 136.439 184.439 136.479 184.56 136.533C184.688 136.59 184.779 136.701 184.833 136.865C184.889 137.026 184.871 137.209 184.779 137.414C184.698 137.597 184.573 137.704 184.406 137.734C184.237 137.76 184.072 137.737 183.911 137.665C183.742 137.59 183.607 137.459 183.506 137.274C183.406 137.084 183.338 136.868 183.302 136.624C183.273 136.413 183.276 136.175 183.311 135.91C183.342 135.643 183.408 135.398 183.507 135.175C183.644 134.868 183.785 134.61 183.93 134.403C184.073 134.19 184.256 134.022 184.478 133.897C184.697 133.771 184.945 133.712 185.221 133.721C185.496 133.725 185.816 133.809 186.182 133.972C186.706 134.205 187.168 134.418 187.569 134.61C187.967 134.801 188.405 135.003 188.885 135.217C189.028 135.28 189.152 135.307 189.257 135.297C189.364 135.283 189.47 135.238 189.574 135.162C189.631 135.122 189.688 135.044 189.744 134.928C189.801 134.809 189.858 134.687 189.913 134.563L190.265 134.72ZM186.512 135.343C186.465 135.695 186.433 136.008 186.416 136.281C186.4 136.555 186.412 136.821 186.454 137.081C186.497 137.32 186.581 137.53 186.706 137.713C186.827 137.894 187.004 138.037 187.239 138.142C187.542 138.277 187.801 138.298 188.014 138.204C188.228 138.107 188.39 137.936 188.499 137.69C188.615 137.431 188.655 137.174 188.619 136.921C188.579 136.666 188.503 136.433 188.391 136.221L186.512 135.343Z" fill="black"/>
<path d="M191.673 130.517C191.682 130.798 191.68 131.061 191.665 131.304C191.655 131.548 191.59 131.828 191.471 132.143C191.296 132.608 191.056 132.892 190.752 132.996C190.445 133.094 190.078 133.063 189.65 132.902L185.893 131.487L185.516 132.488L184.976 132.284L185.361 131.261L183.634 130.61L184.02 129.587L185.747 130.237L186.347 128.645L186.886 128.849L186.291 130.429L189.39 131.597C189.623 131.684 189.821 131.75 189.984 131.794C190.145 131.834 190.295 131.843 190.436 131.823C190.567 131.804 190.683 131.745 190.785 131.646C190.886 131.548 190.975 131.397 191.051 131.195C191.087 131.101 191.131 130.961 191.183 130.775C191.234 130.585 191.26 130.447 191.262 130.362L191.673 130.517Z" fill="black"/>
<path d="M195.068 120.068L194.281 122.85L193.899 122.742C193.916 122.651 193.934 122.56 193.951 122.47C193.97 122.375 193.977 122.289 193.974 122.213C193.969 122.096 193.932 122 193.861 121.926C193.788 121.847 193.682 121.787 193.543 121.748L190.599 120.916C190.198 120.802 189.863 120.808 189.595 120.932C189.324 121.051 189.15 121.247 189.072 121.521C189.019 121.71 188.998 121.895 189.009 122.078C189.02 122.26 189.057 122.435 189.122 122.603C189.176 122.739 189.241 122.86 189.32 122.965C189.395 123.066 189.461 123.144 189.515 123.201L192.806 124.132C192.941 124.17 193.06 124.179 193.161 124.158C193.259 124.135 193.347 124.075 193.425 123.976C193.485 123.897 193.534 123.826 193.573 123.762C193.609 123.693 193.648 123.602 193.688 123.488L194.07 123.596L193.299 126.32L192.918 126.212C192.935 126.122 192.951 126.035 192.967 125.951C192.983 125.864 192.989 125.783 192.986 125.707C192.981 125.589 192.944 125.493 192.873 125.419C192.8 125.34 192.694 125.281 192.555 125.242L189.611 124.409C189.21 124.296 188.875 124.301 188.607 124.425C188.336 124.544 188.162 124.741 188.084 125.014C188.031 125.203 188.012 125.389 188.026 125.573C188.037 125.755 188.075 125.93 188.14 126.098C188.193 126.234 188.263 126.356 188.349 126.463C188.432 126.57 188.494 126.65 188.537 126.704L191.805 127.628C191.936 127.665 192.054 127.669 192.158 127.64C192.262 127.612 192.352 127.55 192.429 127.455C192.49 127.385 192.543 127.31 192.586 127.231C192.629 127.151 192.67 127.061 192.707 126.959L193.088 127.067L192.305 129.837L191.923 129.729C191.941 129.638 191.959 129.545 191.977 129.451C191.997 129.352 192.005 129.265 192.001 129.189C191.997 129.071 191.959 128.975 191.889 128.901C191.815 128.822 191.709 128.763 191.57 128.724L188.025 127.721C187.902 127.686 187.783 127.684 187.671 127.715C187.555 127.74 187.449 127.793 187.351 127.874C187.284 127.934 187.222 128.014 187.164 128.115C187.103 128.214 187.052 128.32 187.011 128.434L186.635 128.327L187.048 126.383L187.152 126.325L187.967 126.555L187.979 126.515C187.91 126.391 187.829 126.241 187.737 126.066C187.645 125.89 187.576 125.73 187.529 125.588C187.474 125.427 187.445 125.237 187.44 125.019C187.436 124.798 187.467 124.569 187.534 124.334C187.638 123.964 187.828 123.674 188.104 123.465C188.376 123.254 188.669 123.131 188.983 123.095C188.888 122.918 188.804 122.763 188.734 122.631C188.66 122.493 188.59 122.321 188.523 122.115C188.464 121.94 188.432 121.746 188.426 121.532C188.421 121.314 188.453 121.083 188.521 120.84C188.658 120.358 188.924 120.021 189.32 119.829C189.715 119.637 190.241 119.634 190.897 119.819L193.794 120.639C193.929 120.677 194.048 120.685 194.149 120.664C194.247 120.642 194.335 120.581 194.413 120.483C194.473 120.404 194.524 120.325 194.568 120.245C194.608 120.161 194.648 120.066 194.686 119.96L195.068 120.068Z" fill="black"/>
<path d="M194.74 113.664C195.161 113.992 195.474 114.386 195.676 114.846C195.879 115.305 195.933 115.801 195.837 116.334C195.753 116.803 195.597 117.201 195.367 117.526C195.139 117.847 194.862 118.097 194.537 118.275C194.212 118.453 193.85 118.565 193.451 118.612C193.053 118.654 192.642 118.638 192.22 118.562C191.842 118.495 191.481 118.369 191.14 118.186C190.795 117.998 190.497 117.761 190.247 117.476C190.007 117.201 189.832 116.883 189.722 116.521C189.608 116.155 189.589 115.765 189.663 115.351C189.739 114.925 189.871 114.572 190.06 114.292C190.248 114.012 190.476 113.799 190.743 113.651C190.996 113.509 191.28 113.422 191.596 113.388C191.912 113.351 192.245 113.364 192.596 113.427L192.987 113.497L192.295 117.361C192.678 117.429 193.031 117.456 193.355 117.441C193.68 117.421 193.975 117.354 194.24 117.239C194.497 117.126 194.714 116.957 194.893 116.733C195.067 116.507 195.185 116.223 195.247 115.88C195.31 115.529 195.283 115.213 195.166 114.931C195.047 114.645 194.795 114.346 194.411 114.033L194.74 113.664ZM192.281 114.574C192.06 114.534 191.82 114.511 191.56 114.506C191.302 114.496 191.08 114.517 190.896 114.57C190.698 114.628 190.528 114.726 190.385 114.863C190.242 115 190.149 115.193 190.104 115.442C190.03 115.856 190.142 116.232 190.44 116.57C190.734 116.904 191.187 117.138 191.798 117.272L192.281 114.574Z" fill="black"/>
<path d="M196.989 106.52L196.671 109.406L196.277 109.362C196.279 109.27 196.282 109.17 196.286 109.061C196.29 108.949 196.285 108.855 196.268 108.781C196.245 108.666 196.192 108.577 196.11 108.516C196.025 108.45 195.91 108.409 195.767 108.393L192.738 108.06C192.32 108.014 191.986 108.078 191.737 108.252C191.488 108.422 191.349 108.649 191.318 108.932C191.294 109.143 191.307 109.34 191.355 109.522C191.4 109.705 191.462 109.869 191.543 110.015C191.62 110.156 191.708 110.273 191.807 110.364C191.902 110.451 191.98 110.516 192.039 110.559L195.427 110.932C195.563 110.947 195.677 110.931 195.771 110.885C195.865 110.839 195.942 110.763 196.002 110.656C196.051 110.577 196.09 110.491 196.121 110.397C196.152 110.3 196.177 110.2 196.196 110.097L196.591 110.141L196.273 113.027L195.879 112.983C195.881 112.891 195.883 112.796 195.886 112.7C195.889 112.599 195.882 112.512 195.866 112.437C195.843 112.322 195.79 112.234 195.708 112.172C195.622 112.106 195.508 112.065 195.365 112.05L191.726 111.649C191.591 111.634 191.464 111.651 191.346 111.698C191.224 111.741 191.122 111.811 191.039 111.906C190.982 111.977 190.939 112.063 190.907 112.164C190.872 112.265 190.844 112.375 190.823 112.493L190.434 112.451L190.519 110.476L190.612 110.402L191.442 110.493L191.445 110.463C191.36 110.357 191.26 110.225 191.144 110.067C191.025 109.909 190.93 109.762 190.86 109.625C190.781 109.467 190.721 109.283 190.679 109.073C190.638 108.863 190.631 108.63 190.659 108.375C190.721 107.81 190.945 107.411 191.329 107.179C191.71 106.943 192.193 106.857 192.778 106.921L195.843 107.259C195.983 107.274 196.099 107.263 196.192 107.225C196.281 107.186 196.355 107.112 196.416 107.001C196.466 106.91 196.503 106.831 196.527 106.766C196.55 106.696 196.573 106.599 196.595 106.477L196.989 106.52Z" fill="black"/>
<path d="M196.914 101.921C197.011 102.186 197.09 102.436 197.151 102.671C197.217 102.907 197.242 103.193 197.227 103.529C197.205 104.025 197.065 104.37 196.808 104.563C196.547 104.752 196.188 104.836 195.732 104.816L191.72 104.636L191.672 105.704L191.096 105.679L191.145 104.586L189.302 104.503L189.351 103.41L191.194 103.493L191.27 101.794L191.847 101.819L191.771 103.507L195.08 103.655C195.328 103.666 195.536 103.668 195.705 103.659C195.87 103.647 196.016 103.609 196.143 103.547C196.262 103.488 196.355 103.396 196.421 103.27C196.486 103.145 196.524 102.974 196.534 102.758C196.538 102.658 196.537 102.511 196.53 102.318C196.518 102.121 196.5 101.982 196.476 101.901L196.914 101.921Z" fill="black"/>
<path d="M69.5378 112.78H54.4478V111.29L55.9678 111.17C56.4396 111.159 56.9076 111.082 57.3578 110.94C57.7688 110.815 58.1228 110.55 58.3578 110.19C58.5413 109.817 58.6305 109.405 58.6178 108.99V89.6901C58.6302 89.2931 58.548 88.8989 58.3778 88.5401C58.1514 88.1597 57.7968 87.8725 57.3778 87.7301C56.9335 87.5703 56.4792 87.4401 56.0178 87.3401C55.4178 87.2101 54.8978 87.1101 54.4678 87.0601V85.5701H69.5378V87.0601L68.0978 87.2301C67.6039 87.2863 67.1156 87.3833 66.6378 87.5201C66.4265 87.5745 66.2287 87.6719 66.0566 87.8061C65.8846 87.9402 65.742 88.1084 65.6378 88.3001C65.4604 88.6749 65.3715 89.0854 65.3778 89.5001V108.78C65.3633 109.189 65.4527 109.595 65.6378 109.96C65.8683 110.332 66.2222 110.612 66.6378 110.75C67.071 110.911 67.5202 111.025 67.9778 111.09C68.4939 111.184 69.0146 111.25 69.5378 111.29V112.78Z" fill="#231F20"/>
<path d="M103.438 87.1001C103.028 87.1391 102.623 87.2161 102.228 87.3301C101.812 87.4653 101.413 87.6464 101.038 87.8701C100.56 88.1279 100.13 88.4662 99.7678 88.8701C99.4089 89.3359 99.1067 89.8428 98.8678 90.3801C98.4778 91.2601 97.9178 92.5501 97.2078 94.2501L94.7478 100.03C93.9278 101.97 93.0478 104.1 92.0878 106.42L89.3778 113.09H85.5078C83.7211 108.697 81.8978 104.24 80.0378 99.7201C78.1778 95.2001 76.8745 92.0567 76.1278 90.2901C75.9062 89.771 75.617 89.2834 75.2678 88.8401C74.8911 88.4347 74.4481 88.0966 73.9578 87.8401C73.5925 87.6321 73.2072 87.4612 72.8078 87.3301C72.3733 87.2174 71.9325 87.1306 71.4878 87.0701V85.5701H86.2278V87.0001C85.2793 87.0785 84.3412 87.2527 83.4278 87.5201C82.9278 87.7101 82.6878 87.9401 82.6878 88.2201C82.6881 88.3728 82.7117 88.5245 82.7578 88.6701C82.7578 88.8301 82.8678 89.0501 82.9578 89.3201C83.3678 90.4401 84.1078 92.3201 85.1778 94.8201C86.2478 97.3201 87.8478 101.26 89.9578 106.48C91.2511 103.3 92.3245 100.613 93.1778 98.4201C94.0278 96.2201 94.7878 94.2801 95.4378 92.5901C95.7578 91.7801 96.0178 91.0101 96.2378 90.3001C96.4114 89.7828 96.5157 89.2448 96.5478 88.7001C96.5478 88.2901 96.2578 87.9501 95.6678 87.7001C94.6097 87.3276 93.4993 87.1251 92.3778 87.1001V85.5701H103.378L103.438 87.1001Z" fill="#231F20"/>
<path d="M117.378 113.53C115.807 113.54 114.241 113.331 112.728 112.91C111.46 112.559 110.235 112.065 109.078 111.44L107.748 112.78H106.118L105.868 102.94H107.518C107.927 103.969 108.402 104.971 108.938 105.94C109.493 106.942 110.164 107.875 110.938 108.72C111.69 109.559 112.575 110.268 113.558 110.82C114.596 111.375 115.761 111.651 116.938 111.62C118.384 111.719 119.814 111.265 120.938 110.35C121.389 109.946 121.748 109.449 121.988 108.893C122.228 108.337 122.344 107.735 122.328 107.13C122.338 106.626 122.237 106.126 122.033 105.664C121.829 105.203 121.527 104.792 121.148 104.46C120.079 103.58 118.835 102.939 117.498 102.58L114.498 101.58C113.598 101.28 112.758 100.98 111.958 100.67C110.307 100.079 108.883 98.9838 107.888 97.5399C107 96.1932 106.534 94.6127 106.548 92.9999C106.551 91.9405 106.79 90.8952 107.248 89.9399C107.727 88.9321 108.407 88.0335 109.248 87.2999C110.204 86.5028 111.304 85.8953 112.488 85.5099C113.872 85.0397 115.326 84.8065 116.788 84.8199C118.225 84.8092 119.656 85.0218 121.028 85.4499C122.1 85.7727 123.138 86.198 124.128 86.7199L125.298 85.5699H126.968L127.118 94.8499H125.478C125.088 93.8499 124.638 92.8499 124.118 91.7799C123.678 90.8505 123.127 89.9775 122.478 89.1799C121.894 88.4617 121.182 87.8582 120.378 87.3999C119.488 86.9433 118.498 86.7164 117.498 86.7399C116.261 86.6895 115.05 87.1073 114.108 87.9099C113.69 88.2676 113.356 88.7129 113.13 89.214C112.904 89.7152 112.79 90.26 112.798 90.8099C112.782 91.3111 112.875 91.8098 113.072 92.271C113.269 92.7323 113.565 93.1448 113.938 93.4799C114.989 94.3236 116.2 94.946 117.498 95.3099L120.398 96.3099C121.398 96.6299 122.258 96.9299 123.018 97.2299C124.684 97.8076 126.152 98.8482 127.248 100.23C128.247 101.585 128.758 103.238 128.698 104.92C128.693 106.108 128.412 107.279 127.878 108.34C127.349 109.412 126.587 110.351 125.648 111.09C124.582 111.912 123.381 112.542 122.098 112.95C120.564 113.386 118.972 113.582 117.378 113.53V113.53Z" fill="#231F20"/>
<path d="M157.848 92.8401H156.378C155.903 91.6104 155.227 90.4682 154.378 89.4601C153.77 88.4821 152.817 87.7683 151.708 87.4601C151.328 87.4601 150.818 87.3701 150.178 87.3301C149.538 87.2901 148.948 87.2701 148.418 87.2701H144.178V98.0001H146.888C147.564 98.0117 148.237 97.9241 148.888 97.7401C149.457 97.5593 149.973 97.2397 150.388 96.8101C150.796 96.3401 151.111 95.7972 151.318 95.2101C151.582 94.5933 151.763 93.9443 151.858 93.2801H153.318V104.71H151.858C151.772 103.984 151.573 103.275 151.268 102.61C151.048 102.034 150.748 101.492 150.378 101C149.989 100.582 149.5 100.269 148.958 100.09C148.289 99.8767 147.59 99.7753 146.888 99.7901H144.178V108.79C144.168 109.199 144.257 109.603 144.438 109.97C144.668 110.343 145.022 110.623 145.438 110.76C145.813 110.903 146.202 111.01 146.598 111.08C147.088 111.17 147.598 111.25 148.068 111.3V112.79H133.378V111.3L134.858 111.13C135.296 111.098 135.729 111.014 136.148 110.88C136.56 110.758 136.915 110.492 137.148 110.13C137.333 109.747 137.423 109.325 137.408 108.9V89.6901C137.416 89.2967 137.334 88.9068 137.168 88.5501C136.943 88.1665 136.588 87.8758 136.168 87.7301C135.707 87.5508 135.232 87.4103 134.748 87.3101C134.158 87.1901 133.748 87.1001 133.398 87.0601V85.5701H157.858L157.848 92.8401Z" fill="#231F20"/>
<path d="M104.858 13.46C106.089 13.46 107.088 12.4616 107.088 11.23C107.088 9.9984 106.089 9 104.858 9C103.626 9 102.628 9.9984 102.628 11.23C102.628 12.4616 103.626 13.46 104.858 13.46Z" fill="#151247"/>
<path d="M117.198 14.2901C118.429 14.2901 119.428 13.2917 119.428 12.0601C119.428 10.8285 118.429 9.83008 117.198 9.83008C115.966 9.83008 114.968 10.8285 114.968 12.0601C114.968 13.2917 115.966 14.2901 117.198 14.2901Z" fill="#151247"/>
<path d="M129.298 16.8301C130.529 16.8301 131.528 15.8317 131.528 14.6001C131.528 13.3685 130.529 12.3701 129.298 12.3701C128.066 12.3701 127.068 13.3685 127.068 14.6001C127.068 15.8317 128.066 16.8301 129.298 16.8301Z" fill="#151247"/>
<path d="M140.928 21.0301C142.159 21.0301 143.158 20.0317 143.158 18.8001C143.158 17.5685 142.159 16.5701 140.928 16.5701C139.696 16.5701 138.698 17.5685 138.698 18.8001C138.698 20.0317 139.696 21.0301 140.928 21.0301Z" fill="#151247"/>
<path d="M151.868 26.8101C153.099 26.8101 154.098 25.8117 154.098 24.5801C154.098 23.3485 153.099 22.3501 151.868 22.3501C150.636 22.3501 149.638 23.3485 149.638 24.5801C149.638 25.8117 150.636 26.8101 151.868 26.8101Z" fill="#151247"/>
<path d="M161.888 34.0501C163.119 34.0501 164.118 33.0517 164.118 31.8201C164.118 30.5885 163.119 29.5901 161.888 29.5901C160.656 29.5901 159.658 30.5885 159.658 31.8201C159.658 33.0517 160.656 34.0501 161.888 34.0501Z" fill="#151247"/>
<path d="M170.808 42.6199C172.039 42.6199 173.038 41.6215 173.038 40.3899C173.038 39.1583 172.039 38.1599 170.808 38.1599C169.576 38.1599 168.578 39.1583 168.578 40.3899C168.578 41.6215 169.576 42.6199 170.808 42.6199Z" fill="#151247"/>
<path d="M178.448 52.3399C179.679 52.3399 180.678 51.3415 180.678 50.1099C180.678 48.8783 179.679 47.8799 178.448 47.8799C177.216 47.8799 176.218 48.8783 176.218 50.1099C176.218 51.3415 177.216 52.3399 178.448 52.3399Z" fill="#151247"/>
<path d="M184.658 63.0401C185.889 63.0401 186.888 62.0417 186.888 60.8101C186.888 59.5785 185.889 58.5801 184.658 58.5801C183.426 58.5801 182.428 59.5785 182.428 60.8101C182.428 62.0417 183.426 63.0401 184.658 63.0401Z" fill="#151247"/>
<path d="M189.328 74.49C190.559 74.49 191.558 73.4916 191.558 72.26C191.558 71.0284 190.559 70.03 189.328 70.03C188.096 70.03 187.098 71.0284 187.098 72.26C187.098 73.4916 188.096 74.49 189.328 74.49Z" fill="#151247"/>
<path d="M192.348 86.49C193.579 86.49 194.578 85.4916 194.578 84.26C194.578 83.0284 193.579 82.03 192.348 82.03C191.116 82.03 190.118 83.0284 190.118 84.26C190.118 85.4916 191.116 86.49 192.348 86.49Z" fill="#151247"/>
<path d="M92.5177 14.3599C93.7493 14.3599 94.7477 13.3615 94.7477 12.1299C94.7477 10.8983 93.7493 9.8999 92.5177 9.8999C91.2861 9.8999 90.2877 10.8983 90.2877 12.1299C90.2877 13.3615 91.2861 14.3599 92.5177 14.3599Z" fill="#151247"/>
<path d="M80.4278 16.96C81.6594 16.96 82.6578 15.9616 82.6578 14.73C82.6578 13.4984 81.6594 12.5 80.4278 12.5C79.1962 12.5 78.1978 13.4984 78.1978 14.73C78.1978 15.9616 79.1962 16.96 80.4278 16.96Z" fill="#151247"/>
<path d="M68.8178 21.22C70.0494 21.22 71.0478 20.2216 71.0478 18.99C71.0478 17.7584 70.0494 16.76 68.8178 16.76C67.5862 16.76 66.5878 17.7584 66.5878 18.99C66.5878 20.2216 67.5862 21.22 68.8178 21.22Z" fill="#151247"/>
<path d="M57.9177 27.0601C59.1493 27.0601 60.1477 26.0617 60.1477 24.8301C60.1477 23.5985 59.1493 22.6001 57.9177 22.6001C56.6861 22.6001 55.6877 23.5985 55.6877 24.8301C55.6877 26.0617 56.6861 27.0601 57.9177 27.0601Z" fill="#151247"/>
<path d="M47.9278 34.3499C49.1593 34.3499 50.1578 33.3515 50.1578 32.1199C50.1578 30.8883 49.1593 29.8899 47.9278 29.8899C46.6962 29.8899 45.6978 30.8883 45.6978 32.1199C45.6978 33.3515 46.6962 34.3499 47.9278 34.3499Z" fill="#151247"/>
<path d="M39.0578 42.97C40.2894 42.97 41.2878 41.9716 41.2878 40.74C41.2878 39.5084 40.2894 38.51 39.0578 38.51C37.8262 38.51 36.8278 39.5084 36.8278 40.74C36.8278 41.9716 37.8262 42.97 39.0578 42.97Z" fill="#151247"/>
<path d="M31.4678 52.73C32.6994 52.73 33.6978 51.7316 33.6978 50.5C33.6978 49.2684 32.6994 48.27 31.4678 48.27C30.2362 48.27 29.2378 49.2684 29.2378 50.5C29.2378 51.7316 30.2362 52.73 31.4678 52.73Z" fill="#151247"/>
<path d="M25.3178 63.46C26.5494 63.46 27.5478 62.4616 27.5478 61.23C27.5478 59.9984 26.5494 59 25.3178 59C24.0862 59 23.0878 59.9984 23.0878 61.23C23.0878 62.4616 24.0862 63.46 25.3178 63.46Z" fill="#151247"/>
<path d="M20.7078 74.94C21.9394 74.94 22.9378 73.9416 22.9378 72.71C22.9378 71.4784 21.9394 70.48 20.7078 70.48C19.4762 70.48 18.4778 71.4784 18.4778 72.71C18.4778 73.9416 19.4762 74.94 20.7078 74.94Z" fill="#151247"/>
<path d="M17.7478 86.95C18.9794 86.95 19.9778 85.9516 19.9778 84.72C19.9778 83.4884 18.9794 82.49 17.7478 82.49C16.5162 82.49 15.5178 83.4884 15.5178 84.72C15.5178 85.9516 16.5162 86.95 17.7478 86.95Z" fill="#151247"/>
</svg>
