<svg xmlns="http://www.w3.org/2000/svg" viewBox="0 0 380.18 78.82"><defs><style>.cls-1{fill:#231f20;}</style></defs><g id="Layer_2" data-name="Layer 2"><g id="Layer_1-2" data-name="Layer 1"><path class="cls-1" d="M127.43,47.7H101.68V45.15l2.6-.2a9.39,9.39,0,0,0,2.37-.39,3.19,3.19,0,0,0,1.66-1.29,4.29,4.29,0,0,0,.44-2.05V8.31a4.22,4.22,0,0,0-.43-2A3.08,3.08,0,0,0,106.65,5a14.42,14.42,0,0,0-2.32-.67,24.28,24.28,0,0,0-2.65-.47V1.28h25.75V3.83c-.66.06-1.47.16-2.45.28a14.14,14.14,0,0,0-2.49.5,2.7,2.7,0,0,0-1.7,1.33,4.63,4.63,0,0,0-.43,2V40.86a4.26,4.26,0,0,0,.44,2,3.23,3.23,0,0,0,1.69,1.36,10.69,10.69,0,0,0,2.27.57,25.31,25.31,0,0,0,2.67.35Z"/><path class="cls-1" d="M185.25,3.89a10.44,10.44,0,0,0-2.06.4,9,9,0,0,0-2,.91A8.22,8.22,0,0,0,179,7a11.92,11.92,0,0,0-1.52,2.57q-1,2.25-2.84,6.59T170.43,26q-2.1,5-4.53,10.89t-4.66,11.35h-6.58q-4.57-11.22-9.32-22.8t-6.68-16.1a11.15,11.15,0,0,0-1.45-2.47A8.69,8.69,0,0,0,135,5.14a9.31,9.31,0,0,0-2-.87,17.22,17.22,0,0,0-2.25-.44V1.28H155.9V3.76a25.21,25.21,0,0,0-4.79.9c-.84.32-1.25.72-1.25,1.2a2.75,2.75,0,0,0,.11.77c.08.27.19.63.34,1.09q1,2.88,3.8,9.4T162.25,37q3.3-8.13,5.5-13.75t3.85-9.94c.55-1.39,1-2.69,1.36-3.91a10.53,10.53,0,0,0,.54-2.73c0-.69-.5-1.28-1.5-1.75a18.81,18.81,0,0,0-5.56-1V1.28h18.81Z"/><path class="cls-1" d="M209,49a28.42,28.42,0,0,1-7.93-1.06,29.44,29.44,0,0,1-6.24-2.5l-2.25,2.29h-2.78l-.43-16.78h2.82a43.06,43.06,0,0,0,2.42,5,24.72,24.72,0,0,0,3.4,4.75,17.57,17.57,0,0,0,4.46,3.57,11.66,11.66,0,0,0,5.78,1.38c3,0,5.24-.73,6.82-2.18A7.13,7.13,0,0,0,217.42,38a6,6,0,0,0-2-4.57,16.87,16.87,0,0,0-6.23-3.2l-5.06-1.64c-1.53-.5-3-1-4.33-1.54a14.36,14.36,0,0,1-6.95-5.34A13.87,13.87,0,0,1,190.56,14a12.21,12.21,0,0,1,1.18-5.22,13.88,13.88,0,0,1,3.44-4.5,16.78,16.78,0,0,1,5.52-3.05A22,22,0,0,1,208,0a23.54,23.54,0,0,1,7.23,1.08,29.8,29.8,0,0,1,5.3,2.16l2-2h2.84l.27,15.83h-2.82q-1-2.56-2.3-5.23a23.16,23.16,0,0,0-2.8-4.44,12.78,12.78,0,0,0-3.7-3,10.19,10.19,0,0,0-4.9-1.13,8.36,8.36,0,0,0-5.78,2,6.37,6.37,0,0,0-2.24,5,5.87,5.87,0,0,0,2,4.55,16.84,16.84,0,0,0,6.07,3.12c1.61.54,3.25,1.09,4.93,1.63s3.18,1.07,4.49,1.58a16.13,16.13,0,0,1,7.21,5.06,12.77,12.77,0,0,1,2.47,8A12.88,12.88,0,0,1,226.84,40a13.48,13.48,0,0,1-3.79,4.68A19.19,19.19,0,0,1,217,47.86,26.16,26.16,0,0,1,209,49Z"/><path class="cls-1" d="M278.05,13.67H275.5a20.45,20.45,0,0,0-3.35-5.75c-1.6-2-3.12-3.15-4.55-3.34-.66-.09-1.53-.16-2.62-.23s-2.09-.1-3-.1h-7.22V22.44h4.61a11.52,11.52,0,0,0,3.41-.44,5.84,5.84,0,0,0,2.55-1.59,8.25,8.25,0,0,0,1.58-2.73,13.08,13.08,0,0,0,.94-3.28h2.48V33.93h-2.48a12.6,12.6,0,0,0-1-3.59,11,11,0,0,0-1.5-2.79A5.76,5.76,0,0,0,262.91,26a10.85,10.85,0,0,0-3.54-.51h-4.61V40.86a4.26,4.26,0,0,0,.44,2,3.23,3.23,0,0,0,1.69,1.36,10.4,10.4,0,0,0,2,.54c.84.16,1.67.29,2.5.38V47.7h-25V45.15l2.52-.28a9.13,9.13,0,0,0,2.19-.44,3,3,0,0,0,1.64-1.28,4.28,4.28,0,0,0,.46-2.09V8.31a4.44,4.44,0,0,0-.41-1.95A3.2,3.2,0,0,0,241.05,5a13.8,13.8,0,0,0-2.42-.72c-1-.21-1.76-.36-2.29-.42V1.28h41.71Z"/><path d="M5.3,75.14H0v-.59l.65,0a2.59,2.59,0,0,0,.6-.1.8.8,0,0,0,.39-.29.89.89,0,0,0,.13-.52V65.05a1.14,1.14,0,0,0-.09-.48.77.77,0,0,0-.43-.33,4.39,4.39,0,0,0-.63-.19A5.16,5.16,0,0,0,0,64v-.59H5.3V64a5.41,5.41,0,0,0-.61.06,3.84,3.84,0,0,0-.62.14.7.7,0,0,0-.43.32,1.18,1.18,0,0,0-.1.5V73.5a1,1,0,0,0,.12.48.84.84,0,0,0,.41.34,3.88,3.88,0,0,0,.57.14,3.79,3.79,0,0,0,.66.09Z"/><path d="M15.61,75.14h-4v-.55l.42,0a1.23,1.23,0,0,0,.38-.07.63.63,0,0,0,.35-.26,1,1,0,0,0,.11-.49v-4.2a2,2,0,0,0-.41-1.35,1.31,1.31,0,0,0-1-.47,2.28,2.28,0,0,0-.8.13,3.3,3.3,0,0,0-.65.34,2,2,0,0,0-.44.41c-.11.15-.19.27-.24.35v4.71a.86.86,0,0,0,.12.47.77.77,0,0,0,.35.28,1.41,1.41,0,0,0,.38.12,2.65,2.65,0,0,0,.42.06v.55h-4v-.55l.39,0a1.14,1.14,0,0,0,.35-.07.63.63,0,0,0,.35-.26,1,1,0,0,0,.11-.48v-5a1.14,1.14,0,0,0-.12-.52,1,1,0,0,0-.34-.39,1.24,1.24,0,0,0-.37-.14,3.16,3.16,0,0,0-.47-.06V67l2.73-.19.11.12v1.15h0l.5-.47a3.48,3.48,0,0,1,.57-.45,2.74,2.74,0,0,1,.73-.34,3.12,3.12,0,0,1,.95-.13,2,2,0,0,1,1.75.74,3.08,3.08,0,0,1,.57,2v4.26a.94.94,0,0,0,.1.47.65.65,0,0,0,.34.28l.34.11a2.85,2.85,0,0,0,.41,0Z"/><path d="M24.69,67.46a2.21,2.21,0,0,0-.71.27,1.66,1.66,0,0,0-.57.72c-.33.74-.67,1.51-1,2.32s-.72,1.65-1.09,2.53c-.11.26-.23.56-.35.91s-.24.68-.35,1H20c-.52-1.3-1-2.48-1.45-3.55s-.9-2.17-1.38-3.29a1.24,1.24,0,0,0-.53-.6,2.27,2.27,0,0,0-.75-.27V67h3.79v.59a2.9,2.9,0,0,0-.62.1c-.25.06-.37.15-.37.26a.4.4,0,0,0,0,.13c0,.07,0,.15.08.23l1,2.37c.41,1,.75,1.82,1,2.44l.75-1.77c.3-.71.63-1.5,1-2.37.05-.15.11-.29.16-.42a1.07,1.07,0,0,0,.07-.39.34.34,0,0,0-.14-.26,1.42,1.42,0,0,0-.32-.19,2.14,2.14,0,0,0-.38-.13l-.3-.05V67h3.13Z"/><path d="M32.32,73.21A4.08,4.08,0,0,1,31,74.77a3.48,3.48,0,0,1-2,.59A4.08,4.08,0,0,1,27.23,75a3.5,3.5,0,0,1-1.22-1,4.08,4.08,0,0,1-.72-1.39A5.9,5.9,0,0,1,25.05,71a5.19,5.19,0,0,1,.25-1.56A4.34,4.34,0,0,1,26.05,68a3.52,3.52,0,0,1,1.17-1,3.4,3.4,0,0,1,1.58-.36,3.94,3.94,0,0,1,1.53.28,2.75,2.75,0,0,1,1,.78,3.23,3.23,0,0,1,.57,1.09,5,5,0,0,1,.18,1.37v.55H26.7a5.93,5.93,0,0,0,.16,1.46,3.46,3.46,0,0,0,.48,1.16,2.3,2.3,0,0,0,.85.76,2.55,2.55,0,0,0,1.24.28,2.31,2.31,0,0,0,1.28-.35,3.34,3.34,0,0,0,1-1.24Zm-1.83-3.12a7.06,7.06,0,0,0-.08-1,3.25,3.25,0,0,0-.25-.89,1.77,1.77,0,0,0-.53-.62,1.4,1.4,0,0,0-.85-.24,1.76,1.76,0,0,0-1.45.73,3.43,3.43,0,0,0-.63,2Z"/><path d="M39.54,68a1.37,1.37,0,0,1-.21.75.7.7,0,0,1-.64.33,1,1,0,0,1-.71-.24.74.74,0,0,1-.24-.53,3.28,3.28,0,0,1,0-.34l.06-.3a1.82,1.82,0,0,0-.91.32,2.64,2.64,0,0,0-.89.9v4.76a.82.82,0,0,0,.11.47.62.62,0,0,0,.35.28,2.18,2.18,0,0,0,.54.12l.57.06v.55H33.27v-.55l.39,0a1.21,1.21,0,0,0,.36-.07.6.6,0,0,0,.34-.26.88.88,0,0,0,.11-.48v-5a1.16,1.16,0,0,0-.12-.51,1,1,0,0,0-.33-.4,1.31,1.31,0,0,0-.38-.14,3.2,3.2,0,0,0-.46-.06V67l2.72-.19L36,67v1.15h0a3.89,3.89,0,0,1,1.14-1,2.44,2.44,0,0,1,1.16-.34,1.12,1.12,0,0,1,.85.34A1.24,1.24,0,0,1,39.54,68Z"/><path d="M45.64,71.13a2.17,2.17,0,0,1,.52.69,2.27,2.27,0,0,1,.18,1,2.31,2.31,0,0,1-.85,1.86,3.28,3.28,0,0,1-2.2.73A3.34,3.34,0,0,1,42,75.1a3.53,3.53,0,0,1-.86-.48l-.16.54h-.62l-.09-2.84h.57a3.15,3.15,0,0,0,.29.75,3.86,3.86,0,0,0,.52.79,2.78,2.78,0,0,0,.78.61,2,2,0,0,0,1,.25,1.88,1.88,0,0,0,1.23-.36,1.46,1.46,0,0,0,.3-1.64,1.22,1.22,0,0,0-.41-.44,2.79,2.79,0,0,0-.67-.35c-.26-.1-.56-.2-.89-.3s-.55-.19-.86-.32a3.77,3.77,0,0,1-.82-.48,2.29,2.29,0,0,1-.6-.71,2.14,2.14,0,0,1-.23-1,2.22,2.22,0,0,1,.75-1.7,2.77,2.77,0,0,1,2-.7,3.78,3.78,0,0,1,1,.13,3.22,3.22,0,0,1,.82.3l.19-.44h.6l.12,2.63h-.57a2.71,2.71,0,0,0-.75-1.43,2,2,0,0,0-1.41-.56,1.57,1.57,0,0,0-1.07.35,1,1,0,0,0-.39.82,1.34,1.34,0,0,0,.13.63,1.16,1.16,0,0,0,.38.42,3.7,3.7,0,0,0,.63.31q.38.15.93.33a8,8,0,0,1,1,.4A3.57,3.57,0,0,1,45.64,71.13Z"/><path d="M54.85,73.21a4,4,0,0,1-1.38,1.56,3.42,3.42,0,0,1-2,.59A4,4,0,0,1,49.76,75a3.53,3.53,0,0,1-1.23-1,3.9,3.9,0,0,1-.71-1.39A5.9,5.9,0,0,1,47.58,71a4.9,4.9,0,0,1,.25-1.56A4.34,4.34,0,0,1,48.58,68a3.52,3.52,0,0,1,1.17-1,3.39,3.39,0,0,1,1.57-.36,4,4,0,0,1,1.54.28,2.75,2.75,0,0,1,1,.78,3.23,3.23,0,0,1,.57,1.09,5,5,0,0,1,.18,1.37v.55H49.23a5.93,5.93,0,0,0,.16,1.46,3.46,3.46,0,0,0,.48,1.16,2.3,2.3,0,0,0,.85.76,2.55,2.55,0,0,0,1.24.28,2.31,2.31,0,0,0,1.28-.35,3.43,3.43,0,0,0,1-1.24ZM53,70.09a7.06,7.06,0,0,0-.08-1,3.25,3.25,0,0,0-.25-.89,1.77,1.77,0,0,0-.53-.62,1.4,1.4,0,0,0-.85-.24,1.76,1.76,0,0,0-1.45.73,3.36,3.36,0,0,0-.63,2Z"/><path d="M64.76,75l-2.86.18-.13-.11v-.77h-.06a3.29,3.29,0,0,1-1.07.78,2.86,2.86,0,0,1-1.3.31A3,3,0,0,1,58,75.06a3.43,3.43,0,0,1-1.13-.88,4.26,4.26,0,0,1-.78-1.37A5.32,5.32,0,0,1,55.8,71a4.81,4.81,0,0,1,.3-1.69A4.56,4.56,0,0,1,57,68a3.75,3.75,0,0,1,1.24-.89,3.63,3.63,0,0,1,1.5-.33,4.26,4.26,0,0,1,1.12.15,4.19,4.19,0,0,1,.95.36V64.39a1.61,1.61,0,0,0-.12-.63.94.94,0,0,0-.32-.44,1.66,1.66,0,0,0-.63-.23,7.08,7.08,0,0,0-.85-.1v-.52l3.35-.18.13.12v11a1.07,1.07,0,0,0,.11.49.83.83,0,0,0,.33.34,1,1,0,0,0,.45.13l.55,0Zm-3-1.44V68.76a2.69,2.69,0,0,0-.22-.46,2,2,0,0,0-.37-.46,2.09,2.09,0,0,0-.56-.34,2,2,0,0,0-.76-.14,1.72,1.72,0,0,0-.91.26,2.37,2.37,0,0,0-.74.74,3.68,3.68,0,0,0-.49,1.18,6.55,6.55,0,0,0-.18,1.59,5.55,5.55,0,0,0,.14,1.27,3.13,3.13,0,0,0,.44,1,2.41,2.41,0,0,0,.74.75,2,2,0,0,0,1.08.28A1.87,1.87,0,0,0,61,74.19,3.32,3.32,0,0,0,61.76,73.55Z"/><path d="M80.74,64a2,2,0,0,0-.52.1,1.6,1.6,0,0,0-.51.21,1.27,1.27,0,0,0-.45.44,6.44,6.44,0,0,0-.34.65c-.37.88-.92,2.25-1.66,4.12s-1.51,3.8-2.3,5.82h-.68L72,69.1c-.74-2-1.25-3.33-1.51-4a1.68,1.68,0,0,0-.27-.45,1.83,1.83,0,0,0-.44-.37,1.4,1.4,0,0,0-.5-.21,2.53,2.53,0,0,0-.5-.09v-.59h4.87V64a6.94,6.94,0,0,0-1.05.12c-.28.07-.43.17-.43.33a.59.59,0,0,0,0,.21c0,.09,0,.15,0,.2l1,2.66,2,5.23c.42-1,.9-2.23,1.45-3.63s.92-2.35,1.11-2.87a6.81,6.81,0,0,0,.32-1,3.06,3.06,0,0,0,0-.47.37.37,0,0,0-.17-.32,1.35,1.35,0,0,0-.45-.22,3.48,3.48,0,0,0-.56-.12L76.36,64v-.59h4.38Z"/><path d="M85,75.14H81v-.55l.39,0a1.14,1.14,0,0,0,.35-.07.63.63,0,0,0,.35-.26,1,1,0,0,0,.11-.48v-5a1,1,0,0,0-.12-.49,1,1,0,0,0-.34-.37,1.7,1.7,0,0,0-.45-.17,4.05,4.05,0,0,0-.55-.08V67l2.89-.19.11.12v6.67a.91.91,0,0,0,.12.49.67.67,0,0,0,.35.28l.35.12a2.28,2.28,0,0,0,.39.06Zm-1-11.51a1.18,1.18,0,0,1-.31.82,1,1,0,0,1-1.5,0,1.1,1.1,0,0,1-.31-.77,1.15,1.15,0,0,1,.31-.8,1,1,0,0,1,.73-.34,1,1,0,0,1,.78.32A1.07,1.07,0,0,1,83.92,63.63Z"/><path d="M91.38,71.13a2.17,2.17,0,0,1,.52.69,2.27,2.27,0,0,1,.18,1,2.31,2.31,0,0,1-.85,1.86,3.3,3.3,0,0,1-2.2.73,3.72,3.72,0,0,1-2.18-.74l-.16.54h-.63L86,72.32h.57a3.55,3.55,0,0,0,.28.75,3.9,3.9,0,0,0,.53.79,2.73,2.73,0,0,0,.77.61,2.06,2.06,0,0,0,1,.25,1.88,1.88,0,0,0,1.23-.36,1.27,1.27,0,0,0,.43-1,1.16,1.16,0,0,0-.14-.6,1.19,1.19,0,0,0-.4-.44,3,3,0,0,0-.67-.35c-.27-.1-.56-.2-.89-.3s-.55-.19-.87-.32a3.47,3.47,0,0,1-.81-.48,2.17,2.17,0,0,1-.6-.71,2,2,0,0,1-.23-1,2.21,2.21,0,0,1,.74-1.7,2.8,2.8,0,0,1,2-.7,3.85,3.85,0,0,1,1,.13,3.13,3.13,0,0,1,.81.3l.2-.44h.59l.13,2.63h-.58a2.58,2.58,0,0,0-.75-1.43,1.94,1.94,0,0,0-1.4-.56,1.55,1.55,0,0,0-1.07.35,1,1,0,0,0-.39.82,1.48,1.48,0,0,0,.12.63,1.29,1.29,0,0,0,.39.42,3.36,3.36,0,0,0,.63.31q.38.15.93.33a7.35,7.35,0,0,1,1,.4A3.65,3.65,0,0,1,91.38,71.13Z"/><path d="M97.29,75.14h-4v-.55l.4,0a1.21,1.21,0,0,0,.35-.07.63.63,0,0,0,.35-.26,1,1,0,0,0,.11-.48v-5a1,1,0,0,0-.12-.49,1,1,0,0,0-.34-.37,1.79,1.79,0,0,0-.46-.17,3.93,3.93,0,0,0-.54-.08V67L96,66.85l.11.12v6.67a1,1,0,0,0,.11.49.71.71,0,0,0,.35.28,2.53,2.53,0,0,0,.36.12,2,2,0,0,0,.39.06Zm-1-11.51a1.23,1.23,0,0,1-.31.82,1,1,0,0,1-.77.35,1,1,0,0,1-.74-.33,1.14,1.14,0,0,1-.31-.77,1.2,1.2,0,0,1,.31-.8,1,1,0,0,1,.74-.34,1.08,1.08,0,0,1,1.08,1.07Z"/><path d="M106.28,71a5.49,5.49,0,0,1-.27,1.7,4,4,0,0,1-.78,1.42,3.6,3.6,0,0,1-1.33,1,4.23,4.23,0,0,1-1.7.33,3.73,3.73,0,0,1-1.48-.3,3.68,3.68,0,0,1-1.26-.86,4.06,4.06,0,0,1-.86-1.35,4.93,4.93,0,0,1-.32-1.8,4.46,4.46,0,0,1,1.12-3.14,4.09,4.09,0,0,1,5.77-.06A4.26,4.26,0,0,1,106.28,71Zm-1.72,0a7.89,7.89,0,0,0-.12-1.32,4.24,4.24,0,0,0-.37-1.17,2.37,2.37,0,0,0-.7-.83,1.82,1.82,0,0,0-1.06-.31,1.85,1.85,0,0,0-1.09.32,2.4,2.4,0,0,0-.74.86,3.68,3.68,0,0,0-.37,1.16,7.73,7.73,0,0,0-.11,1.25,7.52,7.52,0,0,0,.13,1.47,4,4,0,0,0,.41,1.21,2.42,2.42,0,0,0,.71.83,1.75,1.75,0,0,0,1.06.31,1.87,1.87,0,0,0,1.65-1A5.4,5.4,0,0,0,104.56,71Z"/><path d="M116.5,75.14h-4v-.55l.42,0a1.29,1.29,0,0,0,.38-.07.6.6,0,0,0,.34-.26.89.89,0,0,0,.11-.49v-4.2a2,2,0,0,0-.41-1.35,1.29,1.29,0,0,0-1-.47,2.37,2.37,0,0,0-.81.13,3.61,3.61,0,0,0-.65.34,1.89,1.89,0,0,0-.43.41c-.11.15-.19.27-.24.35v4.71a.86.86,0,0,0,.12.47.74.74,0,0,0,.34.28,1.68,1.68,0,0,0,.38.12,3,3,0,0,0,.42.06v.55h-4v-.55l.4,0a1.21,1.21,0,0,0,.35-.07.6.6,0,0,0,.34-.26.88.88,0,0,0,.12-.48v-5a1,1,0,0,0-.13-.52,1,1,0,0,0-.33-.39,1.35,1.35,0,0,0-.37-.14,3.35,3.35,0,0,0-.47-.06V67l2.72-.19.12.12v1.15h0l.5-.47a3.93,3.93,0,0,1,.56-.45,2.9,2.9,0,0,1,.73-.34,3.19,3.19,0,0,1,1-.13,2.06,2.06,0,0,1,1.75.74,3.14,3.14,0,0,1,.56,2v4.26a1.06,1.06,0,0,0,.1.47.69.69,0,0,0,.34.28,2.68,2.68,0,0,0,.35.11,2.87,2.87,0,0,0,.4,0Z"/><path d="M129.36,75l-.69.23a2.19,2.19,0,0,1-.66.09,1.65,1.65,0,0,1-1-.31,1.4,1.4,0,0,1-.49-.88h0a4,4,0,0,1-1.16.91,3.25,3.25,0,0,1-1.49.32,2.08,2.08,0,0,1-1.51-.57,1.93,1.93,0,0,1-.6-1.48,2.47,2.47,0,0,1,.14-.84,1.88,1.88,0,0,1,.39-.67,1.93,1.93,0,0,1,.55-.45,5.27,5.27,0,0,1,.64-.31l1.52-.52a13.08,13.08,0,0,0,1.54-.6v-.82a4.22,4.22,0,0,0,0-.42,2,2,0,0,0-.19-.58,1.81,1.81,0,0,0-.47-.53,1.37,1.37,0,0,0-.86-.23,1.83,1.83,0,0,0-.71.13,1.07,1.07,0,0,0-.46.27,1.93,1.93,0,0,0,.08.49,2.55,2.55,0,0,1,.07.59.68.68,0,0,1-.26.53,1,1,0,0,1-.72.25.67.67,0,0,1-.61-.3,1.15,1.15,0,0,1,.07-1.39,2.66,2.66,0,0,1,.7-.62,3.66,3.66,0,0,1,.91-.4,3.8,3.8,0,0,1,1-.16,6.26,6.26,0,0,1,1.22.1,2.15,2.15,0,0,1,.94.41,1.86,1.86,0,0,1,.65.83,3.72,3.72,0,0,1,.22,1.36q0,1.18,0,2.1c0,.62,0,1.28,0,2a.94.94,0,0,0,.11.51.9.9,0,0,0,.34.33,1,1,0,0,0,.4.08h.55Zm-2.9-4.38c-.47.14-.88.27-1.23.4a5.1,5.1,0,0,0-1,.5,2.33,2.33,0,0,0-.66.67,1.73,1.73,0,0,0-.24.92,1.32,1.32,0,0,0,.36,1,1.36,1.36,0,0,0,.92.32,1.83,1.83,0,0,0,1-.29,2.86,2.86,0,0,0,.75-.67Z"/><path d="M139.21,75.14h-4v-.55l.42,0a1.29,1.29,0,0,0,.38-.07.6.6,0,0,0,.34-.26.89.89,0,0,0,.11-.49v-4.2a2,2,0,0,0-.41-1.35,1.29,1.29,0,0,0-1-.47,2.37,2.37,0,0,0-.81.13,3.61,3.61,0,0,0-.65.34,2.12,2.12,0,0,0-.43.41c-.11.15-.19.27-.24.35v4.71a.86.86,0,0,0,.12.47.72.72,0,0,0,.35.28,1.46,1.46,0,0,0,.37.12,3,3,0,0,0,.42.06v.55h-4v-.55l.4,0a1.21,1.21,0,0,0,.35-.07.6.6,0,0,0,.34-.26.88.88,0,0,0,.12-.48v-5a1.14,1.14,0,0,0-.12-.52,1.07,1.07,0,0,0-.34-.39,1.35,1.35,0,0,0-.37-.14,3.35,3.35,0,0,0-.47-.06V67l2.72-.19.12.12v1.15h0l.5-.47a3.93,3.93,0,0,1,.56-.45,2.9,2.9,0,0,1,.73-.34,3.23,3.23,0,0,1,1-.13,2,2,0,0,1,1.75.74,3.08,3.08,0,0,1,.57,2v4.26a1.06,1.06,0,0,0,.09.47.67.67,0,0,0,.35.28,2.19,2.19,0,0,0,.34.11,2.87,2.87,0,0,0,.4,0Z"/><path d="M149.18,75l-2.86.18-.13-.11v-.77h-.06a3.4,3.4,0,0,1-1.07.78,2.89,2.89,0,0,1-1.3.31,3,3,0,0,1-1.35-.31,3.43,3.43,0,0,1-1.13-.88,4.26,4.26,0,0,1-.78-1.37,5.32,5.32,0,0,1-.28-1.78,4.81,4.81,0,0,1,.3-1.69,4.56,4.56,0,0,1,.85-1.39,3.75,3.75,0,0,1,1.24-.89,3.62,3.62,0,0,1,1.49-.33,4.28,4.28,0,0,1,1.13.15,4.19,4.19,0,0,1,1,.36V64.39a1.61,1.61,0,0,0-.12-.63.94.94,0,0,0-.32-.44,1.66,1.66,0,0,0-.63-.23,7.08,7.08,0,0,0-.85-.1v-.52l3.35-.18.13.12v11a1,1,0,0,0,.11.49.83.83,0,0,0,.33.34,1,1,0,0,0,.45.13l.55,0Zm-3-1.44V68.76a2.69,2.69,0,0,0-.22-.46,2,2,0,0,0-.37-.46,2.09,2.09,0,0,0-.56-.34,2,2,0,0,0-.76-.14,1.69,1.69,0,0,0-.91.26,2.51,2.51,0,0,0-.75.74,3.92,3.92,0,0,0-.48,1.18,6.55,6.55,0,0,0-.18,1.59,6.2,6.2,0,0,0,.13,1.27,3.37,3.37,0,0,0,.45,1,2.31,2.31,0,0,0,.74.75,2,2,0,0,0,1.08.28,1.87,1.87,0,0,0,1.09-.29A3.32,3.32,0,0,0,146.18,73.55Z"/><path d="M161.62,69.74a2.66,2.66,0,0,1,.56.9,3.39,3.39,0,0,1,.17,1.15,3.29,3.29,0,0,1-1.15,2.58,4.2,4.2,0,0,1-2.86,1,5.41,5.41,0,0,1-1.58-.24,6.38,6.38,0,0,1-1.36-.6l-.36.61h-.66l-.12-4h.67a8.48,8.48,0,0,0,.49,1.35,4.74,4.74,0,0,0,.73,1.13,3.65,3.65,0,0,0,1,.78,3,3,0,0,0,1.34.29,3,3,0,0,0,1-.15,1.7,1.7,0,0,0,.7-.43,1.67,1.67,0,0,0,.39-.64,2.49,2.49,0,0,0,.13-.85,2.35,2.35,0,0,0-.4-1.32,2.4,2.4,0,0,0-1.19-.93l-1.23-.47c-.47-.18-.87-.34-1.21-.49a3.82,3.82,0,0,1-1.54-1.18,3,3,0,0,1-.56-1.89,3,3,0,0,1,.28-1.26,3.2,3.2,0,0,1,.78-1,3.42,3.42,0,0,1,1.14-.68,3.9,3.9,0,0,1,1.36-.25,4.13,4.13,0,0,1,1.46.25,7.62,7.62,0,0,1,1.18.58l.34-.56h.66l.07,3.91h-.68a12.16,12.16,0,0,0-.41-1.29,4.52,4.52,0,0,0-.59-1.11,2.78,2.78,0,0,0-.87-.77,2.58,2.58,0,0,0-1.26-.28,2,2,0,0,0-1.35.5,1.61,1.61,0,0,0-.55,1.24,2.21,2.21,0,0,0,.35,1.27,2.64,2.64,0,0,0,1,.82,10.8,10.8,0,0,0,1.19.5c.39.15.77.3,1.13.46a6.19,6.19,0,0,1,1,.49A3.17,3.17,0,0,1,161.62,69.74Z"/><path d="M171.6,71a5.49,5.49,0,0,1-.27,1.7,4.14,4.14,0,0,1-.78,1.42,3.68,3.68,0,0,1-1.33,1,4.23,4.23,0,0,1-1.7.33,3.81,3.81,0,0,1-1.49-.3,3.64,3.64,0,0,1-1.25-.86,4.06,4.06,0,0,1-.86-1.35,4.93,4.93,0,0,1-.32-1.8,4.46,4.46,0,0,1,1.12-3.14,4.08,4.08,0,0,1,5.76-.06A4.23,4.23,0,0,1,171.6,71Zm-1.72,0a7.89,7.89,0,0,0-.12-1.32,3.92,3.92,0,0,0-.38-1.17,2.35,2.35,0,0,0-.69-.83,1.82,1.82,0,0,0-1.06-.31,1.85,1.85,0,0,0-1.09.32,2.31,2.31,0,0,0-.74.86,3.68,3.68,0,0,0-.37,1.16,6.75,6.75,0,0,0-.11,1.25,7.52,7.52,0,0,0,.13,1.47,4,4,0,0,0,.41,1.21,2.32,2.32,0,0,0,.71.83,1.75,1.75,0,0,0,1.06.31,1.87,1.87,0,0,0,1.65-1A5.4,5.4,0,0,0,169.88,71Z"/><path d="M181.55,75l-2.67.18-.12-.11V74h0c-.13.14-.28.28-.45.44a3.55,3.55,0,0,1-.57.43,3.86,3.86,0,0,1-.72.34,3.16,3.16,0,0,1-1,.12,2,2,0,0,1-1.65-.71,3.24,3.24,0,0,1-.57-2.06V68.66a1.09,1.09,0,0,0-.11-.5,1.21,1.21,0,0,0-.33-.35,1,1,0,0,0-.38-.15,3.55,3.55,0,0,0-.47-.06v-.55l2.73-.2.12.12v5.69a1.92,1.92,0,0,0,.4,1.33,1.22,1.22,0,0,0,.95.45,2.31,2.31,0,0,0,.82-.14,2.07,2.07,0,0,0,.59-.33,2.87,2.87,0,0,0,.4-.37,2.27,2.27,0,0,0,.26-.36V68.61a1,1,0,0,0-.12-.49,1,1,0,0,0-.32-.36.85.85,0,0,0-.44-.12l-.66,0v-.55l3-.2.12.12v6.49a.9.9,0,0,0,.12.48,1,1,0,0,0,.32.34.81.81,0,0,0,.36.12,3.14,3.14,0,0,0,.45,0Z"/><path d="M191.6,75.14h-4v-.55l.42,0a1.22,1.22,0,0,0,.37-.07.63.63,0,0,0,.35-.26,1,1,0,0,0,.11-.49v-4.2a2,2,0,0,0-.41-1.35,1.3,1.3,0,0,0-1-.47,2.3,2.3,0,0,0-.81.13,3.61,3.61,0,0,0-.65.34,2.19,2.19,0,0,0-.44.41l-.23.35v4.71a1,1,0,0,0,.11.47.82.82,0,0,0,.35.28,1.53,1.53,0,0,0,.38.12,2.65,2.65,0,0,0,.42.06v.55h-4v-.55l.39,0a1.21,1.21,0,0,0,.36-.07.6.6,0,0,0,.34-.26.88.88,0,0,0,.11-.48v-5a1.14,1.14,0,0,0-.12-.52,1,1,0,0,0-.33-.39,1.31,1.31,0,0,0-.38-.14,3.2,3.2,0,0,0-.46-.06V67l2.72-.19.12.12v1.15h0l.5-.47a3.45,3.45,0,0,1,.56-.45,2.9,2.9,0,0,1,.73-.34,3.14,3.14,0,0,1,1-.13,2,2,0,0,1,1.74.74,3.08,3.08,0,0,1,.57,2v4.26a.94.94,0,0,0,.1.47.69.69,0,0,0,.34.28,2.28,2.28,0,0,0,.35.11,2.68,2.68,0,0,0,.4,0Z"/><path d="M201.57,75l-2.87.18-.12-.11v-.77h-.07a3.25,3.25,0,0,1-1.06.78,2.9,2.9,0,0,1-1.31.31,3,3,0,0,1-1.34-.31,3.36,3.36,0,0,1-1.14-.88,4.44,4.44,0,0,1-.77-1.37A5.32,5.32,0,0,1,192.6,71a4.82,4.82,0,0,1,.31-1.69,4.37,4.37,0,0,1,.85-1.39,3.71,3.71,0,0,1,1.23-.89,3.63,3.63,0,0,1,1.5-.33,4.2,4.2,0,0,1,1.12.15,4,4,0,0,1,.95.36V64.39a1.81,1.81,0,0,0-.11-.63,1,1,0,0,0-.33-.44,1.55,1.55,0,0,0-.62-.23,7.33,7.33,0,0,0-.85-.1v-.52l3.35-.18.12.12v11a1,1,0,0,0,.12.49.87.87,0,0,0,.32.34,1,1,0,0,0,.46.13l.55,0Zm-3-1.44V68.76a2,2,0,0,0-.21-.46,2.07,2.07,0,0,0-.38-.46,2,2,0,0,0-.56-.34,1.93,1.93,0,0,0-.75-.14,1.75,1.75,0,0,0-.92.26,2.48,2.48,0,0,0-.74.74,3.68,3.68,0,0,0-.48,1.18,6.55,6.55,0,0,0-.18,1.59,5.57,5.57,0,0,0,.13,1.27,3.37,3.37,0,0,0,.45,1,2.31,2.31,0,0,0,.74.75,2,2,0,0,0,1.07.28,1.9,1.9,0,0,0,1.1-.29A3.26,3.26,0,0,0,198.56,73.55Z"/><path d="M215.82,66.31h-.62a4.33,4.33,0,0,0-.73-1.41,1.83,1.83,0,0,0-1.06-.82l-.61,0H210v4.73h1.35a3,3,0,0,0,1-.13,1.47,1.47,0,0,0,.58-.4,1.89,1.89,0,0,0,.31-.56,3.22,3.22,0,0,0,.17-.83H214v4.63h-.63a3.22,3.22,0,0,0-.17-.83,2,2,0,0,0-.31-.67,1.14,1.14,0,0,0-.63-.42,3.38,3.38,0,0,0-.91-.11H210v4a1.1,1.1,0,0,0,.1.49.84.84,0,0,0,.39.35,3.13,3.13,0,0,0,.54.14,5.84,5.84,0,0,0,.63.09v.59h-5.11v-.59l.67,0a2.23,2.23,0,0,0,.54-.1.75.75,0,0,0,.36-.32,1.13,1.13,0,0,0,.11-.51v-8.5a1.3,1.3,0,0,0-.09-.49.72.72,0,0,0-.38-.34,2.6,2.6,0,0,0-.61-.19,3.69,3.69,0,0,0-.6-.1v-.59h9.24Z"/><path d="M222.92,68a1.37,1.37,0,0,1-.21.75.7.7,0,0,1-.64.33,1,1,0,0,1-.71-.24.74.74,0,0,1-.24-.53,1.72,1.72,0,0,1,0-.34c0-.1,0-.2,0-.3a1.82,1.82,0,0,0-.91.32,2.64,2.64,0,0,0-.89.9v4.76a.91.91,0,0,0,.11.47.62.62,0,0,0,.35.28,2.18,2.18,0,0,0,.54.12l.57.06v.55h-4.32v-.55l.39,0a1.21,1.21,0,0,0,.36-.07.6.6,0,0,0,.34-.26.88.88,0,0,0,.11-.48v-5a1.16,1.16,0,0,0-.12-.51,1,1,0,0,0-.33-.4,1.31,1.31,0,0,0-.38-.14,3,3,0,0,0-.46-.06V67l2.72-.19.12.12v1.15h0a3.89,3.89,0,0,1,1.14-1,2.48,2.48,0,0,1,1.16-.34,1.12,1.12,0,0,1,.85.34A1.24,1.24,0,0,1,222.92,68Z"/><path d="M230.89,73.21a4.19,4.19,0,0,1-1.38,1.56,3.48,3.48,0,0,1-2,.59,4.11,4.11,0,0,1-1.73-.35,3.5,3.5,0,0,1-1.22-1,4.08,4.08,0,0,1-.72-1.39,5.9,5.9,0,0,1-.24-1.69,4.91,4.91,0,0,1,.26-1.56,4.32,4.32,0,0,1,.74-1.39,3.67,3.67,0,0,1,1.18-1,3.36,3.36,0,0,1,1.57-.36,3.87,3.87,0,0,1,1.53.28,2.67,2.67,0,0,1,1,.78,2.91,2.91,0,0,1,.57,1.09,5,5,0,0,1,.19,1.37v.55h-5.42a6.49,6.49,0,0,0,.15,1.46,3.28,3.28,0,0,0,.49,1.16,2.2,2.2,0,0,0,.84.76,2.59,2.59,0,0,0,1.25.28,2.3,2.3,0,0,0,1.27-.35,3.44,3.44,0,0,0,1-1.24Zm-1.84-3.12a5.82,5.82,0,0,0-.08-1,2.94,2.94,0,0,0-.25-.89,1.75,1.75,0,0,0-.52-.62,1.43,1.43,0,0,0-.86-.24,1.78,1.78,0,0,0-1.45.73,3.36,3.36,0,0,0-.62,2Z"/><path d="M240.81,78.82h-4.43v-.54l.51,0a3,3,0,0,0,.45-.09.52.52,0,0,0,.35-.29,1.07,1.07,0,0,0,.1-.49v-3h0a3.3,3.3,0,0,1-.37.34,2.86,2.86,0,0,1-.51.32,3.68,3.68,0,0,1-.64.27,2.77,2.77,0,0,1-.77.1A3.24,3.24,0,0,1,234,75a3.37,3.37,0,0,1-1.15-.88,4.32,4.32,0,0,1-.77-1.39,5.54,5.54,0,0,1-.29-1.81,4.27,4.27,0,0,1,.33-1.71,4.79,4.79,0,0,1,.88-1.34,3.86,3.86,0,0,1,1.26-.86,3.67,3.67,0,0,1,1.46-.32,4,4,0,0,1,1,.1,3.54,3.54,0,0,1,.72.25,2.58,2.58,0,0,1,.51.28l.37.23.71-1.08.47.06c0,.41-.05.92-.08,1.51s-.06,1.13-.06,1.57v7.58a1.12,1.12,0,0,0,.11.5.69.69,0,0,0,.35.32,2.24,2.24,0,0,0,.51.15l.49.08Zm-3-5.2V68.73a2.1,2.1,0,0,0-.22-.46,1.86,1.86,0,0,0-.94-.78,2.32,2.32,0,0,0-.78-.13,1.92,1.92,0,0,0-1.62,1,5,5,0,0,0-.66,2.76,5.48,5.48,0,0,0,.13,1.26,3.18,3.18,0,0,0,.44,1.06,2.41,2.41,0,0,0,.75.74,2.25,2.25,0,0,0,1.15.28,1.93,1.93,0,0,0,1-.26A2.86,2.86,0,0,0,237.79,73.62Z"/><path d="M250.12,75l-2.67.18-.13-.11V74h0c-.13.14-.28.28-.45.44a2.84,2.84,0,0,1-.57.43,3.86,3.86,0,0,1-.72.34,3.13,3.13,0,0,1-1,.12,2,2,0,0,1-1.66-.71,3.24,3.24,0,0,1-.57-2.06V68.66a1,1,0,0,0-.11-.5,1,1,0,0,0-.33-.35,1,1,0,0,0-.37-.15,3.5,3.5,0,0,0-.48-.06v-.55l2.73-.2.13.12v5.69a2,2,0,0,0,.39,1.33,1.25,1.25,0,0,0,1,.45,2.29,2.29,0,0,0,.81-.14,2.13,2.13,0,0,0,.6-.33,2.77,2.77,0,0,0,.39-.37,2.4,2.4,0,0,0,.27-.36V68.61a1,1,0,0,0-.12-.49,1.22,1.22,0,0,0-.32-.36.86.86,0,0,0-.45-.12l-.66,0v-.55l3-.2.13.12v6.49a.9.9,0,0,0,.11.48,1,1,0,0,0,.33.34.77.77,0,0,0,.35.12,3.15,3.15,0,0,0,.46,0Z"/><path d="M258.4,73.21A4.19,4.19,0,0,1,257,74.77a3.48,3.48,0,0,1-2,.59A4.08,4.08,0,0,1,253.3,75a3.5,3.5,0,0,1-1.22-1,4.08,4.08,0,0,1-.72-1.39,5.9,5.9,0,0,1-.24-1.69,4.91,4.91,0,0,1,.26-1.56,4.32,4.32,0,0,1,.74-1.39,3.74,3.74,0,0,1,1.17-1,3.43,3.43,0,0,1,1.58-.36,3.91,3.91,0,0,1,1.53.28,2.75,2.75,0,0,1,1,.78,3.23,3.23,0,0,1,.57,1.09,5,5,0,0,1,.19,1.37v.55h-5.42a6.49,6.49,0,0,0,.15,1.46,3.46,3.46,0,0,0,.48,1.16,2.3,2.3,0,0,0,.85.76,2.57,2.57,0,0,0,1.25.28,2.3,2.3,0,0,0,1.27-.35,3.34,3.34,0,0,0,1-1.24Zm-1.84-3.12a7.06,7.06,0,0,0-.08-1,3.25,3.25,0,0,0-.25-.89,1.75,1.75,0,0,0-.52-.62,1.46,1.46,0,0,0-.86-.24,1.78,1.78,0,0,0-1.45.73,3.36,3.36,0,0,0-.62,2Z"/><path d="M268.38,75.14h-4v-.55l.42,0a1.29,1.29,0,0,0,.38-.07.6.6,0,0,0,.34-.26.89.89,0,0,0,.11-.49v-4.2a2,2,0,0,0-.41-1.35,1.29,1.29,0,0,0-1-.47,2.33,2.33,0,0,0-.81.13,3.61,3.61,0,0,0-.65.34,1.89,1.89,0,0,0-.43.41c-.11.15-.19.27-.24.35v4.71a.86.86,0,0,0,.12.47.74.74,0,0,0,.34.28,1.68,1.68,0,0,0,.38.12,3,3,0,0,0,.42.06v.55h-4v-.55l.4,0a1.21,1.21,0,0,0,.35-.07.6.6,0,0,0,.34-.26.88.88,0,0,0,.11-.48v-5a1.14,1.14,0,0,0-.12-.52,1,1,0,0,0-.33-.39,1.31,1.31,0,0,0-.38-.14,3,3,0,0,0-.46-.06V67l2.72-.19.12.12v1.15h0l.5-.47a3.93,3.93,0,0,1,.56-.45,2.9,2.9,0,0,1,.73-.34,3.19,3.19,0,0,1,1-.13,2.06,2.06,0,0,1,1.75.74,3.14,3.14,0,0,1,.56,2v4.26a1.06,1.06,0,0,0,.1.47.69.69,0,0,0,.34.28,2.68,2.68,0,0,0,.35.11,2.87,2.87,0,0,0,.4,0Z"/><path d="M273.17,75.36a3.48,3.48,0,0,1-2.78-1.18,4.72,4.72,0,0,1-1-3.17,5,5,0,0,1,.26-1.61,4.58,4.58,0,0,1,.79-1.37,3.76,3.76,0,0,1,1.23-1,3.62,3.62,0,0,1,1.61-.36,3.13,3.13,0,0,1,2,.58,1.87,1.87,0,0,1,.75,1.57,1.33,1.33,0,0,1-.2.74.71.71,0,0,1-.65.32,1.1,1.1,0,0,1-.76-.25.75.75,0,0,1-.27-.56,2.94,2.94,0,0,1,.1-.76,4.87,4.87,0,0,0,.11-.58.7.7,0,0,0-.44-.34,2.13,2.13,0,0,0-.63-.09,1.8,1.8,0,0,0-.76.17,2.11,2.11,0,0,0-.7.63,3.55,3.55,0,0,0-.5,1.12A6.85,6.85,0,0,0,271.1,71a4.25,4.25,0,0,0,.69,2.51,2.09,2.09,0,0,0,1.79,1,2.25,2.25,0,0,0,1.35-.39,3.9,3.9,0,0,0,1-1.18l.53.35A4.33,4.33,0,0,1,275,74.78,3.41,3.41,0,0,1,273.17,75.36Z"/><path d="M281.07,75.14h-3.95v-.55l.4,0a1.21,1.21,0,0,0,.35-.07.6.6,0,0,0,.34-.26.88.88,0,0,0,.12-.48v-5a.92.92,0,0,0-.13-.49,1.06,1.06,0,0,0-.33-.37,2,2,0,0,0-.46-.17,4.05,4.05,0,0,0-.55-.08V67l2.89-.19.12.12v6.67a1,1,0,0,0,.11.49.67.67,0,0,0,.35.28,2.53,2.53,0,0,0,.36.12,2,2,0,0,0,.38.06Zm-1-11.51a1.19,1.19,0,0,1-.32.82,1,1,0,0,1-.76.35,1,1,0,0,1-.74-.33,1.1,1.1,0,0,1-.31-.77,1.15,1.15,0,0,1,.31-.8,1,1,0,0,1,.74-.34,1,1,0,0,1,.77.32A1.08,1.08,0,0,1,280,63.63Z"/><path d="M289.36,73.21A4.19,4.19,0,0,1,288,74.77a3.47,3.47,0,0,1-2,.59,4.12,4.12,0,0,1-1.74-.35,3.5,3.5,0,0,1-1.22-1,4.08,4.08,0,0,1-.72-1.39,5.9,5.9,0,0,1-.23-1.69,4.9,4.9,0,0,1,.25-1.56,4.32,4.32,0,0,1,.74-1.39,3.67,3.67,0,0,1,1.18-1,3.36,3.36,0,0,1,1.57-.36,3.87,3.87,0,0,1,1.53.28,2.67,2.67,0,0,1,1,.78,2.91,2.91,0,0,1,.57,1.09,4.63,4.63,0,0,1,.19,1.37v.55h-5.42a6.49,6.49,0,0,0,.15,1.46,3.47,3.47,0,0,0,.49,1.16,2.2,2.2,0,0,0,.84.76,2.59,2.59,0,0,0,1.25.28,2.28,2.28,0,0,0,1.27-.35,3.44,3.44,0,0,0,1-1.24Zm-1.84-3.12a5.82,5.82,0,0,0-.08-1,2.94,2.94,0,0,0-.25-.89,1.75,1.75,0,0,0-.52-.62,1.43,1.43,0,0,0-.86-.24,1.78,1.78,0,0,0-1.45.73,3.36,3.36,0,0,0-.62,2Z"/><path d="M295.71,71.13a2.17,2.17,0,0,1,.52.69,2.27,2.27,0,0,1,.18,1,2.31,2.31,0,0,1-.85,1.86,3.3,3.3,0,0,1-2.2.73,3.72,3.72,0,0,1-2.18-.74l-.16.54h-.63l-.08-2.84h.57a3.15,3.15,0,0,0,.29.75,3.48,3.48,0,0,0,.52.79,2.78,2.78,0,0,0,.78.61,2,2,0,0,0,1,.25,1.88,1.88,0,0,0,1.23-.36,1.46,1.46,0,0,0,.3-1.64,1.32,1.32,0,0,0-.41-.44,2.79,2.79,0,0,0-.67-.35c-.26-.1-.56-.2-.89-.3s-.55-.19-.86-.32a3.55,3.55,0,0,1-.82-.48,2.17,2.17,0,0,1-.6-.71,2,2,0,0,1-.23-1,2.25,2.25,0,0,1,.74-1.7,2.8,2.8,0,0,1,2-.7,3.79,3.79,0,0,1,1,.13,3.22,3.22,0,0,1,.82.3l.19-.44h.59l.13,2.63h-.57a2.71,2.71,0,0,0-.75-1.43,2,2,0,0,0-1.41-.56,1.55,1.55,0,0,0-1.07.35,1,1,0,0,0-.39.82,1.34,1.34,0,0,0,.13.63,1.16,1.16,0,0,0,.38.42,3.7,3.7,0,0,0,.63.31q.38.15.93.33a8,8,0,0,1,1,.4A3.57,3.57,0,0,1,295.71,71.13Z"/><path d="M311.54,66.56H311a3.83,3.83,0,0,0-.27-.71,5.81,5.81,0,0,0-.43-.78,4.1,4.1,0,0,0-.55-.67,1.14,1.14,0,0,0-.57-.33l-.65,0h-1.21v9.42a1.06,1.06,0,0,0,.12.5.76.76,0,0,0,.41.35,3.89,3.89,0,0,0,.62.16,4.81,4.81,0,0,0,.75.11v.59h-5.56v-.59l.71-.07a2.79,2.79,0,0,0,.66-.12.85.85,0,0,0,.4-.31,1.09,1.09,0,0,0,.13-.55V64h-1.12l-.73,0a1.06,1.06,0,0,0-.57.33,4.57,4.57,0,0,0-.55.67,6.69,6.69,0,0,0-.44.79,5.36,5.36,0,0,0-.26.7h-.58v-3.2h10.26Z"/><path d="M318.53,68a1.45,1.45,0,0,1-.2.75.7.7,0,0,1-.64.33,1,1,0,0,1-.71-.24.72.72,0,0,1-.25-.53,1.72,1.72,0,0,1,0-.34l.06-.3a1.88,1.88,0,0,0-.92.32,2.74,2.74,0,0,0-.89.9v4.76a.82.82,0,0,0,.12.47.62.62,0,0,0,.35.28,2.18,2.18,0,0,0,.54.12l.56.06v.55h-4.31v-.55l.39,0a1.14,1.14,0,0,0,.35-.07.63.63,0,0,0,.35-.26,1,1,0,0,0,.11-.48v-5a1.16,1.16,0,0,0-.12-.51,1,1,0,0,0-.34-.4,1.24,1.24,0,0,0-.37-.14,3.2,3.2,0,0,0-.46-.06V67l2.72-.19L315,67v1.15h.05a3.89,3.89,0,0,1,1.14-1,2.44,2.44,0,0,1,1.16-.34,1.13,1.13,0,0,1,.85.34A1.28,1.28,0,0,1,318.53,68Z"/><path d="M326.5,73.21a4,4,0,0,1-1.38,1.56,3.42,3.42,0,0,1-2,.59,4.08,4.08,0,0,1-1.73-.35,3.5,3.5,0,0,1-1.22-1,4.08,4.08,0,0,1-.72-1.39,5.9,5.9,0,0,1-.24-1.69,5.19,5.19,0,0,1,.25-1.56,4.34,4.34,0,0,1,.75-1.39,3.52,3.52,0,0,1,1.17-1,3.4,3.4,0,0,1,1.58-.36,3.94,3.94,0,0,1,1.53.28,2.75,2.75,0,0,1,1,.78,3.23,3.23,0,0,1,.57,1.09,5,5,0,0,1,.18,1.37v.55h-5.42a5.93,5.93,0,0,0,.16,1.46,3.46,3.46,0,0,0,.48,1.16,2.3,2.3,0,0,0,.85.76,2.55,2.55,0,0,0,1.24.28,2.31,2.31,0,0,0,1.28-.35,3.34,3.34,0,0,0,1-1.24Zm-1.83-3.12a7.06,7.06,0,0,0-.08-1,3.25,3.25,0,0,0-.25-.89,1.77,1.77,0,0,0-.53-.62,1.4,1.4,0,0,0-.85-.24,1.76,1.76,0,0,0-1.45.73,3.43,3.43,0,0,0-.63,2Z"/><path d="M335.2,75l-.68.23a2.31,2.31,0,0,1-.67.09,1.62,1.62,0,0,1-1-.31,1.36,1.36,0,0,1-.5-.88h-.05a3.91,3.91,0,0,1-1.16.91,3.22,3.22,0,0,1-1.49.32,2.08,2.08,0,0,1-1.51-.57,1.92,1.92,0,0,1-.59-1.48,2.47,2.47,0,0,1,.13-.84,1.9,1.9,0,0,1,.4-.67,2,2,0,0,1,.54-.45,5.27,5.27,0,0,1,.64-.31c.25-.09.76-.27,1.52-.52a13.08,13.08,0,0,0,1.54-.6v-.82a4.22,4.22,0,0,0-.05-.42,1.72,1.72,0,0,0-.19-.58,1.68,1.68,0,0,0-.47-.53,1.35,1.35,0,0,0-.86-.23,1.87,1.87,0,0,0-.71.13,1.13,1.13,0,0,0-.46.27,2.52,2.52,0,0,0,.08.49,2.6,2.6,0,0,1,.08.59.71.71,0,0,1-.26.53,1,1,0,0,1-.73.25.67.67,0,0,1-.61-.3,1.15,1.15,0,0,1,.07-1.39,2.71,2.71,0,0,1,.71-.62,3.58,3.58,0,0,1,.9-.4,3.81,3.81,0,0,1,1-.16,6.15,6.15,0,0,1,1.21.1,2.24,2.24,0,0,1,.95.41,1.92,1.92,0,0,1,.64.83,3.52,3.52,0,0,1,.22,1.36q0,1.18,0,2.1c0,.62,0,1.28,0,2a1,1,0,0,0,.11.51.93.93,0,0,0,.35.33.88.88,0,0,0,.39.08h.55Zm-2.89-4.38c-.48.14-.89.27-1.24.4a5.1,5.1,0,0,0-1,.5,2.47,2.47,0,0,0-.66.67,1.73,1.73,0,0,0-.24.92,1.32,1.32,0,0,0,.36,1,1.37,1.37,0,0,0,.92.32,1.81,1.81,0,0,0,1-.29,3.07,3.07,0,0,0,.76-.67Z"/><path d="M341.07,74.78c-.36.15-.7.28-1,.38a4,4,0,0,1-1.18.15,1.77,1.77,0,0,1-1.45-.52,2.25,2.25,0,0,1-.42-1.46V67.78h-1.47V67H337V64.44h1.51V67h2.35v.79h-2.34v4.58c0,.34,0,.63,0,.86a1.76,1.76,0,0,0,.18.6.83.83,0,0,0,.4.36,1.58,1.58,0,0,0,.71.13,5.67,5.67,0,0,0,.61,0,3.06,3.06,0,0,0,.57-.09Z"/><path d="M355.89,75.14h-4v-.55l.39,0a1.14,1.14,0,0,0,.34-.07.63.63,0,0,0,.35-.26,1,1,0,0,0,.11-.49V69.52a2,2,0,0,0-.39-1.33,1.23,1.23,0,0,0-1-.47,2.37,2.37,0,0,0-.76.12,2.61,2.61,0,0,0-.66.35,1.9,1.9,0,0,0-.4.4,2.21,2.21,0,0,0-.24.35v4.72a1,1,0,0,0,.1.48.62.62,0,0,0,.34.29l.34.11.4,0v.55h-3.9v-.55l.37,0a1.14,1.14,0,0,0,.33-.07.6.6,0,0,0,.34-.26.89.89,0,0,0,.11-.49V69.52a2,2,0,0,0-.39-1.33,1.21,1.21,0,0,0-1-.47,2.13,2.13,0,0,0-.76.13,2.32,2.32,0,0,0-.66.35,2,2,0,0,0-.41.41c-.11.15-.19.27-.25.34v4.69a.9.9,0,0,0,.12.48.73.73,0,0,0,.35.29,1.39,1.39,0,0,0,.36.12,2.25,2.25,0,0,0,.4.06v.55h-4v-.55l.39,0a1.14,1.14,0,0,0,.35-.07.63.63,0,0,0,.35-.26,1,1,0,0,0,.11-.48V68.66a.94.94,0,0,0-.12-.47,1.06,1.06,0,0,0-.34-.36,1.42,1.42,0,0,0-.39-.17,2.41,2.41,0,0,0-.48-.07V67l2.74-.19.12.12v1.17h.06c.13-.14.3-.3.5-.49a3.93,3.93,0,0,1,.56-.45,2.41,2.41,0,0,1,.72-.34,3.21,3.21,0,0,1,.95-.13,2.22,2.22,0,0,1,1.37.43,2.46,2.46,0,0,1,.82,1l.52-.51a5.74,5.74,0,0,1,.6-.47,2.89,2.89,0,0,1,.75-.35,3.1,3.1,0,0,1,.94-.13,2.11,2.11,0,0,1,1.65.68,3.09,3.09,0,0,1,.6,2.09v4.16a1,1,0,0,0,.1.48.71.71,0,0,0,.34.29l.38.11.42,0Z"/><path d="M364.13,73.21a4,4,0,0,1-1.38,1.56,3.42,3.42,0,0,1-2,.59A4,4,0,0,1,359,75a3.44,3.44,0,0,1-1.23-1,3.9,3.9,0,0,1-.71-1.39,5.9,5.9,0,0,1-.24-1.69,4.9,4.9,0,0,1,.25-1.56,4.52,4.52,0,0,1,.74-1.39,3.67,3.67,0,0,1,1.18-1,3.39,3.39,0,0,1,1.57-.36,4,4,0,0,1,1.54.28,2.83,2.83,0,0,1,1,.78,3,3,0,0,1,.56,1.09,4.63,4.63,0,0,1,.19,1.37v.55h-5.42a6.49,6.49,0,0,0,.15,1.46,3.69,3.69,0,0,0,.49,1.16,2.3,2.3,0,0,0,.85.76,2.55,2.55,0,0,0,1.24.28,2.34,2.34,0,0,0,1.28-.35,3.43,3.43,0,0,0,1-1.24Zm-1.83-3.12a7.06,7.06,0,0,0-.08-1,3.24,3.24,0,0,0-.26-.89,1.65,1.65,0,0,0-.52-.62,1.42,1.42,0,0,0-.85-.24,1.75,1.75,0,0,0-1.45.73,3.3,3.3,0,0,0-.63,2Z"/><path d="M374.12,75.14h-4v-.55l.41,0a1.23,1.23,0,0,0,.38-.07.63.63,0,0,0,.35-.26,1,1,0,0,0,.11-.49v-4.2a2,2,0,0,0-.41-1.35,1.31,1.31,0,0,0-1-.47,2.28,2.28,0,0,0-.8.13,3.3,3.3,0,0,0-.65.34,2,2,0,0,0-.44.41c-.11.15-.19.27-.24.35v4.71a.86.86,0,0,0,.12.47.77.77,0,0,0,.35.28,1.53,1.53,0,0,0,.38.12,2.65,2.65,0,0,0,.42.06v.55h-4v-.55l.39,0a1.14,1.14,0,0,0,.35-.07.63.63,0,0,0,.35-.26,1,1,0,0,0,.11-.48v-5a1.14,1.14,0,0,0-.12-.52,1,1,0,0,0-.34-.39,1.24,1.24,0,0,0-.37-.14,3.2,3.2,0,0,0-.46-.06V67l2.72-.19.11.12v1.15h.05c.13-.13.29-.29.49-.47a3.48,3.48,0,0,1,.57-.45,2.74,2.74,0,0,1,.73-.34,3.12,3.12,0,0,1,.95-.13,2,2,0,0,1,1.75.74,3.08,3.08,0,0,1,.57,2v4.26a.94.94,0,0,0,.1.47.69.69,0,0,0,.34.28l.34.11a2.85,2.85,0,0,0,.41,0Z"/><path d="M380.18,74.78c-.36.15-.7.28-1,.38a4,4,0,0,1-1.17.15,1.75,1.75,0,0,1-1.45-.52,2.25,2.25,0,0,1-.42-1.46V67.78h-1.48V67h1.51V64.44h1.51V67H380v.79h-2.33v4.58a7,7,0,0,0,0,.86,1.56,1.56,0,0,0,.17.6.88.88,0,0,0,.4.36,1.63,1.63,0,0,0,.72.13,5.67,5.67,0,0,0,.61,0,3.22,3.22,0,0,0,.57-.09Z"/></g></g></svg>