<svg xmlns="http://www.w3.org/2000/svg" viewBox="0 0 210.23 204.84"><defs><style>.cls-1{font-size:12.31px;font-family:Georgia;}.cls-2{fill:#231f20;}.cls-3{fill:#151247;}</style></defs><g id="Layer_2" data-name="Layer 2"><g id="Layer_1-2" data-name="Layer 1"><text class="cls-1" transform="translate(18.31 93.35) rotate(87.05)">I</text><text class="cls-1" transform="translate(18.54 98.45) rotate(83.14)">n</text><text class="cls-1" transform="translate(19.48 105.97) rotate(78.81)">v</text><text class="cls-1" transform="matrix(0.26, 0.97, -0.97, 0.26, 20.74, 112.26)">e</text><text class="cls-1" transform="translate(22.39 118.27) rotate(71.35)">r</text><text class="cls-1" transform="translate(24.08 123.28) rotate(68.03)">s</text><text class="cls-1" transform="translate(26.17 128.46) rotate(64.42)">e</text><text class="cls-1" transform="translate(28.87 134.12) rotate(60.24)">d</text><text class="cls-1" transform="matrix(0.54, 0.84, -0.84, 0.54, 32.55, 140.43)"> </text><text class="cls-1" transform="matrix(0.6, 0.8, -0.8, 0.6, 34.25, 143.18)">V</text><text class="cls-1" transform="translate(39.37 149.96) rotate(49.69)">i</text><text class="cls-1" transform="translate(41.82 152.87) rotate(46.84)">s</text><text class="cls-1" transform="matrix(0.72, 0.69, -0.69, 0.72, 45.63, 156.9)">i</text><text class="cls-1" transform="matrix(0.76, 0.65, -0.65, 0.76, 48.39, 159.6)">o</text><text class="cls-1" transform="translate(53.67 164.14) rotate(36.2)">n</text><text class="cls-1" transform="translate(59.77 168.52) rotate(32.89)"> </text><text class="cls-1" transform="translate(62.44 170.29) rotate(29.91)">a</text><text class="cls-1" transform="translate(68.1 173.56) rotate(25.54)">n</text><text class="cls-1" transform="matrix(0.93, 0.36, -0.36, 0.93, 74.99, 176.83)">d</text><text class="cls-1" transform="translate(81.85 179.38) rotate(17.67)"> </text><text class="cls-1" transform="matrix(0.97, 0.25, -0.25, 0.97, 84.89, 180.4)">S</text><text class="cls-1" transform="translate(91.88 182.19) rotate(10.15)">o</text><text class="cls-1" transform="translate(98.75 183.43) rotate(5.87)">u</text><text class="cls-1" transform="matrix(1, 0.02, -0.02, 1, 106.12, 184.17)">n</text><text class="cls-1" transform="translate(113.74 184.32) rotate(-3.37)">d</text><text class="cls-1" transform="translate(121.06 183.83) rotate(-6.64)"> </text><text class="cls-1" transform="matrix(0.98, -0.17, 0.17, 0.98, 124.25, 183.51)">F</text><text class="cls-1" transform="translate(131.79 182.13) rotate(-13.99)">r</text><text class="cls-1" transform="matrix(0.95, -0.3, 0.3, 0.95, 136.95, 180.85)">e</text><text class="cls-1" transform="translate(142.92 178.97) rotate(-21.67)">q</text><text class="cls-1" transform="translate(149.65 176.29) rotate(-26.16)">u</text><text class="cls-1" transform="translate(156.27 173) rotate(-30.33)">e</text><text class="cls-1" transform="matrix(0.82, -0.57, 0.57, 0.82, 161.69, 169.84)">n</text><text class="cls-1" transform="translate(167.9 165.52) rotate(-38.66)">c</text><text class="cls-1" transform="matrix(0.75, -0.66, 0.66, 0.75, 172.43, 161.85)">i</text><text class="cls-1" transform="matrix(0.71, -0.7, 0.7, 0.71, 175.3, 159.34)">e</text><text class="cls-1" transform="translate(179.71 154.95) rotate(-48.29)">s</text><text class="cls-1" transform="matrix(0.63, -0.78, 0.78, 0.63, 183.37, 150.8)"> </text><text class="cls-1" transform="translate(185.44 148.34) rotate(-54.37)">T</text><text class="cls-1" transform="matrix(0.52, -0.85, 0.85, 0.52, 190.02, 141.85)">r</text><text class="cls-1" transform="translate(192.8 137.32) rotate(-62.04)">e</text><text class="cls-1" transform="translate(195.72 131.82) rotate(-65.97)">a</text><text class="cls-1" transform="translate(198.32 125.9) rotate(-69.36)">t</text><text class="cls-1" transform="translate(200.07 121.61) rotate(-74.21)">m</text><text class="cls-1" transform="translate(203.02 110.75) rotate(-79.85)">e</text><text class="cls-1" transform="translate(204.15 104.6) rotate(-83.72)">n</text><text class="cls-1" transform="translate(204.92 97.08) rotate(-87.43)">t</text><text class="cls-1" transform="matrix(0, -1, 1, 0, 205.1, 92.68)">​</text><path class="cls-2" d="M76.16,103.78H61.07v-1.49l1.52-.12a5,5,0,0,0,1.39-.23,1.83,1.83,0,0,0,1-.75,2.54,2.54,0,0,0,.26-1.2V80.69A2.5,2.5,0,0,0,65,79.54a1.86,1.86,0,0,0-1-.81,10.75,10.75,0,0,0-1.36-.39c-.6-.13-1.12-.23-1.55-.28V76.57H76.16v1.49l-1.44.17a9,9,0,0,0-1.46.29,1.59,1.59,0,0,0-1,.78A2.71,2.71,0,0,0,72,80.5V99.78a2.42,2.42,0,0,0,.26,1.18,1.87,1.87,0,0,0,1,.79,6.45,6.45,0,0,0,1.34.34,15.15,15.15,0,0,0,1.56.2Z"/><path class="cls-2" d="M110.06,78.1a6.65,6.65,0,0,0-1.21.23,5.88,5.88,0,0,0-1.19.54,4.72,4.72,0,0,0-1.27,1,7.4,7.4,0,0,0-.9,1.51c-.39.88-.95,2.17-1.66,3.87l-2.46,5.78c-.82,1.94-1.7,4.07-2.66,6.39L96,104.09H92.13q-2.68-6.59-5.47-13.37t-3.91-9.43a6.41,6.41,0,0,0-.86-1.45,4.87,4.87,0,0,0-1.31-1,6.29,6.29,0,0,0-1.15-.51,11.38,11.38,0,0,0-1.32-.26V76.57H92.85V78a14.1,14.1,0,0,0-2.8.52c-.5.19-.74.42-.74.7a1.5,1.5,0,0,0,.07.45c0,.16.11.38.2.65.41,1.12,1.15,3,2.22,5.5s2.67,6.44,4.78,11.66q1.94-4.77,3.22-8.06c.85-2.2,1.61-4.14,2.26-5.83.32-.81.58-1.58.8-2.29a6.17,6.17,0,0,0,.31-1.6c0-.41-.29-.75-.88-1A10.62,10.62,0,0,0,99,78.1V76.57h11Z"/><path class="cls-2" d="M124,104.53a16.92,16.92,0,0,1-4.65-.62,17.52,17.52,0,0,1-3.65-1.47l-1.33,1.34h-1.63l-.25-9.84h1.65a26.29,26.29,0,0,0,1.42,3,14.59,14.59,0,0,0,2,2.78,10.27,10.27,0,0,0,2.62,2.1,6.79,6.79,0,0,0,3.38.8,5.72,5.72,0,0,0,4-1.27,4.17,4.17,0,0,0,1.39-3.22,3.46,3.46,0,0,0-1.18-2.67,9.71,9.71,0,0,0-3.65-1.88l-3-1c-.9-.3-1.74-.6-2.54-.91a8.37,8.37,0,0,1-4.07-3.13A8.12,8.12,0,0,1,113.17,84a7.13,7.13,0,0,1,.7-3.06,8.14,8.14,0,0,1,2-2.64,9.8,9.8,0,0,1,3.24-1.79,13,13,0,0,1,4.3-.69,13.89,13.89,0,0,1,4.24.63,17.43,17.43,0,0,1,3.1,1.27l1.17-1.15h1.67l.15,9.28h-1.64c-.39-1-.84-2-1.36-3.07a12.8,12.8,0,0,0-1.64-2.6A7.48,7.48,0,0,0,127,78.4a6,6,0,0,0-2.88-.66,4.92,4.92,0,0,0-3.39,1.17,3.75,3.75,0,0,0-1.31,2.9,3.44,3.44,0,0,0,1.14,2.67,10,10,0,0,0,3.56,1.83l2.9,1c1,.32,1.86.62,2.62.92a9.28,9.28,0,0,1,4.23,3,7.45,7.45,0,0,1,1.45,4.69,7.68,7.68,0,0,1-.82,3.42,8,8,0,0,1-2.23,2.75,11.54,11.54,0,0,1-3.55,1.86A15.42,15.42,0,0,1,124,104.53Z"/><path class="cls-2" d="M164.47,83.84H163a11.9,11.9,0,0,0-2-3.38,4.59,4.59,0,0,0-2.67-2c-.38,0-.89-.09-1.53-.13s-1.23-.06-1.76-.06h-4.24V89h2.71a6.91,6.91,0,0,0,2-.26,3.6,3.6,0,0,0,1.5-.93,4.94,4.94,0,0,0,.93-1.6,7.63,7.63,0,0,0,.54-1.93h1.46V95.71h-1.46a7,7,0,0,0-.59-2.1A6.58,6.58,0,0,0,157,92a3.38,3.38,0,0,0-1.42-.91,6.37,6.37,0,0,0-2.07-.3h-2.71v9a2.54,2.54,0,0,0,.26,1.18,1.86,1.86,0,0,0,1,.79,6.34,6.34,0,0,0,1.16.32c.49.09,1,.17,1.47.22v1.49H140v-1.49l1.48-.17a5.54,5.54,0,0,0,1.29-.25,1.79,1.79,0,0,0,1-.75,2.61,2.61,0,0,0,.26-1.23V80.69a2.58,2.58,0,0,0-.24-1.14,1.87,1.87,0,0,0-1-.82,8.88,8.88,0,0,0-1.42-.42c-.59-.12-1-.21-1.35-.25V76.57h24.46Z"/><circle class="cls-3" cx="111.48" cy="2.23" r="2.23"/><circle class="cls-3" cx="123.82" cy="3.06" r="2.23"/><circle class="cls-3" cx="135.92" cy="5.6" r="2.23"/><circle class="cls-3" cx="147.55" cy="9.8" r="2.23"/><circle class="cls-3" cx="158.49" cy="15.58" r="2.23"/><circle class="cls-3" cx="168.51" cy="22.82" r="2.23"/><circle class="cls-3" cx="177.43" cy="31.39" r="2.23"/><circle class="cls-3" cx="185.07" cy="41.11" r="2.23"/><circle class="cls-3" cx="191.28" cy="51.81" r="2.23"/><circle class="cls-3" cx="195.95" cy="63.26" r="2.23"/><circle class="cls-3" cx="198.97" cy="75.26" r="2.23"/><circle class="cls-3" cx="99.14" cy="3.13" r="2.23"/><circle class="cls-3" cx="87.05" cy="5.73" r="2.23"/><circle class="cls-3" cx="75.44" cy="9.99" r="2.23"/><circle class="cls-3" cx="64.54" cy="15.83" r="2.23"/><circle class="cls-3" cx="54.55" cy="23.12" r="2.23"/><circle class="cls-3" cx="45.68" cy="31.74" r="2.23"/><circle class="cls-3" cx="38.09" cy="41.5" r="2.23"/><circle class="cls-3" cx="31.94" cy="52.23" r="2.23"/><circle class="cls-3" cx="27.33" cy="63.71" r="2.23"/><circle class="cls-3" cx="24.37" cy="75.72" r="2.23"/></g></g></svg>