<svg width="530" height="475" viewBox="0 0 530 475" fill="none" xmlns="http://www.w3.org/2000/svg">
<g id="Asset 5 1" clip-path="url(#clip0_153:5107)">
<g id="Layer 2">
<g id="Layer 1">
<path id="Vector" d="M59.1895 473.22L59.0995 431L38.1795 465.94H32.8995L11.9995 431.55V473.22H0.689453V409.53H10.4295L35.7195 451.74L60.5595 409.53H70.2895L70.3895 473.22H59.1895Z" fill="#F5C300"/>
<path id="Vector_2" d="M70.6209 473.45H59.0009L58.9109 431.83L38.3109 466.17H32.7709L32.7009 466.06L12.2009 432.37V473.45H0.460938V409.3H10.5609L10.6209 409.41L35.7209 451.29L60.4309 409.29H70.5209V409.52L70.6209 473.45ZM59.4209 473H70.1509L70.0609 409.77H60.6909L35.6909 452.21L35.4909 451.87L10.3009 409.76H0.920938V473H11.7409V430.72L33.0309 465.72H38.0309L59.3109 430.18L59.4209 473Z" fill="#F5C300"/>
<path id="Vector_3" d="M70.8505 473.68H58.7305L58.6505 432.68L38.4405 466.4H32.6405L12.4305 433.19V473.68H0.230469V409.07H10.6905L35.6905 450.84L60.3005 409.07H70.7605L70.8505 473.68ZM59.6505 472.76H69.9205L69.8305 410H60.8305L35.7305 452.66L10.1605 410H1.16047V472.77H11.5105V429.9L33.1605 465.48H37.9205L59.5605 429.34L59.6505 472.76Z" fill="#F5C300"/>
<path id="Vector_4" d="M71.08 473.91H58.5L58.42 433.49L38.57 466.63H32.51L32.44 466.52L12.67 434V473.9H0V408.84H10.82L10.88 408.95L35.71 450.39L60.16 408.84H71V409.07L71.08 473.91ZM59 473.45H70.62L70.53 409.3H60.43L35.72 451.3L35.52 450.97L10.52 409.31H0.46V473.46H12.2V432.37L32.77 466.17H38.31L58.87 431.83L59 473.45ZM70.2 472.99H59.42L59.33 430.17L38.05 465.71H33V465.6L11.74 430.72V473H0.92V409.76H10.3L10.36 409.87L35.72 452.2L60.72 409.76H70.09V410L70.2 472.99ZM59.92 472.52H69.73L69.64 410.22H61L35.73 453.1L35.53 452.77L10 410.22H1.38V472.52H11.28V429.08L33.28 465.25H37.78L59.78 428.51L59.92 472.52Z" fill="#F5C300"/>
<path id="Vector_5" d="M83 441.37C83 422.37 97.55 408.62 117.12 408.62C127.49 408.62 136.41 412.35 142.32 419.26L134.68 426.45C132.544 424.064 129.922 422.163 126.989 420.876C124.057 419.589 120.882 418.946 117.68 418.99C104.5 419 95 428.27 95 441.37C95 454.47 104.55 463.75 117.74 463.75C120.952 463.8 124.136 463.151 127.071 461.847C130.007 460.543 132.624 458.616 134.74 456.2L142.38 463.48C136.47 470.4 127.55 474.13 117.08 474.13C97.58 474.13 83 460.39 83 441.37Z" fill="#F5C300"/>
<path id="Vector_6" d="M117.051 474.36C97.2008 474.36 82.8008 460.48 82.8008 441.36C82.8008 422.24 97.2408 408.36 117.151 408.36C127.601 408.36 136.611 412.17 142.521 419.08L142.671 419.25L134.671 426.75L134.521 426.58C132.405 424.213 129.806 422.328 126.899 421.053C123.992 419.778 120.845 419.143 117.671 419.19C104.671 419.19 95.1608 428.51 95.1608 441.34C95.1608 454.17 104.631 463.49 117.671 463.49C120.853 463.537 124.007 462.894 126.916 461.605C129.825 460.315 132.42 458.41 134.521 456.02L134.671 455.84L142.671 463.43L142.521 463.6C136.611 470.55 127.561 474.36 117.051 474.36ZM117.151 408.85C97.5108 408.85 83.2608 422.53 83.2608 441.37C83.2608 460.21 97.4708 473.9 117.051 473.9C127.341 473.9 136.201 470.2 142.051 463.5L134.741 456.5C132.606 458.887 129.984 460.789 127.051 462.076C124.118 463.363 120.943 464.005 117.741 463.96C104.431 463.96 94.7408 454.44 94.7408 441.34C94.7408 428.24 104.401 418.73 117.741 418.73C120.933 418.687 124.099 419.321 127.029 420.59C129.959 421.858 132.587 423.733 134.741 426.09L142.051 419.22C136.201 412.54 127.371 408.85 117.151 408.85V408.85Z" fill="#F5C300"/>
<path id="Vector_7" d="M117.05 474.59C97.0503 474.59 82.5703 460.59 82.5703 441.37C82.5703 422.15 97.1103 408.16 117.15 408.16C127.66 408.16 136.74 411.99 142.7 418.96L142.99 419.3L134.68 427.1L134.37 426.76C132.273 424.422 129.699 422.559 126.822 421.298C123.945 420.037 120.831 419.407 117.69 419.45C104.78 419.45 95.4103 428.67 95.4103 441.37C95.4103 454.07 104.78 463.29 117.69 463.29C120.84 463.337 123.963 462.7 126.843 461.422C129.723 460.145 132.291 458.257 134.37 455.89L134.68 455.54L142.98 463.45L142.7 463.78C136.74 470.75 127.63 474.59 117.05 474.59ZM117.15 409.08C97.6403 409.08 83.4903 422.66 83.4903 441.37C83.4903 460.08 97.6003 473.67 117.05 473.67C127.19 473.67 135.93 470.06 141.71 463.51L134.71 456.86C132.557 459.218 129.929 461.093 126.999 462.362C124.069 463.631 120.903 464.264 117.71 464.22C104.26 464.22 94.5103 454.61 94.5103 441.37C94.5103 428.13 104.26 418.53 117.71 418.53C120.895 418.487 124.053 419.112 126.981 420.364C129.909 421.616 132.542 423.468 134.71 425.8L141.71 419.23C135.93 412.68 127.22 409.08 117.15 409.08V409.08Z" fill="#F5C300"/>
<path id="Vector_8" d="M117.05 474.82C96.9398 474.82 82.3398 460.75 82.3398 441.37C82.3398 421.99 96.9998 407.93 117.15 407.93C127.73 407.93 136.87 411.79 142.87 418.81L143.3 419.31L134.67 427.43L134.2 426.92C132.126 424.603 129.579 422.757 126.731 421.508C123.883 420.259 120.8 419.636 117.69 419.68C104.91 419.68 95.6898 428.8 95.6898 441.37C95.6898 453.94 104.96 463.06 117.69 463.06C120.806 463.11 123.896 462.481 126.746 461.217C129.595 459.953 132.135 458.084 134.19 455.74L134.67 455.21L143.3 463.43L142.87 463.93C136.87 471 127.7 474.82 117.05 474.82ZM117.15 408.39C97.2398 408.39 82.7999 422.26 82.7999 441.39C82.7999 460.52 97.1999 474.39 117.05 474.39C127.56 474.39 136.61 470.58 142.52 463.66L142.67 463.49L134.67 455.9L134.52 456.08C132.419 458.47 129.824 460.375 126.915 461.665C124.006 462.955 120.852 463.598 117.67 463.55C104.67 463.55 95.1599 454.24 95.1599 441.4C95.1599 428.56 104.63 419.25 117.67 419.25C120.844 419.203 123.991 419.838 126.898 421.113C129.806 422.388 132.405 424.273 134.52 426.64L134.67 426.81L142.67 419.31L142.52 419.14C136.61 412.2 127.6 408.39 117.15 408.39V408.39ZM117.05 473.9C97.4699 473.9 83.2598 460.22 83.2598 441.37C83.2598 422.52 97.5098 408.85 117.15 408.85C127.27 408.85 136.06 412.48 141.88 419.08L142.03 419.25L134.72 426.12L134.56 425.96C132.409 423.646 129.795 421.809 126.889 420.569C123.983 419.329 120.849 418.713 117.69 418.76C104.38 418.76 94.6898 428.27 94.6898 441.37C94.6898 454.47 104.35 463.99 117.69 463.99C120.857 464.038 123.999 463.412 126.907 462.156C129.815 460.899 132.424 459.04 134.56 456.7L134.72 456.53L142.03 463.53L141.88 463.69C136.06 470.26 127.24 473.9 117.05 473.9ZM117.15 409.31C97.7798 409.31 83.7198 422.79 83.7198 441.37C83.7198 459.95 97.7199 473.43 117.05 473.43C127.05 473.43 135.65 469.92 141.39 463.52L134.73 457.18C132.562 459.513 129.929 461.365 127.001 462.617C124.072 463.87 120.914 464.494 117.73 464.45C104.15 464.45 94.2898 454.74 94.2898 441.37C94.2898 428 104.15 418.3 117.73 418.3C120.906 418.258 124.056 418.875 126.982 420.11C129.907 421.346 132.546 423.174 134.73 425.48L141.39 419.22C135.65 412.83 127.05 409.31 117.15 409.31V409.31Z" fill="#F5C300"/>
<path id="Vector_9" d="M168.459 413.71H145.529V409.53H195.999V413.71H173.099V473.22H168.459V413.71Z" fill="#F5C300"/>
<path id="Vector_10" d="M173.56 473.68H168V414.17H145.07V409.07H196.49V414.17H173.56V473.68ZM168.92 472.76H172.64V413.25H195.57V410H146V413.26H168.93L168.92 472.76Z" fill="#F5C300"/>
<path id="Vector_11" d="M251.71 473.22L236.51 451.93C234.463 452.221 232.398 452.371 230.33 452.38H212.13V473.22H207.49V409.53H230.33C246.33 409.53 255.98 417.53 255.98 431C255.98 441.1 250.52 448.1 241.06 450.92L257 473.22H251.71ZM230.33 448.29C243.97 448.29 251.25 441.92 251.25 431C251.25 420.08 243.97 413.71 230.33 413.71H212.13V448.29H230.33Z" fill="#F5C300"/>
<path id="Vector_12" d="M257.88 473.68H251.47L236.3 452.42C234.312 452.695 232.307 452.835 230.3 452.84H212.59V473.68H207V409.07H230.29C246.65 409.07 256.41 417.27 256.41 431C256.41 441 251.22 448.13 241.78 451.18L257.88 473.68ZM251.94 472.76H256.09L240.31 450.67L240.93 450.48C250.34 447.68 255.52 440.76 255.52 431C255.52 417.84 246.1 410 230.32 410H208V472.77H211.72V451.92H230.37C232.421 451.913 234.47 451.762 236.5 451.47H236.78L251.94 472.76ZM230.32 448.76H211.67V413.26H230.32C244.12 413.26 251.71 419.56 251.71 431.01C251.71 442.28 243.92 448.75 230.32 448.75V448.76ZM212.59 447.83H230.32C243.52 447.83 250.79 441.83 250.79 431.01C250.79 420.19 243.52 414.18 230.32 414.18H212.59V447.83Z" fill="#F5C300"/>
<path id="Vector_13" d="M312.39 455.29H275.45L267.35 473.22H262.35L291.64 409.53H296.28L325.58 473.22H320.58L312.39 455.29ZM310.66 451.38L293.92 414.62L277.27 451.38H310.66Z" fill="#F5C300"/>
<path id="Vector_14" d="M326.3 473.68H320.3L312.11 455.75H275.75L267.65 473.68H261.65L291.37 409.07H296.6L326.3 473.68ZM320.87 472.76H324.87L296 410H291.95L263.08 472.77H267.08L275.18 454.84H312.72L320.87 472.76ZM311.38 451.84H276.55L293.92 413.51L311.38 451.84ZM277.98 450.92H309.98L293.98 415.74L277.98 450.92Z" fill="#F5C300"/>
<path id="Vector_15" d="M341.771 413.71V440.92H375.711V445.1H341.771V473.22H337.131V409.53H379.711V413.71H341.771Z" fill="#F5C300"/>
<path id="Vector_16" d="M342.23 473.68H336.67V409.07H380.18V414.17H342.23V440.46H376.17V445.56H342.23V473.68ZM337.59 472.76H341.31V444.64H375.25V441.38H341.31V413.25H379.25V410H337.59V472.76Z" fill="#F5C300"/>
<path id="Vector_17" d="M399.179 413.71V440.92H433.119V445.1H399.179V473.22H394.539V409.53H437.119V413.71H399.179Z" fill="#F5C300"/>
<path id="Vector_18" d="M399.64 473.68H394.08V409.07H437.58V414.17H399.64V440.46H433.58V445.56H399.64V473.68ZM395 472.76H398.72V444.64H432.66V441.38H398.72V413.25H436.66V410H395V472.76Z" fill="#F5C300"/>
<path id="Vector_19" d="M452 409.53H456.64V473.22H452V409.53Z" fill="#F5C300"/>
<path id="Vector_20" d="M457.05 473.68H451.49V409.07H457.05V473.68ZM452.41 472.76H456.13V410H452.41V472.76Z" fill="#F5C300"/>
<path id="Vector_21" d="M472.689 441.37C472.689 422.81 486.799 409.07 505.689 409.07C514.689 409.07 522.799 411.98 528.349 417.9L525.429 420.9C519.979 415.53 513.329 413.35 505.869 413.35C489.589 413.35 477.299 425.35 477.299 441.35C477.299 457.35 489.589 469.35 505.869 469.35C513.329 469.35 519.979 467.07 525.429 461.7L528.349 464.7C522.799 470.62 514.699 473.62 505.689 473.62C486.799 473.67 472.689 459.93 472.689 441.37Z" fill="#F5C300"/>
<path id="Vector_22" d="M505.72 474.13C486.63 474.13 472.23 460.05 472.23 441.37C472.23 422.69 486.63 408.61 505.72 408.61C515.12 408.61 523.28 411.8 528.72 417.61L529.02 417.93L525.48 421.58L525.15 421.26C520.07 416.26 513.78 413.84 505.91 413.84C489.91 413.84 477.8 425.69 477.8 441.4C477.8 457.11 489.89 468.96 505.91 468.96C513.72 468.96 520.01 466.51 525.15 461.45L525.48 461.13L529.02 464.78L528.72 465.1C523.23 470.91 515.06 474.13 505.72 474.13ZM505.72 409.53C487.15 409.53 473.15 423.22 473.15 441.37C473.15 459.52 487.15 473.21 505.72 473.21C514.63 473.21 522.43 470.21 527.72 464.76L525.43 462.4C520.24 467.4 513.67 469.86 505.88 469.86C489.33 469.86 476.88 457.61 476.88 441.37C476.88 425.13 489.36 412.89 505.88 412.89C513.88 412.89 520.24 415.3 525.43 420.25L527.72 417.89C522.49 412.5 514.69 409.53 505.72 409.53Z" fill="#F5C300"/>
<path id="Vector_23" d="M446.999 143.52V143.38C446.999 139.73 445.709 137.62 442.599 135.85C425.389 126 408.269 116 390.999 106.19C390.489 105.897 390.004 105.562 389.549 105.19L389.359 105.03L389.209 104.89C388.625 104.331 388.174 103.647 387.889 102.89C387.889 102.83 387.889 102.76 387.839 102.7C387.789 102.64 387.719 102.3 387.669 102.08C387.554 101.46 387.504 100.83 387.519 100.2C387.659 80.4701 387.519 60.7401 387.659 41.0101C387.661 40.4854 387.631 39.9611 387.569 39.4401V39.3901C387.53 39.0341 387.474 38.6803 387.399 38.3301C387.399 38.1901 387.319 38.0601 387.289 37.9201C387.259 37.7801 387.159 37.4601 387.079 37.2401C386.999 37.0201 387.009 37.0901 386.979 37.0101C386.206 35.272 384.852 33.8576 383.149 33.0101L372.149 26.7701C358.463 18.9234 344.799 11.0168 331.159 3.05009L329.269 1.94009C329.039 1.80009 328.819 1.68009 328.599 1.57009L328.209 1.33009C324.879 -0.619914 322.279 -0.319914 319.089 1.55009L318.959 1.62009L318.179 2.06009C316.119 3.29009 314.049 4.49009 311.979 5.70009C297.469 14.1601 282.879 22.5001 268.399 31.0001C267.533 31.5478 266.579 31.9435 265.579 32.1701H265.489C265.285 32.2082 265.077 32.2316 264.869 32.2401C264.749 32.2501 264.629 32.2501 264.509 32.2401C264.386 32.25 264.262 32.25 264.139 32.2401C263.931 32.231 263.724 32.2076 263.519 32.1701H263.429C262.43 31.9415 261.477 31.5459 260.609 31.0001C246.129 22.5001 231.549 14.1601 216.999 5.70009C214.929 4.49009 212.849 3.29009 210.789 2.06009L210.009 1.62009L209.889 1.55009C206.689 -0.319914 204.099 -0.619914 200.769 1.33009L200.369 1.57009C200.143 1.68193 199.923 1.80543 199.709 1.94009L197.819 3.05009C184.186 11.0501 170.519 18.9634 156.819 26.7901L145.819 33.0301C144.124 33.8705 142.774 35.2739 141.999 37.0001C141.999 37.0801 141.929 37.1501 141.899 37.2301C141.814 37.4518 141.744 37.679 141.689 37.9101L141.569 38.3201C141.499 38.6501 141.449 39.0101 141.409 39.3801C141.405 39.3964 141.405 39.4138 141.409 39.4301C141.351 39.9513 141.324 40.4756 141.329 41.0001C141.469 60.7301 141.329 80.4601 141.469 100.19C141.477 100.82 141.423 101.45 141.309 102.07C141.264 102.28 141.208 102.487 141.139 102.69C141.127 102.755 141.111 102.818 141.089 102.88C140.812 103.641 140.36 104.326 139.769 104.88L139.629 105.03L139.429 105.19C138.978 105.567 138.492 105.902 137.979 106.19C120.739 116 103.619 126 86.3693 135.84C83.2593 137.61 81.9392 139.72 81.9692 143.37V143.51C81.9692 160.277 81.9692 177.05 81.9692 193.83C81.9692 198.25 81.9692 202.66 81.9692 207.08C81.9949 207.836 82.0617 208.591 82.1692 209.34C82.6392 211.67 83.9392 213.26 86.3492 214.63C103.469 224.36 120.459 234.32 137.599 244.03C140.429 245.64 141.519 247.4 141.489 250.72C141.319 270.45 141.429 290.18 141.379 309.91C141.379 312.83 141.929 315.08 144.729 316.69C163.783 327.577 182.783 338.537 201.729 349.57C202.723 350.245 203.898 350.606 205.099 350.606C206.301 350.606 207.475 350.245 208.469 349.57C212.189 347.3 216.019 345.21 219.789 343.02C222.579 341.41 237.369 332.77 238.099 332.39C243.279 329.69 251.869 324.79 256.979 321.96C258.899 316.78 262.209 314.87 254.979 312.32C249.119 315.7 236.509 323.12 230.549 326.32C229.999 326.62 214.709 335.37 208.009 339.4C207.187 340.014 206.192 340.352 205.166 340.365C204.14 340.377 203.136 340.064 202.299 339.47C185.939 329.9 169.519 320.47 153.089 311.02C151.409 310.02 150.379 309.02 150.399 306.84C150.549 289.84 150.579 266.09 150.639 249.08C143.799 242.93 139.789 241.82 137.179 233.15C122.479 224.76 107.739 216.31 92.9992 208C92.3514 207.669 91.8225 207.145 91.4857 206.5C91.1489 205.855 91.0208 205.121 91.1193 204.4V203.72C91.1193 184.767 91.1193 165.813 91.1193 146.86C91.0794 146.001 91.2585 145.145 91.6398 144.374C92.0211 143.602 92.5921 142.94 93.2993 142.45L93.5592 142.3L106.969 134.55C115.256 129.783 123.539 124.997 131.819 120.19L143.549 113.41L143.819 113.27C144.45 112.94 145.148 112.761 145.86 112.747C146.571 112.733 147.276 112.885 147.919 113.19L148.079 113.27C152.933 116.09 157.789 118.9 162.649 121.7C174.129 128.367 185.623 135.033 197.129 141.7H197.209L197.409 141.81C203.659 138.54 209.989 135.59 216.409 132.68C216.699 132.55 218.409 131.92 218.949 131.68V131.61C219.059 131.04 219.249 129.97 219.299 129.88C219.366 129.107 219.416 128.337 219.449 127.57L215.089 130C212.949 131.22 210.829 132.47 208.739 133.77L208.079 134.16C207.488 134.593 206.807 134.885 206.086 135.015C205.365 135.145 204.624 135.109 203.919 134.91H203.809L203.479 134.78C203.073 134.613 202.679 134.42 202.299 134.2C197.766 131.533 193.236 128.903 188.709 126.31C176.903 119.437 165.046 112.593 153.139 105.78C152.397 105.446 151.759 104.917 151.293 104.25C150.826 103.583 150.549 102.802 150.489 101.99C150.489 101.83 150.489 101.67 150.489 101.51C150.489 101.35 150.489 101.29 150.489 101.17C150.543 89.1701 150.543 77.1968 150.489 65.2501C150.489 58.2634 150.489 51.2634 150.489 44.2501C150.463 43.4911 150.568 42.7333 150.799 42.0101C150.795 41.9836 150.795 41.9566 150.799 41.9301C150.849 41.8001 150.909 41.6801 150.969 41.5601C151.029 41.4401 151.049 41.3701 151.099 41.2801L151.199 41.1301C151.752 40.3376 152.49 39.6922 153.349 39.2501C159.203 35.9168 165.043 32.5834 170.869 29.2501C181.436 23.1834 191.989 17.0801 202.529 10.9401L203.079 10.6401C204.899 9.82009 206.369 10.0301 208.269 11.1401C221.769 19.0334 235.313 26.8568 248.899 34.6101C251.609 36.1501 254.309 37.7201 257.019 39.2601C257.994 39.7545 258.819 40.5002 259.409 41.4201C259.489 41.5721 259.559 41.7291 259.619 41.8901C259.625 41.9165 259.625 41.9437 259.619 41.9701C259.873 42.7127 259.989 43.4957 259.959 44.2801C259.959 45.5501 259.959 46.8301 259.959 48.1101C259.859 54.8701 259.959 79.2001 259.959 79.2401C259.959 80.4401 269.139 89.6201 269.139 78.7001C269.139 73.9301 269.139 54.8701 269.079 48.1101V44.2801C269.047 43.4964 269.159 42.7134 269.409 41.9701V41.8801C269.472 41.7221 269.546 41.5684 269.629 41.4201C270.202 40.48 271.022 39.7154 271.999 39.2101C274.709 37.6701 277.409 36.1001 280.109 34.5601C293.703 26.7868 307.253 18.9634 320.759 11.0901C322.669 9.98009 324.129 9.77009 325.959 10.5901C326.139 10.6768 326.319 10.7768 326.499 10.8901C337.026 17.0301 347.583 23.1334 358.169 29.2001C363.996 32.5334 369.833 35.8834 375.679 39.2501C376.54 39.6895 377.279 40.3354 377.829 41.1301L377.929 41.2801C377.979 41.3701 378.019 41.4701 378.069 41.5601C378.119 41.6501 378.189 41.8001 378.239 41.9301C378.235 41.9566 378.235 41.9836 378.239 42.0101C378.466 42.7344 378.571 43.4914 378.549 44.2501C378.549 51.1768 378.533 58.1134 378.499 65.0601C378.499 77.0601 378.499 89.0868 378.499 101.14C378.509 101.253 378.509 101.367 378.499 101.48C378.509 101.64 378.509 101.8 378.499 101.96C378.437 102.772 378.157 103.553 377.689 104.22C377.221 104.887 376.582 105.415 375.839 105.75C363.946 112.583 352.086 119.437 340.259 126.31C335.739 128.93 331.226 131.553 326.719 134.18C326.335 134.398 325.937 134.591 325.529 134.76L325.199 134.89H325.089C324.384 135.089 323.643 135.125 322.923 134.995C322.202 134.865 321.52 134.573 320.929 134.14L320.269 133.75C318.179 132.45 316.059 131.2 313.919 129.98L309.019 127.13C309.019 127.29 309.019 127.44 309.019 127.59C309.019 128.343 309.019 129.093 309.019 129.84C309.892 130.813 310.589 131.929 311.079 133.14C313.739 135.14 317.079 135.02 320.639 136.04C324.704 137.286 328.56 139.133 332.079 141.52C343.519 134.887 354.956 128.257 366.389 121.63C371.243 118.817 376.096 116.007 380.949 113.2L381.119 113.12C381.762 112.815 382.467 112.663 383.179 112.677C383.89 112.691 384.589 112.87 385.219 113.2L385.489 113.34C389.389 115.613 393.299 117.873 397.219 120.12C405.493 124.927 413.773 129.713 422.059 134.48L435.479 142.23L435.729 142.38C436.436 142.871 437.008 143.533 437.39 144.304C437.773 145.075 437.955 145.93 437.919 146.79C437.826 165.757 437.826 184.727 437.919 203.7V204.32C437.919 205.92 437.609 207.04 436.039 207.93C421.249 216.28 406.509 224.73 391.759 233.14C389.159 241.81 385.139 242.63 378.299 248.79C378.369 265.79 378.389 289.79 378.549 306.79C378.549 308.99 377.549 310 375.849 310.97C359.429 320.41 342.999 329.85 326.639 339.42C325.805 340.015 324.802 340.328 323.778 340.316C322.753 340.303 321.759 339.965 320.939 339.35C314.239 335.35 307.469 331.437 300.629 327.61L272.959 311.61C265.739 314.17 270.049 316.71 271.959 321.89C277.069 324.72 285.669 329.62 290.839 332.32C291.569 332.7 306.359 341.32 309.149 342.95C312.929 345.14 316.759 347.23 320.479 349.5C321.472 350.173 322.645 350.533 323.844 350.533C325.044 350.533 326.216 350.173 327.209 349.5C346.203 338.493 365.203 327.533 384.209 316.62C387.019 315.01 387.579 312.76 387.569 309.84C387.509 290.11 387.619 270.38 387.449 250.65C387.449 247.33 388.509 245.57 391.349 243.96C408.479 234.25 425.469 224.29 442.589 214.56C445.719 212.79 446.999 210.65 446.969 207.01C446.969 202.49 446.969 198.01 446.969 193.46C446.989 176.833 446.999 160.187 446.999 143.52Z" fill="#F5C300"/>
<path id="Vector_24" d="M386.83 129.71C384.88 126.53 382.03 127.39 379.34 128.95L344.34 149.31L352.76 155.06C363.12 149 373.48 142.943 383.84 136.89C386.66 135.23 389 133.18 386.83 129.71Z" fill="#F5C300"/>
<path id="Vector_25" d="M176.2 51.2301C180.79 49.0401 185.09 46.2301 189.51 43.6801C195.364 40.3001 201.21 36.9134 207.05 33.5201C208.017 33.0611 208.788 32.2718 209.225 31.2946C209.661 30.3173 209.734 29.2163 209.43 28.1901C208.88 26.0601 207.29 25.0401 204.72 24.8101C203.717 25.1764 202.738 25.6073 201.79 26.1001C190.08 32.8401 178.42 39.6601 166.67 46.3301C164.09 47.7901 163.23 49.7301 163.25 52.5701C163.33 65.7967 163.33 79.0267 163.25 92.2601C163.25 95.6301 163.9 98.6601 167.82 98.6001C171.74 98.5401 172.38 95.4801 172.36 92.1401C172.31 80.8601 172.46 69.5801 172.27 58.3101C172.21 54.9401 172.92 52.8001 176.2 51.2301Z" fill="#F5C300"/>
<path id="Vector_26" d="M328.85 27.8301C328.29 25.6601 326.66 24.6201 324.02 24.3901C322.992 24.7584 321.989 25.196 321.02 25.7001C309.02 32.5401 297.02 39.4701 285.02 46.2501C282.38 47.7301 281.49 49.7001 281.51 52.5901C281.577 63.8501 281.577 75.1101 281.51 86.3701C283.65 86.6113 285.716 87.2922 287.58 88.3701C288.775 89.0832 289.871 89.9506 290.84 90.9501C290.84 80.1201 290.93 69.2901 290.74 58.4601C290.68 55.0401 291.41 52.8601 294.74 51.2701C299.45 49.0401 303.86 46.1901 308.4 43.6001C314.4 40.1601 320.4 36.7401 326.4 33.2801C327.4 32.8237 328.2 32.0191 328.651 31.0164C329.102 30.0136 329.173 28.8812 328.85 27.8301V27.8301Z" fill="#F5C300"/>
<path id="Vector_27" d="M115.9 154.52C126.12 148.76 136.22 142.8 146.4 136.98C149.3 135.32 151.61 133.23 149.56 129.81C147.51 126.39 144.51 127.54 141.69 129.18C130.38 135.75 119.07 142.33 107.69 148.78C106.401 149.408 105.336 150.415 104.639 151.667C103.941 152.919 103.645 154.355 103.79 155.78C103.94 162.25 103.79 168.73 103.79 175.2C103.79 181.83 103.79 188.46 103.79 195.09C103.79 198.46 104.55 201.34 108.61 201.21C112.45 201.08 112.88 198.21 112.87 195.07C112.87 183.32 112.93 171.57 112.78 159.82C112.67 158.72 112.913 157.614 113.474 156.661C114.035 155.708 114.885 154.958 115.9 154.52V154.52Z" fill="#F5C300"/>
<path id="Vector_28" d="M170.821 295.19C170.981 283.46 170.921 271.73 171.011 260C171.011 256.66 170.391 253.62 166.401 253.67C162.411 253.72 161.901 256.89 161.901 260.15C161.901 273.23 161.901 286.31 161.731 299.4C161.624 300.814 161.95 302.227 162.664 303.452C163.378 304.677 164.448 305.656 165.731 306.26C171.411 309.39 176.951 312.74 182.551 316C188.151 319.26 194.011 322.65 199.721 326C202.631 327.72 205.511 328.49 207.441 324.92C209.261 321.54 206.991 319.71 204.281 318.15C194.101 312.28 184.001 306.26 173.781 300.48C172.793 300.022 171.976 299.264 171.444 298.314C170.913 297.365 170.694 296.271 170.821 295.19V295.19Z" fill="#F5C300"/>
<path id="Vector_29" d="M324.211 318.16C314.031 312.29 303.941 306.27 293.711 300.49C292.717 300.034 291.892 299.277 291.354 298.325C290.815 297.374 290.59 296.277 290.711 295.19C290.711 293.24 290.761 291.28 290.771 289.33C289.094 291.076 287.685 293.061 286.591 295.22C285.55 297.276 283.76 298.854 281.591 299.63C281.522 301.008 281.866 302.375 282.578 303.556C283.291 304.737 284.34 305.679 285.591 306.26C291.261 309.39 296.801 312.74 302.401 316C308.001 319.26 313.871 322.65 319.581 326C322.481 327.72 325.371 328.49 327.291 324.92C329.201 321.55 326.931 319.72 324.211 318.16Z" fill="#F5C300"/>
<path id="Vector_30" d="M396.18 210C394.257 201.154 390.841 192.7 386.08 185C374.56 165.965 358.462 150.114 339.25 138.89C333.684 135.517 327.77 132.754 321.61 130.65C319.51 129.95 317.35 129.37 315.27 128.8L314.27 128.53C313.72 128.38 313.6 128.22 313.62 127.64C313.696 125.907 313.673 124.171 313.55 122.44C312.94 115.88 310.55 109.51 306.32 102.97C305.42 101.57 304.41 100.21 303.44 98.89L302.31 97.35L302.4 97.23L307.79 90.58C312.25 85.0867 316.707 79.59 321.16 74.09C321.598 73.5696 321.993 73.0144 322.34 72.43C322.864 71.4846 323.044 70.3867 322.849 69.3235C322.654 68.2604 322.096 67.2978 321.27 66.6C320.44 65.9024 319.39 65.52 318.305 65.52C317.221 65.52 316.171 65.9024 315.34 66.6C314.931 66.9385 314.555 67.3171 314.22 67.73L303 81.52L295.6 90.64L295.18 90.29C294.69 89.87 294.18 89.45 293.68 89.05C285.16 82.28 277.13 78.76 268.44 77.98C263.027 77.4083 257.554 77.9703 252.37 79.63C246.17 81.7101 240.407 84.9172 235.37 89.09C234.85 89.51 234.37 89.94 233.82 90.38L233.5 90.64L233.26 90.34L229.72 86L215 67.87C214.587 67.3435 214.11 66.8699 213.58 66.46C212.928 65.9778 212.16 65.6757 211.353 65.5839C210.547 65.4921 209.731 65.6138 208.986 65.937C208.242 66.2601 207.595 66.7732 207.112 67.4249C206.628 68.0765 206.324 68.8439 206.23 69.65C205.99 71.54 206.95 72.9 207.95 74.13C212.944 80.2634 217.927 86.4034 222.9 92.55L224.8 94.9C225.34 95.56 225.87 96.22 226.4 96.9L226.85 97.47C222.824 102.238 219.675 107.682 217.55 113.55C216.062 117.653 215.344 121.996 215.43 126.36C215.43 126.76 215.43 127.1 215.48 127.36C215.519 127.692 215.519 128.028 215.48 128.36C215.161 128.498 214.825 128.593 214.48 128.64L213.55 128.86C206.41 130.709 199.534 133.461 193.09 137.05C178.057 145.311 164.736 156.362 153.84 169.61C146.339 178.419 140.345 188.407 136.1 199.17C132.59 208.39 131.24 216.33 131.86 224.17C132.186 229.559 133.909 234.77 136.86 239.29C140.92 245.44 146.94 249.51 154.75 251.41C161.09 252.96 168 252.98 175.86 251.5C185.095 249.645 193.981 246.348 202.19 241.73C203.69 240.91 205.19 240.06 206.65 239.19L208.16 238.32L208.35 239.01C208.64 240.01 208.92 241.01 209.23 242.01C209.73 243.65 210.23 245.09 210.66 246.4C216.571 263.429 225.421 279.289 236.81 293.26C241.507 299.193 247.002 304.446 253.14 308.87C253.509 309.081 253.808 309.395 254 309.773C254.192 310.152 254.268 310.578 254.22 311C254.1 320.78 254.03 330.88 254 341.88C253.915 345.233 255.008 348.51 257.09 351.14C257.981 352.226 259.101 353.1 260.37 353.701C261.64 354.301 263.026 354.611 264.43 354.61H264.57C265.949 354.63 267.316 354.348 268.573 353.783C269.831 353.218 270.95 352.384 271.85 351.34C274.02 348.768 275.179 345.494 275.11 342.13C275.11 335.4 275.06 328.66 275.01 321.92C275.01 317.92 274.984 313.92 274.93 309.92C274.954 309.756 275.031 309.605 275.15 309.49C281.004 305.382 286.278 300.505 290.83 294.99C303.901 279.505 313.759 261.573 319.83 242.24C320.16 241.24 320.46 240.14 320.76 239.08C320.83 238.8 320.91 238.52 320.99 238.25L322.1 238.9C323.3 239.62 324.49 240.32 325.7 240.99C337.55 247.55 348.09 251.13 358.87 252.24C364.448 252.926 370.107 252.521 375.53 251.05C386.44 247.93 393.4 240.89 396.23 230.12C397.78 224.2 397.77 217.6 396.18 210ZM263.37 314.63C263.745 314.791 264.148 314.874 264.555 314.874C264.963 314.874 265.366 314.791 265.74 314.63L265.89 343.83C265.89 344.83 265.39 345.45 264.57 345.46C264.405 345.474 264.238 345.45 264.082 345.392C263.926 345.333 263.786 345.24 263.67 345.12C263.515 344.953 263.395 344.756 263.317 344.541C263.24 344.326 263.207 344.098 263.22 343.87C263.26 334.123 263.31 324.377 263.37 314.63ZM266.29 303.81C265.91 304.02 265.54 304.23 265.18 304.46C264.985 304.604 264.748 304.681 264.505 304.681C264.263 304.681 264.026 304.604 263.83 304.46C261.035 302.873 258.405 301.011 255.98 298.9C252.591 295.97 249.429 292.788 246.52 289.38H282.58C278.78 293.74 273.7 299.09 267.45 303.15C267.07 303.36 266.68 303.58 266.29 303.81ZM216.62 232.53C217.285 231.941 218.065 231.495 218.909 231.22C219.754 230.945 220.646 230.846 221.53 230.93H221.59C240.31 230.99 259.34 230.93 277.75 230.93H308.25C308.383 230.954 308.518 230.954 308.65 230.93C310.02 230.54 310.9 231.27 311.93 232.13C312.2 232.36 312.48 232.59 312.76 232.79C312.779 232.926 312.779 233.064 312.76 233.2C311.401 238.932 309.596 244.549 307.36 250C306.81 251.36 306.81 251.36 305.36 251.36H222.71C222.34 251.36 222.28 251.36 222.16 251.03C219.77 245.279 217.827 239.351 216.35 233.3C216.28 232.94 216.29 232.84 216.62 232.53ZM247.4 201.26C247.47 201.137 247.575 201.037 247.701 200.973C247.827 200.909 247.97 200.884 248.11 200.9H281C281.141 200.885 281.282 200.912 281.407 200.978C281.531 201.044 281.634 201.146 281.7 201.27C286.882 208.647 292.802 215.476 299.37 221.65H229.73C236.303 215.476 242.224 208.643 247.4 201.26ZM253.71 191.51C259.075 180.523 262.73 168.781 264.55 156.69C266.377 168.78 270.036 180.522 275.4 191.51H253.71ZM304.26 126.43V126.56C304.265 126.63 304.265 126.7 304.26 126.77L303.26 126.66C302.21 126.54 301.12 126.42 300.03 126.38L297.66 126.29C293.49 126.14 289.16 125.98 284.91 125.96C274.05 125.9 263.19 125.9 252.33 125.89H241C235.614 125.866 230.23 126.17 224.88 126.8C224.758 125.185 224.821 123.561 225.07 121.96C226.021 116.532 228.215 111.398 231.48 106.96C236.396 99.731 243.171 93.9617 251.09 90.26C256 88 260.24 86.92 264.27 86.92C264.86 86.92 265.45 86.92 266.03 86.99C270.929 87.368 275.69 88.7826 280 91.14C289.717 96.2463 297.431 104.475 301.9 114.5C303.639 118.228 304.449 122.321 304.26 126.43V126.43ZM233.13 135.5L235.9 135.34C236.9 135.27 237.9 135.18 238.83 135.09L240.94 134.91C229.042 140.787 217.796 147.903 207.39 156.14C199.187 162.328 191.796 169.525 185.39 177.56C181.39 182.71 177.9 187.56 174.78 192.43C173.181 195.011 171.732 197.682 170.44 200.43C169.85 201.63 169.26 202.82 168.65 204C168.507 204.277 168.461 204.594 168.52 204.9L168.74 206.06L169.64 204.93C169.779 204.77 169.909 204.603 170.03 204.43C175.987 196.106 182.871 188.487 190.55 181.72C197.46 175.46 205.36 169.03 215.4 161.47C222.566 155.937 230.031 150.803 237.76 146.09L238.09 145.89C241.735 143.597 245.573 141.626 249.56 140C251.23 139.37 252.9 138.82 254.68 138.25L256.48 137.66C256.48 137.9 256.48 138.1 256.48 138.31C256.79 148.15 255.37 158.51 252.16 170C250.01 177.994 246.637 185.607 242.16 192.57C237.999 198.938 233.248 204.901 227.97 210.38C218.628 220.232 207.716 228.467 195.68 234.75C188.613 238.525 181.008 241.193 173.13 242.66C166.44 243.81 160.94 243.66 155.83 242.25C151.908 241.249 148.392 239.06 145.762 235.983C143.132 232.905 141.518 229.09 141.14 225.06C140.47 218.64 141.232 212.151 143.37 206.06C146.37 196.78 151.26 187.81 158.37 178.66C169.091 164.671 182.656 153.113 198.17 144.75C203.523 141.695 209.261 139.371 215.23 137.84C218.92 137 222.77 136.51 226.5 136.04L227.95 135.86C229.69 135.68 231.44 135.59 233.13 135.5ZM272.58 138.31C272.58 138.11 272.58 137.91 272.58 137.7L273.08 137.83C278.589 139.396 283.87 141.671 288.79 144.6C299.65 151.116 310.054 158.363 319.93 166.29C326.22 171.2 331.23 175.29 335.69 179.22C341.556 184.134 347.011 189.518 352 195.32C353.7 197.38 355.35 199.54 356.94 201.64C357.68 202.64 358.41 203.58 359.16 204.55C359.376 204.868 359.683 205.112 360.04 205.25L361.24 205.69L360.71 204.52C360.54 204.16 360.38 203.79 360.22 203.42C359.87 202.63 359.52 201.83 359.13 201.06C352.142 187.046 342.602 174.458 331 163.94C318.188 152.265 303.76 142.497 288.16 134.94L291.94 135.23C294.83 135.46 297.81 135.69 300.75 135.87C311.87 136.53 322.48 139.87 333.19 146.08C353.45 157.81 369.19 173.59 379.95 192.95C383.75 199.555 386.354 206.779 387.64 214.29C388.64 220.55 388.31 225.62 386.59 230.29C384.35 236.36 379.84 240.4 373.19 242.29C368.628 243.51 363.868 243.806 359.19 243.16C349.89 242.1 340.44 238.82 330.29 233.16C314.428 224.185 300.678 211.908 289.97 197.16C282.51 187 277.49 175 274.6 160.41C273.077 153.146 272.4 145.73 272.58 138.31V138.31ZM238.46 279.08C237.05 276.87 235.63 274.69 234.2 272.5L230.79 267.24C229.79 265.74 228.91 264.24 227.98 262.7L226.98 260.99H302.22L298.16 267.33L290.47 279.38C290.375 279.557 290.229 279.702 290.051 279.794C289.872 279.887 289.67 279.924 289.47 279.9C274.81 279.9 257.47 279.9 240.29 280C239.928 280.051 239.559 279.99 239.232 279.826C238.905 279.661 238.636 279.401 238.46 279.08V279.08Z" fill="#F5C300"/>
</g>
</g>
</g>
<defs>
<clipPath id="clip0_153:5107">
<rect width="529.01" height="474.82" fill="white"/>
</clipPath>
</defs>
</svg>
