<svg width="1498" height="757" viewBox="0 0 1498 757" fill="none" xmlns="http://www.w3.org/2000/svg">
<rect width="1498" height="355" fill="white"/>
<path d="M-3.30895e-05 6.10352e-05L0 757L1498 757L1498 -4.4445e-06L-3.30895e-05 6.10352e-05Z" fill="#EFE8E7"/>
<rect x="445" y="82" width="158" height="158" fill="#9E949E"/>
<rect x="227" y="82" width="158" height="158" fill="#FDCEC2"/>
<rect x="663" y="82" width="158" height="158" fill="#151515"/>
<rect x="895" y="82" width="158" height="158" fill="#84F85B"/>
<rect x="1113" y="82" width="158" height="158" fill="#E55539"/>
<path d="M486.255 284.023V286.367H483.162L482.06 290H479.763L480.841 286.367H477.49L476.365 290H474.068L475.169 286.367H472.662V284.023H475.873L476.857 280.789H474.302V278.211H477.63L478.826 274.297H481.193L479.998 278.211H483.326L484.521 274.297H486.888L485.669 278.211H487.896V280.789H484.873L483.888 284.023H486.255ZM478.193 284.023H481.568L482.552 280.789H479.201L478.193 284.023ZM493.017 290C493.642 289.391 494.337 288.734 495.103 288.031C495.868 287.312 496.579 286.578 497.235 285.828C497.907 285.062 498.415 284.312 498.759 283.578C498.399 283.938 498.001 284.227 497.563 284.445C497.126 284.664 496.649 284.773 496.134 284.773C495.181 284.773 494.329 284.555 493.579 284.117C492.829 283.664 492.235 283.062 491.798 282.312C491.36 281.547 491.142 280.688 491.142 279.734C491.142 278.688 491.384 277.727 491.868 276.852C492.368 275.961 493.048 275.258 493.907 274.742C494.767 274.211 495.751 273.945 496.86 273.945C497.907 273.945 498.876 274.195 499.767 274.695C500.657 275.18 501.376 275.875 501.923 276.781C502.47 277.672 502.743 278.742 502.743 279.992C502.743 281.039 502.54 282.062 502.134 283.062C501.728 284.062 501.22 285.008 500.61 285.898C500.001 286.789 499.376 287.586 498.735 288.289C498.11 288.992 497.571 289.562 497.118 290H493.017ZM496.907 281.961C497.61 281.961 498.212 281.727 498.712 281.258C499.228 280.773 499.485 280.18 499.485 279.477C499.485 278.711 499.228 278.078 498.712 277.578C498.212 277.078 497.61 276.828 496.907 276.828C496.22 276.828 495.626 277.078 495.126 277.578C494.626 278.078 494.376 278.711 494.376 279.477C494.376 280.18 494.626 280.773 495.126 281.258C495.626 281.727 496.22 281.961 496.907 281.961ZM516.747 280.672V283.32H509.809V287.117H517.661V290H506.551V274.297H517.661V277.109H509.809V280.672H516.747ZM522.781 290C523.406 289.391 524.102 288.734 524.867 288.031C525.633 287.312 526.344 286.578 527 285.828C527.672 285.062 528.18 284.312 528.523 283.578C528.164 283.938 527.766 284.227 527.328 284.445C526.891 284.664 526.414 284.773 525.898 284.773C524.945 284.773 524.094 284.555 523.344 284.117C522.594 283.664 522 283.062 521.562 282.312C521.125 281.547 520.906 280.688 520.906 279.734C520.906 278.688 521.148 277.727 521.633 276.852C522.133 275.961 522.812 275.258 523.672 274.742C524.531 274.211 525.516 273.945 526.625 273.945C527.672 273.945 528.641 274.195 529.531 274.695C530.422 275.18 531.141 275.875 531.688 276.781C532.234 277.672 532.508 278.742 532.508 279.992C532.508 281.039 532.305 282.062 531.898 283.062C531.492 284.062 530.984 285.008 530.375 285.898C529.766 286.789 529.141 287.586 528.5 288.289C527.875 288.992 527.336 289.562 526.883 290H522.781ZM526.672 281.961C527.375 281.961 527.977 281.727 528.477 281.258C528.992 280.773 529.25 280.18 529.25 279.477C529.25 278.711 528.992 278.078 528.477 277.578C527.977 277.078 527.375 276.828 526.672 276.828C525.984 276.828 525.391 277.078 524.891 277.578C524.391 278.078 524.141 278.711 524.141 279.477C524.141 280.18 524.391 280.773 524.891 281.258C525.391 281.727 525.984 281.961 526.672 281.961ZM544.472 274.297V283.883H546.605V286.531H544.472V290H541.472V286.531H534.863V284.609C536.144 283.203 537.433 281.664 538.73 279.992C540.027 278.305 541.261 276.406 542.433 274.297H544.472ZM541.472 280.203C541.003 280.906 540.558 281.555 540.136 282.148C539.73 282.742 539.285 283.32 538.8 283.883H541.472V280.203ZM550.694 290C551.319 289.391 552.015 288.734 552.78 288.031C553.546 287.312 554.257 286.578 554.913 285.828C555.585 285.062 556.093 284.312 556.437 283.578C556.077 283.938 555.679 284.227 555.241 284.445C554.804 284.664 554.327 284.773 553.812 284.773C552.858 284.773 552.007 284.555 551.257 284.117C550.507 283.664 549.913 283.062 549.476 282.312C549.038 281.547 548.819 280.688 548.819 279.734C548.819 278.688 549.062 277.727 549.546 276.852C550.046 275.961 550.726 275.258 551.585 274.742C552.444 274.211 553.429 273.945 554.538 273.945C555.585 273.945 556.554 274.195 557.444 274.695C558.335 275.18 559.054 275.875 559.601 276.781C560.148 277.672 560.421 278.742 560.421 279.992C560.421 281.039 560.218 282.062 559.812 283.062C559.405 284.062 558.898 285.008 558.288 285.898C557.679 286.789 557.054 287.586 556.413 288.289C555.788 288.992 555.249 289.562 554.796 290H550.694ZM554.585 281.961C555.288 281.961 555.89 281.727 556.39 281.258C556.905 280.773 557.163 280.18 557.163 279.477C557.163 278.711 556.905 278.078 556.39 277.578C555.89 277.078 555.288 276.828 554.585 276.828C553.898 276.828 553.304 277.078 552.804 277.578C552.304 278.078 552.054 278.711 552.054 279.477C552.054 280.18 552.304 280.773 552.804 281.258C553.304 281.727 553.898 281.961 554.585 281.961ZM574.424 280.672V283.32H567.487V287.117H575.338V290H564.229V274.297H575.338V277.109H567.487V280.672H574.424Z" fill="black"/>
<path d="M264.716 284.023V286.367H261.623L260.521 290H258.224L259.302 286.367H255.951L254.826 290H252.529L253.63 286.367H251.123V284.023H254.333L255.318 280.789H252.763V278.211H256.091L257.287 274.297H259.654L258.458 278.211H261.787L262.982 274.297H265.349L264.13 278.211H266.357V280.789H263.333L262.349 284.023H264.716ZM256.654 284.023H260.029L261.013 280.789H257.662L256.654 284.023ZM280.478 281.188V284.117H274.313V290H271.056V274.297H281.767V277.227H274.313V281.188H280.478ZM292.512 273.922C294.168 273.922 295.622 274.258 296.872 274.93C298.122 275.602 299.09 276.539 299.778 277.742C300.481 278.945 300.833 280.359 300.833 281.984C300.833 283.531 300.504 284.938 299.848 286.203C299.192 287.453 298.254 288.445 297.036 289.18C295.817 289.914 294.364 290.281 292.676 290.281C291.598 290.281 290.52 290.227 289.442 290.117C288.379 290.008 287.372 289.859 286.418 289.672V274.531C287.387 274.375 288.379 274.234 289.395 274.109C290.411 273.984 291.45 273.922 292.512 273.922ZM292.583 276.969C292.114 276.969 291.622 276.992 291.106 277.039C290.59 277.086 290.114 277.148 289.676 277.227V286.977C290.145 287.07 290.629 287.141 291.129 287.188C291.645 287.219 292.129 287.234 292.583 287.234C293.614 287.234 294.497 287.016 295.231 286.578C295.965 286.125 296.528 285.508 296.918 284.727C297.309 283.945 297.504 283.07 297.504 282.102C297.504 281.102 297.309 280.219 296.918 279.453C296.528 278.688 295.965 278.086 295.231 277.648C294.497 277.195 293.614 276.969 292.583 276.969ZM311.719 273.945C312.703 273.945 313.555 274.086 314.273 274.367C314.992 274.633 315.617 275 316.148 275.469V278.75C315.773 278.469 315.383 278.195 314.977 277.93C314.57 277.664 314.109 277.445 313.594 277.273C313.094 277.102 312.5 277.016 311.812 277.016C310.875 277.016 310.023 277.242 309.258 277.695C308.492 278.148 307.883 278.758 307.43 279.523C306.977 280.289 306.75 281.164 306.75 282.148C306.75 283.117 306.977 283.992 307.43 284.773C307.883 285.539 308.492 286.148 309.258 286.602C310.023 287.039 310.875 287.258 311.812 287.258C312.859 287.258 313.734 287.102 314.438 286.789C315.156 286.461 315.805 286.062 316.383 285.594V288.758C315.852 289.242 315.188 289.633 314.391 289.93C313.594 290.211 312.703 290.352 311.719 290.352C310.594 290.352 309.531 290.156 308.531 289.766C307.531 289.359 306.648 288.797 305.883 288.078C305.117 287.344 304.516 286.477 304.078 285.477C303.641 284.477 303.422 283.367 303.422 282.148C303.422 280.93 303.641 279.82 304.078 278.82C304.516 277.82 305.117 276.961 305.883 276.242C306.648 275.508 307.531 274.945 308.531 274.555C309.531 274.148 310.594 273.945 311.719 273.945ZM330.457 280.672V283.32H323.519V287.117H331.371V290H320.261V274.297H331.371V277.109H323.519V280.672H330.457ZM343.077 273.945C344.062 273.945 344.913 274.086 345.632 274.367C346.351 274.633 346.976 275 347.507 275.469V278.75C347.132 278.469 346.741 278.195 346.335 277.93C345.929 277.664 345.468 277.445 344.952 277.273C344.452 277.102 343.858 277.016 343.171 277.016C342.233 277.016 341.382 277.242 340.616 277.695C339.851 278.148 339.241 278.758 338.788 279.523C338.335 280.289 338.108 281.164 338.108 282.148C338.108 283.117 338.335 283.992 338.788 284.773C339.241 285.539 339.851 286.148 340.616 286.602C341.382 287.039 342.233 287.258 343.171 287.258C344.218 287.258 345.093 287.102 345.796 286.789C346.515 286.461 347.163 286.062 347.741 285.594V288.758C347.21 289.242 346.546 289.633 345.749 289.93C344.952 290.211 344.062 290.352 343.077 290.352C341.952 290.352 340.89 290.156 339.89 289.766C338.89 289.359 338.007 288.797 337.241 288.078C336.476 287.344 335.874 286.477 335.437 285.477C334.999 284.477 334.78 283.367 334.78 282.148C334.78 280.93 334.999 279.82 335.437 278.82C335.874 277.82 336.476 276.961 337.241 276.242C338.007 275.508 338.89 274.945 339.89 274.555C340.89 274.148 341.952 273.945 343.077 273.945ZM355.698 273.945C356.776 273.945 357.713 274.148 358.51 274.555C359.323 274.945 359.956 275.5 360.409 276.219C360.862 276.922 361.088 277.75 361.088 278.703C361.088 279.484 360.963 280.203 360.713 280.859C360.479 281.5 360.135 282.141 359.682 282.781C359.229 283.406 358.674 284.078 358.018 284.797C357.378 285.516 356.643 286.336 355.815 287.258H361.206V290H350.963V288.688C352.463 287.062 353.721 285.695 354.737 284.586C355.768 283.461 356.542 282.5 357.057 281.703C357.588 280.891 357.854 280.172 357.854 279.547C357.854 278.75 357.588 278.133 357.057 277.695C356.542 277.242 355.893 277.016 355.112 277.016C354.393 277.016 353.69 277.203 353.003 277.578C352.315 277.953 351.753 278.375 351.315 278.844V275.516C351.784 275.109 352.409 274.75 353.19 274.438C353.971 274.109 354.807 273.945 355.698 273.945Z" fill="black"/>
<path d="M706.107 284.023V286.367H703.013L701.912 290H699.615L700.693 286.367H697.341L696.216 290H693.919L695.021 286.367H692.513V284.023H695.724L696.708 280.789H694.154V278.211H697.482L698.677 274.297H701.044L699.849 278.211H703.177L704.373 274.297H706.74L705.521 278.211H707.748V280.789H704.724L703.74 284.023H706.107ZM698.044 284.023H701.419L702.404 280.789H699.052L698.044 284.023ZM721.938 287.117V290H712.259V287.117H715.47V278.914C715.001 279.305 714.493 279.602 713.946 279.805C713.399 280.008 712.884 280.164 712.399 280.273V277.109C713.181 276.875 713.938 276.508 714.673 276.008C715.423 275.508 716.048 274.938 716.548 274.297H718.704V287.117H721.938ZM735.168 274.297V277.203H729.473V280.508C729.739 280.398 730.059 280.312 730.434 280.25C730.809 280.172 731.208 280.133 731.629 280.133C732.411 280.133 733.137 280.328 733.809 280.719C734.497 281.094 735.051 281.625 735.473 282.312C735.895 282.984 736.106 283.781 736.106 284.703C736.106 285.922 735.833 286.953 735.286 287.797C734.739 288.625 734.012 289.258 733.106 289.695C732.2 290.133 731.192 290.352 730.083 290.352C729.036 290.352 728.145 290.188 727.411 289.859C726.676 289.516 726.106 289.18 725.7 288.852V285.945C726.262 286.289 726.856 286.633 727.481 286.977C728.106 287.305 728.825 287.469 729.637 287.469C730.575 287.469 731.348 287.273 731.958 286.883C732.567 286.477 732.872 285.875 732.872 285.078C732.872 284.359 732.559 283.781 731.934 283.344C731.325 282.906 730.559 282.688 729.637 282.688C729.043 282.688 728.497 282.75 727.997 282.875C727.512 283 727.051 283.133 726.614 283.273V274.297H735.168ZM749.852 287.117V290H740.172V287.117H743.383V278.914C742.914 279.305 742.406 279.602 741.859 279.805C741.312 280.008 740.797 280.164 740.312 280.273V277.109C741.094 276.875 741.852 276.508 742.586 276.008C743.336 275.508 743.961 274.938 744.461 274.297H746.617V287.117H749.852ZM763.082 274.297V277.203H757.386V280.508C757.652 280.398 757.972 280.312 758.347 280.25C758.722 280.172 759.121 280.133 759.542 280.133C760.324 280.133 761.05 280.328 761.722 280.719C762.41 281.094 762.964 281.625 763.386 282.312C763.808 282.984 764.019 283.781 764.019 284.703C764.019 285.922 763.746 286.953 763.199 287.797C762.652 288.625 761.925 289.258 761.019 289.695C760.113 290.133 759.105 290.352 757.996 290.352C756.949 290.352 756.058 290.188 755.324 289.859C754.589 289.516 754.019 289.18 753.613 288.852V285.945C754.175 286.289 754.769 286.633 755.394 286.977C756.019 287.305 756.738 287.469 757.55 287.469C758.488 287.469 759.261 287.273 759.871 286.883C760.48 286.477 760.785 285.875 760.785 285.078C760.785 284.359 760.472 283.781 759.847 283.344C759.238 282.906 758.472 282.688 757.55 282.688C756.957 282.688 756.41 282.75 755.91 282.875C755.425 283 754.964 283.133 754.527 283.273V274.297H763.082ZM777.765 287.117V290H768.085V287.117H771.296V278.914C770.827 279.305 770.319 279.602 769.773 279.805C769.226 280.008 768.71 280.164 768.226 280.273V277.109C769.007 276.875 769.765 276.508 770.499 276.008C771.249 275.508 771.874 274.938 772.374 274.297H774.53V287.117H777.765ZM790.995 274.297V277.203H785.299V280.508C785.565 280.398 785.885 280.312 786.26 280.25C786.635 280.172 787.034 280.133 787.456 280.133C788.237 280.133 788.963 280.328 789.635 280.719C790.323 281.094 790.878 281.625 791.299 282.312C791.721 282.984 791.932 283.781 791.932 284.703C791.932 285.922 791.659 286.953 791.112 287.797C790.565 288.625 789.838 289.258 788.932 289.695C788.026 290.133 787.018 290.352 785.909 290.352C784.862 290.352 783.971 290.188 783.237 289.859C782.503 289.516 781.932 289.18 781.526 288.852V285.945C782.088 286.289 782.682 286.633 783.307 286.977C783.932 287.305 784.651 287.469 785.463 287.469C786.401 287.469 787.174 287.273 787.784 286.883C788.393 286.477 788.698 285.875 788.698 285.078C788.698 284.359 788.385 283.781 787.76 283.344C787.151 282.906 786.385 282.688 785.463 282.688C784.87 282.688 784.323 282.75 783.823 282.875C783.338 283 782.878 283.133 782.44 283.273V274.297H790.995Z" fill="black"/>
<path d="M935.998 284.023V286.367H932.904L931.802 290H929.505L930.583 286.367H927.232L926.107 290H923.81L924.912 286.367H922.404V284.023H925.615L926.599 280.789H924.044V278.211H927.373L928.568 274.297H930.935L929.74 278.211H933.068L934.263 274.297H936.63L935.412 278.211H937.638V280.789H934.615L933.63 284.023H935.998ZM927.935 284.023H931.31L932.294 280.789H928.943L927.935 284.023ZM946.743 273.945C947.649 273.945 948.478 274.125 949.228 274.484C949.978 274.828 950.571 275.32 951.009 275.961C951.462 276.602 951.688 277.359 951.688 278.234C951.688 279.141 951.47 279.875 951.032 280.438C950.595 280.984 950.095 281.414 949.532 281.727C950.204 282.008 950.806 282.477 951.337 283.133C951.884 283.773 952.157 284.539 952.157 285.43C952.157 286.383 951.915 287.234 951.431 287.984C950.962 288.719 950.321 289.297 949.509 289.719C948.696 290.141 947.774 290.352 946.743 290.352C945.712 290.352 944.782 290.141 943.954 289.719C943.142 289.297 942.501 288.719 942.032 287.984C941.563 287.234 941.329 286.383 941.329 285.43C941.329 284.539 941.595 283.773 942.126 283.133C942.657 282.477 943.267 282.008 943.954 281.727C943.376 281.414 942.868 280.984 942.431 280.438C942.009 279.875 941.798 279.141 941.798 278.234C941.798 277.359 942.017 276.602 942.454 275.961C942.892 275.32 943.485 274.828 944.235 274.484C944.985 274.125 945.821 273.945 946.743 273.945ZM946.743 276.664C946.196 276.664 945.712 276.852 945.29 277.227C944.884 277.602 944.681 278.094 944.681 278.703C944.681 279.312 944.884 279.805 945.29 280.18C945.712 280.539 946.196 280.719 946.743 280.719C947.274 280.719 947.751 280.539 948.173 280.18C948.595 279.805 948.806 279.312 948.806 278.703C948.806 278.094 948.595 277.602 948.173 277.227C947.751 276.852 947.274 276.664 946.743 276.664ZM946.743 283.039C946.118 283.039 945.563 283.25 945.079 283.672C944.61 284.094 944.376 284.641 944.376 285.312C944.376 285.984 944.595 286.539 945.032 286.977C945.485 287.414 946.056 287.633 946.743 287.633C947.415 287.633 947.978 287.414 948.431 286.977C948.884 286.539 949.11 285.984 949.11 285.312C949.11 284.641 948.868 284.094 948.384 283.672C947.899 283.25 947.353 283.039 946.743 283.039ZM964.45 274.297V283.883H966.583V286.531H964.45V290H961.45V286.531H954.84V284.609C956.122 283.203 957.411 281.664 958.708 279.992C960.004 278.305 961.239 276.406 962.411 274.297H964.45ZM961.45 280.203C960.981 280.906 960.536 281.555 960.114 282.148C959.708 282.742 959.262 283.32 958.778 283.883H961.45V280.203ZM979.672 281.188V284.117H973.508V290H970.25V274.297H980.961V277.227H973.508V281.188H979.672ZM990.019 273.945C990.925 273.945 991.753 274.125 992.503 274.484C993.253 274.828 993.847 275.32 994.285 275.961C994.738 276.602 994.964 277.359 994.964 278.234C994.964 279.141 994.746 279.875 994.308 280.438C993.871 280.984 993.371 281.414 992.808 281.727C993.48 282.008 994.082 282.477 994.613 283.133C995.16 283.773 995.433 284.539 995.433 285.43C995.433 286.383 995.191 287.234 994.707 287.984C994.238 288.719 993.597 289.297 992.785 289.719C991.972 290.141 991.05 290.352 990.019 290.352C988.988 290.352 988.058 290.141 987.23 289.719C986.417 289.297 985.777 288.719 985.308 287.984C984.839 287.234 984.605 286.383 984.605 285.43C984.605 284.539 984.871 283.773 985.402 283.133C985.933 282.477 986.542 282.008 987.23 281.727C986.652 281.414 986.144 280.984 985.707 280.438C985.285 279.875 985.074 279.141 985.074 278.234C985.074 277.359 985.292 276.602 985.73 275.961C986.167 275.32 986.761 274.828 987.511 274.484C988.261 274.125 989.097 273.945 990.019 273.945ZM990.019 276.664C989.472 276.664 988.988 276.852 988.566 277.227C988.16 277.602 987.957 278.094 987.957 278.703C987.957 279.312 988.16 279.805 988.566 280.18C988.988 280.539 989.472 280.719 990.019 280.719C990.55 280.719 991.027 280.539 991.449 280.18C991.871 279.805 992.082 279.312 992.082 278.703C992.082 278.094 991.871 277.602 991.449 277.227C991.027 276.852 990.55 276.664 990.019 276.664ZM990.019 283.039C989.394 283.039 988.839 283.25 988.355 283.672C987.886 284.094 987.652 284.641 987.652 285.312C987.652 285.984 987.871 286.539 988.308 286.977C988.761 287.414 989.332 287.633 990.019 287.633C990.691 287.633 991.253 287.414 991.707 286.977C992.16 286.539 992.386 285.984 992.386 285.312C992.386 284.641 992.144 284.094 991.66 283.672C991.175 283.25 990.628 283.039 990.019 283.039ZM1008.34 274.297V277.203H1002.64V280.508C1002.91 280.398 1003.23 280.312 1003.6 280.25C1003.98 280.172 1004.37 280.133 1004.8 280.133C1005.58 280.133 1006.3 280.328 1006.98 280.719C1007.66 281.094 1008.22 281.625 1008.64 282.312C1009.06 282.984 1009.27 283.781 1009.27 284.703C1009.27 285.922 1009 286.953 1008.45 287.797C1007.91 288.625 1007.18 289.258 1006.27 289.695C1005.37 290.133 1004.36 290.352 1003.25 290.352C1002.2 290.352 1001.31 290.188 1000.58 289.859C999.843 289.516 999.273 289.18 998.866 288.852V285.945C999.429 286.289 1000.02 286.633 1000.65 286.977C1001.27 287.305 1001.99 287.469 1002.8 287.469C1003.74 287.469 1004.51 287.273 1005.12 286.883C1005.73 286.477 1006.04 285.875 1006.04 285.078C1006.04 284.359 1005.73 283.781 1005.1 283.344C1004.49 282.906 1003.73 282.688 1002.8 282.688C1002.21 282.688 1001.66 282.75 1001.16 282.875C1000.68 283 1000.22 283.133 999.78 283.273V274.297H1008.34ZM1019.46 273.922C1020.67 273.922 1021.74 274.117 1022.64 274.508C1023.55 274.883 1024.25 275.406 1024.75 276.078C1025.27 276.75 1025.53 277.523 1025.53 278.398C1025.53 279.18 1025.32 279.875 1024.89 280.484C1024.49 281.094 1023.97 281.562 1023.35 281.891C1023.82 282.016 1024.27 282.227 1024.71 282.523C1025.14 282.805 1025.5 283.188 1025.78 283.672C1026.07 284.141 1026.21 284.742 1026.21 285.477C1026.21 286.352 1025.94 287.156 1025.41 287.891C1024.88 288.609 1024.14 289.188 1023.18 289.625C1022.23 290.062 1021.12 290.281 1019.85 290.281C1019.17 290.281 1018.42 290.25 1017.63 290.188C1016.83 290.141 1016.07 290.07 1015.35 289.977C1014.64 289.867 1014.03 289.758 1013.53 289.648V274.508C1014.4 274.32 1015.35 274.18 1016.36 274.086C1017.38 273.977 1018.41 273.922 1019.46 273.922ZM1019.46 276.898C1018.46 276.898 1017.57 276.977 1016.78 277.133V280.93H1019.71C1020.51 280.93 1021.14 280.734 1021.59 280.344C1022.06 279.953 1022.29 279.453 1022.29 278.844C1022.29 278.219 1022.01 277.742 1021.45 277.414C1020.9 277.07 1020.24 276.898 1019.46 276.898ZM1016.78 287.07C1017.22 287.18 1017.72 287.258 1018.28 287.305C1018.86 287.336 1019.32 287.352 1019.67 287.352C1020.57 287.352 1021.32 287.172 1021.89 286.812C1022.49 286.453 1022.78 285.945 1022.78 285.289C1022.78 284.633 1022.48 284.148 1021.87 283.836C1021.26 283.508 1020.53 283.344 1019.67 283.344H1016.78V287.07Z" fill="black"/>
<path d="M1155.18 284.023V286.367H1152.09L1150.99 290H1148.69L1149.77 286.367H1146.42L1145.29 290H1142.99L1144.1 286.367H1141.59V284.023H1144.8L1145.78 280.789H1143.23V278.211H1146.56L1147.75 274.297H1150.12L1148.92 278.211H1152.25L1153.45 274.297H1155.81L1154.6 278.211H1156.82V280.789H1153.8L1152.81 284.023H1155.18ZM1147.12 284.023H1150.49L1151.48 280.789H1148.13L1147.12 284.023ZM1171.72 280.672V283.32H1164.78V287.117H1172.63V290H1161.52V274.297H1172.63V277.109H1164.78V280.672H1171.72ZM1186.09 274.297V277.203H1180.4V280.508C1180.66 280.398 1180.98 280.312 1181.36 280.25C1181.73 280.172 1182.13 280.133 1182.56 280.133C1183.34 280.133 1184.06 280.328 1184.73 280.719C1185.42 281.094 1185.98 281.625 1186.4 282.312C1186.82 282.984 1187.03 283.781 1187.03 284.703C1187.03 285.922 1186.76 286.953 1186.21 287.797C1185.66 288.625 1184.94 289.258 1184.03 289.695C1183.13 290.133 1182.12 290.352 1181.01 290.352C1179.96 290.352 1179.07 290.188 1178.34 289.859C1177.6 289.516 1177.03 289.18 1176.63 288.852V285.945C1177.19 286.289 1177.78 286.633 1178.41 286.977C1179.03 287.305 1179.75 287.469 1180.56 287.469C1181.5 287.469 1182.27 287.273 1182.88 286.883C1183.49 286.477 1183.8 285.875 1183.8 285.078C1183.8 284.359 1183.48 283.781 1182.86 283.344C1182.25 282.906 1181.48 282.688 1180.56 282.688C1179.97 282.688 1179.42 282.75 1178.92 282.875C1178.44 283 1177.98 283.133 1177.54 283.273V274.297H1186.09ZM1200.05 274.297V277.203H1194.36V280.508C1194.62 280.398 1194.94 280.312 1195.32 280.25C1195.69 280.172 1196.09 280.133 1196.51 280.133C1197.29 280.133 1198.02 280.328 1198.69 280.719C1199.38 281.094 1199.93 281.625 1200.36 282.312C1200.78 282.984 1200.99 283.781 1200.99 284.703C1200.99 285.922 1200.71 286.953 1200.17 287.797C1199.62 288.625 1198.89 289.258 1197.99 289.695C1197.08 290.133 1196.07 290.352 1194.96 290.352C1193.92 290.352 1193.03 290.188 1192.29 289.859C1191.56 289.516 1190.99 289.18 1190.58 288.852V285.945C1191.14 286.289 1191.74 286.633 1192.36 286.977C1192.99 287.305 1193.71 287.469 1194.52 287.469C1195.46 287.469 1196.23 287.273 1196.84 286.883C1197.45 286.477 1197.75 285.875 1197.75 285.078C1197.75 284.359 1197.44 283.781 1196.82 283.344C1196.21 282.906 1195.44 282.688 1194.52 282.688C1193.93 282.688 1193.38 282.75 1192.88 282.875C1192.39 283 1191.93 283.133 1191.5 283.273V274.297H1200.05ZM1214.01 274.297V277.203H1208.31V280.508C1208.58 280.398 1208.9 280.312 1209.27 280.25C1209.65 280.172 1210.05 280.133 1210.47 280.133C1211.25 280.133 1211.98 280.328 1212.65 280.719C1213.34 281.094 1213.89 281.625 1214.31 282.312C1214.73 282.984 1214.94 283.781 1214.94 284.703C1214.94 285.922 1214.67 286.953 1214.12 287.797C1213.58 288.625 1212.85 289.258 1211.94 289.695C1211.04 290.133 1210.03 290.352 1208.92 290.352C1207.87 290.352 1206.98 290.188 1206.25 289.859C1205.52 289.516 1204.94 289.18 1204.54 288.852V285.945C1205.1 286.289 1205.69 286.633 1206.32 286.977C1206.94 287.305 1207.66 287.469 1208.48 287.469C1209.41 287.469 1210.19 287.273 1210.8 286.883C1211.41 286.477 1211.71 285.875 1211.71 285.078C1211.71 284.359 1211.4 283.781 1210.77 283.344C1210.16 282.906 1209.4 282.688 1208.48 282.688C1207.88 282.688 1207.34 282.75 1206.84 282.875C1206.35 283 1205.89 283.133 1205.45 283.273V274.297H1214.01ZM1222.81 273.945C1223.92 273.945 1224.89 274.141 1225.74 274.531C1226.6 274.922 1227.27 275.461 1227.75 276.148C1228.25 276.82 1228.5 277.594 1228.5 278.469C1228.5 279.172 1228.35 279.773 1228.03 280.273C1227.72 280.758 1227.33 281.148 1226.86 281.445C1226.39 281.742 1225.92 281.938 1225.43 282.031C1225.92 282.141 1226.39 282.352 1226.86 282.664C1227.33 282.961 1227.72 283.359 1228.03 283.859C1228.35 284.344 1228.5 284.938 1228.5 285.641C1228.5 286.562 1228.25 287.375 1227.73 288.078C1227.23 288.781 1226.55 289.336 1225.69 289.742C1224.83 290.148 1223.86 290.352 1222.78 290.352C1221.94 290.352 1221.15 290.227 1220.42 289.977C1219.7 289.711 1219.13 289.398 1218.71 289.039V285.969C1219.24 286.328 1219.79 286.672 1220.37 287C1220.95 287.312 1221.64 287.469 1222.43 287.469C1223.23 287.469 1223.9 287.281 1224.45 286.906C1225 286.531 1225.27 285.969 1225.27 285.219C1225.27 284.781 1225.13 284.422 1224.85 284.141C1224.57 283.844 1224.2 283.625 1223.75 283.484C1223.31 283.328 1222.84 283.25 1222.34 283.25H1221.05V280.719H1222.34C1223.15 280.719 1223.84 280.602 1224.4 280.367C1224.98 280.133 1225.27 279.68 1225.27 279.008C1225.27 278.32 1224.97 277.789 1224.38 277.414C1223.8 277.023 1223.12 276.828 1222.34 276.828C1221.67 276.828 1221.07 276.969 1220.56 277.25C1220.04 277.516 1219.57 277.867 1219.13 278.305V275.258C1219.53 274.883 1220.05 274.57 1220.67 274.32C1221.3 274.07 1222.01 273.945 1222.81 273.945ZM1233.58 290C1234.2 289.391 1234.9 288.734 1235.66 288.031C1236.43 287.312 1237.14 286.578 1237.8 285.828C1238.47 285.062 1238.98 284.312 1239.32 283.578C1238.96 283.938 1238.56 284.227 1238.12 284.445C1237.69 284.664 1237.21 284.773 1236.69 284.773C1235.74 284.773 1234.89 284.555 1234.14 284.117C1233.39 283.664 1232.8 283.062 1232.36 282.312C1231.92 281.547 1231.7 280.688 1231.7 279.734C1231.7 278.688 1231.94 277.727 1232.43 276.852C1232.93 275.961 1233.61 275.258 1234.47 274.742C1235.33 274.211 1236.31 273.945 1237.42 273.945C1238.47 273.945 1239.44 274.195 1240.33 274.695C1241.22 275.18 1241.94 275.875 1242.48 276.781C1243.03 277.672 1243.3 278.742 1243.3 279.992C1243.3 281.039 1243.1 282.062 1242.69 283.062C1242.29 284.062 1241.78 285.008 1241.17 285.898C1240.56 286.789 1239.94 287.586 1239.3 288.289C1238.67 288.992 1238.13 289.562 1237.68 290H1233.58ZM1237.47 281.961C1238.17 281.961 1238.77 281.727 1239.27 281.258C1239.79 280.773 1240.05 280.18 1240.05 279.477C1240.05 278.711 1239.79 278.078 1239.27 277.578C1238.77 277.078 1238.17 276.828 1237.47 276.828C1236.78 276.828 1236.19 277.078 1235.69 277.578C1235.19 278.078 1234.94 278.711 1234.94 279.477C1234.94 280.18 1235.19 280.773 1235.69 281.258C1236.19 281.727 1236.78 281.961 1237.47 281.961Z" fill="black"/>
<path d="M303.882 462V433.6H292.682V427H323.182V433.6H311.982V462H303.882ZM328.541 462V427H336.641V462H328.541ZM353.197 462V433.6H341.997V427H372.497V433.6H361.297V462H353.197ZM377.855 462V427H385.955V455.4H403.505V462H377.855ZM416.481 441.1H433.331V447.4H416.481V441.1ZM417.081 455.5H436.131V462H409.031V427H435.481V433.5H417.081V455.5ZM472.346 451.05V444.8H486.496V451.05H472.346ZM509.343 462V427H516.043L530.943 451.7H527.393L542.043 427H548.693L548.793 462H541.193L541.143 438.65H542.543L530.843 458.3H527.193L515.243 438.65H516.943V462H509.343ZM575.097 462.6C572.331 462.6 569.764 462.15 567.397 461.25C565.064 460.35 563.031 459.083 561.297 457.45C559.597 455.817 558.264 453.9 557.297 451.7C556.364 449.5 555.897 447.1 555.897 444.5C555.897 441.9 556.364 439.5 557.297 437.3C558.264 435.1 559.614 433.183 561.347 431.55C563.081 429.917 565.114 428.65 567.447 427.75C569.781 426.85 572.314 426.4 575.047 426.4C577.814 426.4 580.347 426.85 582.647 427.75C584.981 428.65 586.997 429.917 588.697 431.55C590.431 433.183 591.781 435.1 592.747 437.3C593.714 439.467 594.197 441.867 594.197 444.5C594.197 447.1 593.714 449.517 592.747 451.75C591.781 453.95 590.431 455.867 588.697 457.5C586.997 459.1 584.981 460.35 582.647 461.25C580.347 462.15 577.831 462.6 575.097 462.6ZM575.047 455.7C576.614 455.7 578.047 455.433 579.347 454.9C580.681 454.367 581.847 453.6 582.847 452.6C583.847 451.6 584.614 450.417 585.147 449.05C585.714 447.683 585.997 446.167 585.997 444.5C585.997 442.833 585.714 441.317 585.147 439.95C584.614 438.583 583.847 437.4 582.847 436.4C581.881 435.4 580.731 434.633 579.397 434.1C578.064 433.567 576.614 433.3 575.047 433.3C573.481 433.3 572.031 433.567 570.697 434.1C569.397 434.633 568.247 435.4 567.247 436.4C566.247 437.4 565.464 438.583 564.897 439.95C564.364 441.317 564.097 442.833 564.097 444.5C564.097 446.133 564.364 447.65 564.897 449.05C565.464 450.417 566.231 451.6 567.197 452.6C568.197 453.6 569.364 454.367 570.697 454.9C572.031 455.433 573.481 455.7 575.047 455.7ZM601.285 462V427H607.985L628.635 452.2H625.385V427H633.385V462H626.735L606.035 436.8H609.285V462H601.285ZM649.916 462V433.6H638.716V427H669.216V433.6H658.016V462H649.916ZM685.83 462.6C683.03 462.6 680.346 462.233 677.78 461.5C675.213 460.733 673.146 459.75 671.58 458.55L674.33 452.45C675.83 453.517 677.596 454.4 679.63 455.1C681.696 455.767 683.78 456.1 685.88 456.1C687.48 456.1 688.763 455.95 689.73 455.65C690.73 455.317 691.463 454.867 691.93 454.3C692.396 453.733 692.63 453.083 692.63 452.35C692.63 451.417 692.263 450.683 691.53 450.15C690.796 449.583 689.83 449.133 688.63 448.8C687.43 448.433 686.096 448.1 684.63 447.8C683.196 447.467 681.746 447.067 680.28 446.6C678.846 446.133 677.53 445.533 676.33 444.8C675.13 444.067 674.146 443.1 673.38 441.9C672.646 440.7 672.28 439.167 672.28 437.3C672.28 435.3 672.813 433.483 673.88 431.85C674.98 430.183 676.613 428.867 678.78 427.9C680.98 426.9 683.73 426.4 687.03 426.4C689.23 426.4 691.396 426.667 693.53 427.2C695.663 427.7 697.546 428.467 699.18 429.5L696.68 435.65C695.046 434.717 693.413 434.033 691.78 433.6C690.146 433.133 688.546 432.9 686.98 432.9C685.413 432.9 684.13 433.083 683.13 433.45C682.13 433.817 681.413 434.3 680.98 434.9C680.546 435.467 680.33 436.133 680.33 436.9C680.33 437.8 680.696 438.533 681.43 439.1C682.163 439.633 683.13 440.067 684.33 440.4C685.53 440.733 686.846 441.067 688.28 441.4C689.746 441.733 691.196 442.117 692.63 442.55C694.096 442.983 695.43 443.567 696.63 444.3C697.83 445.033 698.796 446 699.53 447.2C700.296 448.4 700.68 449.917 700.68 451.75C700.68 453.717 700.13 455.517 699.03 457.15C697.93 458.783 696.28 460.1 694.08 461.1C691.913 462.1 689.163 462.6 685.83 462.6ZM714.664 441.1H731.514V447.4H714.664V441.1ZM715.264 455.5H734.314V462H707.214V427H733.664V433.5H715.264V455.5ZM741.759 462V427H756.909C760.043 427 762.743 427.517 765.009 428.55C767.276 429.55 769.026 431 770.259 432.9C771.493 434.8 772.109 437.067 772.109 439.7C772.109 442.3 771.493 444.55 770.259 446.45C769.026 448.317 767.276 449.75 765.009 450.75C762.743 451.75 760.043 452.25 756.909 452.25H746.259L749.859 448.7V462H741.759ZM764.009 462L755.259 449.3H763.909L772.759 462H764.009ZM749.859 449.6L746.259 445.8H756.459C758.959 445.8 760.826 445.267 762.059 444.2C763.293 443.1 763.909 441.6 763.909 439.7C763.909 437.767 763.293 436.267 762.059 435.2C760.826 434.133 758.959 433.6 756.459 433.6H746.259L749.859 429.75V449.6ZM779.527 462V427H794.677C797.81 427 800.51 427.517 802.777 428.55C805.044 429.55 806.794 431 808.027 432.9C809.26 434.8 809.877 437.067 809.877 439.7C809.877 442.3 809.26 444.55 808.027 446.45C806.794 448.317 805.044 449.75 802.777 450.75C800.51 451.75 797.81 452.25 794.677 452.25H784.027L787.627 448.7V462H779.527ZM801.777 462L793.027 449.3H801.677L810.527 462H801.777ZM787.627 449.6L784.027 445.8H794.227C796.727 445.8 798.594 445.267 799.827 444.2C801.06 443.1 801.677 441.6 801.677 439.7C801.677 437.767 801.06 436.267 799.827 435.2C798.594 434.133 796.727 433.6 794.227 433.6H784.027L787.627 429.75V449.6ZM812.695 462L828.295 427H836.295L851.945 462H843.445L830.645 431.1H833.845L820.995 462H812.695ZM820.495 454.5L822.645 448.35H840.645L842.845 454.5H820.495ZM862.068 462V433.6H850.868V427H881.368V433.6H870.168V462H862.068ZM911.586 462.6C909.153 462.6 906.736 462.283 904.336 461.65C901.97 460.983 899.936 460.05 898.236 458.85L901.436 452.65C902.77 453.617 904.303 454.383 906.036 454.95C907.803 455.517 909.586 455.8 911.386 455.8C913.42 455.8 915.02 455.4 916.186 454.6C917.353 453.8 917.936 452.683 917.936 451.25C917.936 450.35 917.703 449.55 917.236 448.85C916.77 448.15 915.936 447.617 914.736 447.25C913.57 446.883 911.92 446.7 909.786 446.7H900.836L902.636 427H923.986V433.5H905.536L909.736 429.8L908.486 443.85L904.286 440.15H911.686C915.153 440.15 917.936 440.633 920.036 441.6C922.17 442.533 923.72 443.817 924.686 445.45C925.653 447.083 926.136 448.933 926.136 451C926.136 453.067 925.62 454.983 924.586 456.75C923.553 458.483 921.953 459.9 919.786 461C917.653 462.067 914.92 462.6 911.586 462.6ZM945.423 462.6C942.556 462.6 939.989 461.9 937.723 460.5C935.456 459.067 933.673 457 932.373 454.3C931.073 451.6 930.423 448.333 930.423 444.5C930.423 440.667 931.073 437.4 932.373 434.7C933.673 432 935.456 429.95 937.723 428.55C939.989 427.117 942.556 426.4 945.423 426.4C948.323 426.4 950.889 427.117 953.123 428.55C955.389 429.95 957.173 432 958.473 434.7C959.773 437.4 960.423 440.667 960.423 444.5C960.423 448.333 959.773 451.6 958.473 454.3C957.173 457 955.389 459.067 953.123 460.5C950.889 461.9 948.323 462.6 945.423 462.6ZM945.423 455.75C946.789 455.75 947.973 455.367 948.973 454.6C950.006 453.833 950.806 452.617 951.373 450.95C951.973 449.283 952.273 447.133 952.273 444.5C952.273 441.867 951.973 439.717 951.373 438.05C950.806 436.383 950.006 435.167 948.973 434.4C947.973 433.633 946.789 433.25 945.423 433.25C944.089 433.25 942.906 433.633 941.873 434.4C940.873 435.167 940.073 436.383 939.473 438.05C938.906 439.717 938.623 441.867 938.623 444.5C938.623 447.133 938.906 449.283 939.473 450.95C940.073 452.617 940.873 453.833 941.873 454.6C942.906 455.367 944.089 455.75 945.423 455.75ZM967.558 462V427H982.708C985.842 427 988.542 427.517 990.808 428.55C993.075 429.55 994.825 431 996.058 432.9C997.292 434.8 997.908 437.067 997.908 439.7C997.908 442.3 997.292 444.55 996.058 446.45C994.825 448.35 993.075 449.817 990.808 450.85C988.542 451.85 985.842 452.35 982.708 452.35H972.058L975.658 448.7V462H967.558ZM975.658 449.6L972.058 445.75H982.258C984.758 445.75 986.625 445.217 987.858 444.15C989.092 443.083 989.708 441.6 989.708 439.7C989.708 437.767 989.092 436.267 987.858 435.2C986.625 434.133 984.758 433.6 982.258 433.6H972.058L975.658 429.75V449.6ZM999.91 462L1014.96 441.25V447.15L1000.56 427H1009.76L1019.71 441.05L1015.86 441.1L1025.66 427H1034.46L1020.16 446.8V441L1035.31 462H1025.96L1015.66 447.15H1019.36L1009.21 462H999.91ZM1055.76 462V427H1072.86C1077.26 427 1080.56 427.833 1082.76 429.5C1085 431.167 1086.11 433.367 1086.11 436.1C1086.11 437.933 1085.66 439.533 1084.76 440.9C1083.86 442.233 1082.63 443.267 1081.06 444C1079.5 444.733 1077.7 445.1 1075.66 445.1L1076.61 443.05C1078.81 443.05 1080.76 443.417 1082.46 444.15C1084.16 444.85 1085.48 445.9 1086.41 447.3C1087.38 448.7 1087.86 450.417 1087.86 452.45C1087.86 455.45 1086.68 457.8 1084.31 459.5C1081.95 461.167 1078.46 462 1073.86 462H1055.76ZM1063.81 455.9H1073.26C1075.36 455.9 1076.95 455.567 1078.01 454.9C1079.11 454.2 1079.66 453.1 1079.66 451.6C1079.66 450.133 1079.11 449.05 1078.01 448.35C1076.95 447.617 1075.36 447.25 1073.26 447.25H1063.21V441.35H1071.86C1073.83 441.35 1075.33 441.017 1076.36 440.35C1077.43 439.65 1077.96 438.6 1077.96 437.2C1077.96 435.833 1077.43 434.817 1076.36 434.15C1075.33 433.45 1073.83 433.1 1071.86 433.1H1063.81V455.9ZM1112 462.6C1109.23 462.6 1106.66 462.15 1104.3 461.25C1101.96 460.35 1099.93 459.083 1098.2 457.45C1096.5 455.817 1095.16 453.9 1094.2 451.7C1093.26 449.5 1092.8 447.1 1092.8 444.5C1092.8 441.9 1093.26 439.5 1094.2 437.3C1095.16 435.1 1096.51 433.183 1098.25 431.55C1099.98 429.917 1102.01 428.65 1104.35 427.75C1106.68 426.85 1109.21 426.4 1111.95 426.4C1114.71 426.4 1117.25 426.85 1119.55 427.75C1121.88 428.65 1123.9 429.917 1125.6 431.55C1127.33 433.183 1128.68 435.1 1129.65 437.3C1130.61 439.467 1131.1 441.867 1131.1 444.5C1131.1 447.1 1130.61 449.517 1129.65 451.75C1128.68 453.95 1127.33 455.867 1125.6 457.5C1123.9 459.1 1121.88 460.35 1119.55 461.25C1117.25 462.15 1114.73 462.6 1112 462.6ZM1111.95 455.7C1113.51 455.7 1114.95 455.433 1116.25 454.9C1117.58 454.367 1118.75 453.6 1119.75 452.6C1120.75 451.6 1121.51 450.417 1122.05 449.05C1122.61 447.683 1122.9 446.167 1122.9 444.5C1122.9 442.833 1122.61 441.317 1122.05 439.95C1121.51 438.583 1120.75 437.4 1119.75 436.4C1118.78 435.4 1117.63 434.633 1116.3 434.1C1114.96 433.567 1113.51 433.3 1111.95 433.3C1110.38 433.3 1108.93 433.567 1107.6 434.1C1106.3 434.633 1105.15 435.4 1104.15 436.4C1103.15 437.4 1102.36 438.583 1101.8 439.95C1101.26 441.317 1101 442.833 1101 444.5C1101 446.133 1101.26 447.65 1101.8 449.05C1102.36 450.417 1103.13 451.6 1104.1 452.6C1105.1 453.6 1106.26 454.367 1107.6 454.9C1108.93 455.433 1110.38 455.7 1111.95 455.7ZM1138.18 462V427H1146.28V455.4H1163.83V462H1138.18ZM1169.36 462V427H1185.26C1189.06 427 1192.41 427.733 1195.31 429.2C1198.21 430.633 1200.48 432.65 1202.11 435.25C1203.74 437.85 1204.56 440.933 1204.56 444.5C1204.56 448.033 1203.74 451.117 1202.11 453.75C1200.48 456.35 1198.21 458.383 1195.31 459.85C1192.41 461.283 1189.06 462 1185.26 462H1169.36ZM1177.46 455.35H1184.86C1187.19 455.35 1189.21 454.917 1190.91 454.05C1192.64 453.15 1193.98 451.883 1194.91 450.25C1195.88 448.617 1196.36 446.7 1196.36 444.5C1196.36 442.267 1195.88 440.35 1194.91 438.75C1193.98 437.117 1192.64 435.867 1190.91 435C1189.21 434.1 1187.19 433.65 1184.86 433.65H1177.46V455.35Z" fill="black"/>
<path d="M301.734 620V591.6H290.534V585H321.034V591.6H309.834V620H301.734ZM333.842 599.1H350.692V605.4H333.842V599.1ZM334.442 613.5H353.492V620H326.392V585H352.842V591.5H334.442V613.5ZM356.595 620L371.645 599.25V605.15L357.245 585H366.445L376.395 599.05L372.545 599.1L382.345 585H391.145L376.845 604.8V599L391.995 620H382.645L372.345 605.15H376.045L365.895 620H356.595ZM403.025 620V591.6H391.825V585H422.325V591.6H411.125V620H403.025ZM456.454 609.05V602.8H470.604V609.05H456.454ZM493.451 620V585H500.151L515.051 609.7H511.501L526.151 585H532.801L532.901 620H525.301L525.251 596.65H526.651L514.951 616.3H511.301L499.351 596.65H501.051V620H493.451ZM559.205 620.6C556.438 620.6 553.871 620.15 551.505 619.25C549.171 618.35 547.138 617.083 545.405 615.45C543.705 613.817 542.371 611.9 541.405 609.7C540.471 607.5 540.005 605.1 540.005 602.5C540.005 599.9 540.471 597.5 541.405 595.3C542.371 593.1 543.721 591.183 545.455 589.55C547.188 587.917 549.221 586.65 551.555 585.75C553.888 584.85 556.421 584.4 559.155 584.4C561.921 584.4 564.455 584.85 566.755 585.75C569.088 586.65 571.105 587.917 572.805 589.55C574.538 591.183 575.888 593.1 576.855 595.3C577.821 597.467 578.305 599.867 578.305 602.5C578.305 605.1 577.821 607.517 576.855 609.75C575.888 611.95 574.538 613.867 572.805 615.5C571.105 617.1 569.088 618.35 566.755 619.25C564.455 620.15 561.938 620.6 559.205 620.6ZM559.155 613.7C560.721 613.7 562.155 613.433 563.455 612.9C564.788 612.367 565.955 611.6 566.955 610.6C567.955 609.6 568.721 608.417 569.255 607.05C569.821 605.683 570.105 604.167 570.105 602.5C570.105 600.833 569.821 599.317 569.255 597.95C568.721 596.583 567.955 595.4 566.955 594.4C565.988 593.4 564.838 592.633 563.505 592.1C562.171 591.567 560.721 591.3 559.155 591.3C557.588 591.3 556.138 591.567 554.805 592.1C553.505 592.633 552.355 593.4 551.355 594.4C550.355 595.4 549.571 596.583 549.005 597.95C548.471 599.317 548.205 600.833 548.205 602.5C548.205 604.133 548.471 605.65 549.005 607.05C549.571 608.417 550.338 609.6 551.305 610.6C552.305 611.6 553.471 612.367 554.805 612.9C556.138 613.433 557.588 613.7 559.155 613.7ZM585.392 620V585H592.092L612.742 610.2H609.492V585H617.492V620H610.842L590.142 594.8H593.392V620H585.392ZM638.273 620.6C635.473 620.6 632.79 620.233 630.223 619.5C627.656 618.733 625.59 617.75 624.023 616.55L626.773 610.45C628.273 611.517 630.04 612.4 632.073 613.1C634.14 613.767 636.223 614.1 638.323 614.1C639.923 614.1 641.206 613.95 642.173 613.65C643.173 613.317 643.906 612.867 644.373 612.3C644.84 611.733 645.073 611.083 645.073 610.35C645.073 609.417 644.706 608.683 643.973 608.15C643.24 607.583 642.273 607.133 641.073 606.8C639.873 606.433 638.54 606.1 637.073 605.8C635.64 605.467 634.19 605.067 632.723 604.6C631.29 604.133 629.973 603.533 628.773 602.8C627.573 602.067 626.59 601.1 625.823 599.9C625.09 598.7 624.723 597.167 624.723 595.3C624.723 593.3 625.256 591.483 626.323 589.85C627.423 588.183 629.056 586.867 631.223 585.9C633.423 584.9 636.173 584.4 639.473 584.4C641.673 584.4 643.84 584.667 645.973 585.2C648.106 585.7 649.99 586.467 651.623 587.5L649.123 593.65C647.49 592.717 645.856 592.033 644.223 591.6C642.59 591.133 640.99 590.9 639.423 590.9C637.856 590.9 636.573 591.083 635.573 591.45C634.573 591.817 633.856 592.3 633.423 592.9C632.99 593.467 632.773 594.133 632.773 594.9C632.773 595.8 633.14 596.533 633.873 597.1C634.606 597.633 635.573 598.067 636.773 598.4C637.973 598.733 639.29 599.067 640.723 599.4C642.19 599.733 643.64 600.117 645.073 600.55C646.54 600.983 647.873 601.567 649.073 602.3C650.273 603.033 651.24 604 651.973 605.2C652.74 606.4 653.123 607.917 653.123 609.75C653.123 611.717 652.573 613.517 651.473 615.15C650.373 616.783 648.723 618.1 646.523 619.1C644.356 620.1 641.606 620.6 638.273 620.6ZM666.42 620V591.6H655.22V585H685.72V591.6H674.52V620H666.42ZM702.334 620.6C699.534 620.6 696.85 620.233 694.284 619.5C691.717 618.733 689.65 617.75 688.084 616.55L690.834 610.45C692.334 611.517 694.1 612.4 696.134 613.1C698.2 613.767 700.284 614.1 702.384 614.1C703.984 614.1 705.267 613.95 706.234 613.65C707.234 613.317 707.967 612.867 708.434 612.3C708.9 611.733 709.134 611.083 709.134 610.35C709.134 609.417 708.767 608.683 708.034 608.15C707.3 607.583 706.334 607.133 705.134 606.8C703.934 606.433 702.6 606.1 701.134 605.8C699.7 605.467 698.25 605.067 696.784 604.6C695.35 604.133 694.034 603.533 692.834 602.8C691.634 602.067 690.65 601.1 689.884 599.9C689.15 598.7 688.784 597.167 688.784 595.3C688.784 593.3 689.317 591.483 690.384 589.85C691.484 588.183 693.117 586.867 695.284 585.9C697.484 584.9 700.234 584.4 703.534 584.4C705.734 584.4 707.9 584.667 710.034 585.2C712.167 585.7 714.05 586.467 715.684 587.5L713.184 593.65C711.55 592.717 709.917 592.033 708.284 591.6C706.65 591.133 705.05 590.9 703.484 590.9C701.917 590.9 700.634 591.083 699.634 591.45C698.634 591.817 697.917 592.3 697.484 592.9C697.05 593.467 696.834 594.133 696.834 594.9C696.834 595.8 697.2 596.533 697.934 597.1C698.667 597.633 699.634 598.067 700.834 598.4C702.034 598.733 703.35 599.067 704.784 599.4C706.25 599.733 707.7 600.117 709.134 600.55C710.6 600.983 711.934 601.567 713.134 602.3C714.334 603.033 715.3 604 716.034 605.2C716.8 606.4 717.184 607.917 717.184 609.75C717.184 611.717 716.634 613.517 715.534 615.15C714.434 616.783 712.784 618.1 710.584 619.1C708.417 620.1 705.667 620.6 702.334 620.6ZM731.168 599.1H748.018V605.4H731.168V599.1ZM731.768 613.5H750.818V620H723.718V585H750.168V591.5H731.768V613.5ZM758.263 620V585H773.413C776.547 585 779.247 585.517 781.513 586.55C783.78 587.55 785.53 589 786.763 590.9C787.997 592.8 788.613 595.067 788.613 597.7C788.613 600.3 787.997 602.55 786.763 604.45C785.53 606.317 783.78 607.75 781.513 608.75C779.247 609.75 776.547 610.25 773.413 610.25H762.763L766.363 606.7V620H758.263ZM780.513 620L771.763 607.3H780.413L789.263 620H780.513ZM766.363 607.6L762.763 603.8H772.963C775.463 603.8 777.33 603.267 778.563 602.2C779.797 601.1 780.413 599.6 780.413 597.7C780.413 595.767 779.797 594.267 778.563 593.2C777.33 592.133 775.463 591.6 772.963 591.6H762.763L766.363 587.75V607.6ZM796.031 620V585H811.181C814.314 585 817.014 585.517 819.281 586.55C821.548 587.55 823.298 589 824.531 590.9C825.764 592.8 826.381 595.067 826.381 597.7C826.381 600.3 825.764 602.55 824.531 604.45C823.298 606.317 821.548 607.75 819.281 608.75C817.014 609.75 814.314 610.25 811.181 610.25H800.531L804.131 606.7V620H796.031ZM818.281 620L809.531 607.3H818.181L827.031 620H818.281ZM804.131 607.6L800.531 603.8H810.731C813.231 603.8 815.098 603.267 816.331 602.2C817.564 601.1 818.181 599.6 818.181 597.7C818.181 595.767 817.564 594.267 816.331 593.2C815.098 592.133 813.231 591.6 810.731 591.6H800.531L804.131 587.75V607.6ZM829.198 620L844.798 585H852.798L868.448 620H859.948L847.148 589.1H850.348L837.498 620H829.198ZM836.998 612.5L839.148 606.35H857.148L859.348 612.5H836.998ZM878.572 620V591.6H867.372V585H897.872V591.6H886.672V620H878.572ZM921.59 620V588L925.09 591.5H914.59V585H929.69V620H921.59ZM948.67 620.6C946.237 620.6 943.82 620.283 941.42 619.65C939.054 618.983 937.02 618.05 935.32 616.85L938.52 610.65C939.854 611.617 941.387 612.383 943.12 612.95C944.887 613.517 946.67 613.8 948.47 613.8C950.504 613.8 952.104 613.4 953.27 612.6C954.437 611.8 955.02 610.683 955.02 609.25C955.02 608.35 954.787 607.55 954.32 606.85C953.854 606.15 953.02 605.617 951.82 605.25C950.654 604.883 949.004 604.7 946.87 604.7H937.92L939.72 585H961.07V591.5H942.62L946.82 587.8L945.57 601.85L941.37 598.15H948.77C952.237 598.15 955.02 598.633 957.12 599.6C959.254 600.533 960.804 601.817 961.77 603.45C962.737 605.083 963.22 606.933 963.22 609C963.22 611.067 962.704 612.983 961.67 614.75C960.637 616.483 959.037 617.9 956.87 619C954.737 620.067 952.004 620.6 948.67 620.6ZM969.707 620V585H984.857C987.99 585 990.69 585.517 992.957 586.55C995.223 587.55 996.973 589 998.207 590.9C999.44 592.8 1000.06 595.067 1000.06 597.7C1000.06 600.3 999.44 602.55 998.207 604.45C996.973 606.35 995.223 607.817 992.957 608.85C990.69 609.85 987.99 610.35 984.857 610.35H974.207L977.807 606.7V620H969.707ZM977.807 607.6L974.207 603.75H984.407C986.907 603.75 988.773 603.217 990.007 602.15C991.24 601.083 991.857 599.6 991.857 597.7C991.857 595.767 991.24 594.267 990.007 593.2C988.773 592.133 986.907 591.6 984.407 591.6H974.207L977.807 587.75V607.6ZM1002.06 620L1017.11 599.25V605.15L1002.71 585H1011.91L1021.86 599.05L1018.01 599.1L1027.81 585H1036.61L1022.31 604.8V599L1037.46 620H1028.11L1017.81 605.15H1021.51L1011.36 620H1002.06ZM1057.91 620V585H1075.01C1079.41 585 1082.71 585.833 1084.91 587.5C1087.15 589.167 1088.26 591.367 1088.26 594.1C1088.26 595.933 1087.81 597.533 1086.91 598.9C1086.01 600.233 1084.78 601.267 1083.21 602C1081.65 602.733 1079.85 603.1 1077.81 603.1L1078.76 601.05C1080.96 601.05 1082.91 601.417 1084.61 602.15C1086.31 602.85 1087.63 603.9 1088.56 605.3C1089.53 606.7 1090.01 608.417 1090.01 610.45C1090.01 613.45 1088.83 615.8 1086.46 617.5C1084.1 619.167 1080.61 620 1076.01 620H1057.91ZM1065.96 613.9H1075.41C1077.51 613.9 1079.1 613.567 1080.16 612.9C1081.26 612.2 1081.81 611.1 1081.81 609.6C1081.81 608.133 1081.26 607.05 1080.16 606.35C1079.1 605.617 1077.51 605.25 1075.41 605.25H1065.36V599.35H1074.01C1075.98 599.35 1077.48 599.017 1078.51 598.35C1079.58 597.65 1080.11 596.6 1080.11 595.2C1080.11 593.833 1079.58 592.817 1078.51 592.15C1077.48 591.45 1075.98 591.1 1074.01 591.1H1065.96V613.9ZM1114.14 620.6C1111.38 620.6 1108.81 620.15 1106.44 619.25C1104.11 618.35 1102.08 617.083 1100.34 615.45C1098.64 613.817 1097.31 611.9 1096.34 609.7C1095.41 607.5 1094.94 605.1 1094.94 602.5C1094.94 599.9 1095.41 597.5 1096.34 595.3C1097.31 593.1 1098.66 591.183 1100.39 589.55C1102.13 587.917 1104.16 586.65 1106.49 585.75C1108.83 584.85 1111.36 584.4 1114.09 584.4C1116.86 584.4 1119.39 584.85 1121.69 585.75C1124.03 586.65 1126.04 587.917 1127.74 589.55C1129.48 591.183 1130.83 593.1 1131.79 595.3C1132.76 597.467 1133.24 599.867 1133.24 602.5C1133.24 605.1 1132.76 607.517 1131.79 609.75C1130.83 611.95 1129.48 613.867 1127.74 615.5C1126.04 617.1 1124.03 618.35 1121.69 619.25C1119.39 620.15 1116.88 620.6 1114.14 620.6ZM1114.09 613.7C1115.66 613.7 1117.09 613.433 1118.39 612.9C1119.73 612.367 1120.89 611.6 1121.89 610.6C1122.89 609.6 1123.66 608.417 1124.19 607.05C1124.76 605.683 1125.04 604.167 1125.04 602.5C1125.04 600.833 1124.76 599.317 1124.19 597.95C1123.66 596.583 1122.89 595.4 1121.89 594.4C1120.93 593.4 1119.78 592.633 1118.44 592.1C1117.11 591.567 1115.66 591.3 1114.09 591.3C1112.53 591.3 1111.08 591.567 1109.74 592.1C1108.44 592.633 1107.29 593.4 1106.29 594.4C1105.29 595.4 1104.51 596.583 1103.94 597.95C1103.41 599.317 1103.14 600.833 1103.14 602.5C1103.14 604.133 1103.41 605.65 1103.94 607.05C1104.51 608.417 1105.28 609.6 1106.24 610.6C1107.24 611.6 1108.41 612.367 1109.74 612.9C1111.08 613.433 1112.53 613.7 1114.09 613.7ZM1140.33 620V585H1148.43V613.4H1165.98V620H1140.33ZM1171.51 620V585H1187.41C1191.21 585 1194.56 585.733 1197.46 587.2C1200.36 588.633 1202.62 590.65 1204.26 593.25C1205.89 595.85 1206.71 598.933 1206.71 602.5C1206.71 606.033 1205.89 609.117 1204.26 611.75C1202.62 614.35 1200.36 616.383 1197.46 617.85C1194.56 619.283 1191.21 620 1187.41 620H1171.51ZM1179.61 613.35H1187.01C1189.34 613.35 1191.36 612.917 1193.06 612.05C1194.79 611.15 1196.12 609.883 1197.06 608.25C1198.02 606.617 1198.51 604.7 1198.51 602.5C1198.51 600.267 1198.02 598.35 1197.06 596.75C1196.12 595.117 1194.79 593.867 1193.06 593C1191.36 592.1 1189.34 591.65 1187.01 591.65H1179.61V613.35Z" fill="black"/>
</svg>
