<svg xmlns="http://www.w3.org/2000/svg" viewBox="0 0 287.74 242.63"><defs><style>.cls-1{fill:#231f20;}.cls-2{fill:#fff;}</style></defs><g id="Layer_2" data-name="Layer 2"><g id="Layer_1-2" data-name="Layer 1"><g id="Layer_2-2" data-name="Layer 2"><g id="Layer_3" data-name="Layer 3"><path class="cls-1" d="M124.67,92.87c-3.6-2.2-19-11.8-31.4-24.7Z"/><circle class="cls-1" cx="131.47" cy="35.37" r="7"/><polygon class="cls-1" points="131.47 98.17 158.47 154.37 130.88 97.67 131.47 98.17"/><path class="cls-1" d="M251.77,147.67l-1.2,7.6.8-7.5Z"/><path class="cls-1" d="M125.37,93.27s1.6,1.4,4.5,3.7l.9.7-11.4-23.4s23.1,9.9,30-10c9-26,3-36,3-36s-19-50-62-17c-24.2,18.6-13.1,40.4,2.8,56.8l31.4,24.7A3,3,0,0,0,125.37,93.27Zm6.1-64.9a7,7,0,1,1-7,7A7,7,0,0,1,131.47,28.37Z"/><polygon class="cls-1" points="158.47 154.37 130.88 97.67 130.88 97.67 158.47 154.37"/><circle class="cls-2" cx="131.47" cy="35.37" r="7"/><path class="cls-1" d="M278.67,148.47a3.74,3.74,0,0,1-1.2,1.3c-2.3,1.5-9.6,6.1-12.8,6.5h-.1l-16.1,11.2,1.1-11.1v-.1l.8-7.5.4-.1c2-.3,10.3-1.6,10.7-4.9.3-3,2.8-8.2,3.7-10.1a2.41,2.41,0,0,1,1-1c5.7-2.7,12.7-16.2,15.2-21.1a2,2,0,0,1,2.5-.9c.1.1.3.2.4.3C287.47,113.77,292.17,122.77,278.67,148.47Z"/></g></g><rect class="cls-1" x="108.64" y="60.05" width="5.2" height="45.4" transform="translate(-24.44 111.26) rotate(-48.51)"/><path class="cls-1" d="M131.47,98.17l3.9,8.09L129,94.17l.54,2.51-4.94-3.81c-4.4-3.4-17.4-13.2-31.4-24.7l-8.8,18.2c-53-15-71,26-71,26s-16,9-13,44,34,20,34,20l18-6c12.4-4.1,46.2-13,52-12,6,1,17,8,12,8s11,1,11,1,14-2,11,2c-13.2,17.6-29,5-29,5s-42,10-67,37,68.8,37.1,90,28c7-3,26-85,26-85l-.14-.31.12-.06.12.27c52,27,90,15,90,15l2.2-14v-.1l.8-7.5.4-.1.7-4.4C222,166.17,152.27,114.67,131.47,98.17Z"/></g></g></svg>