<svg xmlns="http://www.w3.org/2000/svg" viewBox="0 0 287.65 242.52"><defs><style>.cls-1{fill:#231f20;}.cls-2{fill:#fff;}</style></defs><g id="Layer_2" data-name="Layer 2"><g id="Layer_1-2" data-name="Layer 1"><g id="Layer_2-2" data-name="Layer 2"><g id="Layer_3" data-name="Layer 3"><path class="cls-1" d="M124.58,92.79C121,90.62,105.58,81,93.17,68.12Z"/><circle class="cls-1" cx="131.37" cy="35.27" r="7"/><polygon class="cls-1" points="131.38 98.13 158.38 154.27 130.78 97.66 131.38 98.13"/><path class="cls-1" d="M251.7,147.64l-1.16,7.55.75-7.5Z"/><path class="cls-1" d="M125.34,93.25s1.61,1.36,4.48,3.66l.92.73-11.4-23.39s23.1,9.93,30-10c9-26,3-36,3-36s-19-50-62-17C66.18,29.83,77.28,51.64,93.14,68.1l31.41,24.67C125.06,93.09,125.34,93.25,125.34,93.25Zm6-65a7,7,0,1,1-7,7A7,7,0,0,1,131.37,28.27Z"/><path class="cls-1" d="M131.38,98.14l27,56.14c52,27,90,15,90,15l2.16-14v-.09l.75-7.5.41-.05.67-4.37C221.94,166.09,152.22,114.61,131.38,98.14Z"/><path class="cls-1" d="M129.82,96.91l-5.27-4.14c-4.43-3.37-17.38-13.21-31.41-24.67L84.37,86.27c-53-15-71,26-71,26s-16,9-13,44,34,20,34,20l18-6c12.37-4.12,46.25-13,52-12,6,1,17,8,12,8s11,1,11,1,14-2,11,2c-13.17,17.56-29,5-29,5s-42,10-67,37,68.84,37.07,90,28c7-3,26-85,26-85L130.74,97.64Z"/><polygon class="cls-1" points="158.38 154.27 130.78 97.66 130.78 97.66 158.38 154.27"/><circle class="cls-2" cx="131.37" cy="35.27" r="7"/><path class="cls-1" d="M278.61,148.44a3.32,3.32,0,0,1-1.16,1.28c-2.35,1.54-9.57,6.12-12.76,6.46h-.07l-16.21,11.19,1.12-11.11v-.09l.75-7.5.41,0c2-.26,10.33-1.58,10.67-4.88.3-3,2.76-8.19,3.72-10.15a2.3,2.3,0,0,1,1-1c5.66-2.67,12.72-16.18,15.17-21.15a1.86,1.86,0,0,1,2.49-.87,1.76,1.76,0,0,1,.4.27C287.39,113.72,292.08,122.68,278.61,148.44Z"/></g></g><rect class="cls-1" x="108.57" y="60.03" width="5.25" height="45.39" transform="translate(-24.43 111.22) rotate(-48.51)"/><polygon class="cls-1" points="160.11 153.13 155.34 155.31 131.17 104.9 128.91 94.08 160.11 153.13"/></g></g></svg>