<svg xmlns="http://www.w3.org/2000/svg" viewBox="0 0 249.65 250.53"><defs><style>.cls-1,.cls-2{fill:#c01409;stroke:#c01409;}.cls-1,.cls-2,.cls-3{stroke-miterlimit:10;}.cls-1{stroke-width:10px;}.cls-3{stroke:#000;stroke-width:3px;}.cls-4{font-size:150px;fill:#e5e5e5;font-family:MyriadPro-Regular, Myriad Pro;}.cls-5{font-size:30px;fill:#fff;font-family:DarkerGrotesque-Light, Darker Grotesque;font-weight:300;}.cls-6{letter-spacing:-0.04em;}.cls-7{letter-spacing:0em;}</style></defs><title>K-DIGITAL-RED</title><g id="Layer_2" data-name="Layer 2"><g id="Layer_2-2" data-name="Layer 2"><path class="cls-1" d="M119.2,125.27l-.82,120.26h.82c68.82,0,125.45-54.29,125.45-120.26S188,5,119.2,5h-.15Z"/><circle class="cls-2" cx="67.54" cy="39.73" r="3.6"/><circle class="cls-2" cx="57.94" cy="39.73" r="3.6"/><circle class="cls-2" cx="54.34" cy="48.73" r="3.6"/><circle class="cls-2" cx="32.94" cy="77.93" r="3.6"/><circle class="cls-2" cx="28.54" cy="89.45" r="3.6"/><circle class="cls-2" cx="21.34" cy="114.28" r="3.6"/><circle class="cls-2" cx="7.94" cy="120" r="3.6"/><circle class="cls-2" cx="24.94" cy="137.88" r="3.6"/><circle class="cls-2" cx="21.34" cy="149.67" r="3.6"/><circle class="cls-2" cx="11.54" cy="146.07" r="3.6"/><circle class="cls-2" cx="7.94" cy="158.47" r="3.6"/><circle class="cls-2" cx="15.69" cy="171.27" r="3.6"/><circle class="cls-2" cx="30.09" cy="164.07" r="3.6"/><circle class="cls-2" cx="43.74" cy="193.07" r="3.6"/><circle class="cls-2" cx="37.94" cy="178.47" r="3.6"/><circle class="cls-2" cx="55.74" cy="197.87" r="3.6"/><circle class="cls-2" cx="26.49" cy="173.47" r="3.6"/><circle class="cls-2" cx="19.29" cy="160.47" r="3.6"/><circle class="cls-2" cx="52.54" cy="209.87" r="3.6"/><circle class="cls-2" cx="60.29" cy="222.67" r="3.6"/><circle class="cls-2" cx="71.09" cy="224.87" r="3.6"/><circle class="cls-2" cx="63.89" cy="211.87" r="3.6"/><circle class="cls-2" cx="74.69" cy="215.47" r="3.6"/><circle class="cls-2" cx="84.34" cy="222.67" r="3.6"/><circle class="cls-2" cx="92.09" cy="235.47" r="3.6"/><circle class="cls-2" cx="102.89" cy="237.67" r="3.6"/><circle cx="112.08" cy="221.97" r="3.6"/><circle class="cls-2" cx="95.69" cy="224.67" r="3.6"/><circle class="cls-2" cx="19.29" cy="123.6" r="3.6"/><circle class="cls-2" cx="15.14" cy="135.3" r="3.6"/><circle class="cls-2" cx="11.54" cy="109.04" r="3.6"/><circle class="cls-2" cx="4.1" cy="131.7" r="3.6"/><circle class="cls-2" cx="14.37" cy="98.27" r="3.6"/><circle class="cls-2" cx="24.94" cy="101.87" r="3.6"/><circle class="cls-2" cx="17.97" cy="87.49" r="3.6"/><circle class="cls-2" cx="22.89" cy="77.93" r="3.6"/><circle class="cls-2" cx="24.94" cy="65.73" r="3.6"/><circle class="cls-2" cx="36.54" cy="67.73" r="3.6"/><circle class="cls-2" cx="43.74" cy="45.13" r="3.6"/><circle class="cls-2" cx="41.54" cy="55.93" r="3.6"/><circle class="cls-2" cx="62.41" cy="26.73" r="3.6"/><circle class="cls-2" cx="73.94" cy="30.33" r="3.6"/><line class="cls-2" x1="87.74" y1="23.13" x2="73.94" y2="30.33"/><line class="cls-2" x1="62.41" y1="26.73" x2="73.94" y2="30.33"/><line class="cls-2" x1="57.94" y1="39.73" x2="62.41" y2="26.73"/><line class="cls-2" x1="67.54" y1="39.73" x2="57.94" y2="39.73"/><line class="cls-2" x1="54.54" y1="48.73" x2="57.94" y2="39.73"/><line class="cls-2" x1="43.74" y1="45.13" x2="54.89" y2="48.73"/><line class="cls-2" x1="41.54" y1="55.93" x2="43.74" y2="45.13"/><line class="cls-2" x1="24.94" y1="65.73" x2="36.54" y2="67.73"/><line class="cls-2" x1="32.94" y1="77.93" x2="24.94" y2="65.73"/><line class="cls-2" x1="22.89" y1="77.93" x2="32.94" y2="77.93"/><line class="cls-2" x1="28.54" y1="89.45" x2="17.97" y2="87.49"/><line class="cls-2" x1="22.89" y1="77.93" x2="14.37" y2="98.27"/><line class="cls-2" x1="24.94" y1="101.87" x2="14.37" y2="98.27"/><line class="cls-2" x1="21.34" y1="114.28" x2="7.94" y2="120"/><line class="cls-2" x1="11.54" y1="109.04" x2="19.29" y2="123.6"/><line class="cls-2" x1="24.94" y1="101.87" x2="11.54" y2="109.04"/><line class="cls-2" x1="24.94" y1="137.88" x2="19.29" y2="123.6"/><line class="cls-2" x1="4.1" y1="131.7" x2="21.34" y2="114.28"/><line class="cls-2" x1="7.94" y1="118.87" x2="15.14" y2="135.3"/><line class="cls-2" x1="24.94" y1="137.88" x2="11.54" y2="146.07"/><line class="cls-2" x1="15.14" y1="135.3" x2="21.34" y2="150.87"/><line class="cls-2" x1="24.94" y1="137.88" x2="9.41" y2="158.47"/><line class="cls-2" x1="11.54" y1="146.07" x2="19.66" y2="162.07"/><line class="cls-2" x1="20.87" y1="149.67" x2="30.09" y2="164.07"/><line class="cls-2" x1="26.49" y1="173.47" x2="18.84" y2="160.47"/><line class="cls-2" x1="15.69" y1="171.27" x2="37.94" y2="178.47"/><line class="cls-2" x1="7.94" y1="158.47" x2="15.69" y2="171.27"/><line class="cls-2" x1="30.09" y1="164.07" x2="37.94" y2="178.47"/><line class="cls-2" x1="43.74" y1="193.07" x2="37.94" y2="178.47"/><line class="cls-2" x1="55.74" y1="197.87" x2="50.74" y2="211.87"/><line class="cls-2" x1="43.74" y1="193.07" x2="55.74" y2="197.87"/><line class="cls-2" x1="52.54" y1="209.87" x2="60.29" y2="222.67"/><line class="cls-2" x1="63.89" y1="211.87" x2="71.09" y2="224.87"/><line class="cls-2" x1="60.29" y1="222.67" x2="74.69" y2="215.47"/><line class="cls-2" x1="92.09" y1="235.47" x2="84.34" y2="222.67"/><line class="cls-2" x1="71.09" y1="224.87" x2="84.34" y2="222.67"/><line class="cls-2" x1="95.69" y1="224.67" x2="92.09" y2="235.47"/><line class="cls-2" x1="102.89" y1="237.67" x2="96.88" y2="224.67"/><line class="cls-2" x1="102.89" y1="237.67" x2="112.08" y2="221.97"/><line class="cls-2" x1="41.54" y1="55.93" x2="36.54" y2="67.73"/><circle class="cls-2" cx="89.81" cy="12.33" r="3.6"/><circle class="cls-2" cx="81.14" cy="10.33" r="3.6"/><circle class="cls-2" cx="77.54" cy="20.93" r="3.6"/><circle class="cls-2" cx="87.74" cy="23.13" r="3.6"/><circle class="cls-2" cx="102.41" cy="15.93" r="3.6"/><line class="cls-2" x1="102.41" y1="15.93" x2="89.81" y2="12.33"/><line class="cls-2" x1="110.33" y1="20.78" x2="102.41" y2="15.93"/><line class="cls-2" x1="88.61" y1="23.73" x2="76.01" y2="20.13"/><line class="cls-2" x1="81.14" y1="10.33" x2="77.54" y2="20.93"/><line class="cls-2" x1="89.81" y1="12.33" x2="81.14" y2="10.33"/><circle class="cls-2" cx="110.33" cy="20.78" r="2.88"/><circle class="cls-3" cx="129.15" cy="123.6" r="102.67"/><text class="cls-4" transform="translate(88.6 167.11)">K</text><text class="cls-5" transform="translate(87.3 199.66)">DIGI<tspan class="cls-6" x="53.25" y="0">T</tspan><tspan class="cls-7" x="65.07" y="0">AL</tspan></text></g></g></svg>