<svg xmlns="http://www.w3.org/2000/svg" xmlns:xlink="http://www.w3.org/1999/xlink" viewBox="0 0 223.4 84.66"><defs><style>.cls-1{isolation:isolate;}.cls-2{fill:url(#linear-gradient);}.cls-3{fill:url(#linear-gradient-2);}.cls-4{fill:url(#linear-gradient-3);}.cls-5{fill:url(#linear-gradient-4);}.cls-6{opacity:0.16;}.cls-7{fill:url(#linear-gradient-5);}.cls-8{opacity:0.3;}.cls-14,.cls-56,.cls-61,.cls-9{fill:#fff;}.cls-10{opacity:0.15;}.cls-11{fill:#02a9f7;}.cls-12{fill:#01303f;}.cls-13{opacity:0.2;}.cls-14{opacity:0.1;}.cls-15{fill:url(#radial-gradient);}.cls-16{fill:url(#linear-gradient-6);}.cls-17{fill:url(#linear-gradient-7);}.cls-18{fill:url(#linear-gradient-8);}.cls-19{fill:url(#linear-gradient-9);}.cls-20{fill:url(#linear-gradient-10);}.cls-21{fill:url(#linear-gradient-11);}.cls-22{fill:url(#linear-gradient-12);}.cls-23{fill:url(#linear-gradient-13);}.cls-24{fill:url(#linear-gradient-14);}.cls-25{fill:url(#linear-gradient-15);}.cls-26{fill:url(#linear-gradient-16);}.cls-27{fill:url(#linear-gradient-17);}.cls-28{fill:url(#linear-gradient-18);}.cls-29{fill:url(#linear-gradient-19);}.cls-30{fill:url(#linear-gradient-20);}.cls-31{fill:url(#linear-gradient-21);}.cls-32{fill:url(#linear-gradient-22);}.cls-33{fill:url(#linear-gradient-23);}.cls-34{fill:url(#linear-gradient-24);}.cls-35{fill:url(#linear-gradient-25);}.cls-36{fill:url(#linear-gradient-26);}.cls-37{fill:url(#linear-gradient-27);}.cls-38{fill:url(#linear-gradient-28);}.cls-39{fill:url(#linear-gradient-29);}.cls-40{fill:url(#linear-gradient-30);}.cls-41{fill:url(#linear-gradient-31);}.cls-42{fill:url(#linear-gradient-32);}.cls-43{fill:url(#linear-gradient-33);}.cls-44{fill:url(#linear-gradient-34);}.cls-45{fill:url(#linear-gradient-35);}.cls-46{fill:url(#linear-gradient-36);}.cls-47{fill:url(#linear-gradient-37);}.cls-48{fill:url(#radial-gradient-2);}.cls-49{fill:url(#linear-gradient-38);}.cls-50{fill:url(#linear-gradient-39);}.cls-51{fill:url(#linear-gradient-40);}.cls-52{fill:url(#radial-gradient-3);}.cls-53{fill:url(#linear-gradient-41);}.cls-54{fill:url(#radial-gradient-4);}.cls-55{fill:url(#linear-gradient-42);}.cls-56,.cls-61{fill-rule:evenodd;}.cls-57{fill:url(#radial-gradient-5);}.cls-58{fill:url(#linear-gradient-43);}.cls-59{fill:url(#linear-gradient-44);}.cls-60{fill:url(#linear-gradient-45);}.cls-61{opacity:0.15;}.cls-62{opacity:0.04;}.cls-62,.cls-64{mix-blend-mode:multiply;}.cls-63{fill:url(#linear-gradient-46);}.cls-64{opacity:0.27;}.cls-65{fill:url(#linear-gradient-47);}.cls-66{fill:url(#linear-gradient-48);}.cls-67{fill:#4f35af;}.cls-68{fill:#8076b7;}.cls-69{fill:#2c69d1;}.cls-70{fill:#0abcf9;}</style><linearGradient id="linear-gradient" x1="49.46" y1="47.09" x2="82.35" y2="47.09" gradientTransform="translate(34.36 -50.46) rotate(30.57)" gradientUnits="userSpaceOnUse"><stop offset="0" stop-color="#00fab2"/><stop offset="1" stop-color="#009bff"/></linearGradient><linearGradient id="linear-gradient-2" x1="49.46" y1="47.09" x2="82.35" y2="47.09" gradientTransform="translate(34.36 -50.46) rotate(30.57)" gradientUnits="userSpaceOnUse"><stop offset="0" stop-color="#fff" stop-opacity="0.6"/><stop offset="1" stop-color="#fff" stop-opacity="0.1"/></linearGradient><linearGradient id="linear-gradient-3" x1="45.94" y1="46.83" x2="68.12" y2="46.83" xlink:href="#linear-gradient"/><linearGradient id="linear-gradient-4" x1="154.69" y1="68.84" x2="175.14" y2="68.84" gradientUnits="userSpaceOnUse"><stop offset="0" stop-color="#233b55"/><stop offset="1" stop-color="#02a9f7"/></linearGradient><linearGradient id="linear-gradient-5" x1="147.37" y1="76.53" x2="159.05" y2="76.53" gradientUnits="userSpaceOnUse"><stop offset="0" stop-color="#233b55"/><stop offset="1" stop-color="#01303f"/></linearGradient><radialGradient id="radial-gradient" cx="156.45" cy="18" r="16" gradientTransform="matrix(-0.71, -0.71, 5.66, -5.7, 165.25, 232.04)" gradientUnits="userSpaceOnUse"><stop offset="0" stop-color="#233b55"/><stop offset="0.4" stop-color="#233c57"/><stop offset="0.55" stop-color="#21415e"/><stop offset="0.66" stop-color="#1f496a"/><stop offset="0.74" stop-color="#1b547b"/><stop offset="0.82" stop-color="#176391"/><stop offset="0.88" stop-color="#1176ac"/><stop offset="0.94" stop-color="#0b8ccc"/><stop offset="0.99" stop-color="#03a5f1"/><stop offset="1" stop-color="#02a9f7"/></radialGradient><linearGradient id="linear-gradient-6" x1="134.59" y1="-1.04" x2="152.17" y2="-1.04" xlink:href="#linear-gradient-2"/><linearGradient id="linear-gradient-7" x1="134.59" y1="-1.04" x2="152.17" y2="-1.04" gradientTransform="translate(34.36 -50.46) rotate(30.57)" gradientUnits="userSpaceOnUse"><stop offset="0" stop-color="#00fa71"/><stop offset="1" stop-color="#009bff"/></linearGradient><linearGradient id="linear-gradient-8" x1="132.73" y1="-1.17" x2="143.91" y2="-1.17" gradientTransform="translate(34.36 -50.46) rotate(30.57)" gradientUnits="userSpaceOnUse"><stop offset="0" stop-color="#00e1ae"/><stop offset="1" stop-color="#009bff"/></linearGradient><linearGradient id="linear-gradient-9" x1="6.4" y1="60.46" x2="7.8" y2="60.46" gradientUnits="userSpaceOnUse"><stop offset="0" stop-color="#362dff"/><stop offset="0.49" stop-color="#00006c"/><stop offset="1"/></linearGradient><linearGradient id="linear-gradient-10" x1="4.14" y1="62.66" x2="5.54" y2="62.66" xlink:href="#linear-gradient-9"/><linearGradient id="linear-gradient-11" x1="6.4" y1="64.93" x2="7.8" y2="64.93" xlink:href="#linear-gradient-9"/><linearGradient id="linear-gradient-12" x1="5.93" y1="62.7" x2="8.19" y2="62.7" gradientUnits="userSpaceOnUse"><stop offset="0" stop-color="#00efc5"/><stop offset="0.49" stop-color="#00cfc5"/><stop offset="1" stop-color="#009aaa"/></linearGradient><linearGradient id="linear-gradient-13" x1="5.11" y1="61.22" x2="5.97" y2="61.22" xlink:href="#linear-gradient-9"/><linearGradient id="linear-gradient-14" x1="5.11" y1="64.17" x2="5.97" y2="64.17" xlink:href="#linear-gradient-9"/><linearGradient id="linear-gradient-15" x1="5.5" y1="65.16" x2="6.04" y2="65.16" xlink:href="#linear-gradient-9"/><linearGradient id="linear-gradient-16" x1="4.33" y1="63.95" x2="4.88" y2="63.95" xlink:href="#linear-gradient-12"/><linearGradient id="linear-gradient-17" x1="4.25" y1="61.37" x2="4.8" y2="61.37" xlink:href="#linear-gradient-12"/><linearGradient id="linear-gradient-18" x1="5.5" y1="60.16" x2="6.04" y2="60.16" xlink:href="#linear-gradient-9"/><linearGradient id="linear-gradient-19" x1="3.11" y1="55.32" x2="19.53" y2="55.32" xlink:href="#linear-gradient-9"/><linearGradient id="linear-gradient-20" x1="3.36" y1="51.98" x2="32.92" y2="51.98" xlink:href="#linear-gradient-12"/><linearGradient id="linear-gradient-21" x1="3.11" y1="70.07" x2="19.53" y2="70.07" xlink:href="#linear-gradient-9"/><linearGradient id="linear-gradient-22" x1="3.36" y1="73.42" x2="32.92" y2="73.42" xlink:href="#linear-gradient-12"/><linearGradient id="linear-gradient-23" x1="8.66" y1="62.66" x2="10.06" y2="62.66" xlink:href="#linear-gradient-9"/><linearGradient id="linear-gradient-24" x1="8.15" y1="61.14" x2="9.01" y2="61.14" xlink:href="#linear-gradient-9"/><linearGradient id="linear-gradient-25" x1="8.15" y1="64.17" x2="9.01" y2="64.17" xlink:href="#linear-gradient-9"/><linearGradient id="linear-gradient-26" x1="9.4" y1="63.95" x2="9.94" y2="63.95" xlink:href="#linear-gradient-12"/><linearGradient id="linear-gradient-27" x1="8.15" y1="65.16" x2="8.69" y2="65.16" xlink:href="#linear-gradient-9"/><linearGradient id="linear-gradient-28" x1="8.15" y1="60.23" x2="8.69" y2="60.23" xlink:href="#linear-gradient-9"/><linearGradient id="linear-gradient-29" x1="9.32" y1="61.45" x2="9.86" y2="61.45" xlink:href="#linear-gradient-12"/><linearGradient id="linear-gradient-30" x1="44.51" y1="60.08" x2="61.48" y2="60.08" xlink:href="#linear-gradient-9"/><linearGradient id="linear-gradient-31" x1="67.81" y1="57.19" x2="67.84" y2="57.19" xlink:href="#linear-gradient-12"/><linearGradient id="linear-gradient-32" x1="49.46" y1="57.2" x2="61.48" y2="57.2" xlink:href="#linear-gradient-12"/><linearGradient id="linear-gradient-33" x1="49.46" y1="67.28" x2="61.48" y2="67.28" gradientUnits="userSpaceOnUse"><stop offset="0" stop-color="#00efc5"/><stop offset="0.32" stop-color="#00cfc5"/><stop offset="0.63" stop-color="#009aaa"/><stop offset="1" stop-color="#009aaa"/></linearGradient><linearGradient id="linear-gradient-34" x1="61.48" y1="52.89" x2="73.5" y2="52.89" xlink:href="#linear-gradient-12"/><linearGradient id="linear-gradient-35" x1="61.48" y1="67.57" x2="73.5" y2="67.57" xlink:href="#linear-gradient-12"/><linearGradient id="linear-gradient-36" x1="57.64" y1="56.85" x2="67.84" y2="65.43" gradientUnits="userSpaceOnUse"><stop offset="0.23" stop-color="#233b55"/><stop offset="1" stop-color="#02a9f7"/></linearGradient><linearGradient id="linear-gradient-37" x1="61.48" y1="63.04" x2="73.5" y2="63.04" xlink:href="#linear-gradient-12"/><radialGradient id="radial-gradient-2" cx="108.15" cy="65" r="20.34" gradientTransform="matrix(-0.59, -0.87, 6.08, -3, -227.31, 353.66)" gradientUnits="userSpaceOnUse"><stop offset="0.03" stop-color="#28313b"/><stop offset="0.56" stop-color="#2a333d"/><stop offset="0.75" stop-color="#2f3944"/><stop offset="0.89" stop-color="#39444f"/><stop offset="1" stop-color="#475360"/><stop offset="1" stop-color="#485461"/></radialGradient><linearGradient id="linear-gradient-38" x1="90.91" y1="65" x2="118.84" y2="65" gradientUnits="userSpaceOnUse"><stop offset="0" stop-color="#973df3"/><stop offset="1" stop-color="#62c8f7"/></linearGradient><linearGradient id="linear-gradient-39" x1="89.74" y1="65" x2="117.67" y2="65" gradientUnits="userSpaceOnUse"><stop offset="0" stop-color="#9715ba"/><stop offset="1" stop-color="#626ad4"/></linearGradient><linearGradient id="linear-gradient-40" x1="185.73" y1="18" x2="219.17" y2="18" gradientUnits="userSpaceOnUse"><stop offset="0" stop-color="#f8ceec"/><stop offset="0.54" stop-color="#f8ceec" stop-opacity="0.8"/><stop offset="1" stop-color="#a88beb"/></linearGradient><radialGradient id="radial-gradient-3" cx="204.76" cy="17.92" r="13.85" gradientTransform="matrix(-0.85, 0.82, -2.56, -2.47, 423.05, -106.24)" gradientUnits="userSpaceOnUse"><stop offset="0" stop-color="#d0ceec" stop-opacity="0.3"/><stop offset="0.54" stop-color="#f872ec" stop-opacity="0.3"/><stop offset="0.99" stop-color="#a8c2eb" stop-opacity="0.3"/></radialGradient><linearGradient id="linear-gradient-41" x1="189.04" y1="18" x2="215.85" y2="18" gradientUnits="userSpaceOnUse"><stop offset="0" stop-color="#02a9f7" stop-opacity="0.7"/><stop offset="0.27" stop-color="#02a9f7" stop-opacity="0.69"/><stop offset="0.49" stop-color="#02a9f7" stop-opacity="0.65"/><stop offset="0.69" stop-color="#02a9f7" stop-opacity="0.58"/><stop offset="0.88" stop-color="#02a9f7" stop-opacity="0.48"/><stop offset="1" stop-color="#02a9f7" stop-opacity="0.4"/></linearGradient><radialGradient id="radial-gradient-4" cx="202.45" cy="18" r="13.17" gradientTransform="translate(447.42 -23.33) rotate(135) scale(1 8)" gradientUnits="userSpaceOnUse"><stop offset="0" stop-color="#024af7" stop-opacity="0.3"/><stop offset="0.22" stop-color="#0250f7" stop-opacity="0.31"/><stop offset="0.39" stop-color="#0264f7" stop-opacity="0.34"/><stop offset="0.56" stop-color="#0284f7" stop-opacity="0.4"/><stop offset="0.56" stop-color="#0286f7" stop-opacity="0.4"/><stop offset="0.96" stop-color="#1143f7" stop-opacity="0.4"/></radialGradient><linearGradient id="linear-gradient-42" x1="197.62" y1="18" x2="207.28" y2="18" gradientUnits="userSpaceOnUse"><stop offset="0" stop-color="#0236f7" stop-opacity="0.7"/><stop offset="0.27" stop-color="#0239f7" stop-opacity="0.69"/><stop offset="0.49" stop-color="#0242f7" stop-opacity="0.65"/><stop offset="0.69" stop-color="#0252f7" stop-opacity="0.58"/><stop offset="0.88" stop-color="#0268f7" stop-opacity="0.48"/><stop offset="1" stop-color="#027af7" stop-opacity="0.4"/></linearGradient><radialGradient id="radial-gradient-5" cx="106.51" cy="19.05" r="16" gradientTransform="matrix(-0.67, -0.67, 5.32, -5.36, 74.88, 192.62)" xlink:href="#radial-gradient"/><linearGradient id="linear-gradient-43" x1="91.86" y1="25.67" x2="108.4" y2="25.67" xlink:href="#linear-gradient-7"/><linearGradient id="linear-gradient-44" x1="91.86" y1="25.67" x2="108.4" y2="25.67" xlink:href="#linear-gradient-2"/><linearGradient id="linear-gradient-45" x1="90.11" y1="25.54" x2="100.5" y2="25.54" xlink:href="#linear-gradient-8"/><linearGradient id="linear-gradient-46" x1="176.53" y1="74.55" x2="222.18" y2="74.55" gradientUnits="userSpaceOnUse"><stop offset="0.04" stop-color="#10c8f7"/><stop offset="0.25" stop-color="#2dc8f7"/><stop offset="0.58" stop-color="#54c8f7"/><stop offset="0.84" stop-color="#6bc8f7"/><stop offset="1" stop-color="#74c8f7"/></linearGradient><linearGradient id="linear-gradient-47" x1="177.1" y1="67.35" x2="222.75" y2="67.35" gradientUnits="userSpaceOnUse"><stop offset="0" stop-color="#973df3"/><stop offset="1" stop-color="#db3df3"/></linearGradient><linearGradient id="linear-gradient-48" x1="177.75" y1="58.52" x2="223.4" y2="58.52" xlink:href="#linear-gradient-38"/></defs><title>vol 1 - Minimal Shapes Tech_1</title><g class="cls-1"><g id="Layer_2" data-name="Layer 2"><g id="Layer_2-2" data-name="Layer 2"><path class="cls-2" d="M70.31,32.9l9.17.06a2.18,2.18,0,0,0,1.9-3.25L65.12,1.1a2.17,2.17,0,0,0-3.76,0L44.71,29.47a2.17,2.17,0,0,0,1.86,3.27l10.13.06Z"/><path class="cls-3" d="M70.31,32.9l9.17.06a2.18,2.18,0,0,0,1.9-3.25L65.12,1.1a2.17,2.17,0,0,0-3.76,0L44.71,29.47a2.17,2.17,0,0,0,1.86,3.27l10.13.06Z"/><path class="cls-4" d="M66.72,25.87,47.8,25.75a2.88,2.88,0,0,1-2.46-4.34L54.9,5.09a2.89,2.89,0,0,1,5,0l9.35,16.45A2.88,2.88,0,0,1,66.72,25.87Z"/><path class="cls-5" d="M175.14,56.3,160.8,78.76,160,80l-.9,1.41h-.08l-4.36-6.14.78-1.23,6-9.35Z"/><g class="cls-6"><g class="cls-6"><path d="M160.8,78.76l-1.67,2.61h-.08l-4.36-6.14.78-1.23Z"/></g></g><path class="cls-7" d="M151.48,70.72l7.57,10.66-8,1-3.71-5.22Z"/><g class="cls-8"><g class="cls-8"><path class="cls-9" d="M175.14,56.3,160.8,78.76,160,80l-1,1.42c.62-1.07,1.26-2.13,1.9-3.19s1.28-2.13,1.93-3.18c1.31-2.11,2.6-4.23,3.93-6.33s2.65-4.19,4-6.29l3.29-5.08-2.21,1.31-3.47,2c-1.15.68-2.31,1.36-3.47,2s-2.33,1.33-3.5,2Z"/></g></g><g class="cls-8"><g class="cls-8"><path class="cls-9" d="M151.48,70.72l7,9.8a2.75,2.75,0,0,1,.17.29l-1-1.2c-.32-.4-.65-.81-1-1.22s-.64-.81-1-1.22-.63-.82-.93-1.24c-.62-.83-1.22-1.66-1.82-2.5s-1-1.39-1.47-2.08c-.6.9-1.22,1.8-1.84,2.69-.37.52-.73,1-1.12,1.55s-.75,1-1.15,1.53Z"/></g></g><g class="cls-10"><g class="cls-10"><path class="cls-9" d="M162.18,65.13l9.62-5.68L160.88,76.72Z"/></g></g><g class="cls-10"><g class="cls-10"><path class="cls-9" d="M148.12,77.13l3.4-4.53,5.92,7.87Z"/></g></g><path class="cls-11" d="M128.28,76.14l14.34-22.45.76-1.2.9-1.41h.09l4.36,6.14L148,58.43l-6,9.36-13.7,8.35"/><g class="cls-6"><g class="cls-6"><path d="M142.62,53.69l1.66-2.61h.09l4.36,6.14L148,58.43Z"/></g></g><path class="cls-12" d="M151.94,61.72l-7.57-10.65,8-1,3.7,5.23Z"/><path d="M129.33,75.14l2.21-1.31,3.46-2c1.16-.69,2.32-1.36,3.48-2s2.32-1.34,3.5-2l-13.7,8.35"/><path class="cls-12" d="M128.28,76.14l14.34-22.45.76-1.2,1-1.42c-.62,1.07-1.26,2.13-1.9,3.19s-1.28,2.12-1.93,3.18c-1.31,2.11-2.6,4.23-3.93,6.33s-2.66,4.19-4,6.28l-3.29,5.09"/><g class="cls-8"><g class="cls-8"><path d="M151.94,61.72l-7-9.79-.17-.29c.34.39.66.79,1,1.2s.65.8,1,1.21l.95,1.23c.3.41.62.82.93,1.23.61.83,1.22,1.67,1.81,2.5s1,1.39,1.47,2.09c.6-.9,1.22-1.8,1.84-2.7.37-.52.73-1,1.12-1.54s.75-1,1.15-1.54Z"/></g></g><g class="cls-8"><g class="cls-8"><path class="cls-9" d="M141.24,67.32,131.62,73l10.92-17.27S142.54,55.94,141.24,67.32Z"/></g></g><g class="cls-13"><g class="cls-13"><path class="cls-9" d="M155.3,55.31l-3.41,4.53L146,52Z"/></g></g><circle class="cls-12" cx="151.75" cy="66.61" r="3"/><circle class="cls-14" cx="150.75" cy="66.61" r="2"/><ellipse class="cls-15" cx="156.45" cy="18" rx="16" ry="16.12"/><path class="cls-16" d="M160,26.58l4.88,0a1.17,1.17,0,0,0,1-1.74L157.25,9.52a1.15,1.15,0,0,0-2,0l-8.87,15.23a1.17,1.17,0,0,0,1,1.76l5.4,0Z"/><path class="cls-17" d="M160,26.58l4.88,0a1.17,1.17,0,0,0,1-1.74L157.25,9.52a1.15,1.15,0,0,0-2,0l-8.87,15.23a1.17,1.17,0,0,0,1,1.76l5.4,0Z"/><path class="cls-18" d="M156.94,22.81l-7.75-.06a2.21,2.21,0,0,1-1.9-3.32l3.92-6.74a2.21,2.21,0,0,1,3.84,0l3.83,6.79A2.21,2.21,0,0,1,156.94,22.81Z"/><ellipse class="cls-19" cx="7.1" cy="60.46" rx="0.7" ry="0.68"/><ellipse class="cls-20" cx="4.84" cy="62.66" rx="0.7" ry="0.68"/><ellipse class="cls-21" cx="7.1" cy="64.93" rx="0.7" ry="0.68"/><ellipse class="cls-22" cx="7.06" cy="62.7" rx="1.13" ry="1.1"/><ellipse class="cls-23" cx="5.54" cy="61.22" rx="0.43" ry="0.42"/><ellipse class="cls-24" cx="5.54" cy="64.17" rx="0.43" ry="0.42"/><ellipse class="cls-25" cx="5.77" cy="65.16" rx="0.27" ry="0.27"/><ellipse class="cls-26" cx="4.6" cy="63.95" rx="0.27" ry="0.27"/><ellipse class="cls-27" cx="4.52" cy="61.37" rx="0.27" ry="0.27"/><ellipse class="cls-28" cx="5.77" cy="60.16" rx="0.27" ry="0.27"/><path class="cls-29" d="M3.36,57.2v0a12.45,12.45,0,0,0-.24,1.64h7.82a9.51,9.51,0,0,1,2.91-3.61,9.36,9.36,0,0,1,5.69-1.92C8.19,49.19,4.49,54.35,3.36,57.2Z"/><path class="cls-30" d="M32.92,54.5l-.12.06-5.51,2.82a9.46,9.46,0,0,0-7.76-4.05c-11.34-4.14-15,1-16.17,3.87C4.73,51,10.9,46.58,18.59,46.58,24.94,46.58,30.41,49.82,32.92,54.5Z"/><path class="cls-31" d="M13.84,70.15a9.54,9.54,0,0,1-2.91-3.62H3.11a12.45,12.45,0,0,0,.24,1.64,0,0,0,0,0,0,0c1.13,2.86,4.83,8,16.17,3.87A9.41,9.41,0,0,1,13.84,70.15Z"/><path class="cls-32" d="M32.92,70.89a.52.52,0,0,1-.12-.06L27.29,68a9.46,9.46,0,0,1-7.76,4c-11.34,4.14-15-1-16.17-3.87,1.37,6.24,7.54,10.63,15.23,10.63C24.94,78.82,30.41,75.57,32.92,70.89Z"/><ellipse class="cls-33" cx="9.36" cy="62.66" rx="0.7" ry="0.68"/><ellipse class="cls-34" cx="8.58" cy="61.14" rx="0.43" ry="0.42"/><ellipse class="cls-35" cx="8.58" cy="64.17" rx="0.43" ry="0.42"/><ellipse class="cls-36" cx="9.67" cy="63.95" rx="0.27" ry="0.27"/><ellipse class="cls-37" cx="8.42" cy="65.16" rx="0.27" ry="0.27"/><ellipse class="cls-38" cx="8.42" cy="60.23" rx="0.27" ry="0.27"/><ellipse class="cls-39" cx="9.59" cy="61.45" rx="0.27" ry="0.27"/><polyline class="cls-40" points="61.48 48.57 49.46 54.33 49.46 65.84 61.48 71.6 61.48 76.2 44.52 68.14 44.52 52.02 61.48 43.96 61.45 49 61.45 49"/><path class="cls-41" d="M67.84,57.17v0h0Z"/><polygon class="cls-42" points="61.48 48.57 61.48 53.75 55.12 57.2 55.12 62.96 49.46 65.84 49.46 54.33 61.48 48.57"/><polygon class="cls-43" points="61.48 66.42 61.48 71.6 49.46 65.84 55.12 62.96 61.48 66.42"/><polygon class="cls-44" points="73.5 54.33 67.84 57.2 67.81 57.19 61.48 53.75 61.48 48.57 73.5 54.33"/><polygon class="cls-45" points="67.84 63.54 73.5 65.84 61.48 71.6 67.84 63.54"/><polygon class="cls-46" points="67.84 57.2 67.84 63.54 61.48 66.42 55.12 62.96 55.12 57.2 61.48 53.75 67.81 57.19 67.84 57.2"/><polygon class="cls-47" points="73.5 54.33 73.5 65.84 61.48 71.75 61.48 66.42 67.84 63.54 67.84 57.2 73.5 54.33"/><rect class="cls-48" x="85.3" y="48.88" width="39.15" height="32.24" rx="2.63"/><path class="cls-49" d="M112.94,65.13l5.22,2.3a1.06,1.06,0,0,1,.68.94l0,5.29c0,.8-1,1.3-1.89.93l-5.57-2.43a1,1,0,0,1-.68-.94l0-5.12a1,1,0,0,0-.67-.94l-2.46-1.1c-.86-.39-1.91.12-1.91.92l-.05,8.38c0,.78-1,1.29-1.85,1L98.19,72.1a1,1,0,0,1-.73-1l0-5.12a1.07,1.07,0,0,0-.63-.92l-5.32-2.6a1,1,0,0,1-.63-.92l0-5.24c0-.81,1.07-1.32,1.93-.91l5.56,2.64a1,1,0,0,1,.65.93l0,5.12a1.06,1.06,0,0,0,.71,1l2.85,1.18c.86.36,1.87-.15,1.87-.94l0-8.64a1.3,1.3,0,0,1,1.92-.92l5.17,2.37a1,1,0,0,1,.67.93l0,5.13A1.05,1.05,0,0,0,112.94,65.13Z"/><path class="cls-50" d="M111.77,65.13l5.22,2.3a1.06,1.06,0,0,1,.68.94l0,5.29c0,.8-1,1.3-1.89.93l-5.57-2.43a1.05,1.05,0,0,1-.69-.94l0-5.12a1,1,0,0,0-.67-.94l-2.46-1.1c-.86-.39-1.91.12-1.91.92l0,8.38c0,.78-1,1.29-1.85,1L97,72.1a1,1,0,0,1-.73-1l0-5.12a1,1,0,0,0-.63-.92l-5.31-2.6a1,1,0,0,1-.63-.92l0-5.24c0-.81,1.08-1.32,1.94-.91l5.56,2.64a1.06,1.06,0,0,1,.65.93l0,5.12a1.06,1.06,0,0,0,.71,1l2.85,1.18c.86.36,1.87-.15,1.87-.94l0-8.64c0-.81,1.06-1.32,1.92-.92l5.17,2.37a1.06,1.06,0,0,1,.67.93l0,5.13A1.05,1.05,0,0,0,111.77,65.13Z"/><path class="cls-51" d="M187.35,21.76l11.2,10.8a5.65,5.65,0,0,0,7.8,0l11.2-10.8a5.19,5.19,0,0,0,0-7.52l-11.2-10.8a5.65,5.65,0,0,0-7.8,0l-11.2,10.8A5.17,5.17,0,0,0,187.35,21.76Z"/><path class="cls-52" d="M187.35,21.76l11.2,10.8a5.65,5.65,0,0,0,7.8,0l11.2-10.8a5.19,5.19,0,0,0,0-7.52l-11.2-10.8a5.65,5.65,0,0,0-7.8,0l-11.2,10.8A5.17,5.17,0,0,0,187.35,21.76Z"/><rect class="cls-53" x="189.04" y="5.07" width="26.81" height="25.85" rx="5.93"/><rect class="cls-54" x="189.04" y="5.07" width="26.81" height="25.85" rx="5.93"/><rect class="cls-9" x="195.21" y="11.02" width="14.48" height="13.96" rx="3.03"/><ellipse class="cls-55" cx="202.45" cy="18" rx="4.83" ry="4.65"/><path class="cls-56" d="M201.65,17.23a1.14,1.14,0,0,0,1.59,0,1.05,1.05,0,0,0,0-1.53,1.14,1.14,0,0,0-1.59,0A1.05,1.05,0,0,0,201.65,17.23Zm-1.59,1.54a1.16,1.16,0,0,0,1.59,0,1.06,1.06,0,0,0,0-1.54,1.16,1.16,0,0,0-1.59,0A1.06,1.06,0,0,0,200.06,18.77Zm4.78,0a1.17,1.17,0,0,1-1.6,0,1.06,1.06,0,0,1,0-1.54,1.17,1.17,0,0,1,1.6,0A1.08,1.08,0,0,1,204.84,18.77Zm-1.6,0a1.14,1.14,0,0,0-1.59,0,1.05,1.05,0,0,0,0,1.53,1.14,1.14,0,0,0,1.59,0A1.05,1.05,0,0,0,203.24,18.77Z"/><ellipse class="cls-57" cx="105.45" cy="19" rx="15.06" ry="15.17"/><path class="cls-58" d="M109.1,27.29l4.59,0a1.09,1.09,0,0,0,1-1.64l-8.15-14.45a1.08,1.08,0,0,0-1.88,0L96.26,25.56a1.1,1.1,0,0,0,.93,1.65l5.08,0Z"/><path class="cls-59" d="M109.1,27.29l4.59,0a1.09,1.09,0,0,0,1-1.64l-8.15-14.45a1.08,1.08,0,0,0-1.88,0L96.26,25.56a1.1,1.1,0,0,0,.93,1.65l5.08,0Z"/><path class="cls-60" d="M106,23.74l-6.85,0a2.21,2.21,0,0,1-1.9-3.32l3.47-6a2.2,2.2,0,0,1,3.83,0l3.39,6A2.21,2.21,0,0,1,106,23.74Z"/><path class="cls-61" d="M121.45,19.56a16.62,16.62,0,0,1-3.81,11.15,13.27,13.27,0,0,1-10.26,4.41,18.85,18.85,0,0,1-12.26-5,16,16,0,0,1-5.67-11.64c0-8.91,6.49-15.56,15.17-15.56S121.45,10.7,121.45,19.56Zm-12.62,9.6c6.88,0,10.67-5.56,10.67-12.42A12.69,12.69,0,0,0,106.75,4.32c-6.88,0-11.49,5-11.49,11.86S102,29.16,108.83,29.16Z"/><g class="cls-62"><path d="M187,68.45h34.16l-5.24,11.92a6.58,6.58,0,0,1-5.81,4.29h-34.6l5.78-12.16A6.52,6.52,0,0,1,187,68.45Z"/></g><path class="cls-63" d="M188,66.45h34.16l-5.24,11.92a6.58,6.58,0,0,1-5.81,4.29h-34.6l5.78-12.16A6.52,6.52,0,0,1,188,66.45Z"/><g class="cls-64"><path d="M176.22,76.85h34.49a6.56,6.56,0,0,0,5.81-4.28l5.23-11.92H187.59a6.5,6.5,0,0,0-5.7,4.05L176.1,76.85Z"/></g><path class="cls-65" d="M177.22,75.45h34.49a6.56,6.56,0,0,0,5.81-4.28l5.23-11.92H188.59a6.5,6.5,0,0,0-5.7,4L177.1,75.45Z"/><g class="cls-64"><path d="M188.57,51.74h34.17L217.5,63.65a6.58,6.58,0,0,1-5.81,4.29h-34.6l5.78-12.16A6.49,6.49,0,0,1,188.57,51.74Z"/></g><path class="cls-66" d="M189.24,50.42H223.4l-5.23,11.91a6.6,6.6,0,0,1-5.82,4.29h-34.6l5.78-12.16A6.5,6.5,0,0,1,189.24,50.42Z"/><polygon class="cls-67" points="6.27 16.89 6.25 12.04 11.59 9.58 16.93 11.98 16.95 16.83 11.62 19.29 6.27 16.89"/><polygon class="cls-68" points="11.56 19.37 11.56 14.49 6.24 12.05 6.27 16.89 11.56 19.37"/><polygon class="cls-69" points="24.12 13.89 24.12 33.3 31.35 33.3 31.45 11 24.12 13.89"/><polyline class="cls-69" points="24.12 33.3 24.12 13.89 31.45 11 31.45 10.88 30.27 11.46 31.45 11"/><polygon class="cls-70" points="24.12 13.89 24.12 33.3 16.89 33.3 16.89 10.58 24.12 13.89"/><polygon class="cls-67" points="16.93 11 16.91 4.4 24.16 1.06 31.43 4.32 31.45 10.92 24.2 14.26 16.93 11"/><polygon class="cls-68" points="24.12 14.36 24.12 7.74 16.89 4.42 16.93 11 24.12 14.36"/><polygon class="cls-69" points="3.62 23.59 3.62 33.3 7.24 33.3 7.24 21.93 3.62 23.59"/><polyline class="cls-69" points="7.24 21.93 3.62 23.59 3.62 33.3"/><polygon class="cls-70" points="3.62 23.59 3.62 33.3 0 33.3 0 21.93 3.62 23.59"/><polygon class="cls-67" points="0.02 22.14 0.01 18.84 3.64 17.17 7.27 18.8 7.29 22.1 3.66 23.77 0.02 22.14"/><polygon class="cls-68" points="3.62 23.82 3.62 20.51 0 18.85 0.02 22.14 3.62 23.82"/><polygon class="cls-69" points="11.56 19.02 11.56 33.3 16.88 33.3 16.88 16.58 11.56 19.02"/><polyline class="cls-69" points="16.88 16.58 11.56 19.02 11.56 33.3"/><polygon class="cls-70" points="11.56 19.02 11.56 33.3 6.24 33.3 6.24 16.58 11.56 19.02"/></g></g></g></svg>