<svg xmlns="http://www.w3.org/2000/svg" viewBox="0 0 52.33 42.75"><defs><style>.cls-1{fill:#f4f4f4;}.cls-2{fill:#080341;}.cls-3{fill:#ed4f65;}</style></defs><title>favicon</title><g id="Layer_2" data-name="Layer 2"><g id="Layer_1-2" data-name="Layer 1"><path class="cls-1" d="M24.39,27.74c-.51-.18-1-.38-1.53-.59C22,26.8,21.1,26.42,20.2,26h-.28l.25.21a1.9,1.9,0,0,1,.54,1.05c.7.3,1.41.58,2.12.85.52.2,1,.39,1.55.57s1.06.36,1.59.52c.11-.26.14-.57.24-.84C25.61,28.17,25,28,24.39,27.74Zm0,0c-.51-.18-1-.38-1.53-.59C22,26.8,21.1,26.42,20.2,26h-.28l.25.21a1.9,1.9,0,0,1,.54,1.05c.7.3,1.41.58,2.12.85.52.2,1,.39,1.55.57s1.06.36,1.59.52c.11-.26.14-.57.24-.84C25.61,28.17,25,28,24.39,27.74Zm0,0c-.51-.18-1-.38-1.53-.59C22,26.8,21.1,26.42,20.2,26h-.28l.25.21a1.9,1.9,0,0,1,.54,1.05c.7.3,1.41.58,2.12.85.52.2,1,.39,1.55.57s1.06.36,1.59.52c.11-.26.14-.57.24-.84C25.61,28.17,25,28,24.39,27.74Zm0,0c-.51-.18-1-.38-1.53-.59C22,26.8,21.1,26.42,20.2,26h-.28l.25.21a1.9,1.9,0,0,1,.54,1.05c.7.3,1.41.58,2.12.85.52.2,1,.39,1.55.57s1.06.36,1.59.52c.11-.26.14-.57.24-.84C25.61,28.17,25,28,24.39,27.74Zm0,0c-.51-.18-1-.38-1.53-.59C22,26.8,21.1,26.42,20.2,26h-.28l.25.21a1.9,1.9,0,0,1,.54,1.05c.7.3,1.41.58,2.12.85.52.2,1,.39,1.55.57s1.06.36,1.59.52c.11-.26.14-.57.24-.84C25.61,28.17,25,28,24.39,27.74Zm19-15.94c-.17-.35-.34-.69-.53-1a18.87,18.87,0,0,0-8.23-7.83,19.28,19.28,0,0,0-1.89-.78A18.68,18.68,0,0,0,7.89,18.27c0,.49-.06,1-.06,1.49v.32a18.65,18.65,0,0,0,7.72,14.81,16.78,16.78,0,0,0,1.89,1.2A18.66,18.66,0,0,0,41,31.54a18.85,18.85,0,0,0,1.23-1.7,18.76,18.76,0,0,0,1.17-18ZM41,30a17.52,17.52,0,0,1-1.22,1.54c-.23.26-.48.53-.74.78a17.79,17.79,0,0,1-21.89,2.58,16.77,16.77,0,0,1-1.67-1.17,16.09,16.09,0,0,1-1.58-1.41A17.56,17.56,0,0,1,9.19,23.8a18.07,18.07,0,0,1-.46-4c0-.26,0-.52,0-.77a17.69,17.69,0,0,1,5.19-11.8L14.18,7a2.24,2.24,0,0,1-.24.55c-.27.39-.71.55-1,.92a3.6,3.6,0,0,0-.55,1.22A11.65,11.65,0,0,1,12.22,11c-.18.52-.51.83-.45,1.43.72.21.41-1.07,1-1.14a5.05,5.05,0,0,1,0,1.9c-.08.71-.22.89.21,1.51s.46.81,1.11.89.85.34,1.11.92c.46.1.74.18.8.69a5.54,5.54,0,0,0,.79.54c.31.08.83-.36,1.12,0,.48.56-.62,2-.81,2.55a2.09,2.09,0,0,0,.37,2.37c.07.06.14.1.21.15a1.27,1.27,0,0,1,.64.69,33,33,0,0,1,1.92-4.56c.21-.41.43-.82.66-1.24s.46-.81.71-1.22a1.59,1.59,0,0,0-.49-.11,2.37,2.37,0,0,0-.49.09.8.8,0,0,1-.31,0c-.27,0-.57-.24-.86-.2s-.49.28-.66.38a4.94,4.94,0,0,1-1.43.53c-.77.14-.91-.15-.86-.87L16.42,16c.29-.79-.23-.85-.79-1-.08-.57.62-1,.32-1.59-.59,0-1.23,1.62-1.73.91-.33-.48.17-1.8.46-2.21a4.14,4.14,0,0,1,1.86-1.19.8.8,0,0,1,.88.46c.16.37-.05.72,0,1.15.5-.12.37-.75.35-1.09,0-.57.26-.53.55-.94s.3-.79.63-1.15.56-.58.84-.84.68-.26,1-.48c.5-.33-.16-.94.57-.89.26,0,.13.17.48.1A4.62,4.62,0,0,0,22.41,7c.7-.28.21-.36-.12-.73s.18-.39.6-.46.24-.15.51,0,.1.37.45.36c.67,0,.2-.69.06-.91-.26-.38-.32-.64-.86-.65a.89.89,0,0,0,0-.56c-.45.06-.53-.27-.87-.4-.58-.22-.48.25-.72.57s-.7.28-.88.68,0,.74-.69.63a2,2,0,0,0,.05-.85,2.54,2.54,0,0,1-.56-.13c0-.68.75-.73,1.26-.8s.75-.65,1.26-.75.82.68,1.4.23c.33-.25.18-.4.06-.64a2.18,2.18,0,0,0-.25-.28v0q.68-.12,1.38-.21a4.25,4.25,0,0,0,.37.74c.08.12.22.21.28.35s-.09.36.11.47,1.22-.92,1.44-1.1.45-.34.39-.56a17.43,17.43,0,0,1,4.27.65c.09.11.18.22.26.34l.08.09c.24.34.39.64.83.79a1.57,1.57,0,0,0,.3.06c.31.07.67.17.42.59s-.65-.16-.8-.33h0c-.22-.23-.85-.48-.83.05a.5.5,0,0,0,.2.39c.47.4,1.54.46,1.23,1.15.22.13.64.34.57.65s-.59.14-.58.63a1.15,1.15,0,0,0,1.49,1c.76-.27.18-1.32,1-1.43a1,1,0,0,1,.85.3c.25.2.41.65.75.61,0-.21-.12-.36-.15-.56a2.21,2.21,0,0,1,.95.63c.23.35.21.85.77.4a1.23,1.23,0,0,1-.17-.28,1.58,1.58,0,0,1,1.53.93c.69,1.4-1,.29-1.09,1-.42-.13-.6-.46-1-.67-.18-.09-.5,0-.63-.14s-.13-.37-.29-.5c-.63-.52-2.07.31-2.64.64-.16.09-.33.11-.43.28s.07.36,0,.63-.58.56-.73.87c-.37.75.37,1.82.27,2.64,0,.46-.55,1-.36,1.34.08.17.37.31.48.5a6.21,6.21,0,0,0,.27.6,23.28,23.28,0,0,0,1.53,1.81,1.11,1.11,0,0,0,1.09.32,7.28,7.28,0,0,0,1.21-.35c.43-.21.49-.5,1-.31s.68.63,1.11.24c.34.35,0,.94-.12,1.32a1.65,1.65,0,0,0,.39,1.33,1.3,1.3,0,0,1,.37,1.25c-.06.52-.19,1-.3,1.51s-.42.86-.4,1.38A8.83,8.83,0,0,1,40,25.76a11.34,11.34,0,0,1-.2,1.44c-.12.46-.45.86-.58,1.33a1.54,1.54,0,0,0,.22,1.38c.32.38.64.16,1-.13A8.14,8.14,0,0,0,42,27.49a13.94,13.94,0,0,0,1.35-2.3c.08-.17.16-.34.25-.51A17.37,17.37,0,0,1,41,30ZM22.86,27.15C22,26.8,21.1,26.42,20.2,26h-.28l.25.21a1.9,1.9,0,0,1,.54,1.05c.7.3,1.41.58,2.12.85.52.2,1,.39,1.55.57s1.06.36,1.59.52c.11-.26.14-.57.24-.84-.6-.2-1.21-.4-1.82-.63S23.37,27.36,22.86,27.15Zm1.53.59c-.51-.18-1-.38-1.53-.59C22,26.8,21.1,26.42,20.2,26h-.28l.25.21a1.9,1.9,0,0,1,.54,1.05c.7.3,1.41.58,2.12.85.52.2,1,.39,1.55.57s1.06.36,1.59.52c.11-.26.14-.57.24-.84C25.61,28.17,25,28,24.39,27.74Zm0,0c-.51-.18-1-.38-1.53-.59C22,26.8,21.1,26.42,20.2,26h-.28l.25.21a1.9,1.9,0,0,1,.54,1.05c.7.3,1.41.58,2.12.85.52.2,1,.39,1.55.57s1.06.36,1.59.52c.11-.26.14-.57.24-.84C25.61,28.17,25,28,24.39,27.74Zm0,0c-.51-.18-1-.38-1.53-.59C22,26.8,21.1,26.42,20.2,26h-.28l.25.21a1.9,1.9,0,0,1,.54,1.05c.7.3,1.41.58,2.12.85.52.2,1,.39,1.55.57s1.06.36,1.59.52c.11-.26.14-.57.24-.84C25.61,28.17,25,28,24.39,27.74Zm0,0c-.51-.18-1-.38-1.53-.59C22,26.8,21.1,26.42,20.2,26h-.28l.25.21a1.9,1.9,0,0,1,.54,1.05c.7.3,1.41.58,2.12.85.52.2,1,.39,1.55.57s1.06.36,1.59.52c.11-.26.14-.57.24-.84C25.61,28.17,25,28,24.39,27.74Z"/><path class="cls-2" d="M17.5,22.61c.07.06.14.1.21.15q-.63,1.71-1.08,3.39c-.1.38-.2.76-.29,1.13s-.13.6-.19.9c-.16.76-.29,1.51-.39,2.24-.06.47-.12.93-.15,1.39-.06.66-.09,1.31-.09,1.93a16.09,16.09,0,0,1-1.58-1.41A17.56,17.56,0,0,1,9.19,23.8l.55.05,1,.1h0L11,24l.79.08,1.86.18.91.08h0l.25,0,1.66.16-.29-.37-.48-.61L15,22.66l-1-1.28-.15-.2L10.3,16.65l-.05-.07L10,16.25l0-.05,0,0-.43-.54-.34,2.24L9,19.16H9L8.81,19,8.75,19a17.69,17.69,0,0,1,5.19-11.8L14.18,7a2.24,2.24,0,0,1-.24.55c-.27.39-.71.55-1,.92a3.6,3.6,0,0,0-.55,1.22A11.65,11.65,0,0,1,12.22,11c-.18.52-.51.83-.45,1.43.72.21.41-1.07,1-1.14a5.05,5.05,0,0,1,0,1.9c-.08.71-.22.89.21,1.51s.46.81,1.11.89.85.34,1.11.92c.46.1.74.18.8.69a5.54,5.54,0,0,0,.79.54c.31.08.83-.36,1.12,0,.48.56-.62,2-.81,2.55A2.09,2.09,0,0,0,17.5,22.61Z"/><path class="cls-2" d="M43.6,24.68A17.37,17.37,0,0,1,41,30l-.6.06h-.07l-.29,0c-.55.05-1.12.07-1.69.09l-1.14,0c-.76,0-1.54,0-2.33-.11-.47,0-1-.08-1.43-.14a39.7,39.7,0,0,1-7.28-1.6c-.6-.2-1.21-.4-1.82-.63s-1-.38-1.53-.59C22,26.8,21.1,26.42,20.2,26h-.28l-1.76.08c.84.42,1.69.81,2.55,1.18.7.3,1.41.58,2.12.85.52.2,1,.39,1.55.57s1.06.36,1.59.52A52.21,52.21,0,0,0,33.4,31l1.38.21,1.09.12c.91.1,1.81.17,2.69.21l1.26,0c-.23.26-.48.53-.74.78a17.79,17.79,0,0,1-21.89,2.58c-.08-.54-.14-1.1-.19-1.67,0-.37,0-.75-.05-1.13v-.06c0-.08,0-.17,0-.25,0-.46,0-.94,0-1.42,0-.31,0-.63.07-.95.06-.63.15-1.28.27-1.94.06-.39.14-.79.23-1.18a26.7,26.7,0,0,1,.8-2.86,33,33,0,0,1,1.92-4.56c.21-.41.43-.82.66-1.24s.46-.81.71-1.22.36-.6.55-.9l.06-1.72c-.56.85-1.09,1.72-1.59,2.6a.8.8,0,0,1-.31,0c-.27,0-.57-.24-.86-.2s-.49.28-.66.38a4.94,4.94,0,0,1-1.43.53c-.77.14-.91-.15-.86-.87L16.42,16c.29-.79-.23-.85-.79-1-.08-.57.62-1,.32-1.59-.59,0-1.23,1.62-1.73.91-.33-.48.17-1.8.46-2.21a4.14,4.14,0,0,1,1.86-1.19.8.8,0,0,1,.88.46c.16.37-.05.72,0,1.15.5-.12.37-.75.35-1.09,0-.57.26-.53.55-.94s.3-.79.63-1.15.56-.58.84-.84.68-.26,1-.48c.5-.33-.16-.94.57-.89.26,0,.13.17.48.1A4.62,4.62,0,0,0,22.41,7c.7-.28.21-.36-.12-.73s.18-.39.6-.46.24-.15.51,0,.1.37.45.36c.67,0,.2-.69.06-.91-.26-.38-.32-.64-.86-.65a.89.89,0,0,0,0-.56c-.45.06-.53-.27-.87-.4-.58-.22-.48.25-.72.57s-.7.28-.88.68,0,.74-.69.63a2,2,0,0,0,.05-.85,2.54,2.54,0,0,1-.56-.13c0-.68.75-.73,1.26-.8s.75-.65,1.26-.75.82.68,1.4.23c.33-.25.18-.4.06-.64a2.18,2.18,0,0,0-.25-.28v0q.68-.12,1.38-.21a4.25,4.25,0,0,0,.37.74c.08.12.22.21.28.35s-.09.36.11.47,1.22-.92,1.44-1.1.45-.34.39-.56a17.43,17.43,0,0,1,4.27.65c.09.11.18.22.26.34a28.66,28.66,0,0,0-2.93,2.56c-.26.26-.52.54-.78.82h0l-1.13-.26-1.57-.36L24.93,7l-.16.82h0l0,.2-.13.65-.3,1.54-.15.76,0,.21-.27,1.37.36-.21.6-.35.84-.49,1.25-.74.2-.11L31.52,8l.07,0,.32-.19.05,0,0,0,.54-.31L30.49,7l-1.18-.27.12-.11c.25-.24.5-.47.75-.68a19.48,19.48,0,0,1,1.6-1.28c.47.4,1.54.46,1.23,1.15.22.13.64.34.57.65s-.59.14-.58.63a1.15,1.15,0,0,0,1.49,1c.76-.27.18-1.32,1-1.43a1,1,0,0,1,.85.3c.25.2.41.65.75.61,0-.21-.12-.36-.15-.56a2.21,2.21,0,0,1,.95.63c.23.35.21.85.77.4a1.23,1.23,0,0,1-.17-.28,1.58,1.58,0,0,1,1.53.93c.69,1.4-1,.29-1.09,1-.42-.13-.6-.46-1-.67-.18-.09-.5,0-.63-.14s-.13-.37-.29-.5c-.63-.52-2.07.31-2.64.64-.16.09-.33.11-.43.28s.07.36,0,.63-.58.56-.73.87c-.37.75.37,1.82.27,2.64,0,.46-.55,1-.36,1.34.08.17.37.31.48.5a6.21,6.21,0,0,0,.27.6,23.28,23.28,0,0,0,1.53,1.81,1.11,1.11,0,0,0,1.09.32,7.28,7.28,0,0,0,1.21-.35c.43-.21.49-.5,1-.31s.68.63,1.11.24c.34.35,0,.94-.12,1.32a1.65,1.65,0,0,0,.39,1.33,1.3,1.3,0,0,1,.37,1.25c-.06.52-.19,1-.3,1.51s-.42.86-.4,1.38A8.83,8.83,0,0,1,40,25.76a11.34,11.34,0,0,1-.2,1.44c-.12.46-.45.86-.58,1.33a1.54,1.54,0,0,0,.22,1.38c.32.38.64.16,1-.13A8.14,8.14,0,0,0,42,27.49a13.94,13.94,0,0,0,1.35-2.3C43.43,25,43.51,24.85,43.6,24.68Z"/><path class="cls-3" d="M47.82,30.41a15.16,15.16,0,0,1-1.72.52,25.34,25.34,0,0,1-5.08.61h-1.2l-1.26,0c-.88,0-1.78-.11-2.69-.21l-1.09-.12L33.4,31A52.21,52.21,0,0,1,26,29.21c-.53-.16-1.06-.34-1.59-.52s-1-.37-1.55-.57c-.71-.27-1.42-.55-2.12-.85-.86-.37-1.71-.76-2.55-1.18L19.92,26h.28c.9.42,1.78.8,2.66,1.15.51.21,1,.41,1.53.59s1.22.43,1.82.63A39.7,39.7,0,0,0,33.49,30c.48.06,1,.11,1.43.14.79.07,1.57.1,2.33.11l1.14,0c.57,0,1.14,0,1.69-.09l.29,0h.07L41,30l.75-.1.46-.07q.91-.15,1.77-.36A12.85,12.85,0,0,0,45.57,29c3.44-1.28,4.8-3.86,3.92-7.06l-1,1.87a37.6,37.6,0,0,0-.69-5.4h0c-.16-.75-.35-1.53-.58-2.3a16.77,16.77,0,0,0-.82-2.19L52,17.52,51.15,19l-.61,1.1C53.56,24.58,52.84,28.53,47.82,30.41Z"/><path class="cls-3" d="M16.46,24.5l-1.66-.16-.25,0h0l-.91-.08-1.86-.18L11,24l-.25,0h0l-1-.1-.55-.05-.92-.09L8.53,22l.19-1.25-.89-.65L7.67,20C-1,13.31-2.66,6.4,4.51,3.72A16,16,0,0,1,6.24,3.2a27.87,27.87,0,0,1,8.45-.45c-.82.51-1.54,1-2,1.39a21.91,21.91,0,0,0-4.33.5,12.14,12.14,0,0,0-1.54.47C.84,7.32,1.6,12.76,7.89,18.27l0,0c.26.23.54.46.83.69l.06.05.15.12H9l.19-1.3.34-2.24.43.54,0,0,0,.05.26.33.05.07,3.56,4.53.15.2,1,1.28.68.86.48.61Z"/><path class="cls-3" d="M31.4,38.35l-3.72,4.4-1.3-.81-1-.6c-4.36,2.16-7.95,1.24-9.31-3.1a12.35,12.35,0,0,1-.35-1.48,15.52,15.52,0,0,1-.2-1.87c0-.38,0-.76,0-1.15,0-.62,0-1.27.09-1.93,0-.46.09-.92.15-1.39.1-.73.23-1.48.39-2.24.06-.3.12-.6.19-.9s.19-.75.29-1.13q.45-1.68,1.08-3.39c.49-1.32,1.05-2.65,1.69-4,.2-.41.41-.83.63-1.24s.41-.77.63-1.15c.5-.88,1-1.75,1.59-2.6l-.06,1.72c-.19.3-.38.6-.55.9s-.49.81-.71,1.22-.45.83-.66,1.24a33,33,0,0,0-1.92,4.56,26.7,26.7,0,0,0-.8,2.86c-.09.39-.17.79-.23,1.18-.12.66-.21,1.31-.27,1.94,0,.32-.05.64-.07.95,0,.48,0,1,0,1.42,0,.08,0,.17,0,.25v.06c0,.38,0,.76.05,1.13.05.57.11,1.13.19,1.67,0,.08,0,.16,0,.23a8.83,8.83,0,0,0,.21,1c0,.13.07.26.11.38a5.16,5.16,0,0,0,6.21,3.84l-1.64-1a39.12,39.12,0,0,0,5-.13h0A20.6,20.6,0,0,0,31.4,38.35Z"/><path class="cls-3" d="M44,12.8c-.2-.36-.41-.69-.59-1L42.88,11c0-.07,0-.14,0-.21a15.46,15.46,0,0,0-.16-3.45A10.36,10.36,0,0,0,42.42,6c-1.16-3.7-4.12-4.62-7.76-3.05a15.34,15.34,0,0,0-1.86,1l-.39.25-.63.44a19.48,19.48,0,0,0-1.6,1.28c-.25.21-.5.44-.75.68l-.12.11L30.49,7l2.05.46L32,7.73l0,0-.05,0L31.59,8l-.07,0-4.43,2.6-.2.11-1.25.74L24.8,12l-.6.35-.36.21.27-1.37,0-.21.15-.76.3-1.54L24.73,8l0-.2h0L24.93,7l.24-1.22,1.57.36,1.13.26h0c.26-.28.52-.56.78-.82A28.66,28.66,0,0,1,31.59,3c.4-.3.79-.58,1.18-.83C37.91-1.22,42.32-.7,43.86,4.23a10.36,10.36,0,0,1,.35,1.48A21.19,21.19,0,0,1,44,12.8Z"/></g></g></svg>