<?xml version="1.0" encoding="utf-8"?>
<!-- Generator: Adobe Illustrator 25.1.0, SVG Export Plug-In . SVG Version: 6.00 Build 0)  -->
<svg version="1.1" id="Layer_1" xmlns="http://www.w3.org/2000/svg" xmlns:xlink="http://www.w3.org/1999/xlink" x="0px" y="0px"
	 viewBox="0 0 186.5 46.8" style="enable-background:new 0 0 186.5 46.8;" xml:space="preserve">
<style type="text/css">
	.st0{fill:#F4F4F4;}
	.st1{fill:#080341;}
	.st2{fill:#ED4F65;}
	.st3{font-family:'Orkney-Bold';}
	.st4{font-size:34px;}
	.st5{fill:none;stroke:#F4F4F4;stroke-miterlimit:10;}
	.st6{letter-spacing:2;}
</style>
<g id="Layer_2_1_">
	<g id="Layer_1-2">
		<path class="st0" d="M24.4,27.7c-0.5-0.2-1-0.4-1.5-0.6c-0.9-0.4-1.8-0.7-2.7-1.1h-0.3l0.2,0.2c0.3,0.3,0.5,0.7,0.5,1
			c0.7,0.3,1.4,0.6,2.1,0.9c0.5,0.2,1,0.4,1.5,0.6s1.1,0.4,1.6,0.5c0.1-0.3,0.1-0.6,0.2-0.8C25.6,28.2,25,28,24.4,27.7z M24.4,27.7
			c-0.5-0.2-1-0.4-1.5-0.6c-0.9-0.4-1.8-0.7-2.7-1.1h-0.3l0.2,0.2c0.3,0.3,0.5,0.7,0.5,1c0.7,0.3,1.4,0.6,2.1,0.9
			c0.5,0.2,1,0.4,1.5,0.6s1.1,0.4,1.6,0.5c0.1-0.3,0.1-0.6,0.2-0.8C25.6,28.2,25,28,24.4,27.7z M24.4,27.7c-0.5-0.2-1-0.4-1.5-0.6
			c-0.9-0.4-1.8-0.7-2.7-1.1h-0.3l0.2,0.2c0.3,0.3,0.5,0.7,0.5,1c0.7,0.3,1.4,0.6,2.1,0.9c0.5,0.2,1,0.4,1.5,0.6s1.1,0.4,1.6,0.5
			c0.1-0.3,0.1-0.6,0.2-0.8C25.6,28.2,25,28,24.4,27.7z M24.4,27.7c-0.5-0.2-1-0.4-1.5-0.6c-0.9-0.4-1.8-0.7-2.7-1.1h-0.3l0.2,0.2
			c0.3,0.3,0.5,0.7,0.5,1c0.7,0.3,1.4,0.6,2.1,0.9c0.5,0.2,1,0.4,1.5,0.6s1.1,0.4,1.6,0.5c0.1-0.3,0.1-0.6,0.2-0.8
			C25.6,28.2,25,28,24.4,27.7z M24.4,27.7c-0.5-0.2-1-0.4-1.5-0.6c-0.9-0.4-1.8-0.7-2.7-1.1h-0.3l0.2,0.2c0.3,0.3,0.5,0.7,0.5,1
			c0.7,0.3,1.4,0.6,2.1,0.9c0.5,0.2,1,0.4,1.5,0.6s1.1,0.4,1.6,0.5c0.1-0.3,0.1-0.6,0.2-0.8C25.6,28.2,25,28,24.4,27.7z M43.4,11.8
			c-0.2-0.4-0.3-0.7-0.5-1C41,7.4,38.1,4.7,34.6,3c-0.6-0.3-1.2-0.6-1.9-0.8C23-1.3,12.3,3.8,8.9,13.6c-0.5,1.5-0.9,3.1-1,4.7
			c0,0.5-0.1,1-0.1,1.5v0.3c0.1,5.9,3,11.4,7.7,14.8c0.6,0.4,1.2,0.8,1.9,1.2c7.9,4.4,17.9,2.5,23.6-4.5c0.4-0.5,0.9-1.1,1.2-1.7
			C45.7,24.4,46.1,17.6,43.4,11.8L43.4,11.8z M41,30c-0.4,0.5-0.8,1-1.2,1.5c-0.2,0.3-0.5,0.5-0.7,0.8c-5.8,5.8-14.9,6.9-21.9,2.6
			c-0.6-0.4-1.1-0.7-1.7-1.2c-0.6-0.4-1.1-0.9-1.6-1.4c-2.3-2.3-4-5.3-4.7-8.5c-0.3-1.3-0.5-2.7-0.5-4c0-0.3,0-0.5,0-0.8
			c0.2-4.4,2-8.7,5.2-11.8L14.2,7c-0.1,0.2-0.1,0.4-0.2,0.6c-0.3,0.4-0.7,0.6-1,0.9c-0.3,0.4-0.4,0.8-0.6,1.2c0,0.4-0.1,0.9-0.2,1.3
			c-0.2,0.5-0.5,0.8-0.4,1.4c0.7,0.2,0.4-1.1,1-1.1c0.1,0.6,0.1,1.3,0,1.9c-0.1,0.7-0.2,0.9,0.2,1.5s0.5,0.8,1.1,0.9
			s0.9,0.3,1.1,0.9c0.5,0.1,0.7,0.2,0.8,0.7c0.2,0.2,0.5,0.4,0.8,0.5c0.3,0.1,0.8-0.4,1.1,0c0.5,0.6-0.6,2-0.8,2.5
			c-0.4,0.8-0.2,1.7,0.4,2.4c0.1,0.1,0.1,0.1,0.2,0.1c0.3,0.1,0.5,0.4,0.6,0.7c0.5-1.6,1.2-3.1,1.9-4.6c0.2-0.4,0.4-0.8,0.7-1.2
			s0.5-0.8,0.7-1.2c-0.2-0.1-0.3-0.1-0.5-0.1c-0.2,0-0.3,0-0.5,0.1c-0.1,0-0.2,0-0.3,0c-0.3,0-0.6-0.2-0.9-0.2s-0.5,0.3-0.7,0.4
			c-0.4,0.2-0.9,0.4-1.4,0.5c-0.8,0.1-0.9-0.1-0.9-0.9L16.4,16c0.3-0.8-0.2-0.9-0.8-1c-0.1-0.6,0.6-1,0.3-1.6
			c-0.6,0-1.2,1.6-1.7,0.9c-0.3-0.5,0.2-1.8,0.5-2.2c0.5-0.6,1.1-1,1.9-1.2c0.4-0.1,0.7,0.1,0.9,0.5c0.2,0.4,0,0.7,0,1.1
			c0.5-0.1,0.4-0.8,0.4-1.1c0-0.6,0.3-0.5,0.5-0.9s0.3-0.8,0.6-1.1s0.6-0.6,0.8-0.8s0.7-0.3,1-0.5c0.5-0.3-0.2-0.9,0.6-0.9
			c0.3,0,0.1,0.2,0.5,0.1C22,7.2,22.2,7.1,22.4,7c0.7-0.3,0.2-0.4-0.1-0.7s0.2-0.4,0.6-0.5s0.2-0.2,0.5,0s0.1,0.4,0.5,0.4
			c0.7,0,0.2-0.7,0.1-0.9c-0.3-0.4-0.3-0.6-0.9-0.7c0.1-0.2,0.1-0.4,0-0.6c-0.5,0.1-0.5-0.3-0.9-0.4c-0.6-0.2-0.5,0.2-0.7,0.6
			s-0.7,0.3-0.9,0.7s0,0.7-0.7,0.6C20,5.3,20,5,19.9,4.7c-0.2,0-0.4-0.1-0.6-0.1c0-0.7,0.8-0.7,1.3-0.8s0.8-0.6,1.3-0.8
			s0.8,0.7,1.4,0.2c0.3-0.2,0.2-0.4,0.1-0.6c-0.1-0.1-0.2-0.2-0.2-0.3l0,0c0.5-0.1,0.9-0.2,1.4-0.2c0.1,0.3,0.2,0.5,0.4,0.7
			c0.1,0.1,0.2,0.2,0.3,0.3S25,3.6,25.2,3.7s1.2-0.9,1.4-1.1s0.5-0.3,0.4-0.6c1.4,0,2.9,0.3,4.3,0.7c0.1,0.1,0.2,0.2,0.3,0.3
			l0.1,0.1c0.2,0.3,0.4,0.6,0.8,0.8c0.1,0,0.2,0,0.3,0.1c0.3,0.1,0.7,0.2,0.4,0.6s-0.7-0.2-0.8-0.3l0,0c-0.2-0.2-0.9-0.5-0.8,0.1
			c0,0.2,0.1,0.3,0.2,0.4C32.3,5,33.3,5.1,33,5.8c0.2,0.1,0.6,0.3,0.6,0.7S33,6.6,33,7.1c0.1,0.6,0.6,1.1,1.2,1c0.1,0,0.2,0,0.2,0
			c0.8-0.3,0.2-1.3,1-1.4c0.3,0,0.6,0.1,0.8,0.3c0.2,0.2,0.4,0.7,0.8,0.6C37.1,7.3,37,7.2,37,7c0.4,0.1,0.7,0.3,1,0.6
			C38.1,8,38.1,8.5,38.7,8c-0.1-0.1-0.1-0.2-0.2-0.3c0.7,0,1.3,0.3,1.5,0.9c0.7,1.4-1,0.3-1.1,1c-0.4-0.1-0.6-0.5-1-0.7
			c-0.2-0.1-0.5,0-0.6-0.1S37.2,8.5,37,8.4C36.4,7.8,35,8.7,34.4,9c-0.2,0.1-0.3,0.1-0.4,0.3s0.1,0.4,0,0.6s-0.6,0.6-0.7,0.9
			c-0.4,0.8,0.4,1.8,0.3,2.6c0,0.5-0.5,1-0.4,1.3c0.1,0.2,0.4,0.3,0.5,0.5c0.1,0.2,0.2,0.4,0.3,0.6c0.5,0.6,1,1.2,1.5,1.8
			c0.3,0.3,0.7,0.4,1.1,0.3c0.4-0.1,0.8-0.2,1.2-0.4c0.4-0.2,0.5-0.5,1-0.3s0.7,0.6,1.1,0.2c0.3,0.4,0,0.9-0.1,1.3
			c-0.1,0.5,0.1,1,0.4,1.3c0.3,0.3,0.5,0.8,0.4,1.2c-0.1,0.5-0.2,1-0.3,1.5s-0.4,0.9-0.4,1.4c0.1,0.5,0.2,0.9,0.2,1.4
			c0,0.5-0.1,1-0.2,1.4c-0.1,0.5-0.5,0.9-0.6,1.3c-0.2,0.5-0.1,1,0.2,1.4c0.3,0.4,0.6,0.2,1-0.1c0.6-0.7,1.2-1.4,1.6-2.3
			c0.5-0.7,1-1.5,1.3-2.3c0.1-0.2,0.2-0.3,0.2-0.5C43,26.6,42.2,28.4,41,30z M22.9,27.1c-0.9-0.4-1.8-0.7-2.7-1.1h-0.3l0.2,0.2
			c0.3,0.3,0.5,0.7,0.5,1c0.7,0.3,1.4,0.6,2.1,0.9c0.5,0.2,1,0.4,1.5,0.6s1.1,0.4,1.6,0.5c0.1-0.3,0.1-0.6,0.2-0.8
			c-0.6-0.2-1.2-0.4-1.8-0.6S23.4,27.4,22.9,27.1z M24.4,27.7c-0.5-0.2-1-0.4-1.5-0.6c-0.9-0.4-1.8-0.7-2.7-1.1h-0.3l0.2,0.2
			c0.3,0.3,0.5,0.7,0.5,1c0.7,0.3,1.4,0.6,2.1,0.9c0.5,0.2,1,0.4,1.5,0.6s1.1,0.4,1.6,0.5c0.1-0.3,0.1-0.6,0.2-0.8
			C25.6,28.2,25,28,24.4,27.7z M24.4,27.7c-0.5-0.2-1-0.4-1.5-0.6c-0.9-0.4-1.8-0.7-2.7-1.1h-0.3l0.2,0.2c0.3,0.3,0.5,0.7,0.5,1
			c0.7,0.3,1.4,0.6,2.1,0.9c0.5,0.2,1,0.4,1.5,0.6s1.1,0.4,1.6,0.5c0.1-0.3,0.1-0.6,0.2-0.8C25.6,28.2,25,28,24.4,27.7z M24.4,27.7
			c-0.5-0.2-1-0.4-1.5-0.6c-0.9-0.4-1.8-0.7-2.7-1.1h-0.3l0.2,0.2c0.3,0.3,0.5,0.7,0.5,1c0.7,0.3,1.4,0.6,2.1,0.9
			c0.5,0.2,1,0.4,1.5,0.6s1.1,0.4,1.6,0.5c0.1-0.3,0.1-0.6,0.2-0.8C25.6,28.2,25,28,24.4,27.7z M24.4,27.7c-0.5-0.2-1-0.4-1.5-0.6
			c-0.9-0.4-1.8-0.7-2.7-1.1h-0.3l0.2,0.2c0.3,0.3,0.5,0.7,0.5,1c0.7,0.3,1.4,0.6,2.1,0.9c0.5,0.2,1,0.4,1.5,0.6s1.1,0.4,1.6,0.5
			c0.1-0.3,0.1-0.6,0.2-0.8C25.6,28.2,25,28,24.4,27.7z"/>
		<path class="st1" d="M17.5,22.6c0.1,0.1,0.1,0.1,0.2,0.1c-0.4,1.1-0.8,2.3-1.1,3.4c-0.1,0.4-0.2,0.8-0.3,1.1s-0.1,0.6-0.2,0.9
			c-0.2,0.8-0.3,1.5-0.4,2.2c-0.1,0.5-0.1,0.9-0.1,1.4c-0.1,0.7-0.1,1.3-0.1,1.9c-0.6-0.4-1.1-0.9-1.6-1.4c-2.4-2.3-4-5.3-4.7-8.5
			l0.6,0l1,0.1l0,0L11,24l0.8,0.1l1.9,0.2l0.9,0.1l0,0h0.2l1.7,0.2l-0.3-0.4l-0.5-0.6L15,22.7l-1-1.3l-0.1-0.2l-3.6-4.5l-0.1-0.1
			L10,16.2v0l0,0l-0.4-0.5l-0.3,2.2L9,19.2l0,0L8.8,19H8.8c0.2-4.4,2-8.7,5.2-11.8L14.2,7c-0.1,0.2-0.1,0.4-0.2,0.6
			c-0.3,0.4-0.7,0.6-1,0.9c-0.3,0.4-0.4,0.8-0.6,1.2c0,0.4-0.1,0.9-0.2,1.3c-0.2,0.5-0.5,0.8-0.4,1.4c0.7,0.2,0.4-1.1,1-1.1
			c0.1,0.6,0.1,1.3,0,1.9c-0.1,0.7-0.2,0.9,0.2,1.5s0.5,0.8,1.1,0.9s0.9,0.3,1.1,0.9c0.5,0.1,0.7,0.2,0.8,0.7
			c0.2,0.2,0.5,0.4,0.8,0.5c0.3,0.1,0.8-0.4,1.1,0c0.5,0.6-0.6,2-0.8,2.5C16.7,21.1,16.9,22,17.5,22.6z"/>
		<path class="st1" d="M43.6,24.7C43,26.6,42.2,28.4,41,30l-0.6,0.1h-0.1H40c-0.5,0-1.1,0.1-1.7,0.1h-1.1c-0.8,0-1.5,0-2.3-0.1
			c-0.5,0-1-0.1-1.4-0.1c-2.5-0.3-4.9-0.8-7.3-1.6c-0.6-0.2-1.2-0.4-1.8-0.6s-1-0.4-1.5-0.6c-0.8-0.3-1.7-0.7-2.6-1.1h-0.3l-1.8,0.1
			c0.8,0.4,1.7,0.8,2.5,1.2c0.7,0.3,1.4,0.6,2.1,0.9c0.5,0.2,1,0.4,1.5,0.6s1.1,0.4,1.6,0.5c2.4,0.8,4.9,1.4,7.4,1.8l1.4,0.2
			l1.1,0.1c0.9,0.1,1.8,0.2,2.7,0.2h1.3c-0.2,0.3-0.5,0.5-0.7,0.8c-5.8,5.8-14.9,6.9-21.9,2.6c-0.1-0.5-0.1-1.1-0.2-1.7
			c0-0.4,0-0.8,0-1.1V32c0-0.1,0-0.2,0-0.2c0-0.5,0-0.9,0-1.4c0-0.3,0-0.6,0.1-1c0.1-0.6,0.1-1.3,0.3-1.9c0.1-0.4,0.1-0.8,0.2-1.2
			c0.2-1,0.5-1.9,0.8-2.9c0.5-1.6,1.2-3.1,1.9-4.6c0.2-0.4,0.4-0.8,0.7-1.2s0.5-0.8,0.7-1.2s0.4-0.6,0.5-0.9l0.1-1.7
			c-0.6,0.9-1.1,1.7-1.6,2.6c-0.1,0-0.2,0-0.3,0c-0.3,0-0.6-0.2-0.9-0.2s-0.5,0.3-0.7,0.4c-0.4,0.2-0.9,0.4-1.4,0.5
			c-0.8,0.1-0.9-0.1-0.9-0.9L16.4,16c0.3-0.8-0.2-0.9-0.8-1c-0.1-0.6,0.6-1,0.3-1.6c-0.6,0-1.2,1.6-1.7,0.9
			c-0.3-0.5,0.2-1.8,0.5-2.2c0.5-0.6,1.1-1,1.9-1.2c0.4-0.1,0.7,0.1,0.9,0.5c0.2,0.4,0,0.7,0,1.1c0.5-0.1,0.4-0.8,0.4-1.1
			c0-0.6,0.3-0.5,0.5-0.9s0.3-0.8,0.6-1.1s0.6-0.6,0.8-0.8s0.7-0.3,1-0.5c0.5-0.3-0.2-0.9,0.6-0.9c0.3,0,0.1,0.2,0.5,0.1
			C22,7.2,22.2,7.1,22.4,7c0.7-0.3,0.2-0.4-0.1-0.7s0.2-0.4,0.6-0.5s0.2-0.2,0.5,0s0.1,0.4,0.5,0.4c0.7,0,0.2-0.7,0.1-0.9
			c-0.3-0.4-0.3-0.6-0.9-0.7c0.1-0.2,0.1-0.4,0-0.6c-0.5,0.1-0.5-0.3-0.9-0.4c-0.6-0.2-0.5,0.2-0.7,0.6s-0.7,0.3-0.9,0.7
			s0,0.7-0.7,0.6C20,5.3,20,5,19.9,4.7c-0.2,0-0.4-0.1-0.6-0.1c0-0.7,0.8-0.7,1.3-0.8s0.8-0.6,1.3-0.8s0.8,0.7,1.4,0.2
			c0.3-0.2,0.2-0.4,0.1-0.6c-0.1-0.1-0.2-0.2-0.2-0.3l0,0c0.5-0.1,0.9-0.2,1.4-0.2c0.1,0.3,0.2,0.5,0.4,0.7c0.1,0.1,0.2,0.2,0.3,0.3
			S25,3.6,25.2,3.7s1.2-0.9,1.4-1.1s0.5-0.3,0.4-0.6c1.4,0,2.9,0.3,4.3,0.7c0.1,0.1,0.2,0.2,0.3,0.3c-1,0.8-2,1.6-2.9,2.6
			c-0.3,0.3-0.5,0.5-0.8,0.8l0,0l-1.1-0.3l-1.6-0.4L24.9,7l-0.2,0.8l0,0V8l-0.1,0.6l-0.3,1.5L24.2,11v0.2l-0.3,1.4l0.4-0.2l0.6-0.4
			l0.8-0.5l1.2-0.7l0.2-0.1L31.5,8h0.1l0.3-0.2h0l0,0l0.5-0.3l-2-0.5l-1.2-0.3l0.1-0.1c0.2-0.2,0.5-0.5,0.8-0.7
			c0.5-0.5,1-0.9,1.6-1.3c0.5,0.4,1.5,0.5,1.2,1.2c0.2,0.1,0.6,0.3,0.6,0.7S33,6.6,33,7.1c0.1,0.6,0.6,1.1,1.2,1c0.1,0,0.2,0,0.2,0
			c0.8-0.3,0.2-1.3,1-1.4c0.3,0,0.6,0.1,0.8,0.3c0.2,0.2,0.4,0.7,0.8,0.6c0-0.2-0.1-0.4-0.2-0.6c0.4,0.1,0.7,0.3,1,0.6
			C38.1,8,38.1,8.5,38.7,8c-0.1-0.1-0.1-0.2-0.2-0.3c0.7,0,1.3,0.3,1.5,0.9c0.7,1.4-1,0.3-1.1,1c-0.4-0.1-0.6-0.5-1-0.7
			c-0.2-0.1-0.5,0-0.6-0.1S37.2,8.5,37,8.4c-0.6-0.5-2.1,0.3-2.6,0.6c-0.2,0.1-0.3,0.1-0.4,0.3s0.1,0.4,0,0.6s-0.6,0.6-0.7,0.9
			c-0.4,0.8,0.4,1.8,0.3,2.6c0,0.5-0.5,1-0.4,1.3c0.1,0.2,0.4,0.3,0.5,0.5c0.1,0.2,0.2,0.4,0.3,0.6c0.5,0.6,1,1.2,1.5,1.8
			c0.3,0.3,0.7,0.4,1.1,0.3c0.4-0.1,0.8-0.2,1.2-0.4c0.4-0.2,0.5-0.5,1-0.3s0.7,0.6,1.1,0.2c0.3,0.4,0,0.9-0.1,1.3
			c-0.1,0.5,0.1,1,0.4,1.3c0.3,0.3,0.5,0.8,0.4,1.2c-0.1,0.5-0.2,1-0.3,1.5s-0.4,0.9-0.4,1.4c0.1,0.5,0.2,0.9,0.3,1.4
			c0,0.5-0.1,1-0.2,1.4c-0.1,0.5-0.5,0.9-0.6,1.3c-0.2,0.5-0.1,1,0.2,1.4c0.3,0.4,0.6,0.2,1-0.1c0.6-0.7,1.2-1.4,1.6-2.3
			c0.5-0.7,1-1.5,1.3-2.3C43.4,25,43.5,24.9,43.6,24.7z"/>
		<path class="st2" d="M47.8,30.4c-0.6,0.2-1.1,0.4-1.7,0.5c-1.7,0.4-3.4,0.6-5.1,0.6h-1.2h-1.3c-0.9,0-1.8-0.1-2.7-0.2l-1.1-0.1
			L33.4,31c-2.5-0.4-5-1-7.4-1.8c-0.5-0.2-1.1-0.3-1.6-0.5s-1-0.4-1.5-0.6c-0.7-0.3-1.4-0.5-2.1-0.9c-0.9-0.4-1.7-0.8-2.5-1.2
			l1.7-0.1h0.3c0.9,0.4,1.7,0.7,2.6,1.1c0.5,0.2,1,0.4,1.5,0.6s1.2,0.4,1.8,0.6c2.4,0.8,4.8,1.3,7.3,1.6C33.9,30,34.5,30,35,30
			c0.8,0.1,1.4,0.1,2.2,0.1l1.2,0c0.6,0,1.1,0,1.6-0.1l0.2,0h0.2L41,30l0.8-0.1l0.5-0.1c0.6-0.1,1.2-0.2,1.8-0.4
			c0.5-0.1,1.1-0.3,1.6-0.5c3.4-1.3,4.8-3.9,3.9-7.1l-1,1.9c-0.1-1.8-0.3-3.6-0.7-5.4l0,0c-0.2-0.8-0.3-1.5-0.6-2.3
			c-0.2-0.7-0.5-1.5-0.8-2.2l5.6,3.6L51.2,19l-0.6,1.1C53.6,24.6,52.8,28.5,47.8,30.4z"/>
		<path class="st2" d="M16.5,24.5l-1.7-0.2h-0.2l0,0l-0.9-0.1l-1.9-0.2L11,24h-0.2l0,0l-1-0.1l-0.6,0l-0.9-0.1L8.5,22l0.2-1.2
			l-0.9-0.6L7.7,20C-1,13.3-2.7,6.4,4.5,3.7c0.6-0.2,1.1-0.4,1.7-0.5c2.8-0.6,5.6-0.7,8.4-0.5c-0.8,0.5-1.5,1-2,1.4
			c-1.5,0-2.9,0.2-4.3,0.5c-0.5,0.1-1,0.3-1.5,0.5c-6,2.2-5.2,7.7,1.1,13.2l0,0c0.3,0.2,0.5,0.5,0.8,0.7l0.1,0l0.1,0.1H9l0.2-1.3
			l0.3-2.2l0.4,0.5l0,0v0l0.3,0.3l0.1,0.1l3.6,4.5l0.1,0.2l1,1.3l0.7,0.9l0.5,0.6L16.5,24.5z"/>
		<path class="st2" d="M31.4,38.3l-3.7,4.4l-1.3-0.8l-1-0.6c-4.4,2.2-8,1.2-9.3-3.1c-0.1-0.5-0.3-1-0.4-1.5
			c-0.1-0.6-0.2-1.2-0.2-1.9c0-0.4,0-0.8,0-1.2c0-0.6,0-1.3,0.1-1.9c0-0.5,0.1-0.9,0.1-1.4c0.1-0.7,0.2-1.5,0.4-2.2
			c0.1-0.3,0.1-0.6,0.2-0.9s0.2-0.8,0.3-1.1c0.3-1.1,0.7-2.2,1.1-3.4c0.5-1.3,1-2.6,1.7-4c0.2-0.4,0.4-0.8,0.6-1.2s0.4-0.8,0.6-1.1
			c0.5-0.9,1-1.8,1.6-2.6l-0.1,1.7c-0.2,0.3-0.4,0.6-0.5,0.9s-0.5,0.8-0.7,1.2s-0.5,0.8-0.7,1.2c-0.8,1.5-1.4,3-1.9,4.6
			c-0.3,0.9-0.6,1.9-0.8,2.9c-0.1,0.4-0.2,0.8-0.2,1.2c-0.1,0.7-0.2,1.3-0.3,1.9c0,0.3,0,0.6-0.1,1c0,0.5,0,1,0,1.4
			c0,0.1,0,0.2,0,0.2v0.1c0,0.4,0,0.8,0,1.1c0,0.6,0.1,1.1,0.2,1.7c0,0.1,0,0.2,0,0.2c0.1,0.3,0.1,0.7,0.2,1c0,0.1,0.1,0.3,0.1,0.4
			c0.7,2.8,3.4,4.5,6.2,3.8c0,0,0,0,0,0l-1.6-1c1.7,0.1,3.3,0,5-0.1l0,0C28.6,39.1,30,38.8,31.4,38.3z"/>
		<path class="st2" d="M44,12.9c-0.2-0.4-0.4-0.7-0.6-1l-0.5-0.8c0-0.1,0-0.1,0-0.2c0.1-1.2,0-2.3-0.2-3.5c-0.1-0.5-0.2-0.9-0.3-1.4
			c-1.2-3.7-4.1-4.7-7.8-3.1c-0.6,0.3-1.3,0.6-1.9,1l-0.4,0.3l-0.6,0.4c-0.6,0.4-1.1,0.8-1.6,1.3c-0.2,0.2-0.5,0.4-0.8,0.7l-0.1,0.1
			L30.5,7l2,0.5l-0.4,0.3l-0.1,0l-0.1,0l-0.4,0.2h-0.1l-4.4,2.6l-0.2,0.1l-1.2,0.7l-0.8,0.6l-0.6,0.4l-0.4,0.2l0.3-1.4v-0.2l0.1-0.8
			l0.3-1.6l0.2-0.7V7.9l0,0l0.2-0.8l0.3-1.3l1.6,0.4l1.1,0.3l0,0c0.3-0.3,0.5-0.5,0.7-0.8c0.9-0.9,1.9-1.8,3-2.6
			c0.4-0.3,0.8-0.6,1.2-0.8c5.1-3.4,9.5-2.9,11.1,2.1c0.2,0.5,0.3,1,0.3,1.5C44.5,8.1,44.5,10.6,44,12.9z"/>
		<text transform="matrix(1 0 0 1 58.51 33.91)" class="st0 st3 st4">A</text>
		<text transform="matrix(1 0 0 1 58.51 33.91)" class="st5 st3 st4">A</text>
		<text transform="matrix(1 0 0 1 84.49 33.91)" class="st0 st3 st4 st6">TENA</text>
		<text transform="matrix(1 0 0 1 84.49 33.91)" class="st5 st3 st4 st6">TENA</text>
	</g>
</g>
</svg>
