<svg xmlns="http://www.w3.org/2000/svg" viewBox="0 0 467 119.02"><defs><style>.cls-1{fill:#222;}.cls-2{fill:#fff;}.cls-3{font-size:70px;fill:#231f20;font-family:Poppins-Bold, Poppins;font-weight:700;}</style></defs><title>LOGOFULLADS</title><g id="Layer_2" data-name="Layer 2"><g id="Layer_3" data-name="Layer 3"><circle class="cls-1" cx="55" cy="55" r="55"/><ellipse class="cls-2" cx="43" cy="39.84" rx="8.95" ry="13.23" transform="translate(-5.34 6.68) rotate(-8.37)"/><ellipse class="cls-2" cx="66.75" cy="39.82" rx="13.23" ry="8.95" transform="translate(17.64 100.07) rotate(-81.63)"/><ellipse class="cls-2" cx="86.51" cy="55.23" rx="9.86" ry="6.82" transform="translate(-13.71 77.35) rotate(-45)"/><ellipse class="cls-2" cx="23.51" cy="55.22" rx="6.82" ry="9.86" transform="translate(-32.16 32.79) rotate(-45)"/><path class="cls-2" d="M55.09,54.27c5.5.37,24.77,13.78,24.77,13.78"/><path class="cls-2" d="M55.09,80.09s-11.73-1-16.86.36c0,0-4.46,2.41-7.59,0a10.15,10.15,0,0,1-3.78-4.81s-1-3.78,1.37-6.55c0,0,21.36-15.14,26.86-14.82"/><path class="cls-2" d="M54.86,80.09s11.73-1,16.87.36c0,0,4.45,2.41,7.59,0a10.17,10.17,0,0,0,3.77-4.81s1-3.78-1.36-6.55c0,0-21.37-15.14-26.87-14.82"/><text class="cls-3" transform="translate(124.6 76.6)">ADS BEAR</text></g></g></svg>