<?xml version="1.0" encoding="utf-8"?>
<!-- Generator: Adobe Illustrator 25.1.0, SVG Export Plug-In . SVG Version: 6.00 Build 0)  -->
<svg version="1.1" id="Layer_1" xmlns="http://www.w3.org/2000/svg" xmlns:xlink="http://www.w3.org/1999/xlink" x="0px" y="0px"
	 viewBox="0 0 179.8 238" style="enable-background:new 0 0 179.8 238;" xml:space="preserve">
<style type="text/css">
	.st0{fill:#231F20;}
	.st1{fill:none;}
	.st2{fill:#FFFFFF;stroke:#FFFFFF;stroke-miterlimit:10;}
	.st3{fill:#EE3B77;}
	.st4{fill:#F9F9FA;}
	.st5{fill:#282627;}
	.st6{font-family:'BasementGrotesque-Black';}
	.st7{font-size:18px;}
	.st8{font-size:6px;}
	.st9{fill:none;stroke:#E2E2E2;stroke-miterlimit:10;}
</style>
<g id="Layer_2_1_">
	<g id="Layer_2-2">
		<path class="st0" d="M102.2,12.5L102.2,12.5C102.1,5.9,96.6,0.6,90,0.8S78.1,6.4,78.2,13c0,3.8,1.7,7.4,4.6,9.9
			c0.3-0.1,0.6-0.2,0.9-0.3l0.7-0.2c0.3-0.1,0.6-0.2,0.9-0.2l1-0.2l0.3,0l1-0.1c-1.8-0.8-3.2-2.4-3.9-4.2c-0.1-0.4-0.3-0.8-0.3-1.2
			l0,0c-0.1-0.4-0.1-0.9-0.1-1.4c0-2.7,1.4-5.1,3.8-6.5c1.1-0.7,2.5-1,3.8-1c4.1,0,7.5,3.4,7.5,7.5c0,3.2-2.1,6.1-5.1,7.1
			c0.3,0.1,0.6,0.2,0.9,0.3s0.6,0.2,0.9,0.3c0.2,0.1,0.4,0.2,0.6,0.3c0.4,0.2,0.7,0.4,1.1,0.6c0.3-0.2,0.7-0.5,1-0.8
			c3-2.4,4.7-6.1,4.6-9.9C102.2,12.8,102.2,12.7,102.2,12.5z"/>
		<path class="st1" d="M45.2,151c-0.2,16.4,8.7,31.6,23,39.5c3.8,2.1,8,3.5,12.3,4.3"/>
		<path class="st1" d="M87.1,232L87.1,232"/>
		<path class="st1" d="M82.7,227.9c-7.6-8.7-7.2-21.8,1-30"/>
		<path class="st0" d="M179.2,160.5c0,41.8-29.5,75.8-66.2,76.9l0.4-1.4l10.8-38.7l1.2-4.3c4.5-10.6,6.8-22,6.8-33.6
			c0-23.8-9.5-45.1-24.5-59.2c-5.5-5.2-11.8-9.5-18.8-12.6c1.6-0.7,3.3-1.2,4.9-1.7l0.7-0.2l0,0c13.2-3.8,27.3-2.9,40,2.3l0.8,0.3
			l31.3,27.4C175,129.3,179.4,144.8,179.2,160.5z"/>
		<path class="st2" d="M107.8,237.3c1.9-0.2,3.9-0.6,5.7-1.2l-0.4,1.4h-0.8h-1.1c-0.5,0-0.9,0-1.4,0
			C109.2,237.4,108.4,237.4,107.8,237.3z"/>
		<path class="st3" d="M125.4,193.1l-1.2,4.3l-0.5-0.5C124.3,195.6,124.9,194.4,125.4,193.1z"/>
		<path class="st0" d="M131.2,213.5c0,10.4-7.4,19.2-17.8,22.6l10.8-38.7C128.7,201.6,131.2,207.4,131.2,213.5z"/>
		<path class="st0" d="M113.5,236.1c-1.9,0.6-3.8,1-5.7,1.2c-6-0.6-11.7-3.2-16.1-7.3c13.6-6.8,24.9-18.5,32.1-33.1l0.5,0.5
			c4.4,4.2,6.9,10,7,16.1"/>
		<path class="st0" d="M114.2,235.6l-0.6,1.9l-6.4-0.2L114.2,235.6z"/>
		<path class="st1" d="M98.7,232L98.7,232"/>
		<path class="st0" d="M89.2,71.8c-3.2,4.5-6.8,8.6-10.8,12.4c-12.3-2.9-25.2-2-36.9,2.7c-2.4-9.9,2.1-25.6,12.5-40.2
			c8.7-12.2,19.5-20.8,28.8-23.8c3.9,3.2,9.5,3.5,13.7,0.8c0.1,0.1,0.2,0.1,0.3,0.2C106.6,30.8,103.2,52.2,89.2,71.8z"/>
		<path class="st0" d="M96.6,23.6c-4.3,2.8-9.8,2.5-13.7-0.8c0.3-0.1,0.6-0.2,0.9-0.3l0.7-0.2c0.3-0.1,0.6-0.1,0.9-0.2l1-0.2l0.3,0
			l1-0.1c1,0.5,2.1,0.7,3.1,0.7c0.8,0,1.6-0.1,2.4-0.4l0,0c0.3,0.1,0.6,0.2,0.9,0.3s0.6,0.2,0.9,0.3c0.2,0.1,0.4,0.2,0.6,0.3
			C95.9,23.2,96.2,23.4,96.6,23.6z"/>
		<path class="st0" d="M135.4,88.5c13,5.8,23.9,15.3,31.3,27.4L135.4,88.5z"/>
		<path class="st0" d="M102.2,12.5l39,8v10l36,8v17c0,0-7,13-17,10c0,0-26,14-26,25l-54.8-6.1l18.2-61.6L102.2,12.5z"/>
		<polygon class="st3" points="95.8,86.1 89.8,88 77.8,84 80.9,82 		"/>
		<circle class="st4" cx="121.8" cy="32" r="4"/>
		<path class="st4" d="M98.2,15c0,3.2-2.1,6.1-5.1,7.1l0,0c-0.8,0.3-1.6,0.4-2.4,0.4c-1.1,0-2.2-0.2-3.1-0.7
			c-1.8-0.8-3.2-2.4-3.9-4.2c-0.1-0.4-0.3-0.8-0.3-1.2c0.8,1.2,1.9,2.2,3.2,2.8c-0.6-0.6-1.1-1.3-1.4-2.1c-1.2-2.9-0.5-6.3,1.8-8.5
			c1.1-0.7,2.5-1,3.8-1C94.9,7.5,98.3,10.9,98.2,15L98.2,15z"/>
		<path class="st4" d="M95.2,7.2c-1.9-0.9-4.2-0.9-6.1-0.1c-3.8,1.6-5.6,6-4,9.8c0,0,0,0,0,0.1c0.3,0.8,0.8,1.5,1.4,2.2
			c-1.3-0.6-2.5-1.6-3.2-2.8l0,0c-2.2-3.5-1.1-8.2,2.4-10.3c2.6-1.6,6-1.5,8.4,0.3C94.6,6.6,94.9,6.9,95.2,7.2z"/>
		<ellipse class="st5" cx="73.5" cy="155" rx="73.5" ry="77"/>
		<text transform="matrix(1 0 0 1 21.5 156.8421)" class="st4 st6 st7">ADSBEAR</text>
		<text transform="matrix(1 0 0 1 34.35 173.2421)" class="st4 st6 st8">IGAMING </text>
		<text transform="matrix(1 0 0 1 67.04 173.2421)" class="st4 st6 st8">A</text>
		<text transform="matrix(1 0 0 1 72.17 173.2421)" class="st4 st6 st8">ND S</text>
		<text transform="matrix(1 0 0 1 88.98 173.2421)" class="st4 st6 st8">P</text>
		<text transform="matrix(1 0 0 1 93.63 173.2421)" class="st4 st6 st8">ORTS </text>
		<text transform="matrix(1 0 0 1 25.11 180.4421)" class="st4 st6 st8">BETTING LEAD GENER</text>
		<text transform="matrix(1 0 0 1 100.85 180.4421)" class="st4 st6 st8">A</text>
		<text transform="matrix(1 0 0 1 105.44 180.4421)" class="st4 st6 st8">TION</text>
		<path class="st0" d="M97.1,25.2c0.8,0,1.5-0.7,1.5-1.5s-0.7-1.5-1.5-1.5s-1.5,0.7-1.5,1.5S96.3,25.2,97.1,25.2z"/>
		<circle class="st4" cx="15.2" cy="149.5" r="2"/>
		<circle class="st4" cx="131.2" cy="149.5" r="2"/>
		<ellipse class="st9" cx="73.2" cy="155" rx="65.9" ry="69"/>
	</g>
</g>
</svg>
