<?xml version="1.0" encoding="utf-8"?>
<!-- Generator: Adobe Illustrator 25.1.0, SVG Export Plug-In . SVG Version: 6.00 Build 0)  -->
<svg version="1.1" id="Layer_1" xmlns="http://www.w3.org/2000/svg" xmlns:xlink="http://www.w3.org/1999/xlink" x="0px" y="0px"
	 viewBox="0 0 627.7 511.5" style="enable-background:new 0 0 627.7 511.5;" xml:space="preserve">
<style type="text/css">
	.st0{fill:#231F20;}
	.st1{fill:#FFFFFF;}
</style>
<g id="Layer_2_1_">
	<g id="Layer_3">
		<path class="st0" d="M307.2,343.9c0,0,23.1,9.9,30-10c9-26,3-36,3-36s-23.7-55.3-62-17c-39,39,35,82,35,82s91,77,127,50l-4,26
			c0,0-38,12-90-15"/>
		<path class="st0" d="M346.2,423.9c0,0-19,82-26,85c-21.2,9.1-115-1-90-28s67-37,67-37s15.8,12.6,29-5c3-4-11-2-11-2s-16-1-11-1
			s-6-7-12-8c-5.8-1-39.6,7.9-52,12l-18,6c0,0-31,15-34-20s13-44,13-44s18-41,71-26"/>
		<circle class="st1" cx="319.2" cy="304.9" r="7"/>
		<path class="st0" d="M439.1,417.3c0,0,10.7-1.2,11.1-4.9c0.3-3,2.8-8.2,3.7-10.1c0.2-0.4,0.6-0.8,1-1c5.6-2.7,12.7-16.2,15.2-21.2
			c0.5-0.9,1.6-1.3,2.5-0.9c0.1,0.1,0.3,0.2,0.4,0.3c3.2,2.9,7.9,11.9-5.6,37.6c-0.3,0.5-0.7,1-1.2,1.3c-2.3,1.5-9.6,6.1-12.8,6.5
			h-0.1L436.6,436L439.1,417.3z"/>
		<path class="st0" d="M119.2,74.9c0,0,23.1,9.9,30-10c9-26,3-36,3-36s-19-50-62-17c-45.8,35.2,35,82,35,82s91,77,127,50l-4,26
			c0,0-38,12-90-15"/>
		<path class="st0" d="M158.2,154.9c0,0-19,82-26,85c-21.2,9.1-115-1-90-28s67-37,67-37s15.8,12.6,29-5c3-4-11-2-11-2s-16-1-11-1
			s-6-7-12-8c-5.8-1-39.6,7.9-52,12l-18,6c0,0-31,15-34-20s13-44,13-44s18-41,71-26"/>
		<circle class="st1" cx="131.2" cy="35.9" r="7"/>
		<path class="st0" d="M250.1,148.3c0,0,10.7-1.2,11.1-4.9c0.3-3,2.8-8.2,3.7-10.1c0.2-0.4,0.6-0.8,1-1c5.6-2.7,12.7-16.2,15.2-21.2
			c0.5-0.9,1.6-1.3,2.5-0.9c0.1,0.1,0.3,0.2,0.4,0.3c3.2,2.9,7.9,11.8-5.6,37.6c-0.3,0.5-0.7,1-1.2,1.3c-2.3,1.5-9.6,6.1-12.8,6.4
			h-0.1l-16.8,11.6L250.1,148.3z"/>
		<path class="st0" d="M464.4,110.4c-3.6-2.2-19-11.8-31.4-24.7L464.4,110.4z"/>
		<circle class="st0" cx="471.2" cy="52.9" r="7"/>
		<polygon class="st0" points="471.2,115.7 498.2,171.9 470.6,115.2 		"/>
		<path class="st0" d="M591.5,165.2l-1.2,7.6l0.8-7.5L591.5,165.2z"/>
		<g>
			<path class="st0" d="M465.1,110.8c0,0,1.6,1.4,4.5,3.7l0.9,0.7l-11.4-23.4c0,0,23.1,9.9,30-10c9-26,3-36,3-36s-19-50-62-17
				c-24.2,18.6-13.1,40.4,2.8,56.8l31.4,24.7C464.8,110.7,465.1,110.8,465.1,110.8z M471.2,45.9c3.9,0,7,3.1,7,7c0,3.9-3.1,7-7,7
				c-3.9,0-7-3.1-7-7C464.2,49,467.3,45.9,471.2,45.9z"/>
			<path class="st0" d="M471.2,115.7l27,56.1c52,27,90,15,90,15l2.2-14v-0.1l0.8-7.5l0.4-0.1l0.7-4.4
				C561.7,183.7,492,132.2,471.2,115.7z"/>
			<path class="st0" d="M469.6,114.5l-5.3-4.1c-4.4-3.4-17.4-13.2-31.4-24.7l-8.8,18.2c-53-15-71,26-71,26s-16,9-13,44s34,20,34,20
				l18-6c12.4-4.1,46.2-13,52-12c6,1,17,8,12,8s11,1,11,1s14-2,11,2c-13.2,17.6-29,5-29,5s-42,10-67,37s68.8,37.1,90,28
				c7-3,26-85,26-85l-27.6-56.6L469.6,114.5z"/>
		</g>
		<polygon class="st0" points="498.2,171.9 470.6,115.2 470.6,115.2 		"/>
		<circle class="st1" cx="471.2" cy="52.9" r="7"/>
		<path class="st0" d="M618.4,166c-0.3,0.5-0.7,1-1.2,1.3c-2.3,1.5-9.6,6.1-12.8,6.5h-0.1L588.2,185l1.1-11.1v-0.1l0.8-7.5l0.4-0.1
			c2-0.3,10.3-1.6,10.7-4.9c0.3-3,2.8-8.2,3.7-10.1c0.2-0.4,0.6-0.8,1-1c5.7-2.7,12.7-16.2,15.2-21.1c0.4-0.9,1.6-1.3,2.5-0.9
			c0.1,0.1,0.3,0.2,0.4,0.3C627.2,131.3,631.9,140.3,618.4,166z"/>
	</g>
</g>
<rect x="448.4" y="77.6" transform="matrix(0.6624 -0.7491 0.7491 0.6624 77.0835 371.6913)" class="st0" width="5.2" height="45.4"/>
<polygon class="st0" points="499.9,170.7 495.1,172.9 471,122.5 468.7,111.7 "/>
</svg>
