<svg xmlns="http://www.w3.org/2000/svg" viewBox="0 0 1005.66 260.52"><defs><style>.cls-1,.cls-3{fill:#231f20;}.cls-1,.cls-2{stroke:#0b0b0b;}.cls-1,.cls-2,.cls-3,.cls-4{stroke-miterlimit:10;}.cls-2,.cls-4{fill:#fff;}.cls-3,.cls-4{stroke:#000;}</style></defs><g id="Layer_2" data-name="Layer 2"><g id="Layer_3" data-name="Layer 3"><path class="cls-1" d="M835.87,85.77s23.1,9.93,30-10c9-26,3-36,3-36s-23.67-55.33-62-17c-39,39,35,82,35,82s91,77,127,50l-4,26s-38,12-90-15"/><path class="cls-1" d="M874.87,165.77s-19,82-26,85c-21.16,9.06-115-1-90-28s67-37,67-37,15.83,12.56,29-5c3-4-11-2-11-2s-16-1-11-1-6-7-12-8c-5.75-1-39.63,7.87-52,12l-18,6s-31,15-34-20,13-44,13-44,18-41,71-26"/><circle class="cls-2" cx="847.87" cy="46.77" r="7"/><path class="cls-1" d="M967.8,159.19s10.69-1.19,11.07-4.93c.3-3,2.76-8.2,3.73-10.15a2.15,2.15,0,0,1,1-1c5.65-2.67,12.71-16.18,15.16-21.16a1.86,1.86,0,0,1,2.89-.59c3.22,2.88,7.91,11.85-5.56,37.61a3.51,3.51,0,0,1-1.17,1.28c-2.34,1.53-9.57,6.11-12.76,6.45a.09.09,0,0,0-.06,0l-16.21,11.19Z"/><path class="cls-1" d="M119.87,74.77s23.1,9.93,30-10c9-26,3-36,3-36s-19-50-62-17c-45.83,35.17,35,82,35,82s91,77,127,50l-4,26s-38,12-90-15"/><path class="cls-1" d="M158.87,154.77s-19,82-26,85c-21.16,9.06-115-1-90-28s67-37,67-37,15.83,12.56,29-5c3-4-11-2-11-2s-16-1-11-1-6-7-12-8c-5.75-1-39.63,7.87-52,12l-18,6s-31,15-34-20,13-44,13-44,18-41,71-26"/><circle class="cls-2" cx="131.87" cy="35.77" r="7"/><path class="cls-1" d="M251.8,148.19s10.69-1.19,11.07-4.93c.3-3,2.76-8.2,3.73-10.15a2.15,2.15,0,0,1,1-1c5.65-2.67,12.71-16.18,15.16-21.16a1.86,1.86,0,0,1,2.89-.59c3.22,2.88,7.91,11.85-5.56,37.61a3.51,3.51,0,0,1-1.17,1.28c-2.34,1.53-9.57,6.11-12.76,6.45l-.06,0-16.21,11.19Z"/><path class="cls-3" d="M492.87,45.77s-19-50-62-17c-24.19,18.56-13.09,40.37,2.77,56.83l0,0,31.41,24.67c.51.32.79.48.79.48s1.61,1.36,4.48,3.66l.92.73-11.4-23.39s23.1,9.93,30-10C498.87,55.77,492.87,45.77,492.87,45.77Zm-21,14a7,7,0,1,1,7-7A7,7,0,0,1,471.87,59.77Z"/><path class="cls-3" d="M465.08,110.29c-3.61-2.17-19-11.77-31.41-24.67Z"/><circle class="cls-3" cx="471.87" cy="52.77" r="7"/><path class="cls-3" d="M592.87,160.77l-.67,4.37-.41.05-.75,7.5v.09l-2.16,14s-38,12-90-15l-27-56.14C492.72,132.11,562.44,183.59,592.87,160.77Z"/><polygon class="cls-3" points="471.88 115.63 498.88 171.77 471.27 115.16 471.88 115.63"/><path class="cls-3" d="M592.2,165.14,591,172.69l.75-7.5Z"/><path class="cls-3" d="M498.87,171.77s-19,82-26,85c-21.16,9.07-115-1-90-28s67-37,67-37,15.83,12.56,29-5c3-4-11-2-11-2s-16-1-11-1-6-7-12-8c-5.75-1-39.63,7.88-52,12l-18,6s-31,15-34-20,13-44,13-44,18-41,71-26l8.77-18.17,0,0c12.44,12.9,27.8,22.5,31.41,24.67l5.27,4.14.92.73Z"/><path class="cls-3" d="M433.67,85.62l31.41,24.67C461.47,108.12,446.11,98.52,433.67,85.62Z"/><polygon class="cls-3" points="498.88 171.77 471.27 115.16 471.88 115.63 498.88 171.77"/><circle class="cls-4" cx="471.87" cy="52.77" r="7"/><path class="cls-3" d="M620.11,164.94a3.4,3.4,0,0,1-1.16,1.28c-2.35,1.54-9.57,6.12-12.76,6.46l-.07,0-16.21,11.19L591,172.78v-.09l.75-7.5.41-.05c2-.26,10.33-1.58,10.67-4.88.3-3,2.76-8.19,3.72-10.15a2.28,2.28,0,0,1,1-1c5.66-2.67,12.72-16.18,15.17-21.15a1.86,1.86,0,0,1,2.89-.6C628.89,130.22,633.58,139.18,620.11,164.94Z"/></g></g></svg>