<svg width="767" height="804" viewBox="0 0 767 804" fill="none" xmlns="http://www.w3.org/2000/svg">
<rect width="767" height="804" fill="#F2F2F2"/>
<path d="M106.065 560.66V492.945H106.765L120.425 560.66H158.369L172.145 492.945H172.846V560.66H197.363V469.595H154.283L140.506 537.31H139.572L125.912 469.595H81.5475V560.66H106.065ZM299.496 522.016H273.811C274.045 540.229 271.943 542.213 253.263 542.213C234.466 542.213 232.365 539.528 232.365 515.127C232.365 490.727 234.466 488.041 253.263 488.041C271.943 488.041 274.045 490.026 273.811 508.006H299.496C299.729 476.133 290.506 468.194 253.263 468.194C216.02 468.194 206.68 477.534 206.68 515.127C206.68 552.721 216.02 562.061 253.263 562.061C290.506 562.061 299.729 554.005 299.496 522.016ZM308.891 560.66H333.408V524.701H368.433V560.66H392.951V469.595H368.433V503.686H333.408V469.595H308.891V560.66ZM449.611 488.041C469.108 488.041 471.21 490.727 471.21 515.127C471.21 539.528 469.108 542.213 449.611 542.213C430.114 542.213 428.012 539.528 428.012 515.127C428.012 490.727 430.114 488.041 449.611 488.041ZM402.327 515.127C402.327 552.721 411.784 562.061 449.611 562.061C487.438 562.061 496.895 552.721 496.895 515.127C496.895 477.534 487.438 468.194 449.611 468.194C411.784 468.194 402.327 477.534 402.327 515.127ZM530.766 560.66V492.945H531.466L545.126 560.66H583.07L596.846 492.945H597.547V560.66H622.064V469.595H578.984L565.207 537.31H564.273L550.613 469.595H506.248V560.66H530.766ZM633.716 469.595V560.66H708.669V539.645H658.233V524.467H703.766V504.62H658.233V490.61H708.436V469.595H633.716Z" fill="#231F20"/>
<path d="M486.34 287.97H471.75V331.88L471.89 331.77L491.5 316.33V287.97H486.34Z" fill="#231F20"/>
<path d="M457.17 287.97H471.75V331.88L471.61 331.77L452 316.33V287.97H457.17Z" fill="#0262AB"/>
<path d="M252.5 294.98H237.92V338.89L238.06 338.78L257.68 323.34V294.98H252.5Z" fill="#231F20"/>
<path d="M223.33 294.98H237.92V338.89L237.78 338.78L218.16 323.34V294.98H223.33Z" fill="#0262AB"/>
<path d="M558.34 311.97V441.45L357.4 312.88L558.34 311.97Z" fill="#231F20" stroke="#231F20" stroke-width="5" stroke-miterlimit="10"/>
<path d="M61.5 413.84V220.33H558.3V311.5" stroke="#231F20" stroke-width="5" stroke-miterlimit="10"/>
<path d="M310.89 356.97L268.99 399.71L167.44 316.94L268.99 317.23L310.89 356.97Z" fill="#231F20" stroke="#231F20" stroke-width="5" stroke-miterlimit="10"/>
<path d="M353.13 311.97L310.89 356.97" stroke="#231F20" stroke-width="5" stroke-miterlimit="10"/>
<path d="M162.13 316.28L61.93 412.58L61.1 413.33" stroke="#231F20" stroke-width="5" stroke-miterlimit="10"/>
<path d="M61.54 413.84V583.8H197" stroke="black" stroke-width="5" stroke-miterlimit="10"/>
<path d="M162.57 361.39H143.47V379.6H162.57V361.39Z" fill="#010101"/>
<path d="M183.7 361.39H164.6V379.6H183.7V361.39Z" fill="#010101"/>
<path d="M183.7 381.63H164.6V399.84H183.7V381.63Z" fill="#010101"/>
<path d="M162.57 381.63H143.47V399.84H162.57V381.63Z" fill="#010101"/>
<path d="M355.24 362.41H336.14V380.62H355.24V362.41Z" fill="#010101"/>
<path d="M376.37 362.41H357.27V380.62H376.37V362.41Z" fill="#010101"/>
<path d="M376.37 382.65H357.27V400.86H376.37V382.65Z" fill="#010101"/>
<path d="M355.24 382.65H336.14V400.86H355.24V382.65Z" fill="#010101"/>
<path d="M566.87 444.15L566.32 213.4L53 213V591.67H222.28" stroke="#0262AB" stroke-width="3" stroke-miterlimit="10"/>
<path d="M160.39 314.42L160.27 316.87L163.47 318.46L165 317.12L160.39 314.42Z" fill="#231F20"/>
</svg>
