<svg xmlns="http://www.w3.org/2000/svg" viewBox="0 0 826.18 381.67"><defs><style>.cls-1{font-size:116.75px;font-family:BasementGrotesque-Black, Basement Grotesque;font-weight:800;}.cls-1,.cls-2{fill:#231f20;}.cls-11,.cls-2,.cls-3,.cls-4{stroke:#231f20;}.cls-11,.cls-2,.cls-3,.cls-4,.cls-5,.cls-7{stroke-miterlimit:10;}.cls-2,.cls-3,.cls-4,.cls-5{stroke-width:5px;}.cls-11,.cls-3,.cls-5,.cls-7{fill:none;}.cls-5{stroke:#000;}.cls-6{fill:#010101;}.cls-7{stroke:#0262ab;stroke-width:3px;}.cls-8{fill:#0262ab;}.cls-9{fill:#333;}.cls-10{fill:#4e87aa;}</style></defs><title>logobluebg</title><g id="Layer_2" data-name="Layer 2"><g id="Layer_1-2" data-name="Layer 1"><text class="cls-1" transform="translate(34.09 346)">MCHOME</text><polygon class="cls-2" points="506.84 100.47 506.84 229.95 305.9 101.38 506.84 100.47"/><path class="cls-3" d="M10,202.34V8.83h496.8V100"/><path class="cls-4" d="M259.39,145.47l-41.9,42.74L115.94,105.44l101.55.29Z"/><line class="cls-3" x1="301.63" y1="100.47" x2="259.39" y2="145.47"/><polyline class="cls-3" points="111.92 104.78 10.43 201.08 9.6 201.83"/><polyline class="cls-5" points="10.04 202.34 10.04 372.3 145.5 372.3"/><rect class="cls-6" x="91.97" y="149.89" width="19.1" height="18.21"/><rect class="cls-6" x="113.1" y="149.89" width="19.1" height="18.21"/><rect class="cls-6" x="113.1" y="170.13" width="19.1" height="18.21"/><rect class="cls-6" x="91.97" y="170.13" width="19.1" height="18.21"/><rect class="cls-6" x="284.64" y="150.91" width="19.1" height="18.21"/><rect class="cls-6" x="305.77" y="150.91" width="19.1" height="18.21"/><rect class="cls-6" x="305.77" y="171.15" width="19.1" height="18.21"/><rect class="cls-6" x="284.64" y="171.15" width="19.1" height="18.21"/><polyline class="cls-7" points="515.37 232.65 514.82 1.9 1.5 1.5 1.5 380.17 170.78 380.17"/><polygon class="cls-8" points="12.85 194.8 108.81 104.78 166.66 104.78 166.66 83.48 206.18 83.48 206.18 103.14 218.75 103.14 259.38 141.94 299.55 98.94 400.5 98.42 400.5 76.47 440.01 76.47 440.01 98.42 504.01 98.42 504.01 10.94 12.85 10.94 12.85 194.8"/><path class="cls-9" d="M201,83.48H186.42v43.91l.14-.11,19.62-15.44V83.48Z"/><path class="cls-10" d="M405.67,76.47h14.58v43.91l-.14-.11L400.5,104.83V76.47Z"/><line class="cls-11" x1="108.96" y1="104.78" x2="167.71" y2="104.78"/><path class="cls-9" d="M434.84,76.47H420.25v43.91l.14-.11L440,104.83V76.47Z"/><path class="cls-10" d="M171.83,83.48h14.59v43.91l-.14-.11-19.62-15.44V83.48Z"/></g></g></svg>