<svg xmlns="http://www.w3.org/2000/svg" xmlns:xlink="http://www.w3.org/1999/xlink" viewBox="0 0 996.92 129.41"><defs><style>.cls-1,.cls-5{fill:#3d3d3d;}.cls-2{fill:url(#linear-gradient);}.cls-3{fill:url(#linear-gradient-2);}.cls-4{fill:url(#linear-gradient-3);}.cls-5{font-size:85px;font-family:BasementGrotesque-Black, Basement Grotesque;font-weight:800;}</style><linearGradient id="linear-gradient" y1="32.86" x2="178.92" y2="32.86" gradientUnits="userSpaceOnUse"><stop offset="0.14" stop-color="#e8262a"/><stop offset="0.24" stop-color="#de2529"/><stop offset="0.52" stop-color="#c52226"/><stop offset="0.79" stop-color="#b62025"/><stop offset="1" stop-color="#b11f24"/></linearGradient><linearGradient id="linear-gradient-2" x1="83.01" y1="63.32" x2="96.25" y2="63.32" xlink:href="#linear-gradient"/><linearGradient id="linear-gradient-3" x1="77.03" y1="44.74" x2="102.05" y2="44.74" xlink:href="#linear-gradient"/></defs><title>mchousev2logo</title><g id="Layer_2" data-name="Layer 2"><g id="Layer_1-2" data-name="Layer 1"><path class="cls-1" d="M139,55.93A54.08,54.08,0,0,1,93.65,89.26v40.15c0,.24,46.39-29.79,61.27-63"/><path class="cls-1" d="M39.08,55.93A54.08,54.08,0,0,0,84.4,89.26v40.15c0,.24-46.39-29.79-61.28-63"/><polyline class="cls-2" points="155.55 61.04 89.13 13.01 15.62 65.71 0 65.71 89.13 0 122.97 24.07 122.97 19.52 134.03 19.52 134.03 32.53 178.92 65.71 162 65.71 155.55 61.04"/><polyline class="cls-3" points="83.09 71.81 83.01 54.89 96.17 54.83 96.25 71.74 83.09 71.81"/><circle class="cls-4" cx="89.54" cy="44.74" r="12.51"/><text class="cls-5" transform="translate(187.32 92.41)">MCHOME</text></g></g></svg>