<svg width="1395" height="749" viewBox="0 0 1395 749" fill="none" xmlns="http://www.w3.org/2000/svg">
<rect x="428.23" y="2" width="310.151" height="364.786" rx="4" fill="#F8F8F8" stroke="#B2B2B2" stroke-width="4" stroke-dasharray="6 4"/>
<rect x="0.426835" y="0.426835" width="411.469" height="245.319" rx="2.98785" fill="white"/>
<path d="M22.6467 28.6542H29.122L35.9611 45.3396H36.2521L43.0912 28.6542H49.5664V53.4883H44.4735V37.3243H44.2674L37.8406 53.367H34.3726L27.9458 37.2637H27.7396V53.4883H22.6467V28.6542ZM53.0442 53.4883V34.8627H58.2098V53.4883H53.0442ZM55.6391 32.4618C54.8711 32.4618 54.2123 32.2071 53.6626 31.6979C53.121 31.1805 52.8501 30.562 52.8501 29.8426C52.8501 29.1312 53.121 28.5208 53.6626 28.0115C54.2123 27.4942 54.8711 27.2355 55.6391 27.2355C56.4071 27.2355 57.0619 27.4942 57.6035 28.0115C58.1532 28.5208 58.4281 29.1312 58.4281 29.8426C58.4281 30.562 58.1532 31.1805 57.6035 31.6979C57.0619 32.2071 56.4071 32.4618 55.6391 32.4618ZM71.5035 34.8627V38.7431H60.287V34.8627H71.5035ZM62.8335 30.4004H67.9991V47.7648C67.9991 48.2418 68.0719 48.6136 68.2174 48.8804C68.3629 49.1391 68.565 49.321 68.8237 49.4261C69.0905 49.5312 69.3977 49.5837 69.7453 49.5837C69.9878 49.5837 70.2303 49.5635 70.4728 49.5231C70.7154 49.4746 70.9013 49.4382 71.0306 49.4139L71.8431 53.2579C71.5844 53.3387 71.2206 53.4317 70.7517 53.5368C70.2829 53.65 69.7129 53.7187 69.042 53.7429C67.797 53.7914 66.7057 53.6257 65.7679 53.2458C64.8383 52.8658 64.1148 52.2757 63.5974 51.4754C63.08 50.675 62.8254 49.6645 62.8335 48.4439V30.4004ZM74.1173 53.4883V34.8627H79.1253V38.1125H79.3193C79.6589 36.9565 80.2288 36.0834 81.0291 35.4933C81.8294 34.8951 82.751 34.596 83.7938 34.596C84.0525 34.596 84.3314 34.6121 84.6305 34.6445C84.9296 34.6768 85.1924 34.7213 85.4187 34.7779V39.3615C85.1762 39.2887 84.8407 39.2241 84.4123 39.1675C83.9838 39.1109 83.5917 39.0826 83.236 39.0826C82.4761 39.0826 81.7971 39.2483 81.1989 39.5798C80.6087 39.9031 80.1399 40.3558 79.7923 40.9379C79.4527 41.5199 79.283 42.1909 79.283 42.9508V53.4883H74.1173ZM94.9594 53.8521C93.0435 53.8521 91.3944 53.464 90.012 52.688C88.6377 51.9038 87.5787 50.7963 86.835 49.3654C86.0913 47.9265 85.7194 46.2248 85.7194 44.2604C85.7194 42.3445 86.0913 40.663 86.835 39.216C87.5787 37.7689 88.6256 36.6412 89.9756 35.8328C91.3338 35.0244 92.9263 34.6202 94.7533 34.6202C95.9821 34.6202 97.1259 34.8183 98.1849 35.2144C99.252 35.6024 100.182 36.1885 100.974 36.9727C101.774 37.7568 102.397 38.7431 102.841 39.9314C103.286 41.1117 103.508 42.494 103.508 44.0785V45.4972H87.7808V42.296H98.6457C98.6457 41.5523 98.4841 40.8934 98.1607 40.3194C97.8373 39.7455 97.3887 39.2968 96.8147 38.9735C96.2488 38.642 95.59 38.4763 94.8382 38.4763C94.054 38.4763 93.3588 38.6582 92.7525 39.022C92.1543 39.3777 91.6854 39.8587 91.3459 40.465C91.0064 41.0632 90.8325 41.7301 90.8245 42.4657V45.5094C90.8245 46.4309 90.9942 47.2272 91.3338 47.8982C91.6814 48.5692 92.1705 49.0865 92.801 49.4503C93.4316 49.8141 94.1793 49.996 95.0443 49.996C95.6183 49.996 96.1437 49.9152 96.6207 49.7535C97.0977 49.5918 97.5059 49.3493 97.8454 49.0259C98.1849 48.7026 98.4436 48.3064 98.6215 47.8376L103.399 48.1528C103.157 49.3008 102.659 50.3032 101.908 51.1601C101.164 52.0089 100.202 52.6718 99.0216 53.1488C97.8495 53.6176 96.4954 53.8521 94.9594 53.8521ZM111.439 53.8399C110.251 53.8399 109.192 53.6338 108.262 53.2215C107.333 52.8011 106.597 52.1827 106.055 51.3662C105.522 50.5417 105.255 49.515 105.255 48.2862C105.255 47.2515 105.445 46.3824 105.825 45.6791C106.205 44.9758 106.722 44.4099 107.377 43.9815C108.032 43.553 108.776 43.2297 109.608 43.0114C110.449 42.7931 111.33 42.6395 112.252 42.5506C113.335 42.4374 114.208 42.3324 114.871 42.2353C115.534 42.1303 116.015 41.9767 116.314 41.7746C116.613 41.5725 116.763 41.2734 116.763 40.8772V40.8045C116.763 40.0365 116.52 39.4423 116.035 39.022C115.558 38.6016 114.879 38.3914 113.998 38.3914C113.068 38.3914 112.328 38.5975 111.779 39.0098C111.229 39.414 110.865 39.9233 110.687 40.5377L105.91 40.1497C106.152 39.0179 106.629 38.0398 107.341 37.2152C108.052 36.3825 108.97 35.7439 110.093 35.2993C111.225 34.8466 112.535 34.6202 114.022 34.6202C115.057 34.6202 116.047 34.7415 116.993 34.984C117.947 35.2265 118.792 35.6024 119.527 36.1117C120.271 36.621 120.857 37.2758 121.286 38.0761C121.714 38.8684 121.928 39.8182 121.928 40.9257V53.4883H117.029V50.9054H116.884C116.585 51.4875 116.185 52.0008 115.683 52.4454C115.182 52.882 114.58 53.2256 113.877 53.4762C113.173 53.7187 112.361 53.8399 111.439 53.8399ZM112.919 50.2749C113.679 50.2749 114.349 50.1253 114.932 49.8262C115.514 49.519 115.97 49.1068 116.302 48.5894C116.633 48.072 116.799 47.4859 116.799 46.8311V44.8546C116.637 44.9597 116.415 45.0567 116.132 45.1456C115.857 45.2264 115.546 45.3032 115.198 45.376C114.851 45.4407 114.503 45.5013 114.155 45.5579C113.808 45.6064 113.493 45.6508 113.21 45.6913C112.603 45.7802 112.074 45.9217 111.621 46.1157C111.168 46.3097 110.817 46.5724 110.566 46.9039C110.316 47.2272 110.19 47.6314 110.19 48.1165C110.19 48.8198 110.445 49.3574 110.954 49.7292C111.472 50.093 112.126 50.2749 112.919 50.2749Z" fill="#333333"/>
<path d="M13.6592 71.7319H398.665" stroke="#333333" stroke-width="0.853671"/>
<path d="M22.5727 87.5259V94.9761H21.2231V87.5259H22.5727ZM30.2591 87.5259V94.9761H29.0586L25.5481 89.9013H25.4863V94.9761H24.1367V87.5259H25.3444L28.8513 92.6042H28.9167V87.5259H30.2591ZM31.8321 94.9761V87.5259H36.6049V88.6572H33.1817V90.6798H36.2775V91.8112H33.1817V94.9761H31.8321ZM44.5941 91.251C44.5941 92.0537 44.4437 92.7413 44.143 93.3136C43.8447 93.8835 43.4373 94.3201 42.9207 94.6232C42.4066 94.9264 41.8233 95.0779 41.1709 95.0779C40.5185 95.0779 39.9341 94.9264 39.4175 94.6232C38.9034 94.3176 38.4959 93.8799 38.1952 93.31C37.8969 92.7376 37.7478 92.0513 37.7478 91.251C37.7478 90.4482 37.8969 89.7619 38.1952 89.192C38.4959 88.6196 38.9034 88.1819 39.4175 87.8787C39.9341 87.5756 40.5185 87.424 41.1709 87.424C41.8233 87.424 42.4066 87.5756 42.9207 87.8787C43.4373 88.1819 43.8447 88.6196 44.143 89.192C44.4437 89.7619 44.5941 90.4482 44.5941 91.251ZM43.2372 91.251C43.2372 90.6859 43.1487 90.2093 42.9716 89.8213C42.797 89.4309 42.5545 89.1362 42.2441 88.9373C41.9337 88.736 41.5759 88.6354 41.1709 88.6354C40.7659 88.6354 40.4082 88.736 40.0978 88.9373C39.7873 89.1362 39.5436 89.4309 39.3666 89.8213C39.192 90.2093 39.1047 90.6859 39.1047 91.251C39.1047 91.816 39.192 92.2938 39.3666 92.6843C39.5436 93.0723 39.7873 93.367 40.0978 93.5682C40.4082 93.7671 40.7659 93.8665 41.1709 93.8665C41.5759 93.8665 41.9337 93.7671 42.2441 93.5682C42.5545 93.367 42.797 93.0723 42.9716 92.6843C43.1487 92.2938 43.2372 91.816 43.2372 91.251ZM50.0214 89.5739C49.9874 89.2562 49.8443 89.0089 49.5921 88.8318C49.3423 88.6548 49.0173 88.5663 48.6172 88.5663C48.3359 88.5663 48.0945 88.6087 47.8933 88.6936C47.692 88.7785 47.538 88.8937 47.4313 89.0392C47.3245 89.1847 47.27 89.3508 47.2676 89.5376C47.2676 89.6928 47.3027 89.8274 47.3731 89.9414C47.4458 90.0553 47.544 90.1523 47.6677 90.2324C47.7914 90.31 47.9284 90.3755 48.0788 90.4288C48.2291 90.4822 48.3807 90.527 48.5335 90.5634L49.232 90.738C49.5133 90.8035 49.7837 90.892 50.0432 91.0036C50.3051 91.1152 50.5392 91.2558 50.7453 91.4256C50.9539 91.5953 51.1188 91.8003 51.24 92.0404C51.3613 92.2805 51.4219 92.5618 51.4219 92.8843C51.4219 93.3209 51.3104 93.7053 51.0872 94.0375C50.8641 94.3673 50.5416 94.6256 50.1196 94.8124C49.7 94.9967 49.192 95.0888 48.5954 95.0888C48.0157 95.0888 47.5125 94.9991 47.0857 94.8196C46.6613 94.6402 46.329 94.3783 46.0889 94.0339C45.8512 93.6895 45.7227 93.2699 45.7033 92.7752H47.0311C47.0505 93.0347 47.1305 93.2505 47.2712 93.4227C47.4119 93.5949 47.595 93.7235 47.8205 93.8083C48.0485 93.8932 48.3031 93.9357 48.5844 93.9357C48.8779 93.9357 49.135 93.892 49.3557 93.8047C49.5788 93.715 49.7534 93.5913 49.8795 93.4336C50.0056 93.2736 50.0699 93.0868 50.0723 92.8734C50.0699 92.6794 50.0129 92.5193 49.9013 92.3932C49.7898 92.2647 49.6333 92.158 49.432 92.0731C49.2332 91.9858 49.0004 91.9082 48.7336 91.8403L47.886 91.622C47.2724 91.4644 46.7874 91.2255 46.4309 90.9054C46.0768 90.5828 45.8997 90.1548 45.8997 89.6212C45.8997 89.1823 46.0186 88.7979 46.2562 88.468C46.4963 88.1382 46.8225 87.8824 47.2348 87.7005C47.6471 87.5162 48.1139 87.424 48.6354 87.424C49.1641 87.424 49.6273 87.5162 50.025 87.7005C50.4252 87.8824 50.7392 88.1358 50.9672 88.4608C51.1952 88.7833 51.3128 89.1544 51.3201 89.5739H50.0214Z" fill="#256DF4"/>
<path d="M123.884 86.2842H125.475L128.242 93.0408H128.344L131.111 86.2842H132.703V94.9761H131.455V88.6863H131.374L128.811 94.9633H127.775L125.212 88.6821H125.131V94.9761H123.884V86.2842ZM141.948 89.1107H140.624C140.573 88.8278 140.478 88.5788 140.34 88.3638C140.201 88.1487 140.031 87.9662 139.83 87.8163C139.63 87.6663 139.405 87.5531 139.156 87.4767C138.909 87.4004 138.648 87.3622 138.37 87.3622C137.87 87.3622 137.421 87.4881 137.025 87.7399C136.632 87.9917 136.321 88.3609 136.091 88.8476C135.865 89.3342 135.752 89.9284 135.752 90.6301C135.752 91.3375 135.865 91.9345 136.091 92.4211C136.321 92.9078 136.633 93.2756 137.029 93.5246C137.425 93.7736 137.871 93.8981 138.366 93.8981C138.641 93.8981 138.901 93.8613 139.147 93.7877C139.396 93.7113 139.621 93.5996 139.822 93.4524C140.023 93.3053 140.193 93.1256 140.331 92.9134C140.473 92.6984 140.57 92.4522 140.624 92.175L141.948 92.1792C141.878 92.6065 141.74 92.9997 141.537 93.3591C141.336 93.7156 141.077 94.024 140.76 94.2843C140.446 94.5418 140.087 94.7412 139.682 94.8827C139.277 95.0242 138.836 95.0949 138.358 95.0949C137.605 95.0949 136.935 94.9167 136.346 94.5602C135.758 94.2008 135.294 93.6873 134.954 93.0195C134.617 92.3518 134.449 91.5553 134.449 90.6301C134.449 89.7021 134.619 88.9056 134.958 88.2407C135.298 87.5729 135.762 87.0608 136.35 86.7043C136.939 86.345 137.608 86.1653 138.358 86.1653C138.819 86.1653 139.249 86.2318 139.648 86.3648C140.05 86.4949 140.41 86.6873 140.73 86.942C141.05 87.1938 141.314 87.5022 141.524 87.8672C141.733 88.2294 141.875 88.6439 141.948 89.1107ZM143.637 94.9761V86.2842H144.948V90.0614H149.282V86.2842H150.597V94.9761H149.282V91.1861H144.948V94.9761H143.637ZM155.271 95.1076C154.66 95.1076 154.126 94.9676 153.671 94.6875C153.215 94.4074 152.862 94.0155 152.61 93.5119C152.358 93.0082 152.232 92.4197 152.232 91.7463C152.232 91.0701 152.358 90.4787 152.61 89.9723C152.862 89.4658 153.215 89.0725 153.671 88.7924C154.126 88.5123 154.66 88.3723 155.271 88.3723C155.882 88.3723 156.415 88.5123 156.871 88.7924C157.326 89.0725 157.68 89.4658 157.932 89.9723C158.184 90.4787 158.31 91.0701 158.31 91.7463C158.31 92.4197 158.184 93.0082 157.932 93.5119C157.68 94.0155 157.326 94.4074 156.871 94.6875C156.415 94.9676 155.882 95.1076 155.271 95.1076ZM155.275 94.0424C155.671 94.0424 155.999 93.9377 156.26 93.7283C156.52 93.5189 156.712 93.2402 156.837 92.8922C156.964 92.5442 157.028 92.1608 157.028 91.7421C157.028 91.3261 156.964 90.9442 156.837 90.5962C156.712 90.2453 156.52 89.9638 156.26 89.7516C155.999 89.5394 155.671 89.4333 155.275 89.4333C154.876 89.4333 154.545 89.5394 154.282 89.7516C154.022 89.9638 153.828 90.2453 153.7 90.5962C153.576 90.9442 153.514 91.3261 153.514 91.7421C153.514 92.1608 153.576 92.5442 153.7 92.8922C153.828 93.2402 154.022 93.5189 154.282 93.7283C154.545 93.9377 154.876 94.0424 155.275 94.0424ZM159.846 94.9761V88.4571H161.064V89.5182H161.144C161.28 89.1588 161.502 88.8787 161.811 88.6778C162.119 88.4741 162.488 88.3723 162.918 88.3723C163.354 88.3723 163.719 88.4741 164.013 88.6778C164.31 88.8815 164.53 89.1617 164.671 89.5182H164.739C164.895 89.1701 165.142 88.8929 165.482 88.6863C165.821 88.4769 166.226 88.3723 166.696 88.3723C167.287 88.3723 167.769 88.5576 168.143 88.9282C168.519 89.2989 168.707 89.8577 168.707 90.6046V94.9761H167.438V90.7235C167.438 90.2821 167.318 89.9624 167.078 89.7643C166.837 89.5663 166.55 89.4672 166.216 89.4672C165.803 89.4672 165.482 89.5946 165.253 89.8492C165.023 90.101 164.909 90.425 164.909 90.8211V94.9761H163.644V90.6428C163.644 90.2892 163.534 90.0048 163.313 89.7898C163.092 89.5747 162.805 89.4672 162.451 89.4672C162.211 89.4672 161.989 89.5309 161.785 89.6582C161.584 89.7827 161.422 89.9567 161.297 90.1802C161.175 90.4038 161.115 90.6627 161.115 90.9569V94.9761H159.846ZM173.337 95.1076C172.695 95.1076 172.142 94.9704 171.678 94.696C171.217 94.4187 170.86 94.0296 170.608 93.5288C170.359 93.0252 170.235 92.4353 170.235 91.759C170.235 91.0913 170.359 90.5028 170.608 89.9935C170.86 89.4842 171.211 89.0867 171.661 88.8009C172.113 88.5151 172.643 88.3723 173.248 88.3723C173.616 88.3723 173.972 88.4331 174.318 88.5547C174.663 88.6764 174.973 88.8674 175.247 89.1277C175.521 89.388 175.738 89.7261 175.896 90.142C176.055 90.5551 176.134 91.0574 176.134 91.6487V92.0986H170.952V91.1479H174.891C174.891 90.814 174.823 90.5184 174.687 90.2609C174.551 90.0006 174.36 89.7954 174.114 89.6455C173.871 89.4955 173.585 89.4205 173.257 89.4205C172.9 89.4205 172.589 89.5083 172.323 89.6837C172.06 89.8563 171.856 90.0826 171.712 90.3627C171.57 90.64 171.499 90.9413 171.499 91.2667V92.0094C171.499 92.4452 171.576 92.8158 171.729 93.1214C171.884 93.427 172.101 93.6604 172.378 93.8217C172.655 93.9801 172.979 94.0593 173.35 94.0593C173.59 94.0593 173.81 94.0254 174.008 93.9575C174.206 93.8868 174.377 93.7821 174.521 93.6434C174.666 93.5048 174.776 93.3336 174.852 93.1299L176.053 93.3463C175.957 93.7 175.785 94.0098 175.536 94.2758C175.289 94.5389 174.98 94.7441 174.606 94.8912C174.236 95.0355 173.813 95.1076 173.337 95.1076Z" fill="#333333"/>
<path d="M13.6592 113.635H398.665" stroke="#333333" stroke-width="0.853671"/>
<path d="M23.7478 136.879H21.2231V129.429H23.7987C24.5384 129.429 25.1738 129.578 25.7049 129.876C26.2384 130.172 26.6483 130.598 26.9345 131.153C27.2206 131.708 27.3637 132.373 27.3637 133.147C27.3637 133.923 27.2194 134.59 26.9308 135.147C26.6447 135.705 26.2312 136.133 25.6903 136.431C25.1519 136.73 24.5044 136.879 23.7478 136.879ZM22.5727 135.711H23.6823C24.2013 135.711 24.6342 135.617 24.981 135.427C25.3278 135.236 25.5885 134.951 25.7631 134.573C25.9377 134.192 26.025 133.716 26.025 133.147C26.025 132.577 25.9377 132.104 25.7631 131.728C25.5885 131.349 25.3302 131.067 24.9882 130.88C24.6487 130.691 24.2267 130.596 23.7223 130.596H22.5727V135.711ZM28.7485 136.879V129.429H33.594V130.56H30.0981V132.583H33.343V133.714H30.0981V135.748H33.6231V136.879H28.7485ZM39.1223 131.477C39.0883 131.159 38.9452 130.912 38.693 130.735C38.4432 130.558 38.1182 130.469 37.7181 130.469C37.4367 130.469 37.1954 130.512 36.9941 130.596C36.7929 130.681 36.6389 130.797 36.5321 130.942C36.4254 131.088 36.3709 131.254 36.3684 131.44C36.3684 131.596 36.4036 131.73 36.4739 131.844C36.5467 131.958 36.6449 132.055 36.7686 132.135C36.8923 132.213 37.0293 132.278 37.1797 132.332C37.33 132.385 37.4816 132.43 37.6344 132.466L38.3329 132.641C38.6142 132.706 38.8846 132.795 39.1441 132.906C39.406 133.018 39.64 133.159 39.8462 133.328C40.0548 133.498 40.2197 133.703 40.3409 133.943C40.4622 134.183 40.5228 134.465 40.5228 134.787C40.5228 135.224 40.4113 135.608 40.1881 135.94C39.965 136.27 39.6425 136.528 39.2205 136.715C38.8009 136.9 38.2928 136.992 37.6962 136.992C37.1166 136.992 36.6134 136.902 36.1866 136.722C35.7621 136.543 35.4299 136.281 35.1898 135.937C34.9521 135.592 34.8236 135.173 34.8042 134.678H36.132C36.1514 134.938 36.2314 135.153 36.3721 135.326C36.5127 135.498 36.6958 135.626 36.9214 135.711C37.1494 135.796 37.404 135.838 37.6853 135.838C37.9788 135.838 38.2359 135.795 38.4565 135.708C38.6797 135.618 38.8543 135.494 38.9804 135.336C39.1065 135.176 39.1708 134.99 39.1732 134.776C39.1708 134.582 39.1138 134.422 39.0022 134.296C38.8907 134.168 38.7342 134.061 38.5329 133.976C38.3341 133.889 38.1013 133.811 37.8345 133.743L36.9869 133.525C36.3733 133.367 35.8883 133.128 35.5318 132.808C35.1777 132.486 35.0006 132.058 35.0006 131.524C35.0006 131.085 35.1195 130.701 35.3571 130.371C35.5972 130.041 35.9234 129.785 36.3357 129.603C36.748 129.419 37.2148 129.327 37.7363 129.327C38.265 129.327 38.7282 129.419 39.1259 129.603C39.5261 129.785 39.8401 130.039 40.0681 130.364C40.2961 130.686 40.4137 131.057 40.421 131.477H39.1223ZM48.2055 131.942H46.845C46.8062 131.719 46.7346 131.522 46.6304 131.349C46.5261 131.175 46.3963 131.027 46.2411 130.906C46.0859 130.784 45.9089 130.693 45.71 130.633C45.5136 130.57 45.3013 130.538 45.0734 130.538C44.6684 130.538 44.3094 130.64 43.9966 130.844C43.6837 131.045 43.4388 131.341 43.2618 131.731C43.0847 132.119 42.9962 132.594 42.9962 133.154C42.9962 133.724 43.0847 134.204 43.2618 134.594C43.4412 134.982 43.6862 135.276 43.9966 135.475C44.3094 135.671 44.6672 135.769 45.0697 135.769C45.2929 135.769 45.5014 135.74 45.6954 135.682C45.8919 135.621 46.0677 135.533 46.2229 135.417C46.3806 135.3 46.5127 135.157 46.6194 134.987C46.7286 134.817 46.8038 134.623 46.845 134.405L48.2055 134.412C48.1546 134.767 48.0442 135.099 47.8745 135.409C47.7071 135.72 47.4877 135.994 47.216 136.231C46.9444 136.467 46.6267 136.651 46.2629 136.784C45.8992 136.915 45.4954 136.981 45.0516 136.981C44.3967 136.981 43.8123 136.829 43.2981 136.526C42.784 136.223 42.379 135.785 42.0831 135.213C41.7872 134.64 41.6393 133.954 41.6393 133.154C41.6393 132.351 41.7884 131.665 42.0867 131.095C42.385 130.522 42.7913 130.085 43.3054 129.782C43.8195 129.478 44.4016 129.327 45.0516 129.327C45.4663 129.327 45.8519 129.385 46.2084 129.501C46.5649 129.618 46.8826 129.789 47.1615 130.014C47.4404 130.237 47.6696 130.512 47.849 130.837C48.0309 131.159 48.1497 131.528 48.2055 131.942ZM49.5439 136.879V129.429H52.3377C52.9101 129.429 53.3903 129.528 53.7783 129.727C54.1688 129.926 54.4634 130.205 54.6623 130.564C54.8636 130.92 54.9642 131.336 54.9642 131.811C54.9642 132.289 54.8624 132.704 54.6587 133.056C54.4574 133.405 54.1603 133.675 53.7674 133.867C53.3745 134.056 52.8919 134.151 52.3196 134.151H50.3297V133.03H52.1377C52.4723 133.03 52.7464 132.984 52.9598 132.892C53.1732 132.797 53.3309 132.66 53.4327 132.481C53.537 132.299 53.5891 132.076 53.5891 131.811C53.5891 131.547 53.537 131.322 53.4327 131.135C53.3284 130.946 53.1696 130.803 52.9562 130.706C52.7427 130.606 52.4675 130.556 52.1304 130.556H50.8935V136.879H49.5439ZM53.3927 133.503L55.2371 136.879H53.731L51.9194 133.503H53.3927ZM57.6586 129.429V136.879H56.309V129.429H57.6586ZM59.2225 136.879V129.429H62.0164C62.5887 129.429 63.0689 129.535 63.4569 129.749C63.8474 129.962 64.1421 130.256 64.3409 130.629C64.5422 131 64.6429 131.422 64.6429 131.895C64.6429 132.373 64.5422 132.797 64.3409 133.168C64.1396 133.539 63.8425 133.832 63.4497 134.045C63.0568 134.256 62.5729 134.362 61.9982 134.362H60.1465V133.252H61.8163C62.151 133.252 62.425 133.194 62.6384 133.077C62.8518 132.961 63.0095 132.801 63.1113 132.597C63.2156 132.393 63.2678 132.159 63.2678 131.895C63.2678 131.631 63.2156 131.398 63.1113 131.197C63.0095 130.995 62.8506 130.839 62.6348 130.727C62.4214 130.613 62.1461 130.556 61.809 130.556H60.5722V136.879H59.2225ZM65.5902 130.56V129.429H71.5343V130.56H69.2316V136.879H67.8929V130.56H65.5902ZM74.1323 129.429V136.879H72.7827V129.429H74.1323ZM82.3534 133.154C82.3534 133.957 82.2031 134.644 81.9023 135.216C81.604 135.786 81.1966 136.223 80.68 136.526C80.1659 136.829 79.5826 136.981 78.9302 136.981C78.2779 136.981 77.6934 136.829 77.1768 136.526C76.6627 136.22 76.2553 135.783 75.9545 135.213C75.6562 134.64 75.5071 133.954 75.5071 133.154C75.5071 132.351 75.6562 131.665 75.9545 131.095C76.2553 130.522 76.6627 130.085 77.1768 129.782C77.6934 129.478 78.2779 129.327 78.9302 129.327C79.5826 129.327 80.1659 129.478 80.68 129.782C81.1966 130.085 81.604 130.522 81.9023 131.095C82.2031 131.665 82.3534 132.351 82.3534 133.154ZM80.9965 133.154C80.9965 132.589 80.908 132.112 80.731 131.724C80.5563 131.334 80.3138 131.039 80.0034 130.84C79.693 130.639 79.3353 130.538 78.9302 130.538C78.5252 130.538 78.1675 130.639 77.8571 130.84C77.5467 131.039 77.3029 131.334 77.1259 131.724C76.9513 132.112 76.864 132.589 76.864 133.154C76.864 133.719 76.9513 134.197 77.1259 134.587C77.3029 134.975 77.5467 135.27 77.8571 135.471C78.1675 135.67 78.5252 135.769 78.9302 135.769C79.3353 135.769 79.693 135.67 80.0034 135.471C80.3138 135.27 80.5563 134.975 80.731 134.587C80.908 134.197 80.9965 133.719 80.9965 133.154ZM89.8542 129.429V136.879H88.6538L85.1433 131.804H85.0814V136.879H83.7318V129.429H84.9396L88.4464 134.507H88.5119V129.429H89.8542Z" fill="#256DF4"/>
<path d="M124.618 136.879H123.226L126.354 128.187H127.869L130.997 136.879H129.605L127.147 129.766H127.079L124.618 136.879ZM124.851 133.475H129.367V134.579H124.851V133.475ZM135.337 130.36V131.379H131.653V130.36H135.337ZM132.663 136.879V129.605C132.663 129.197 132.752 128.859 132.931 128.59C133.109 128.319 133.345 128.116 133.639 127.983C133.934 127.847 134.253 127.78 134.599 127.78C134.853 127.78 135.071 127.801 135.252 127.843C135.433 127.883 135.568 127.92 135.655 127.954L135.358 128.981C135.299 128.964 135.222 128.944 135.129 128.921C135.036 128.896 134.923 128.883 134.79 128.883C134.481 128.883 134.26 128.959 134.127 129.112C133.997 129.265 133.932 129.486 133.932 129.774V136.879H132.663ZM139.868 130.36V131.379H136.184V130.36H139.868ZM137.194 136.879V129.605C137.194 129.197 137.284 128.859 137.462 128.59C137.64 128.319 137.876 128.116 138.171 127.983C138.465 127.847 138.785 127.78 139.13 127.78C139.384 127.78 139.602 127.801 139.783 127.843C139.964 127.883 140.099 127.92 140.187 127.954L139.889 128.981C139.83 128.964 139.754 128.944 139.66 128.921C139.567 128.896 139.454 128.883 139.321 128.883C139.012 128.883 138.792 128.959 138.659 129.112C138.529 129.265 138.463 129.486 138.463 129.774V136.879H137.194ZM141.297 136.879V130.36H142.566V136.879H141.297ZM141.938 129.354C141.717 129.354 141.528 129.281 141.369 129.133C141.214 128.983 141.136 128.805 141.136 128.599C141.136 128.389 141.214 128.211 141.369 128.064C141.528 127.914 141.717 127.839 141.938 127.839C142.159 127.839 142.347 127.914 142.502 128.064C142.661 128.211 142.74 128.389 142.74 128.599C142.74 128.805 142.661 128.983 142.502 129.133C142.347 129.281 142.159 129.354 141.938 129.354ZM145.662 128.187V136.879H144.393V128.187H145.662ZM149.386 137.023C148.972 137.023 148.599 136.947 148.265 136.794C147.931 136.638 147.667 136.413 147.472 136.119C147.279 135.825 147.183 135.464 147.183 135.037C147.183 134.669 147.254 134.366 147.395 134.129C147.537 133.891 147.728 133.703 147.968 133.564C148.209 133.426 148.477 133.321 148.774 133.25C149.072 133.179 149.374 133.126 149.683 133.089C150.073 133.044 150.39 133.007 150.633 132.979C150.877 132.947 151.054 132.898 151.164 132.83C151.274 132.762 151.329 132.652 151.329 132.499V132.469C151.329 132.099 151.225 131.811 151.015 131.608C150.809 131.404 150.5 131.302 150.09 131.302C149.663 131.302 149.326 131.397 149.08 131.587C148.837 131.773 148.668 131.981 148.575 132.21L147.382 131.939C147.524 131.543 147.73 131.223 148.002 130.98C148.276 130.733 148.592 130.555 148.948 130.445C149.305 130.332 149.68 130.275 150.073 130.275C150.333 130.275 150.609 130.306 150.901 130.368C151.195 130.428 151.469 130.538 151.724 130.699C151.982 130.861 152.192 131.091 152.356 131.391C152.521 131.688 152.603 132.075 152.603 132.55V136.879H151.363V135.988H151.312C151.23 136.152 151.107 136.313 150.943 136.471C150.779 136.63 150.568 136.761 150.311 136.866C150.053 136.971 149.745 137.023 149.386 137.023ZM149.661 136.005C150.012 136.005 150.312 135.935 150.561 135.797C150.813 135.658 151.004 135.477 151.134 135.253C151.267 135.027 151.334 134.785 151.334 134.528V133.687C151.288 133.733 151.201 133.775 151.07 133.815C150.943 133.851 150.797 133.884 150.633 133.912C150.469 133.938 150.309 133.962 150.154 133.984C149.998 134.004 149.868 134.021 149.763 134.035C149.517 134.066 149.292 134.119 149.089 134.192C148.888 134.266 148.726 134.372 148.605 134.511C148.486 134.647 148.426 134.828 148.426 135.054C148.426 135.368 148.542 135.606 148.774 135.767C149.006 135.925 149.302 136.005 149.661 136.005ZM157.455 130.36V131.379H153.895V130.36H157.455ZM154.849 128.798H156.118V134.965C156.118 135.211 156.155 135.396 156.229 135.521C156.302 135.642 156.397 135.726 156.513 135.771C156.632 135.814 156.761 135.835 156.899 135.835C157.001 135.835 157.09 135.828 157.167 135.814C157.243 135.799 157.303 135.788 157.345 135.78L157.574 136.828C157.501 136.856 157.396 136.885 157.26 136.913C157.124 136.944 156.955 136.961 156.751 136.964C156.417 136.969 156.106 136.91 155.817 136.786C155.529 136.661 155.295 136.469 155.117 136.208C154.939 135.948 154.849 135.621 154.849 135.228V128.798ZM161.718 137.01C161.076 137.01 160.523 136.873 160.059 136.599C159.598 136.322 159.241 135.932 158.989 135.432C158.74 134.928 158.616 134.338 158.616 133.662C158.616 132.994 158.74 132.406 158.989 131.896C159.241 131.387 159.592 130.99 160.042 130.704C160.494 130.418 161.024 130.275 161.629 130.275C161.997 130.275 162.353 130.336 162.699 130.458C163.044 130.579 163.354 130.77 163.628 131.031C163.902 131.291 164.119 131.629 164.277 132.045C164.436 132.458 164.515 132.96 164.515 133.552V134.001H159.333V133.051H163.272C163.272 132.717 163.204 132.421 163.068 132.164C162.932 131.903 162.741 131.698 162.495 131.548C162.252 131.398 161.966 131.323 161.638 131.323C161.281 131.323 160.97 131.411 160.704 131.587C160.441 131.759 160.237 131.985 160.093 132.266C159.951 132.543 159.88 132.844 159.88 133.17V133.912C159.88 134.348 159.957 134.719 160.11 135.024C160.265 135.33 160.482 135.563 160.759 135.725C161.036 135.883 161.36 135.962 161.731 135.962C161.971 135.962 162.191 135.928 162.389 135.86C162.587 135.79 162.758 135.685 162.902 135.546C163.047 135.408 163.157 135.236 163.233 135.033L164.434 135.249C164.338 135.603 164.166 135.913 163.917 136.179C163.67 136.442 163.361 136.647 162.987 136.794C162.617 136.938 162.194 137.01 161.718 137.01ZM169.427 128.187H171.018L173.786 134.944H173.887L176.655 128.187H178.246V136.879H176.998V130.589H176.918L174.354 136.866H173.319L170.755 130.585H170.675V136.879H169.427V128.187ZM182.068 137.023C181.654 137.023 181.281 136.947 180.947 136.794C180.613 136.638 180.349 136.413 180.153 136.119C179.961 135.825 179.865 135.464 179.865 135.037C179.865 134.669 179.936 134.366 180.077 134.129C180.218 133.891 180.409 133.703 180.65 133.564C180.89 133.426 181.159 133.321 181.456 133.25C181.753 133.179 182.056 133.126 182.365 133.089C182.755 133.044 183.072 133.007 183.315 132.979C183.559 132.947 183.735 132.898 183.846 132.83C183.956 132.762 184.011 132.652 184.011 132.499V132.469C184.011 132.099 183.907 131.811 183.697 131.608C183.491 131.404 183.182 131.302 182.772 131.302C182.345 131.302 182.008 131.397 181.762 131.587C181.519 131.773 181.35 131.981 181.257 132.21L180.064 131.939C180.206 131.543 180.412 131.223 180.684 130.98C180.958 130.733 181.274 130.555 181.63 130.445C181.987 130.332 182.362 130.275 182.755 130.275C183.015 130.275 183.291 130.306 183.583 130.368C183.877 130.428 184.151 130.538 184.406 130.699C184.663 130.861 184.874 131.091 185.038 131.391C185.202 131.688 185.285 132.075 185.285 132.55V136.879H184.045V135.988H183.994C183.912 136.152 183.789 136.313 183.625 136.471C183.461 136.63 183.25 136.761 182.993 136.866C182.735 136.971 182.427 137.023 182.068 137.023ZM182.343 136.005C182.694 136.005 182.994 135.935 183.243 135.797C183.495 135.658 183.686 135.477 183.816 135.253C183.949 135.027 184.016 134.785 184.016 134.528V133.687C183.97 133.733 183.883 133.775 183.752 133.815C183.625 133.851 183.479 133.884 183.315 133.912C183.151 133.938 182.991 133.962 182.836 133.984C182.68 134.004 182.55 134.021 182.445 134.035C182.199 134.066 181.974 134.119 181.77 134.192C181.57 134.266 181.408 134.372 181.287 134.511C181.168 134.647 181.108 134.828 181.108 135.054C181.108 135.368 181.224 135.606 181.456 135.767C181.688 135.925 181.984 136.005 182.343 136.005ZM187.094 136.879V130.36H188.321V131.396H188.389C188.508 131.045 188.717 130.769 189.017 130.568C189.32 130.364 189.662 130.262 190.044 130.262C190.123 130.262 190.217 130.265 190.324 130.271C190.434 130.276 190.521 130.284 190.583 130.292V131.506C190.532 131.492 190.441 131.476 190.311 131.459C190.181 131.439 190.051 131.429 189.921 131.429C189.621 131.429 189.354 131.493 189.119 131.62C188.887 131.745 188.703 131.919 188.567 132.142C188.431 132.363 188.363 132.615 188.363 132.898V136.879H187.094ZM192.968 134.668L192.959 133.119H193.18L195.777 130.36H197.297L194.334 133.501H194.135L192.968 134.668ZM191.801 136.879V128.187H193.07V136.879H191.801ZM195.917 136.879L193.583 133.781L194.457 132.894L197.475 136.879H195.917ZM201.114 137.01C200.472 137.01 199.918 136.873 199.454 136.599C198.993 136.322 198.637 135.932 198.385 135.432C198.136 134.928 198.011 134.338 198.011 133.662C198.011 132.994 198.136 132.406 198.385 131.896C198.637 131.387 198.988 130.99 199.437 130.704C199.89 130.418 200.419 130.275 201.025 130.275C201.393 130.275 201.749 130.336 202.094 130.458C202.439 130.579 202.749 130.77 203.024 131.031C203.298 131.291 203.515 131.629 203.673 132.045C203.832 132.458 203.911 132.96 203.911 133.552V134.001H198.729V133.051H202.667C202.667 132.717 202.599 132.421 202.464 132.164C202.328 131.903 202.137 131.698 201.891 131.548C201.647 131.398 201.361 131.323 201.033 131.323C200.677 131.323 200.366 131.411 200.1 131.587C199.836 131.759 199.633 131.985 199.488 132.266C199.347 132.543 199.276 132.844 199.276 133.17V133.912C199.276 134.348 199.353 134.719 199.505 135.024C199.661 135.33 199.877 135.563 200.155 135.725C200.432 135.883 200.756 135.962 201.127 135.962C201.367 135.962 201.586 135.928 201.784 135.86C201.983 135.79 202.154 135.685 202.298 135.546C202.442 135.408 202.553 135.236 202.629 135.033L203.83 135.249C203.734 135.603 203.561 135.913 203.312 136.179C203.066 136.442 202.756 136.647 202.383 136.794C202.012 136.938 201.589 137.01 201.114 137.01ZM208.481 130.36V131.379H204.92V130.36H208.481ZM205.875 128.798H207.144V134.965C207.144 135.211 207.181 135.396 207.255 135.521C207.328 135.642 207.423 135.726 207.539 135.771C207.658 135.814 207.787 135.835 207.925 135.835C208.027 135.835 208.116 135.828 208.193 135.814C208.269 135.799 208.328 135.788 208.371 135.78L208.6 136.828C208.527 136.856 208.422 136.885 208.286 136.913C208.15 136.944 207.98 136.961 207.777 136.964C207.443 136.969 207.132 136.91 206.843 136.786C206.554 136.661 206.321 136.469 206.143 136.208C205.965 135.948 205.875 135.621 205.875 135.228V128.798ZM210.005 136.879V130.36H211.274V136.879H210.005ZM210.645 129.354C210.425 129.354 210.235 129.281 210.077 129.133C209.921 128.983 209.843 128.805 209.843 128.599C209.843 128.389 209.921 128.211 210.077 128.064C210.235 127.914 210.425 127.839 210.645 127.839C210.866 127.839 211.054 127.914 211.21 128.064C211.368 128.211 211.448 128.389 211.448 128.599C211.448 128.805 211.368 128.983 211.21 129.133C211.054 129.281 210.866 129.354 210.645 129.354ZM214.369 133.008V136.879H213.1V130.36H214.318V131.421H214.399C214.549 131.076 214.784 130.799 215.103 130.589C215.426 130.38 215.832 130.275 216.321 130.275C216.766 130.275 217.155 130.368 217.489 130.555C217.822 130.739 218.081 131.014 218.265 131.379C218.449 131.744 218.541 132.195 218.541 132.732V136.879H217.272V132.885C217.272 132.413 217.149 132.043 216.903 131.777C216.657 131.509 216.319 131.374 215.889 131.374C215.594 131.374 215.333 131.438 215.103 131.565C214.877 131.693 214.697 131.879 214.564 132.126C214.434 132.369 214.369 132.663 214.369 133.008ZM223.096 139.459C222.578 139.459 222.132 139.391 221.759 139.256C221.388 139.12 221.085 138.94 220.851 138.717C220.616 138.493 220.44 138.248 220.324 137.982L221.415 137.532C221.491 137.657 221.593 137.789 221.721 137.927C221.851 138.069 222.026 138.189 222.247 138.288C222.47 138.387 222.758 138.436 223.108 138.436C223.589 138.436 223.987 138.319 224.301 138.084C224.615 137.852 224.772 137.482 224.772 136.972V135.691H224.692C224.615 135.829 224.505 135.983 224.36 136.153C224.219 136.323 224.024 136.47 223.775 136.595C223.526 136.719 223.202 136.781 222.803 136.781C222.288 136.781 221.824 136.661 221.411 136.421C221.001 136.177 220.675 135.819 220.435 135.347C220.197 134.871 220.078 134.287 220.078 133.594C220.078 132.901 220.196 132.307 220.43 131.811C220.668 131.316 220.993 130.937 221.407 130.674C221.82 130.408 222.288 130.275 222.811 130.275C223.216 130.275 223.543 130.343 223.792 130.479C224.041 130.612 224.235 130.767 224.373 130.946C224.515 131.124 224.624 131.281 224.7 131.417H224.793V130.36H226.037V137.023C226.037 137.583 225.907 138.043 225.646 138.403C225.386 138.762 225.034 139.028 224.59 139.2C224.148 139.373 223.65 139.459 223.096 139.459ZM223.083 135.729C223.448 135.729 223.756 135.644 224.008 135.474C224.263 135.302 224.455 135.055 224.585 134.736C224.718 134.413 224.785 134.027 224.785 133.577C224.785 133.138 224.72 132.752 224.59 132.418C224.46 132.084 224.269 131.824 224.017 131.637C223.765 131.448 223.454 131.353 223.083 131.353C222.701 131.353 222.383 131.452 222.128 131.65C221.873 131.845 221.681 132.111 221.551 132.448C221.424 132.785 221.36 133.161 221.36 133.577C221.36 134.004 221.425 134.379 221.555 134.702C221.685 135.024 221.878 135.276 222.132 135.457C222.39 135.638 222.707 135.729 223.083 135.729ZM232.944 136.879L230.534 128.187H231.913L233.607 134.918H233.687L235.448 128.187H236.815L238.576 134.922H238.657L240.346 128.187H241.73L239.315 136.879H237.995L236.166 130.368H236.098L234.269 136.879H232.944ZM245.111 137.01C244.469 137.01 243.915 136.873 243.451 136.599C242.99 136.322 242.634 135.932 242.382 135.432C242.133 134.928 242.008 134.338 242.008 133.662C242.008 132.994 242.133 132.406 242.382 131.896C242.634 131.387 242.985 130.99 243.434 130.704C243.887 130.418 244.416 130.275 245.022 130.275C245.39 130.275 245.746 130.336 246.091 130.458C246.436 130.579 246.746 130.77 247.021 131.031C247.295 131.291 247.512 131.629 247.67 132.045C247.829 132.458 247.908 132.96 247.908 133.552V134.001H242.726V133.051H246.664C246.664 132.717 246.596 132.421 246.46 132.164C246.325 131.903 246.134 131.698 245.888 131.548C245.644 131.398 245.358 131.323 245.03 131.323C244.674 131.323 244.362 131.411 244.097 131.587C243.833 131.759 243.63 131.985 243.485 132.266C243.344 132.543 243.273 132.844 243.273 133.17V133.912C243.273 134.348 243.35 134.719 243.502 135.024C243.658 135.33 243.874 135.563 244.152 135.725C244.429 135.883 244.753 135.962 245.124 135.962C245.364 135.962 245.583 135.928 245.781 135.86C245.979 135.79 246.151 135.685 246.295 135.546C246.439 135.408 246.55 135.236 246.626 135.033L247.827 135.249C247.731 135.603 247.558 135.913 247.309 136.179C247.063 136.442 246.753 136.647 246.38 136.794C246.009 136.938 245.586 137.01 245.111 137.01ZM249.537 136.879V128.187H250.806V131.417H250.882C250.956 131.281 251.062 131.124 251.201 130.946C251.339 130.767 251.532 130.612 251.778 130.479C252.024 130.343 252.35 130.275 252.754 130.275C253.28 130.275 253.75 130.408 254.163 130.674C254.576 130.94 254.9 131.323 255.135 131.824C255.373 132.325 255.492 132.928 255.492 133.632C255.492 134.337 255.374 134.941 255.139 135.444C254.904 135.945 254.582 136.331 254.172 136.603C253.761 136.872 253.293 137.006 252.767 137.006C252.371 137.006 252.047 136.94 251.795 136.807C251.546 136.674 251.351 136.518 251.209 136.34C251.068 136.162 250.959 136.003 250.882 135.865H250.776V136.879H249.537ZM250.781 133.619C250.781 134.078 250.847 134.48 250.98 134.825C251.113 135.17 251.305 135.44 251.557 135.635C251.809 135.828 252.118 135.924 252.482 135.924C252.862 135.924 253.179 135.824 253.433 135.623C253.688 135.419 253.88 135.143 254.01 134.795C254.143 134.447 254.21 134.055 254.21 133.619C254.21 133.189 254.145 132.803 254.015 132.461C253.887 132.118 253.695 131.848 253.437 131.65C253.183 131.452 252.864 131.353 252.482 131.353C252.115 131.353 251.803 131.448 251.549 131.637C251.297 131.827 251.106 132.092 250.976 132.431C250.846 132.771 250.781 133.167 250.781 133.619ZM261.921 131.952L260.771 132.155C260.723 132.008 260.646 131.868 260.542 131.735C260.44 131.602 260.301 131.493 260.126 131.408C259.95 131.323 259.731 131.281 259.468 131.281C259.109 131.281 258.809 131.362 258.568 131.523C258.328 131.681 258.207 131.886 258.207 132.138C258.207 132.356 258.288 132.532 258.449 132.665C258.611 132.797 258.871 132.906 259.23 132.991L260.266 133.229C260.866 133.368 261.313 133.581 261.607 133.87C261.901 134.158 262.048 134.533 262.048 134.995C262.048 135.385 261.935 135.733 261.709 136.039C261.485 136.341 261.173 136.579 260.771 136.752C260.372 136.924 259.909 137.01 259.383 137.01C258.653 137.01 258.057 136.855 257.596 136.544C257.135 136.23 256.852 135.784 256.747 135.207L257.974 135.02C258.05 135.34 258.207 135.582 258.445 135.746C258.683 135.907 258.993 135.988 259.375 135.988C259.79 135.988 260.123 135.901 260.372 135.729C260.621 135.553 260.745 135.34 260.745 135.088C260.745 134.884 260.669 134.713 260.516 134.574C260.366 134.436 260.136 134.331 259.824 134.26L258.721 134.018C258.113 133.88 257.663 133.659 257.371 133.356C257.083 133.054 256.938 132.67 256.938 132.206C256.938 131.821 257.046 131.485 257.261 131.196C257.476 130.907 257.773 130.683 258.152 130.521C258.531 130.357 258.966 130.275 259.455 130.275C260.16 130.275 260.714 130.428 261.119 130.733C261.523 131.036 261.791 131.442 261.921 131.952ZM263.563 136.879V130.36H264.832V136.879H263.563ZM264.204 129.354C263.983 129.354 263.794 129.281 263.635 129.133C263.48 128.983 263.402 128.805 263.402 128.599C263.402 128.389 263.48 128.211 263.635 128.064C263.794 127.914 263.983 127.839 264.204 127.839C264.425 127.839 264.613 127.914 264.768 128.064C264.927 128.211 265.006 128.389 265.006 128.599C265.006 128.805 264.927 128.983 264.768 129.133C264.613 129.281 264.425 129.354 264.204 129.354ZM269.702 130.36V131.379H266.141V130.36H269.702ZM267.096 128.798H268.365V134.965C268.365 135.211 268.402 135.396 268.475 135.521C268.549 135.642 268.644 135.726 268.76 135.771C268.878 135.814 269.007 135.835 269.146 135.835C269.248 135.835 269.337 135.828 269.413 135.814C269.49 135.799 269.549 135.788 269.591 135.78L269.821 136.828C269.747 136.856 269.642 136.885 269.507 136.913C269.371 136.944 269.201 136.961 268.997 136.964C268.663 136.969 268.352 136.91 268.064 136.786C267.775 136.661 267.542 136.469 267.363 136.208C267.185 135.948 267.096 135.621 267.096 135.228V128.798ZM273.965 137.01C273.322 137.01 272.769 136.873 272.305 136.599C271.844 136.322 271.487 135.932 271.236 135.432C270.987 134.928 270.862 134.338 270.862 133.662C270.862 132.994 270.987 132.406 271.236 131.896C271.487 131.387 271.838 130.99 272.288 130.704C272.741 130.418 273.27 130.275 273.875 130.275C274.243 130.275 274.6 130.336 274.945 130.458C275.29 130.579 275.6 130.77 275.874 131.031C276.149 131.291 276.365 131.629 276.524 132.045C276.682 132.458 276.761 132.96 276.761 133.552V134.001H271.579V133.051H275.518C275.518 132.717 275.45 132.421 275.314 132.164C275.178 131.903 274.987 131.698 274.741 131.548C274.498 131.398 274.212 131.323 273.884 131.323C273.527 131.323 273.216 131.411 272.95 131.587C272.687 131.759 272.483 131.985 272.339 132.266C272.198 132.543 272.127 132.844 272.127 133.17V133.912C272.127 134.348 272.203 134.719 272.356 135.024C272.512 135.33 272.728 135.563 273.005 135.725C273.283 135.883 273.607 135.962 273.977 135.962C274.218 135.962 274.437 135.928 274.635 135.86C274.833 135.79 275.004 135.685 275.149 135.546C275.293 135.408 275.403 135.236 275.48 135.033L276.681 135.249C276.585 135.603 276.412 135.913 276.163 136.179C275.917 136.442 275.607 136.647 275.234 136.794C274.863 136.938 274.44 137.01 273.965 137.01Z" fill="#333333"/>
<path d="M13.6592 155.538H398.665" stroke="#333333" stroke-width="0.853671"/>
<path d="M22.1799 178.782H20.7393L23.3621 171.332H25.0283L27.6547 178.782H26.2142L24.2243 172.859H24.1661L22.1799 178.782ZM22.2272 175.861H26.156V176.945H22.2272V175.861ZM33.4349 171.332H34.7845V176.199C34.7845 176.732 34.6584 177.202 34.4062 177.607C34.1564 178.012 33.8047 178.328 33.3512 178.556C32.8977 178.782 32.3678 178.895 31.7615 178.895C31.1528 178.895 30.6217 178.782 30.1681 178.556C29.7146 178.328 29.363 178.012 29.1132 177.607C28.8634 177.202 28.7385 176.732 28.7385 176.199V171.332H30.0881V176.086C30.0881 176.397 30.156 176.673 30.2918 176.916C30.4301 177.158 30.6241 177.348 30.8739 177.487C31.1237 177.622 31.4195 177.69 31.7615 177.69C32.1035 177.69 32.3993 177.622 32.6491 177.487C32.9013 177.348 33.0954 177.158 33.2312 176.916C33.367 176.673 33.4349 176.397 33.4349 176.086V171.332ZM36.0265 172.463V171.332H41.9707V172.463H39.6679V178.782H38.3292V172.463H36.0265ZM43.219 178.782V171.332H44.5686V174.485H48.0209V171.332H49.3742V178.782H48.0209V175.617H44.5686V178.782H43.219ZM57.6016 175.057C57.6016 175.859 57.4513 176.547 57.1506 177.119C56.8523 177.689 56.4448 178.126 55.9283 178.429C55.4141 178.732 54.8308 178.884 54.1785 178.884C53.5261 178.884 52.9416 178.732 52.425 178.429C51.9109 178.123 51.5035 177.686 51.2027 177.116C50.9044 176.543 50.7553 175.857 50.7553 175.057C50.7553 174.254 50.9044 173.568 51.2027 172.998C51.5035 172.425 51.9109 171.988 52.425 171.684C52.9416 171.381 53.5261 171.23 54.1785 171.23C54.8308 171.23 55.4141 171.381 55.9283 171.684C56.4448 171.988 56.8523 172.425 57.1506 172.998C57.4513 173.568 57.6016 174.254 57.6016 175.057ZM56.2447 175.057C56.2447 174.492 56.1562 174.015 55.9792 173.627C55.8046 173.237 55.562 172.942 55.2516 172.743C54.9412 172.542 54.5835 172.441 54.1785 172.441C53.7735 172.441 53.4157 172.542 53.1053 172.743C52.7949 172.942 52.5512 173.237 52.3741 173.627C52.1995 174.015 52.1122 174.492 52.1122 175.057C52.1122 175.622 52.1995 176.099 52.3741 176.49C52.5512 176.878 52.7949 177.173 53.1053 177.374C53.4157 177.573 53.7735 177.672 54.1785 177.672C54.5835 177.672 54.9412 177.573 55.2516 177.374C55.562 177.173 55.8046 176.878 55.9792 176.49C56.1562 176.099 56.2447 175.622 56.2447 175.057ZM58.98 178.782V171.332H61.7739C62.3462 171.332 62.8264 171.431 63.2144 171.63C63.6049 171.829 63.8996 172.108 64.0984 172.467C64.2997 172.823 64.4004 173.239 64.4004 173.714C64.4004 174.192 64.2985 174.607 64.0948 174.958C63.8935 175.308 63.5964 175.578 63.2035 175.77C62.8106 175.959 62.328 176.053 61.7557 176.053H59.7658V174.933H61.5738C61.9085 174.933 62.1825 174.887 62.3959 174.795C62.6094 174.7 62.767 174.563 62.8688 174.384C62.9731 174.202 63.0253 173.979 63.0253 173.714C63.0253 173.45 62.9731 173.224 62.8688 173.038C62.7646 172.848 62.6057 172.705 62.3923 172.608C62.1789 172.509 61.9036 172.459 61.5665 172.459H60.3297V178.782H58.98ZM62.8288 175.406L64.6732 178.782H63.1671L61.3555 175.406H62.8288ZM66.0143 175.057C66.0143 174.147 66.1344 173.312 66.3745 172.55C66.617 171.786 66.9771 171.081 67.4549 170.433H68.6954C68.5111 170.673 68.3389 170.968 68.1788 171.317C68.0187 171.664 67.8793 172.045 67.7605 172.459C67.644 172.872 67.5519 173.3 67.484 173.743C67.4185 174.187 67.3858 174.625 67.3858 175.057C67.3858 175.631 67.4428 176.213 67.5567 176.803C67.6731 177.392 67.8296 177.939 68.026 178.443C68.2249 178.945 68.448 179.357 68.6954 179.677H67.4549C66.9771 179.029 66.617 178.325 66.3745 177.563C66.1344 176.799 66.0143 175.964 66.0143 175.057ZM73.928 173.38C73.8941 173.062 73.751 172.815 73.4988 172.637C73.249 172.46 72.924 172.372 72.5238 172.372C72.2425 172.372 72.0012 172.414 71.7999 172.499C71.5986 172.584 71.4446 172.699 71.3379 172.845C71.2312 172.99 71.1766 173.156 71.1742 173.343C71.1742 173.498 71.2094 173.633 71.2797 173.747C71.3525 173.861 71.4507 173.958 71.5744 174.038C71.698 174.116 71.8351 174.181 71.9854 174.234C72.1358 174.288 72.2874 174.333 72.4402 174.369L73.1386 174.544C73.4199 174.609 73.6903 174.698 73.9498 174.809C74.2118 174.921 74.4458 175.061 74.6519 175.231C74.8605 175.401 75.0254 175.606 75.1467 175.846C75.2679 176.086 75.3286 176.367 75.3286 176.69C75.3286 177.127 75.217 177.511 74.9939 177.843C74.7708 178.173 74.4482 178.431 74.0262 178.618C73.6067 178.802 73.0986 178.895 72.502 178.895C71.9224 178.895 71.4191 178.805 70.9923 178.625C70.5679 178.446 70.2357 178.184 69.9956 177.84C69.7579 177.495 69.6294 177.076 69.6099 176.581H70.9377C70.9571 176.84 71.0372 177.056 71.1778 177.228C71.3185 177.401 71.5016 177.529 71.7271 177.614C71.9551 177.699 72.2098 177.741 72.4911 177.741C72.7845 177.741 73.0416 177.698 73.2623 177.61C73.4854 177.521 73.66 177.397 73.7861 177.239C73.9123 177.079 73.9765 176.893 73.9789 176.679C73.9765 176.485 73.9195 176.325 73.808 176.199C73.6964 176.07 73.54 175.964 73.3387 175.879C73.1398 175.791 72.907 175.714 72.6402 175.646L71.7926 175.428C71.1791 175.27 70.694 175.031 70.3375 174.711C69.9834 174.388 69.8064 173.96 69.8064 173.427C69.8064 172.988 69.9252 172.604 70.1629 172.274C70.403 171.944 70.7292 171.688 71.1415 171.506C71.5537 171.322 72.0206 171.23 72.542 171.23C73.0707 171.23 73.5339 171.322 73.9317 171.506C74.3318 171.688 74.6459 171.941 74.8738 172.266C75.1018 172.589 75.2194 172.96 75.2267 173.38H73.928ZM78.926 175.057C78.926 175.964 78.8048 176.799 78.5623 177.563C78.3222 178.325 77.9632 179.029 77.4855 179.677H76.245C76.4317 179.437 76.6039 179.143 76.7615 178.796C76.9216 178.449 77.0598 178.069 77.1762 177.654C77.2951 177.239 77.3872 176.81 77.4527 176.366C77.5206 175.922 77.5546 175.486 77.5546 175.057C77.5546 174.482 77.4964 173.9 77.38 173.31C77.266 172.721 77.1096 172.174 76.9107 171.67C76.7142 171.165 76.4923 170.753 76.245 170.433H77.4855C77.9632 171.081 78.3222 171.786 78.5623 172.55C78.8048 173.312 78.926 174.147 78.926 175.057Z" fill="#256DF4"/>
<path d="M123.884 170.09H125.475L128.242 176.846H128.344L131.111 170.09H132.703V178.782H131.455V172.492H131.374L128.811 178.769H127.775L125.212 172.488H125.131V178.782H123.884V170.09ZM134.627 178.782V172.263H135.896V178.782H134.627ZM135.268 171.257C135.047 171.257 134.858 171.183 134.699 171.036C134.544 170.886 134.466 170.708 134.466 170.501C134.466 170.292 134.544 170.114 134.699 169.967C134.858 169.817 135.047 169.742 135.268 169.742C135.489 169.742 135.677 169.817 135.833 169.967C135.991 170.114 136.07 170.292 136.07 170.501C136.07 170.708 135.991 170.886 135.833 171.036C135.677 171.183 135.489 171.257 135.268 171.257ZM140.766 172.263V173.281H137.205V172.263H140.766ZM138.16 170.701H139.429V176.868C139.429 177.114 139.466 177.299 139.539 177.424C139.613 177.545 139.708 177.629 139.824 177.674C139.943 177.716 140.071 177.738 140.21 177.738C140.312 177.738 140.401 177.731 140.477 177.716C140.554 177.702 140.613 177.691 140.656 177.683L140.885 178.731C140.811 178.759 140.706 178.787 140.571 178.816C140.435 178.847 140.265 178.864 140.061 178.867C139.728 178.872 139.416 178.813 139.128 178.688C138.839 178.564 138.606 178.371 138.427 178.111C138.249 177.851 138.16 177.524 138.16 177.131V170.701ZM142.289 178.782V172.263H143.516V173.298H143.584C143.702 172.948 143.912 172.672 144.212 172.471C144.514 172.267 144.857 172.165 145.239 172.165C145.318 172.165 145.411 172.168 145.519 172.174C145.629 172.179 145.716 172.186 145.778 172.195V173.409C145.727 173.395 145.636 173.379 145.506 173.362C145.376 173.342 145.246 173.332 145.116 173.332C144.816 173.332 144.548 173.396 144.314 173.523C144.082 173.648 143.898 173.822 143.762 174.045C143.626 174.266 143.558 174.518 143.558 174.801V178.782H142.289ZM149.572 178.913C148.929 178.913 148.376 178.776 147.912 178.502C147.451 178.224 147.095 177.835 146.843 177.334C146.594 176.831 146.469 176.241 146.469 175.565C146.469 174.897 146.594 174.308 146.843 173.799C147.095 173.29 147.445 172.892 147.895 172.607C148.348 172.321 148.877 172.178 149.483 172.178C149.85 172.178 150.207 172.239 150.552 172.36C150.897 172.482 151.207 172.673 151.481 172.933C151.756 173.194 151.972 173.532 152.131 173.948C152.289 174.361 152.369 174.863 152.369 175.454V175.904H147.186V174.954H151.125C151.125 174.62 151.057 174.324 150.921 174.067C150.785 173.806 150.594 173.601 150.348 173.451C150.105 173.301 149.819 173.226 149.491 173.226C149.135 173.226 148.823 173.314 148.557 173.489C148.294 173.662 148.09 173.888 147.946 174.168C147.805 174.446 147.734 174.747 147.734 175.072V175.815C147.734 176.251 147.81 176.621 147.963 176.927C148.119 177.233 148.335 177.466 148.612 177.627C148.89 177.786 149.214 177.865 149.584 177.865C149.825 177.865 150.044 177.831 150.242 177.763C150.44 177.692 150.611 177.588 150.756 177.449C150.9 177.31 151.01 177.139 151.087 176.936L152.288 177.152C152.192 177.506 152.019 177.815 151.77 178.081C151.524 178.345 151.214 178.55 150.841 178.697C150.47 178.841 150.047 178.913 149.572 178.913ZM155.793 178.926C155.38 178.926 155.007 178.85 154.673 178.697C154.339 178.541 154.074 178.316 153.879 178.022C153.687 177.728 153.59 177.367 153.59 176.94C153.59 176.572 153.661 176.269 153.803 176.032C153.944 175.794 154.135 175.606 154.376 175.467C154.616 175.328 154.885 175.224 155.182 175.153C155.479 175.082 155.782 175.029 156.09 174.992C156.481 174.946 156.798 174.91 157.041 174.881C157.284 174.85 157.461 174.801 157.571 174.733C157.682 174.665 157.737 174.555 157.737 174.402V174.372C157.737 174.001 157.632 173.714 157.423 173.511C157.216 173.307 156.908 173.205 156.498 173.205C156.07 173.205 155.734 173.3 155.488 173.489C155.244 173.676 155.076 173.884 154.982 174.113L153.79 173.842C153.931 173.445 154.138 173.126 154.41 172.882C154.684 172.636 154.999 172.458 155.356 172.348C155.712 172.235 156.087 172.178 156.481 172.178C156.741 172.178 157.017 172.209 157.308 172.271C157.603 172.331 157.877 172.441 158.132 172.602C158.389 172.764 158.6 172.994 158.764 173.294C158.928 173.591 159.01 173.977 159.01 174.453V178.782H157.771V177.89H157.72C157.638 178.055 157.515 178.216 157.351 178.374C157.187 178.533 156.976 178.664 156.718 178.769C156.461 178.874 156.152 178.926 155.793 178.926ZM156.069 177.907C156.42 177.907 156.72 177.838 156.969 177.699C157.221 177.561 157.412 177.38 157.542 177.156C157.675 176.93 157.741 176.688 157.741 176.431V175.59C157.696 175.635 157.608 175.678 157.478 175.717C157.351 175.754 157.205 175.787 157.041 175.815C156.877 175.841 156.717 175.865 156.561 175.887C156.406 175.907 156.276 175.924 156.171 175.938C155.925 175.969 155.7 176.022 155.496 176.095C155.295 176.169 155.134 176.275 155.012 176.414C154.893 176.549 154.834 176.73 154.834 176.957C154.834 177.271 154.95 177.509 155.182 177.67C155.414 177.828 155.71 177.907 156.069 177.907ZM164.938 178.782H163.546L166.674 170.09H168.189L171.317 178.782H169.925L167.468 171.669H167.4L164.938 178.782ZM165.172 175.378H169.688V176.481H165.172V175.378ZM173.859 174.911V178.782H172.59V172.263H173.808V173.324H173.889C174.039 172.979 174.274 172.701 174.593 172.492C174.916 172.283 175.322 172.178 175.811 172.178C176.256 172.178 176.645 172.271 176.979 172.458C177.312 172.642 177.571 172.916 177.755 173.281C177.939 173.646 178.031 174.098 178.031 174.635V178.782H176.762V174.788C176.762 174.316 176.639 173.946 176.393 173.68C176.147 173.412 175.809 173.277 175.379 173.277C175.084 173.277 174.823 173.341 174.593 173.468C174.367 173.595 174.187 173.782 174.054 174.028C173.924 174.272 173.859 174.566 173.859 174.911ZM182.293 178.909C181.767 178.909 181.297 178.775 180.884 178.506C180.474 178.234 180.151 177.848 179.916 177.347C179.684 176.844 179.568 176.24 179.568 175.535C179.568 174.83 179.686 174.228 179.92 173.727C180.158 173.226 180.483 172.843 180.897 172.577C181.31 172.311 181.778 172.178 182.301 172.178C182.706 172.178 183.031 172.246 183.277 172.382C183.526 172.515 183.719 172.67 183.855 172.848C183.993 173.027 184.101 173.184 184.177 173.32H184.254V170.09H185.523V178.782H184.283V177.767H184.177C184.101 177.906 183.99 178.064 183.846 178.243C183.705 178.421 183.509 178.577 183.26 178.71C183.011 178.843 182.689 178.909 182.293 178.909ZM182.573 177.827C182.938 177.827 183.246 177.731 183.498 177.538C183.753 177.343 183.945 177.073 184.075 176.728C184.208 176.382 184.275 175.981 184.275 175.522C184.275 175.07 184.21 174.673 184.08 174.334C183.949 173.994 183.758 173.73 183.507 173.54C183.255 173.351 182.944 173.256 182.573 173.256C182.191 173.256 181.873 173.355 181.618 173.553C181.363 173.751 181.171 174.021 181.041 174.364C180.913 174.706 180.85 175.092 180.85 175.522C180.85 175.958 180.915 176.35 181.045 176.698C181.175 177.046 181.368 177.322 181.622 177.525C181.88 177.726 182.197 177.827 182.573 177.827ZM187.453 178.782V172.263H188.68V173.298H188.748C188.867 172.948 189.076 172.672 189.376 172.471C189.679 172.267 190.021 172.165 190.403 172.165C190.482 172.165 190.576 172.168 190.683 172.174C190.793 172.179 190.88 172.186 190.942 172.195V173.409C190.891 173.395 190.8 173.379 190.67 173.362C190.54 173.342 190.41 173.332 190.28 173.332C189.98 173.332 189.713 173.396 189.478 173.523C189.246 173.648 189.062 173.822 188.926 174.045C188.79 174.266 188.722 174.518 188.722 174.801V178.782H187.453ZM194.736 178.913C194.093 178.913 193.54 178.776 193.076 178.502C192.615 178.224 192.259 177.835 192.007 177.334C191.758 176.831 191.633 176.241 191.633 175.565C191.633 174.897 191.758 174.308 192.007 173.799C192.259 173.29 192.609 172.892 193.059 172.607C193.512 172.321 194.041 172.178 194.647 172.178C195.014 172.178 195.371 172.239 195.716 172.36C196.061 172.482 196.371 172.673 196.646 172.933C196.92 173.194 197.137 173.532 197.295 173.948C197.453 174.361 197.533 174.863 197.533 175.454V175.904H192.351V174.954H196.289C196.289 174.62 196.221 174.324 196.085 174.067C195.95 173.806 195.759 173.601 195.512 173.451C195.269 173.301 194.983 173.226 194.655 173.226C194.299 173.226 193.987 173.314 193.721 173.489C193.458 173.662 193.255 173.888 193.11 174.168C192.969 174.446 192.898 174.747 192.898 175.072V175.815C192.898 176.251 192.974 176.621 193.127 176.927C193.283 177.233 193.499 177.466 193.777 177.627C194.054 177.786 194.378 177.865 194.748 177.865C194.989 177.865 195.208 177.831 195.406 177.763C195.604 177.692 195.776 177.588 195.92 177.449C196.064 177.31 196.175 177.139 196.251 176.936L197.452 177.152C197.356 177.506 197.183 177.815 196.934 178.081C196.688 178.345 196.378 178.55 196.005 178.697C195.634 178.841 195.211 178.913 194.736 178.913ZM199.06 178.782V172.263H200.329V178.782H199.06ZM199.701 171.257C199.48 171.257 199.291 171.183 199.132 171.036C198.977 170.886 198.899 170.708 198.899 170.501C198.899 170.292 198.977 170.114 199.132 169.967C199.291 169.817 199.48 169.742 199.701 169.742C199.922 169.742 200.11 169.817 200.265 169.967C200.424 170.114 200.503 170.292 200.503 170.501C200.503 170.708 200.424 170.886 200.265 171.036C200.11 171.183 199.922 171.257 199.701 171.257ZM205.54 178.782V170.09H208.638C209.312 170.09 209.871 170.206 210.315 170.438C210.762 170.67 211.096 170.991 211.316 171.401C211.537 171.809 211.647 172.28 211.647 172.815C211.647 173.346 211.536 173.815 211.312 174.219C211.091 174.621 210.758 174.934 210.31 175.157C209.866 175.381 209.307 175.493 208.634 175.493H206.287V174.364H208.515C208.94 174.364 209.285 174.303 209.551 174.181C209.82 174.059 210.016 173.883 210.141 173.651C210.265 173.419 210.327 173.14 210.327 172.815C210.327 172.486 210.264 172.202 210.136 171.961C210.012 171.721 209.815 171.537 209.547 171.41C209.281 171.28 208.931 171.215 208.498 171.215H206.852V178.782H205.54ZM209.831 174.86L211.978 178.782H210.484L208.379 174.86H209.831ZM215.158 178.926C214.745 178.926 214.371 178.85 214.037 178.697C213.704 178.541 213.439 178.316 213.244 178.022C213.051 177.728 212.955 177.367 212.955 176.94C212.955 176.572 213.026 176.269 213.167 176.032C213.309 175.794 213.5 175.606 213.74 175.467C213.981 175.328 214.25 175.224 214.547 175.153C214.844 175.082 215.147 175.029 215.455 174.992C215.845 174.946 216.162 174.91 216.406 174.881C216.649 174.85 216.826 174.801 216.936 174.733C217.047 174.665 217.102 174.555 217.102 174.402V174.372C217.102 174.001 216.997 173.714 216.788 173.511C216.581 173.307 216.273 173.205 215.862 173.205C215.435 173.205 215.098 173.3 214.852 173.489C214.609 173.676 214.441 173.884 214.347 174.113L213.155 173.842C213.296 173.445 213.503 173.126 213.774 172.882C214.049 172.636 214.364 172.458 214.721 172.348C215.077 172.235 215.452 172.178 215.845 172.178C216.106 172.178 216.382 172.209 216.673 172.271C216.967 172.331 217.242 172.441 217.496 172.602C217.754 172.764 217.965 172.994 218.129 173.294C218.293 173.591 218.375 173.977 218.375 174.453V178.782H217.136V177.89H217.085C217.003 178.055 216.88 178.216 216.716 178.374C216.551 178.533 216.341 178.664 216.083 178.769C215.826 178.874 215.517 178.926 215.158 178.926ZM215.434 177.907C215.785 177.907 216.085 177.838 216.334 177.699C216.585 177.561 216.776 177.38 216.906 177.156C217.039 176.93 217.106 176.688 217.106 176.431V175.59C217.061 175.635 216.973 175.678 216.843 175.717C216.716 175.754 216.57 175.787 216.406 175.815C216.242 175.841 216.082 175.865 215.926 175.887C215.77 175.907 215.64 175.924 215.536 175.938C215.289 175.969 215.065 176.022 214.861 176.095C214.66 176.169 214.499 176.275 214.377 176.414C214.258 176.549 214.199 176.73 214.199 176.957C214.199 177.271 214.315 177.509 214.547 177.67C214.779 177.828 215.074 177.907 215.434 177.907ZM220.049 178.782V177.912L223.58 173.426V173.366H220.163V172.263H225.163V173.188L221.768 177.619V177.678H225.282V178.782H220.049ZM232.475 172.263L230.111 178.782H228.753L226.385 172.263H227.747L229.398 177.279H229.466L231.113 172.263H232.475ZM235.498 178.926C235.085 178.926 234.711 178.85 234.377 178.697C234.043 178.541 233.779 178.316 233.584 178.022C233.391 177.728 233.295 177.367 233.295 176.94C233.295 176.572 233.366 176.269 233.507 176.032C233.649 175.794 233.84 175.606 234.08 175.467C234.321 175.328 234.589 175.224 234.887 175.153C235.184 175.082 235.486 175.029 235.795 174.992C236.185 174.946 236.502 174.91 236.745 174.881C236.989 174.85 237.166 174.801 237.276 174.733C237.386 174.665 237.441 174.555 237.441 174.402V174.372C237.441 174.001 237.337 173.714 237.127 173.511C236.921 173.307 236.612 173.205 236.202 173.205C235.775 173.205 235.438 173.3 235.192 173.489C234.949 173.676 234.78 173.884 234.687 174.113L233.494 173.842C233.636 173.445 233.842 173.126 234.114 172.882C234.389 172.636 234.704 172.458 235.061 172.348C235.417 172.235 235.792 172.178 236.185 172.178C236.446 172.178 236.721 172.209 237.013 172.271C237.307 172.331 237.582 172.441 237.836 172.602C238.094 172.764 238.304 172.994 238.469 173.294C238.633 173.591 238.715 173.977 238.715 174.453V178.782H237.475V177.89H237.425C237.342 178.055 237.219 178.216 237.055 178.374C236.891 178.533 236.68 178.664 236.423 178.769C236.165 178.874 235.857 178.926 235.498 178.926ZM235.774 177.907C236.124 177.907 236.424 177.838 236.673 177.699C236.925 177.561 237.116 177.38 237.246 177.156C237.379 176.93 237.446 176.688 237.446 176.431V175.59C237.4 175.635 237.313 175.678 237.183 175.717C237.055 175.754 236.91 175.787 236.745 175.815C236.581 175.841 236.421 175.865 236.266 175.887C236.11 175.907 235.98 175.924 235.875 175.938C235.629 175.969 235.404 176.022 235.201 176.095C235 176.169 234.838 176.275 234.717 176.414C234.598 176.549 234.539 176.73 234.539 176.957C234.539 177.271 234.655 177.509 234.887 177.67C235.119 177.828 235.414 177.907 235.774 177.907ZM241.793 174.911V178.782H240.524V172.263H241.743V173.324H241.823C241.973 172.979 242.208 172.701 242.528 172.492C242.85 172.283 243.256 172.178 243.746 172.178C244.19 172.178 244.579 172.271 244.913 172.458C245.247 172.642 245.506 172.916 245.69 173.281C245.873 173.646 245.965 174.098 245.965 174.635V178.782H244.696V174.788C244.696 174.316 244.573 173.946 244.327 173.68C244.081 173.412 243.743 173.277 243.313 173.277C243.019 173.277 242.757 173.341 242.528 173.468C242.301 173.595 242.122 173.782 241.989 174.028C241.859 174.272 241.793 174.566 241.793 174.911Z" fill="#333333"/>
<path d="M13.6592 197.44H398.665" stroke="#333333" stroke-width="0.853671"/>
<path d="M25.272 215.282C25.238 214.965 25.095 214.717 24.8427 214.54C24.5929 214.363 24.268 214.275 23.8678 214.275C23.5865 214.275 23.3452 214.317 23.1439 214.402C22.9426 214.487 22.7886 214.602 22.6819 214.748C22.5752 214.893 22.5206 215.059 22.5182 215.246C22.5182 215.401 22.5533 215.536 22.6237 215.65C22.6964 215.764 22.7946 215.861 22.9183 215.941C23.042 216.018 23.179 216.084 23.3294 216.137C23.4798 216.191 23.6313 216.236 23.7841 216.272L24.4826 216.447C24.7639 216.512 25.0343 216.601 25.2938 216.712C25.5557 216.824 25.7898 216.964 25.9959 217.134C26.2045 217.304 26.3694 217.509 26.4907 217.749C26.6119 217.989 26.6725 218.27 26.6725 218.593C26.6725 219.029 26.561 219.414 26.3379 219.746C26.1147 220.076 25.7922 220.334 25.3702 220.521C24.9507 220.705 24.4426 220.797 23.846 220.797C23.2663 220.797 22.7631 220.708 22.3363 220.528C21.9119 220.349 21.5796 220.087 21.3395 219.742C21.1019 219.398 20.9733 218.978 20.9539 218.484H22.2817C22.3011 218.743 22.3812 218.959 22.5218 219.131C22.6625 219.303 22.8456 219.432 23.0711 219.517C23.2991 219.602 23.5537 219.644 23.8351 219.644C24.1285 219.644 24.3856 219.601 24.6063 219.513C24.8294 219.423 25.004 219.3 25.1301 219.142C25.2562 218.982 25.3205 218.795 25.3229 218.582C25.3205 218.388 25.2635 218.228 25.1519 218.102C25.0404 217.973 24.884 217.866 24.6827 217.782C24.4838 217.694 24.251 217.617 23.9842 217.549L23.1366 217.331C22.523 217.173 22.038 216.934 21.6815 216.614C21.3274 216.291 21.1504 215.863 21.1504 215.33C21.1504 214.891 21.2692 214.506 21.5069 214.177C21.747 213.847 22.0732 213.591 22.4854 213.409C22.8977 213.225 23.3646 213.132 23.886 213.132C24.4147 213.132 24.8779 213.225 25.2756 213.409C25.6758 213.591 25.9898 213.844 26.2178 214.169C26.4458 214.492 26.5634 214.863 26.5707 215.282H25.272ZM27.6508 214.366V213.234H33.595V214.366H31.2922V220.685H29.9535V214.366H27.6508ZM34.8997 220.685H33.4591L36.082 213.234H37.7481L40.3746 220.685H38.934L36.9441 214.762H36.8859L34.8997 220.685ZM34.947 217.763H38.8758V218.847H34.947V217.763ZM40.2306 214.366V213.234H46.1747V214.366H43.872V220.685H42.5333V214.366H40.2306ZM52.1195 213.234H53.4691V218.102C53.4691 218.635 53.343 219.105 53.0908 219.51C52.841 219.915 52.4893 220.231 52.0358 220.459C51.5823 220.685 51.0524 220.797 50.4461 220.797C49.8374 220.797 49.3062 220.685 48.8527 220.459C48.3992 220.231 48.0476 219.915 47.7978 219.51C47.548 219.105 47.4231 218.635 47.4231 218.102V213.234H48.7727V217.989C48.7727 218.299 48.8406 218.576 48.9764 218.818C49.1146 219.061 49.3087 219.251 49.5585 219.39C49.8083 219.525 50.1041 219.593 50.4461 219.593C50.788 219.593 51.0839 219.525 51.3337 219.39C51.5859 219.251 51.7799 219.061 51.9158 218.818C52.0516 218.576 52.1195 218.299 52.1195 217.989V213.234ZM59.0874 215.282C59.0534 214.965 58.9103 214.717 58.6581 214.54C58.4083 214.363 58.0833 214.275 57.6832 214.275C57.4018 214.275 57.1605 214.317 56.9592 214.402C56.7579 214.487 56.6039 214.602 56.4972 214.748C56.3905 214.893 56.336 215.059 56.3335 215.246C56.3335 215.401 56.3687 215.536 56.439 215.65C56.5118 215.764 56.61 215.861 56.7337 215.941C56.8574 216.018 56.9944 216.084 57.1448 216.137C57.2951 216.191 57.4467 216.236 57.5995 216.272L58.298 216.447C58.5793 216.512 58.8497 216.601 59.1092 216.712C59.3711 216.824 59.6051 216.964 59.8113 217.134C60.0198 217.304 60.1848 217.509 60.306 217.749C60.4273 217.989 60.4879 218.27 60.4879 218.593C60.4879 219.029 60.3763 219.414 60.1532 219.746C59.9301 220.076 59.6076 220.334 59.1856 220.521C58.766 220.705 58.2579 220.797 57.6613 220.797C57.0817 220.797 56.5785 220.708 56.1516 220.528C55.7272 220.349 55.395 220.087 55.1549 219.742C54.9172 219.398 54.7887 218.978 54.7693 218.484H56.0971C56.1165 218.743 56.1965 218.959 56.3372 219.131C56.4778 219.303 56.6609 219.432 56.8865 219.517C57.1145 219.602 57.3691 219.644 57.6504 219.644C57.9439 219.644 58.2009 219.601 58.4216 219.513C58.6448 219.423 58.8194 219.3 58.9455 219.142C59.0716 218.982 59.1359 218.795 59.1383 218.582C59.1359 218.388 59.0789 218.228 58.9673 218.102C58.8557 217.973 58.6993 217.866 58.498 217.782C58.2992 217.694 58.0663 217.617 57.7996 217.549L56.952 217.331C56.3384 217.173 55.8533 216.934 55.4968 216.614C55.1428 216.291 54.9657 215.863 54.9657 215.33C54.9657 214.891 55.0846 214.506 55.3222 214.177C55.5623 213.847 55.8885 213.591 56.3008 213.409C56.7131 213.225 57.1799 213.132 57.7014 213.132C58.23 213.132 58.6933 213.225 59.091 213.409C59.4912 213.591 59.8052 213.844 60.0332 214.169C60.2612 214.492 60.3788 214.863 60.386 215.282H59.0874Z" fill="#256DF4"/>
<path d="M126.697 220.685H123.884V211.993H126.787C127.638 211.993 128.37 212.167 128.981 212.515C129.592 212.86 130.06 213.356 130.386 214.004C130.714 214.649 130.878 215.423 130.878 216.326C130.878 217.231 130.712 218.009 130.381 218.66C130.053 219.311 129.578 219.812 128.955 220.163C128.333 220.511 127.58 220.685 126.697 220.685ZM125.195 219.539H126.625C127.287 219.539 127.838 219.414 128.276 219.165C128.715 218.913 129.043 218.55 129.261 218.074C129.479 217.596 129.588 217.013 129.588 216.326C129.588 215.644 129.479 215.065 129.261 214.59C129.046 214.115 128.725 213.754 128.297 213.508C127.87 213.262 127.34 213.139 126.706 213.139H125.195V219.539ZM135.272 220.816C134.661 220.816 134.128 220.676 133.672 220.396C133.217 220.116 132.863 219.724 132.611 219.22C132.359 218.717 132.234 218.128 132.234 217.455C132.234 216.779 132.359 216.187 132.611 215.681C132.863 215.174 133.217 214.781 133.672 214.501C134.128 214.221 134.661 214.081 135.272 214.081C135.883 214.081 136.417 214.221 136.872 214.501C137.328 214.781 137.682 215.174 137.933 215.681C138.185 216.187 138.311 216.779 138.311 217.455C138.311 218.128 138.185 218.717 137.933 219.22C137.682 219.724 137.328 220.116 136.872 220.396C136.417 220.676 135.883 220.816 135.272 220.816ZM135.277 219.751C135.673 219.751 136.001 219.646 136.261 219.437C136.521 219.227 136.714 218.949 136.838 218.601C136.966 218.253 137.029 217.869 137.029 217.451C137.029 217.035 136.966 216.653 136.838 216.305C136.714 215.954 136.521 215.672 136.261 215.46C136.001 215.248 135.673 215.142 135.277 215.142C134.878 215.142 134.547 215.248 134.283 215.46C134.023 215.672 133.829 215.954 133.702 216.305C133.577 216.653 133.515 217.035 133.515 217.451C133.515 217.869 133.577 218.253 133.702 218.601C133.829 218.949 134.023 219.227 134.283 219.437C134.547 219.646 134.878 219.751 135.277 219.751ZM141.116 216.814V220.685H139.847V214.166H141.065V215.227H141.146C141.296 214.881 141.531 214.604 141.85 214.395C142.173 214.185 142.579 214.081 143.068 214.081C143.513 214.081 143.902 214.174 144.235 214.361C144.569 214.545 144.828 214.819 145.012 215.184C145.196 215.549 145.288 216 145.288 216.538V220.685H144.019V216.691C144.019 216.218 143.896 215.849 143.65 215.583C143.404 215.314 143.066 215.18 142.635 215.18C142.341 215.18 142.079 215.244 141.85 215.371C141.624 215.498 141.444 215.685 141.311 215.931C141.181 216.175 141.116 216.469 141.116 216.814ZM149.919 220.816C149.277 220.816 148.724 220.679 148.26 220.404C147.798 220.127 147.442 219.738 147.19 219.237C146.941 218.734 146.817 218.144 146.817 217.468C146.817 216.8 146.941 216.211 147.19 215.702C147.442 215.193 147.793 214.795 148.243 214.509C148.695 214.224 149.224 214.081 149.83 214.081C150.198 214.081 150.554 214.142 150.899 214.263C151.245 214.385 151.554 214.576 151.829 214.836C152.103 215.097 152.32 215.435 152.478 215.851C152.637 216.264 152.716 216.766 152.716 217.357V217.807H147.534V216.856H151.472C151.472 216.523 151.404 216.227 151.269 215.969C151.133 215.709 150.942 215.504 150.696 215.354C150.452 215.204 150.167 215.129 149.838 215.129C149.482 215.129 149.171 215.217 148.905 215.392C148.642 215.565 148.438 215.791 148.293 216.071C148.152 216.349 148.081 216.65 148.081 216.975V217.718C148.081 218.154 148.158 218.524 148.31 218.83C148.466 219.135 148.683 219.369 148.96 219.53C149.237 219.689 149.561 219.768 149.932 219.768C150.172 219.768 150.392 219.734 150.59 219.666C150.788 219.595 150.959 219.491 151.103 219.352C151.247 219.213 151.358 219.042 151.434 218.838L152.635 219.055C152.539 219.409 152.366 219.718 152.117 219.984C151.871 220.247 151.561 220.453 151.188 220.6C150.817 220.744 150.394 220.816 149.919 220.816Z" fill="#333333"/>
<rect x="0.426835" y="0.426835" width="411.469" height="245.319" rx="2.98785" stroke="#333333" stroke-width="0.853671"/>
<rect x="426" width="314.151" height="368.786" fill="#EAF4FD"/>
<rect x="754" width="641" height="369" fill="#73B5E7"/>
<rect x="754" y="380" width="641" height="369" fill="#E5EAEE"/>
<path d="M462.31 249.845V222.005H462.598L468.214 249.845H483.814L489.478 222.005H489.766V249.845H499.846V212.405H482.134L476.47 240.245H476.086L470.47 212.405H452.23V249.845H462.31ZM541.836 233.957H531.276C531.372 241.445 530.508 242.261 522.828 242.261C515.1 242.261 514.236 241.157 514.236 231.125C514.236 221.093 515.1 219.989 522.828 219.989C530.508 219.989 531.372 220.805 531.276 228.197H541.836C541.932 215.093 538.14 211.829 522.828 211.829C507.516 211.829 503.676 215.669 503.676 231.125C503.676 246.581 507.516 250.421 522.828 250.421C538.14 250.421 541.932 247.109 541.836 233.957ZM545.699 249.845H555.779V235.061H570.179V249.845H580.259V212.405H570.179V226.421H555.779V212.405H545.699V249.845ZM603.554 219.989C611.57 219.989 612.434 221.093 612.434 231.125C612.434 241.157 611.57 242.261 603.554 242.261C595.538 242.261 594.674 241.157 594.674 231.125C594.674 221.093 595.538 219.989 603.554 219.989ZM584.114 231.125C584.114 246.581 588.002 250.421 603.554 250.421C619.106 250.421 622.994 246.581 622.994 231.125C622.994 215.669 619.106 211.829 603.554 211.829C588.002 211.829 584.114 215.669 584.114 231.125ZM636.919 249.845V222.005H637.207L642.823 249.845H658.423L664.087 222.005H664.375V249.845H674.455V212.405H656.743L651.079 240.245H650.695L645.079 212.405H626.839V249.845H636.919ZM679.246 212.405V249.845H710.062V241.205H689.326V234.965H708.046V226.805H689.326V221.045H709.966V212.405H679.246Z" fill="#231F20"/>
<path d="M627.579 134.452H621.264V153.459L621.324 153.412L629.813 146.728V134.452H627.579Z" fill="#231F20"/>
<path d="M614.951 134.452H621.262V153.459L621.201 153.412L612.713 146.728V134.452H614.951Z" fill="#0262AB"/>
<path d="M526.356 137.487H520.045V156.494L520.106 156.446L528.598 149.763V137.487H526.356Z" fill="#231F20"/>
<path d="M513.732 137.487H520.048V156.494L519.987 156.446L511.494 149.763V137.487H513.732Z" fill="#0262AB"/>
<path d="M658.746 144.841V200.889L571.766 145.235L658.746 144.841Z" fill="#231F20" stroke="#231F20" stroke-width="5" stroke-miterlimit="10"/>
<path d="M443.679 188.937V105.173H658.727V144.637" stroke="#231F20" stroke-width="5" stroke-miterlimit="10"/>
<path d="M551.634 164.32L533.497 182.821L489.539 146.992L533.497 147.118L551.634 164.32Z" fill="#231F20" stroke="#231F20" stroke-width="5" stroke-miterlimit="10"/>
<path d="M569.917 144.841L551.633 164.32" stroke="#231F20" stroke-width="5" stroke-miterlimit="10"/>
<path d="M487.238 146.707L443.865 188.392L443.506 188.716" stroke="#231F20" stroke-width="5" stroke-miterlimit="10"/>
<path d="M443.696 188.937V262.507H502.333" stroke="black" stroke-width="5" stroke-miterlimit="10"/>
<path d="M487.428 166.233H479.16V174.116H487.428V166.233Z" fill="#010101"/>
<path d="M496.574 166.233H488.307V174.116H496.574V166.233Z" fill="#010101"/>
<path d="M496.574 174.994H488.307V182.877H496.574V174.994Z" fill="#010101"/>
<path d="M487.428 174.994H479.16V182.877H487.428V174.994Z" fill="#010101"/>
<path d="M570.83 166.675H562.562V174.557H570.83V166.675Z" fill="#010101"/>
<path d="M579.977 166.675H571.709V174.557H579.977V166.675Z" fill="#010101"/>
<path d="M579.977 175.436H571.709V183.319H579.977V175.436Z" fill="#010101"/>
<path d="M570.83 175.436H562.562V183.319H570.83V175.436Z" fill="#010101"/>
<path d="M662.438 202.057L662.2 102.173L440 102V265.914H513.276" stroke="#0262AB" stroke-width="3" stroke-miterlimit="10"/>
<path d="M486.486 145.901L486.434 146.962L487.819 147.65L488.481 147.07L486.486 145.901Z" fill="#231F20"/>
<path d="M828.746 573.485L901.702 502.364H945.684V485.535H975.73V501.068H985.287L1016.18 531.722L1046.72 497.75L1123.47 497.339V479.997H1153.51V497.339H1202.16V428.225H828.746V573.485Z" fill="#0262AB"/>
<path d="M866.82 679.21V630.055H867.329L877.244 679.21H904.788L914.789 630.055H915.297V679.21H933.095V613.105H901.822L891.821 662.26H891.143L881.228 613.105H849.023V679.21H866.82ZM1007.23 651.158H988.589C988.758 664.379 987.233 665.819 973.673 665.819C960.028 665.819 958.502 663.87 958.502 646.157C958.502 628.445 960.028 626.495 973.673 626.495C987.233 626.495 988.758 627.936 988.589 640.988H1007.23C1007.4 617.851 1000.71 612.088 973.673 612.088C946.637 612.088 939.857 618.868 939.857 646.157C939.857 673.447 946.637 680.227 973.673 680.227C1000.71 680.227 1007.4 674.379 1007.23 651.158ZM1014.05 679.21H1031.85V653.107H1057.28V679.21H1075.07V613.105H1057.28V637.852H1031.85V613.105H1014.05V679.21ZM1116.2 626.495C1130.36 626.495 1131.88 628.445 1131.88 646.157C1131.88 663.87 1130.36 665.819 1116.2 665.819C1102.05 665.819 1100.52 663.87 1100.52 646.157C1100.52 628.445 1102.05 626.495 1116.2 626.495ZM1081.88 646.157C1081.88 673.447 1088.74 680.227 1116.2 680.227C1143.66 680.227 1150.53 673.447 1150.53 646.157C1150.53 618.868 1143.66 612.088 1116.2 612.088C1088.74 612.088 1081.88 618.868 1081.88 646.157ZM1175.11 679.21V630.055H1175.62L1185.54 679.21H1213.08L1223.08 630.055H1223.59V679.21H1241.39V613.105H1210.12L1200.12 662.26H1199.44L1189.52 613.105H1157.32V679.21H1175.11ZM1249.85 613.105V679.21H1304.26V663.955H1267.64V652.937H1300.7V638.53H1267.64V628.36H1304.09V613.105H1249.85Z" fill="#231F20"/>
<path d="M1204.32 496.269V594.741L1051.5 496.961L1204.32 496.269Z" fill="#231F20" stroke="#231F20" stroke-width="5" stroke-miterlimit="10"/>
<path d="M826.465 573.743V426.574H1204.29V495.911" stroke="#231F20" stroke-width="5.5" stroke-miterlimit="10"/>
<path d="M1016.13 530.494L984.264 562.998L907.033 500.05L984.264 500.27L1016.13 530.494Z" fill="#231F20" stroke="#231F20" stroke-width="5" stroke-miterlimit="10"/>
<path d="M1048.26 496.269L1016.13 530.492" stroke="#231F20" stroke-width="5" stroke-miterlimit="10"/>
<path d="M903.977 499.547L826.791 572.785L826.16 573.356" stroke="#231F20" stroke-width="5" stroke-miterlimit="10"/>
<path d="M826.494 573.743V703.002H929.515" stroke="black" stroke-width="5" stroke-miterlimit="10"/>
<path d="M903.333 533.854H888.807V547.703H903.333V533.854Z" fill="#010101"/>
<path d="M919.401 533.854H904.875V547.703H919.401V533.854Z" fill="#010101"/>
<path d="M919.401 549.247H904.875V563.096H919.401V549.247Z" fill="#010101"/>
<path d="M903.333 549.247H888.807V563.096H903.333V549.247Z" fill="#010101"/>
<path d="M1049.86 534.63H1035.34V548.479H1049.86V534.63Z" fill="#010101"/>
<path d="M1065.93 534.63H1051.4V548.479H1065.93V534.63Z" fill="#010101"/>
<path d="M1065.93 550.023H1051.4V563.873H1065.93V550.023Z" fill="#010101"/>
<path d="M1049.86 550.023H1035.34V563.873H1049.86V550.023Z" fill="#010101"/>
<path d="M1210.81 596.795L1210.39 421.304L820 421V708.988H948.742" stroke="#0262AB" stroke-width="3" stroke-miterlimit="10"/>
<path d="M971.725 483.349H960.637V516.743L960.743 516.66L975.665 504.917V483.349H971.725Z" fill="#333333"/>
<path d="M1127.38 478.016H1138.47V511.41L1138.36 511.327L1123.45 499.584V478.016H1127.38Z" fill="#4E87AA"/>
<path d="M901.727 499.547H946.407" stroke="#231F20" stroke-miterlimit="10"/>
<path d="M1149.57 478.016H1138.47V511.41L1138.58 511.327L1153.49 499.584V478.016H1149.57Z" fill="#333333"/>
<path d="M949.539 483.349H960.635V516.743L960.529 516.66L945.607 504.917V483.349H949.539Z" fill="#4E87AA"/>
<path d="M920.822 239.918C917.896 246.308 913.066 251.852 906.862 255.943C900.657 260.034 893.316 262.514 885.645 263.111V291.049C885.645 291.216 921.629 270.32 933.171 247.211" fill="#3D3D3D"/>
<path d="M843.314 239.918C846.238 246.305 851.064 251.847 857.264 255.938C863.465 260.029 870.8 262.51 878.468 263.111V291.049C878.468 291.216 842.484 270.32 830.934 247.211" fill="#3D3D3D"/>
<path d="M933.659 243.474L882.137 210.053L825.116 246.724H813L882.137 201L908.387 217.749V214.583H916.966V223.636L951.787 246.724H938.662L933.659 243.474Z" fill="url(#paint0_linear_97_14633)"/>
<path d="M877.453 250.969L877.391 239.195L887.599 239.153L887.661 250.92L877.453 250.969Z" fill="url(#paint1_linear_97_14633)"/>
<path d="M882.456 240.837C887.815 240.837 892.16 236.939 892.16 232.132C892.16 227.324 887.815 223.427 882.456 223.427C877.097 223.427 872.752 227.324 872.752 232.132C872.752 236.939 877.097 240.837 882.456 240.837Z" fill="url(#paint2_linear_97_14633)"/>
<path d="M974.943 270.156V233.036H975.327L982.815 270.156H1003.61L1011.17 233.036H1011.55V270.156H1024.99V220.236H1001.37L993.823 257.356H993.311L985.823 220.236H961.503V270.156H974.943ZM1080.98 248.972H1066.9C1067.03 258.956 1065.87 260.044 1055.63 260.044C1045.33 260.044 1044.18 258.572 1044.18 245.196C1044.18 231.82 1045.33 230.348 1055.63 230.348C1065.87 230.348 1067.03 231.436 1066.9 241.292H1080.98C1081.11 223.82 1076.05 219.468 1055.63 219.468C1035.22 219.468 1030.1 224.588 1030.1 245.196C1030.1 265.804 1035.22 270.924 1055.63 270.924C1076.05 270.924 1081.11 266.508 1080.98 248.972ZM1086.13 270.156H1099.57V250.444H1118.77V270.156H1132.21V220.236H1118.77V238.924H1099.57V220.236H1086.13V270.156ZM1163.27 230.348C1173.96 230.348 1175.11 231.82 1175.11 245.196C1175.11 258.572 1173.96 260.044 1163.27 260.044C1152.58 260.044 1151.43 258.572 1151.43 245.196C1151.43 231.82 1152.58 230.348 1163.27 230.348ZM1137.35 245.196C1137.35 265.804 1142.53 270.924 1163.27 270.924C1184 270.924 1189.19 265.804 1189.19 245.196C1189.19 224.588 1184 219.468 1163.27 219.468C1142.53 219.468 1137.35 224.588 1137.35 245.196ZM1207.76 270.156V233.036H1208.14L1215.63 270.156H1236.43L1243.98 233.036H1244.36V270.156H1257.8V220.236H1234.19L1226.64 257.356H1226.12L1218.64 220.236H1194.32V270.156H1207.76ZM1264.19 220.236V270.156H1305.28V258.636H1277.63V250.316H1302.59V239.436H1277.63V231.756H1305.15V220.236H1264.19Z" fill="#231F20"/>
<path d="M885.265 72L840 89.0318V125.222C840 125.222 841.363 144.595 885.265 162.05C929.192 144.583 930.555 125.222 930.555 125.222V89.0318L885.265 72Z" fill="white" stroke="black" stroke-width="6" stroke-miterlimit="10"/>
<path d="M885.265 79.9497V154.085C849.097 139.724 848.162 123.76 848.162 123.76V93.9734L885.265 79.9497Z" fill="#FAA93D" stroke="#FAA93E" stroke-miterlimit="10"/>
<path d="M922.391 93.973V123.775C922.391 123.775 921.456 139.728 885.283 154.101V79.9648L922.391 93.973Z" fill="#E78C24" stroke="#E78C24" stroke-miterlimit="10"/>
<path d="M866.164 114.739C866.975 102.706 884.449 101.425 884.449 101.425V114.739H866.164Z" fill="white"/>
<path d="M904.664 114.739C903.853 102.706 886.379 101.425 886.379 101.425V114.739H904.664Z" fill="white"/>
<path d="M884.449 116.392H866.164V127.093H884.449V116.392Z" fill="white"/>
<path d="M904.639 116.392H886.354V127.093H904.639V116.392Z" fill="white"/>
<path d="M963.212 141.628V104.508H963.596L971.084 141.628H991.884L999.436 104.508H999.82V141.628H1013.26V91.7084H989.644L982.092 128.828H981.58L974.092 91.7084H949.772V141.628H963.212ZM1069.25 120.444H1055.17C1055.3 130.428 1054.14 131.516 1043.9 131.516C1033.6 131.516 1032.45 130.044 1032.45 116.668C1032.45 103.292 1033.6 101.82 1043.9 101.82C1054.14 101.82 1055.3 102.908 1055.17 112.764H1069.25C1069.38 95.2924 1064.32 90.9404 1043.9 90.9404C1023.49 90.9404 1018.37 96.0604 1018.37 116.668C1018.37 137.276 1023.49 142.396 1043.9 142.396C1064.32 142.396 1069.38 137.98 1069.25 120.444ZM1074.4 141.628H1087.84V121.916H1107.04V141.628H1120.48V91.7084H1107.04V110.396H1087.84V91.7084H1074.4V141.628ZM1151.54 101.82C1162.23 101.82 1163.38 103.292 1163.38 116.668C1163.38 130.044 1162.23 131.516 1151.54 131.516C1140.85 131.516 1139.7 130.044 1139.7 116.668C1139.7 103.292 1140.85 101.82 1151.54 101.82ZM1125.62 116.668C1125.62 137.276 1130.8 142.396 1151.54 142.396C1172.27 142.396 1177.46 137.276 1177.46 116.668C1177.46 96.0604 1172.27 90.9404 1151.54 90.9404C1130.8 90.9404 1125.62 96.0604 1125.62 116.668ZM1196.02 141.628V104.508H1196.41L1203.9 141.628H1224.7L1232.25 104.508H1232.63V141.628H1246.07V91.7084H1222.46L1214.9 128.828H1214.39L1206.9 91.7084H1182.58V141.628H1196.02ZM1252.46 91.7084V141.628H1293.55V130.108H1265.9V121.788H1290.86V110.908H1265.9V103.228H1293.42V91.7084H1252.46Z" fill="#231F20"/>
<defs>
<linearGradient id="paint0_linear_97_14633" x1="813" y1="223.865" x2="951.787" y2="223.865" gradientUnits="userSpaceOnUse">
<stop offset="0.14" stop-color="#E8262A"/>
<stop offset="0.24" stop-color="#DE2529"/>
<stop offset="0.52" stop-color="#C52226"/>
<stop offset="0.79" stop-color="#B62025"/>
<stop offset="1" stop-color="#B11F24"/>
</linearGradient>
<linearGradient id="paint1_linear_97_14633" x1="877.391" y1="245.061" x2="887.661" y2="245.061" gradientUnits="userSpaceOnUse">
<stop offset="0.14" stop-color="#E8262A"/>
<stop offset="0.24" stop-color="#DE2529"/>
<stop offset="0.52" stop-color="#C52226"/>
<stop offset="0.79" stop-color="#B62025"/>
<stop offset="1" stop-color="#B11F24"/>
</linearGradient>
<linearGradient id="paint2_linear_97_14633" x1="872.752" y1="232.132" x2="892.16" y2="232.132" gradientUnits="userSpaceOnUse">
<stop offset="0.14" stop-color="#E8262A"/>
<stop offset="0.24" stop-color="#DE2529"/>
<stop offset="0.52" stop-color="#C52226"/>
<stop offset="0.79" stop-color="#B62025"/>
<stop offset="1" stop-color="#B11F24"/>
</linearGradient>
</defs>
</svg>
