<svg xmlns="http://www.w3.org/2000/svg" viewBox="0 0 1419.58 238.7"><defs><style>.cls-1,.cls-4{fill:#fff;}.cls-1{stroke:#000;stroke-width:6px;}.cls-1,.cls-2,.cls-3{stroke-miterlimit:10;}.cls-2{fill:#faa93d;stroke:#faa93e;}.cls-3{fill:#e78c24;stroke:#e78c24;}.cls-5{font-size:147px;fill:#231f20;font-family:BasementGrotesque-Black, Basement Grotesque;font-weight:800;}</style></defs><title>newtest</title><g id="Layer_2" data-name="Layer 2"><g id="Layer_1-2" data-name="Layer 1"><path class="cls-1" d="M94,3.33,3,47.21v93.24s2.74,49.91,91,94.88c88.31-45,91.05-94.88,91.05-94.88V47.21Z"/><path class="cls-2" d="M94,23.81v191c-72.71-37-74.59-78.13-74.59-78.13V59.94Z"/><path class="cls-3" d="M168.64,59.94v76.78s-1.88,41.1-74.6,78.13v-191Z"/><path class="cls-4" d="M55.6,113.44c1.63-31,36.76-34.3,36.76-34.3v34.3Z"/><path class="cls-4" d="M133,113.44c-1.63-31-36.76-34.3-36.76-34.3v34.3Z"/><rect class="cls-4" x="55.6" y="117.7" width="36.76" height="27.57"/><rect class="cls-4" x="96.19" y="117.7" width="36.76" height="27.57"/><text class="cls-5" transform="translate(217.25 164.83)">MCHOME</text></g></g></svg>