<svg xmlns="http://www.w3.org/2000/svg" viewBox="0 0 816.3 381.67"><defs><style>.cls-1{font-size:116.75px;font-family:BasementGrotesque-Black, Basement Grotesque;font-weight:800;}.cls-1,.cls-2,.cls-4{fill:#231f20;}.cls-3{fill:#0262ab;}.cls-4,.cls-5,.cls-6{stroke:#231f20;}.cls-4,.cls-5,.cls-6,.cls-7,.cls-9{stroke-miterlimit:10;}.cls-4,.cls-5,.cls-6,.cls-7{stroke-width:5px;}.cls-5,.cls-7,.cls-9{fill:none;}.cls-7{stroke:#000;}.cls-8{fill:#010101;}.cls-9{stroke:#0262ab;stroke-width:3px;}</style></defs><title>try7</title><g id="Layer_2" data-name="Layer 2"><g id="Layer_1-2" data-name="Layer 1"><text class="cls-1" transform="translate(24.21 348.91)">MCHOME</text><path class="cls-2" d="M434.84,76.47H420.25v43.91l.14-.11L440,104.83V76.47Z"/><path class="cls-3" d="M405.67,76.47h14.58v43.91l-.14-.11L400.5,104.83V76.47Z"/><path class="cls-2" d="M201,83.48H186.42v43.91l.14-.11,19.62-15.44V83.48Z"/><path class="cls-3" d="M171.83,83.48h14.59v43.91l-.14-.11-19.62-15.44V83.48Z"/><polygon class="cls-4" points="506.84 100.47 506.84 229.95 305.9 101.38 506.84 100.47"/><path class="cls-5" d="M10,202.34V8.83h496.8V100"/><path class="cls-6" d="M259.39,145.47l-41.9,42.74L115.94,105.44l101.55.29Z"/><line class="cls-5" x1="301.63" y1="100.47" x2="259.39" y2="145.47"/><polyline class="cls-5" points="111.92 104.78 10.43 201.08 9.6 201.83"/><polyline class="cls-7" points="10.04 202.34 10.04 372.3 145.5 372.3"/><rect class="cls-8" x="91.97" y="149.89" width="19.1" height="18.21"/><rect class="cls-8" x="113.1" y="149.89" width="19.1" height="18.21"/><rect class="cls-8" x="113.1" y="170.13" width="19.1" height="18.21"/><rect class="cls-8" x="91.97" y="170.13" width="19.1" height="18.21"/><rect class="cls-8" x="284.64" y="150.91" width="19.1" height="18.21"/><rect class="cls-8" x="305.77" y="150.91" width="19.1" height="18.21"/><rect class="cls-8" x="305.77" y="171.15" width="19.1" height="18.21"/><rect class="cls-8" x="284.64" y="171.15" width="19.1" height="18.21"/><polyline class="cls-9" points="515.37 232.65 514.82 1.9 1.5 1.5 1.5 380.17 170.78 380.17"/></g></g></svg>