<svg width="767" height="804" viewBox="0 0 767 804" fill="none" xmlns="http://www.w3.org/2000/svg">
<rect width="767" height="804" fill="#B5F78E"/>
<path d="M253.155 250H315.825L199.337 366.382L311.355 482.765L302.415 541L136.579 366.382L253.155 250Z" fill="#70BEE0"/>
<path d="M244.127 250H306.885L190.397 366.382L302.415 482.765V541L127.639 366.382L244.127 250Z" fill="url(#paint0_linear_71_89)"/>
<path d="M47 366.383H105.288L221.776 482.765H163.488L47 366.383Z" fill="#70BEE0"/>
<path d="M55.9404 366.383H114.228L230.716 482.765H172.429L55.9404 366.383Z" fill="url(#paint1_linear_71_89)"/>
<path d="M343.816 420L319.752 389.792V420H301.832V325.28H319.752V379.168L343.56 349.088H366.856L335.624 384.672L367.112 420H343.816ZM394.502 360.096C396.806 356.341 399.793 353.397 403.462 351.264C407.217 349.131 411.483 348.064 416.262 348.064V366.88H411.526C405.894 366.88 401.627 368.203 398.726 370.848C395.91 373.493 394.502 378.101 394.502 384.672V420H376.582V349.088H394.502V360.096ZM423.724 384.288C423.724 377.12 425.132 370.763 427.948 365.216C430.849 359.669 434.732 355.403 439.596 352.416C444.545 349.429 450.049 347.936 456.108 347.936C461.399 347.936 466.007 349.003 469.932 351.136C473.943 353.269 477.143 355.957 479.532 359.2V349.088H497.58V420H479.532V409.632C477.228 412.96 474.028 415.733 469.932 417.952C465.921 420.085 461.271 421.152 455.98 421.152C450.007 421.152 444.545 419.616 439.596 416.544C434.732 413.472 430.849 409.163 427.948 403.616C425.132 397.984 423.724 391.541 423.724 384.288ZM479.532 384.544C479.532 380.192 478.679 376.48 476.972 373.408C475.265 370.251 472.961 367.861 470.06 366.24C467.159 364.533 464.044 363.68 460.716 363.68C457.388 363.68 454.316 364.491 451.5 366.112C448.684 367.733 446.38 370.123 444.588 373.28C442.881 376.352 442.028 380.021 442.028 384.288C442.028 388.555 442.881 392.309 444.588 395.552C446.38 398.709 448.684 401.141 451.5 402.848C454.401 404.555 457.473 405.408 460.716 405.408C464.044 405.408 467.159 404.597 470.06 402.976C472.961 401.269 475.265 398.88 476.972 395.808C478.679 392.651 479.532 388.896 479.532 384.544ZM582.922 349.088L539.018 453.536H519.946L535.306 418.208L506.89 349.088H526.986L545.29 398.624L563.85 349.088H582.922ZM631.878 348.064C640.326 348.064 647.153 350.752 652.358 356.128C657.563 361.419 660.166 368.843 660.166 378.4V420H642.246V380.832C642.246 375.2 640.838 370.891 638.022 367.904C635.206 364.832 631.366 363.296 626.502 363.296C621.553 363.296 617.627 364.832 614.726 367.904C611.91 370.891 610.502 375.2 610.502 380.832V420H592.582V349.088H610.502V357.92C612.891 354.848 615.921 352.459 619.59 350.752C623.345 348.96 627.441 348.064 631.878 348.064Z" fill="#263238"/>
<defs>
<linearGradient id="paint0_linear_71_89" x1="127.639" y1="395.456" x2="306.885" y2="395.456" gradientUnits="userSpaceOnUse">
<stop stop-color="#0048B2"/>
<stop offset="1" stop-color="#009BFF"/>
</linearGradient>
<linearGradient id="paint1_linear_71_89" x1="55.9404" y1="424.618" x2="230.716" y2="424.618" gradientUnits="userSpaceOnUse">
<stop stop-color="#0048B2"/>
<stop offset="1" stop-color="#009BFF"/>
</linearGradient>
</defs>
</svg>
