<svg xmlns="http://www.w3.org/2000/svg" xmlns:xlink="http://www.w3.org/1999/xlink" viewBox="0 0 228 77.15"><defs><style>.cls-1,.cls-5{fill:#263238;}.cls-2{fill:#70bee0;}.cls-3{fill:url(#linear-gradient);}.cls-4{fill:url(#linear-gradient-2);}.cls-5{font-size:44px;font-family:Poppins-SemiBold, Poppins;font-weight:600;}.cls-6{font-size:38px;}</style><linearGradient id="linear-gradient" x1="25" y1="38" x2="65" y2="38" gradientUnits="userSpaceOnUse"><stop offset="0" stop-color="#0048b2"/><stop offset="1" stop-color="#009bff"/></linearGradient><linearGradient id="linear-gradient-2" x1="9" y1="44.5" x2="48" y2="44.5" xlink:href="#linear-gradient"/></defs><title>krayn6</title><g id="Layer_2" data-name="Layer 2"><g id="Layer_2-2" data-name="Layer 2"><rect class="cls-1" width="76" height="76" rx="12"/><polygon class="cls-2" points="53 5.5 67 5.5 41 31.5 66 57.5 64 70.5 27 31.5 53 5.5"/><polygon class="cls-3" points="51 5.5 65 5.5 39 31.5 64 57.5 64 70.5 25 31.5 51 5.5"/><polygon class="cls-2" points="7 31.5 20 31.5 46 57.5 33 57.5 7 31.5"/><polygon class="cls-4" points="9 31.5 22 31.5 48 57.5 35 57.5 9 31.5"/><text class="cls-5" transform="translate(81.93 51.06)">k<tspan class="cls-6" x="25.7" y="0">rayin</tspan></text></g></g></svg>