<svg xmlns="http://www.w3.org/2000/svg" viewBox="0 0 485.26 156.59"><defs><style>.cls-1{fill:#e41e26;}</style></defs><g id="Layer_2" data-name="Layer 2"><g id="Layer_1-2" data-name="Layer 1"><path class="cls-1" d="M0,116.49V0H18.48L59.56,64.19,100.65,0h18.64V116.49H93.39V52L68.15,91.41H51L25.74,52v64.51Z"/><path class="cls-1" d="M151.8,128.87a13,13,0,0,1,9.82,4,14.39,14.39,0,0,1,0,19.64,13.05,13.05,0,0,1-9.82,4,12.79,12.79,0,0,1-9.74-4,14.62,14.62,0,0,1,0-19.64A12.75,12.75,0,0,1,151.8,128.87Zm12.7-91.25v80.19H139.26V37.62Z"/><path class="cls-1" d="M193.71,116.49V57.75H175.56V36.3h18.15V3.13H219V36.3H237.1V57.75H219v58.74Z"/><path class="cls-1" d="M248.15,116.49V36.3H273.4v6.11q7.92-7.75,20.62-7.76,11.39,0,17.82,7.1l-15,19a11.15,11.15,0,0,0-4-2.8,14.71,14.71,0,0,0-5.7-1,13.19,13.19,0,0,0-10,3.88q-3.71,3.89-3.71,11.64v44.05Z"/><path class="cls-1" d="M355.9,118.31a48.85,48.85,0,0,1-23.19-5.37,40.21,40.21,0,0,1-15.92-14.85A40.85,40.85,0,0,1,311,76.4,40.62,40.62,0,0,1,316.71,55,41.83,41.83,0,0,1,332.14,40a43.68,43.68,0,0,1,21.94-5.52A41.63,41.63,0,0,1,375,39.68a38,38,0,0,1,14.35,14.19,40.6,40.6,0,0,1,5.2,20.71,50.53,50.53,0,0,1-1.16,10.07l-57.42.16a18.72,18.72,0,0,0,7.1,10.4,21.38,21.38,0,0,0,12.7,3.62q12,0,19.14-8.25l13.86,13.87a37.39,37.39,0,0,1-14.35,10.39A48.08,48.08,0,0,1,355.9,118.31Zm-1.65-64.52a18.83,18.83,0,0,0-11.72,3.63,18.51,18.51,0,0,0-6.6,10.07l35-.17Q367.78,53.79,354.25,53.79Z"/><path class="cls-1" d="M438.4,118.14a36.29,36.29,0,0,1-19.72-5.44A38.77,38.77,0,0,1,405,97.85a44.69,44.69,0,0,1-5-21.45A44.82,44.82,0,0,1,405,55,38.57,38.57,0,0,1,418.68,40.1a36.21,36.21,0,0,1,19.72-5.45,33.3,33.3,0,0,1,12.29,2.23,30.88,30.88,0,0,1,9.82,6V36.3h24.75v80.19H460.51v-6.6a28.47,28.47,0,0,1-9.82,6.11A34.77,34.77,0,0,1,438.4,118.14Zm5.12-22.77q8.07,0,13-5.28T461.5,76.4q0-8.41-4.95-13.7a16.83,16.83,0,0,0-12.87-5.28,17.22,17.22,0,0,0-13,5.36,19,19,0,0,0-5.12,13.62q0,8.4,5,13.69A17.12,17.12,0,0,0,443.52,95.37Z"/></g></g></svg>