<svg xmlns="http://www.w3.org/2000/svg" viewBox="0 0 474.53 134.25"><defs><style>.cls-1{fill:#f37c7c;}</style></defs><g id="Layer_2" data-name="Layer 2"><g id="Layer_1-2" data-name="Layer 1"><path class="cls-1" d="M0,100.3V6H29.68v7Q39.77,4.07,55.1,4.08q17.46,0,27.54,12.8Q93.71,4.09,112.71,4.08a40.11,40.11,0,0,1,19.21,4.56,33.88,33.88,0,0,1,13.48,13q4.95,8.45,4.95,20.28V100.3H120.67V45.21q0-7-4.37-11.06a15.17,15.17,0,0,0-10.76-4.08,15.69,15.69,0,0,0-11.16,4.08Q90,38.22,90,45.21V100.3H60.33V45.21q0-7-4.36-11.06A15.18,15.18,0,0,0,45.2,30.07a15.67,15.67,0,0,0-11.15,4.08q-4.36,4.07-4.37,11.06V100.3Z"/><path class="cls-1" d="M177.86,109.72a11.51,11.51,0,0,1,8.69,3.58,12.71,12.71,0,0,1,0,17.37,11.54,11.54,0,0,1-8.69,3.58,11.31,11.31,0,0,1-8.61-3.58,12.9,12.9,0,0,1,0-17.37A11.27,11.27,0,0,1,177.86,109.72ZM189.11,29v71H166.77V29Z"/><path class="cls-1" d="M215,100.3v-52H198.89v-19H215V0h22.33V29.35h16.06v19H237.28v52Z"/><path class="cls-1" d="M263.12,100.3V29.35h22.34v5.4q7-6.87,18.25-6.86,10.08,0,15.77,6.27L306.19,51a9.88,9.88,0,0,0-3.57-2.48,13.25,13.25,0,0,0-5-.87A11.64,11.64,0,0,0,288.75,51c-2.19,2.28-3.29,5.72-3.29,10.29v39Z"/><path class="cls-1" d="M358.46,101.91A43.28,43.28,0,0,1,338,97.16,35.57,35.57,0,0,1,323.86,84a36.12,36.12,0,0,1-5.11-19.2,35.93,35.93,0,0,1,5-19,37.06,37.06,0,0,1,13.65-13.21,38.61,38.61,0,0,1,19.42-4.89,36.68,36.68,0,0,1,18.46,4.6A33.41,33.41,0,0,1,388,44.9a36,36,0,0,1,4.6,18.32,44.65,44.65,0,0,1-1,8.9l-50.8.15a16.54,16.54,0,0,0,6.27,9.2,19,19,0,0,0,11.25,3.21q10.65,0,16.93-7.3l12.27,12.26a33.08,33.08,0,0,1-12.71,9.2A42.4,42.4,0,0,1,358.46,101.91Zm13.29-45.12q-2.78-12-14.75-12A16.63,16.63,0,0,0,346.64,48a16.35,16.35,0,0,0-5.84,8.91"/><path class="cls-1" d="M433.07,101.76a32,32,0,0,1-17.45-4.82A34.3,34.3,0,0,1,403.5,83.8a39.55,39.55,0,0,1-4.45-19,39.7,39.7,0,0,1,4.45-18.9A34.25,34.25,0,0,1,415.62,32.7a32.09,32.09,0,0,1,17.45-4.81,29.41,29.41,0,0,1,10.87,2,27.31,27.31,0,0,1,8.69,5.33V29.35h21.9V100.3h-21.9V94.46a25,25,0,0,1-8.69,5.4A30.44,30.44,0,0,1,433.07,101.76Zm4.52-20.15a15.06,15.06,0,0,0,11.54-4.67q4.38-4.66,4.38-12.12t-4.38-12.11A14.89,14.89,0,0,0,437.74,48a15.28,15.28,0,0,0-11.54,4.75,16.77,16.77,0,0,0-4.52,12q0,7.46,4.45,12.12A15.11,15.11,0,0,0,437.59,81.61Z"/></g></g></svg>