<svg xmlns="http://www.w3.org/2000/svg" viewBox="0 0 487.07 156.59"><defs><style>.cls-1{fill:#d3252b;}</style></defs><g id="Layer_2" data-name="Layer 2"><g id="Layer_1-2" data-name="Layer 1"><path class="cls-1" d="M0,116.49V0H18.48L59.56,64.19,100.65,0h18.64V116.49H93.39V52L68.15,91.41H51L25.74,52v64.51Z"/><path class="cls-1" d="M151.8,128.87a13,13,0,0,1,9.82,4,14.39,14.39,0,0,1,0,19.64,13.05,13.05,0,0,1-9.82,4,12.79,12.79,0,0,1-9.74-4,14.62,14.62,0,0,1,0-19.64A12.75,12.75,0,0,1,151.8,128.87Zm12.7-91.25v80.19H139.26V37.62Z"/><path class="cls-1" d="M193.71,116.49V57.75H175.56V36.3h18.15V3.13H219V36.3H237.1V57.75H219v58.74Z"/><path class="cls-1" d="M248.15,116.49V36.3H273.4v6.11q7.92-7.75,20.62-7.76,11.39,0,17.82,7.1l-15,19a11.15,11.15,0,0,0-4-2.8,14.71,14.71,0,0,0-5.7-1,13.19,13.19,0,0,0-10,3.88q-3.71,3.89-3.71,11.64v44.05Z"/><path class="cls-1" d="M384.61,103.81a48.72,48.72,0,0,1-20.18,12.6,40.22,40.22,0,0,1-21.76.76,40.91,40.91,0,0,1-19.43-11.26A40.6,40.6,0,0,1,312.1,86.72a41.92,41.92,0,0,1,.35-21.47,43.65,43.65,0,0,1,11.61-19.42A41.59,41.59,0,0,1,342.5,34.74a37.88,37.88,0,0,1,20.18-.11,40.63,40.63,0,0,1,18.32,11,50.47,50.47,0,0,1,6.3,7.94L346.81,94.25a18.75,18.75,0,0,0,12.37,2.33,21.41,21.41,0,0,0,11.55-6.42q8.52-8.5,7.7-19.37H398a37.43,37.43,0,0,1-2.8,17.5A47.88,47.88,0,0,1,384.61,103.81ZM337.83,59.36a18.87,18.87,0,0,0-5.72,10.85A18.53,18.53,0,0,0,334.56,82l24.62-24.86Q347.39,49.81,337.83,59.36Z"/><path class="cls-1" d="M440.21,118.14a36.29,36.29,0,0,1-19.72-5.44A38.77,38.77,0,0,1,406.8,97.85a44.69,44.69,0,0,1-5-21.45,44.82,44.82,0,0,1,5-21.37A38.57,38.57,0,0,1,420.49,40.1a36.21,36.21,0,0,1,19.72-5.45,33.3,33.3,0,0,1,12.29,2.23,30.88,30.88,0,0,1,9.82,6V36.3h24.75v80.19H462.32v-6.6A28.47,28.47,0,0,1,452.5,116,34.77,34.77,0,0,1,440.21,118.14Zm5.12-22.77q8.07,0,13-5.28t4.95-13.69q0-8.41-4.95-13.7a16.83,16.83,0,0,0-12.87-5.28,17.22,17.22,0,0,0-13,5.36,18.91,18.91,0,0,0-5.12,13.62q0,8.4,5,13.69A17.12,17.12,0,0,0,445.33,95.37Z"/></g></g></svg>